# vtk DataFile Version 3.0
time 0.29
ASCII
DATASET UNSTRUCTURED_GRID
POINTS 27 float
0 0 0 0.5 0 0 1 0 0 
0 0.5 0 0.5 0.5 0 1 0.5 0 
0 1 0 0.5 1 0 1 1 0 
0 0 0.5 0.5 0 0.5 1 0 0.5 
0 0.5 0.5 0.5 0.5 0.5 1 0.5 0.5 
0 1 0.5 0.5 1 0.5 1 1 0.5 
0 0 1 0.5 0 1 1 0 1 
0 0.5 1 0.5 0.5 1 1 0.5 1 
0 1 1 0.5 1 1 1 1 1 

CELLS 8 72
8 0 1 4 3 9 10 13 12 
8 1 2 5 4 10 11 14 13 
8 3 4 7 6 12 13 16 15 
8 4 5 8 7 13 14 17 16 
8 9 10 13 12 18 19 22 21 
8 10 11 14 13 19 20 23 22 
8 12 13 16 15 21 22 25 24 
8 13 14 17 16 22 23 26 25 

CELL_TYPES 8
12
12
12
12
12
12
12
12

POINT_DATA 27
VECTORS displacement float
0 0 0
-0.0202221 0 0
-0.0404442 0 0
0 -0.0202221 0
-0.0202221 -0.0202221 0
-0.0404442 -0.0202221 0
0 -0.0404442 0
-0.0202221 -0.0404442 0
-0.0404442 -0.0404442 0
0 0 0.0725
-0.0202221 0 0.0725
-0.0404442 0 0.0725
0 -0.0202221 0.0725
-0.0202221 -0.0202221 0.0725
-0.0404442 -0.0202221 0.0725
0 -0.0404442 0.0725
-0.0202221 -0.0404442 0.0725
-0.0404442 -0.0404442 0.0725
0 0 0.145
-0.0202221 0 0.145
-0.0404442 0 0.145
0 -0.0202221 0.145
-0.0202221 -0.0202221 0.145
-0.0404442 -0.0202221 0.145
0 -0.0404442 0.145
-0.0202221 -0.0404442 0.145
-0.0404442 -0.0404442 0.145

CELL_DATA 8
SCALARS part_id int
LOOKUP_TABLE default
0
0
0
0
0
0
0
0
TENSORS stress float
9.55954e-11 7.67211e-13 1.21248e-11
7.67211e-13 9.55955e-11 1.21248e-11
1.21248e-11 1.21248e-11 0.0577995

6.51212e-11 1.30791e-12 3.20659e-11
1.30791e-12 7.91082e-11 1.14302e-11
3.20659e-11 1.14302e-11 0.0577995

7.9108e-11 1.30791e-12 1.14302e-11
1.30791e-12 6.5121e-11 3.20659e-11
1.14302e-11 3.20659e-11 0.0577995

5.54733e-11 2.86683e-12 2.93284e-11
2.86683e-12 5.54733e-11 2.93284e-11
2.93284e-11 2.93284e-11 0.0577995

-9.59708e-11 -7.67225e-13 1.21248e-11
-7.67225e-13 -9.59708e-11 1.21248e-11
1.21248e-11 1.21248e-11 0.0577995

-6.54964e-11 -1.3079e-12 3.20659e-11
-1.3079e-12 -7.94834e-11 1.14303e-11
3.20659e-11 1.14303e-11 0.0577995

-7.94835e-11 -1.3079e-12 1.14302e-11
-1.3079e-12 -6.54964e-11 3.20659e-11
1.14302e-11 3.20659e-11 0.0577995

-5.58485e-11 -2.86679e-12 2.93284e-11
-2.86679e-12 -5.58486e-11 2.93284e-11
2.93284e-11 2.93284e-11 0.0577995

SCALARS damage float
LOOKUP_TABLE default
0.594053
0.594053
0.594053
0.594053
0.594053
0.594053
0.594053
0.594053
