# vtk DataFile Version 3.0
time 0.12
ASCII
DATASET UNSTRUCTURED_GRID
POINTS 27 float
0 0 0 0.5 0 0 1 0 0 
0 0.5 0 0.5 0.5 0 1 0.5 0 
0 1 0 0.5 1 0 1 1 0 
0 0 0.5 0.5 0 0.5 1 0 0.5 
0 0.5 0.5 0.5 0.5 0.5 1 0.5 0.5 
0 1 0.5 0.5 1 0.5 1 1 0.5 
0 0 1 0.5 0 1 1 0 1 
0 0.5 1 0.5 0.5 1 1 0.5 1 
0 1 1 0.5 1 1 1 1 1 

CELLS 8 72
8 0 1 4 3 9 10 13 12 
8 1 2 5 4 10 11 14 13 
8 3 4 7 6 12 13 16 15 
8 4 5 8 7 13 14 17 16 
8 9 10 13 12 18 19 22 21 
8 10 11 14 13 19 20 23 22 
8 12 13 16 15 21 22 25 24 
8 13 14 17 16 22 23 26 25 

CELL_TYPES 8
12
12
12
12
12
12
12
12

POINT_DATA 27
VECTORS displacement float
0 0 0
-0.00872457 0 0
-0.0174491 0 0
0 -0.00872457 0
-0.00872457 -0.00872457 0
-0.0174491 -0.00872457 0
0 -0.0174491 0
-0.00872457 -0.0174491 0
-0.0174491 -0.0174491 0
0 0 0.03
-0.00872457 0 0.03
-0.0174491 0 0.03
0 -0.00872457 0.03
-0.00872457 -0.00872457 0.03
-0.0174491 -0.00872457 0.03
0 -0.0174491 0.03
-0.00872457 -0.0174491 0.03
-0.0174491 -0.0174491 0.03
0 0 0.06
-0.00872457 0 0.06
-0.0174491 0 0.06
0 -0.00872457 0.06
-0.00872457 -0.00872457 0.06
-0.0174491 -0.00872457 0.06
0 -0.0174491 0.06
-0.00872457 -0.0174491 0.06
-0.0174491 -0.0174491 0.06

CELL_DATA 8
SCALARS part_id int
LOOKUP_TABLE default
0
0
0
0
0
0
0
0
TENSORS stress float
2.73648e-10 2.107e-12 3.09187e-11
2.107e-12 2.73648e-10 3.09187e-11
3.09187e-11 3.09187e-11 0.0293728

1.90785e-10 3.51322e-12 7.62928e-11
3.51322e-12 2.27924e-10 2.91269e-11
7.62928e-11 2.91269e-11 0.0293728

2.27924e-10 3.51327e-12 2.91269e-11
3.51327e-12 1.90785e-10 7.62928e-11
2.91269e-11 7.62928e-11 0.0293728

1.63995e-10 8.30152e-12 6.96156e-11
8.30152e-12 1.63995e-10 6.96156e-11
6.96156e-11 6.96156e-11 0.0293728

-2.75028e-10 -2.10699e-12 3.09187e-11
-2.10699e-12 -2.75029e-10 3.09187e-11
3.09187e-11 3.09187e-11 0.0293728

-1.92165e-10 -3.51324e-12 7.62927e-11
-3.51324e-12 -2.29304e-10 2.91269e-11
7.62927e-11 2.91269e-11 0.0293728

-2.29304e-10 -3.51324e-12 2.91269e-11
-3.51324e-12 -1.92165e-10 7.62928e-11
2.91269e-11 7.62928e-11 0.0293728

-1.65375e-10 -8.30151e-12 6.96155e-11
-8.30151e-12 -1.65375e-10 6.96156e-11
6.96155e-11 6.96156e-11 0.0293728

SCALARS damage float
LOOKUP_TABLE default
0.50598
0.50598
0.50598
0.50598
0.50598
0.50598
0.50598
0.50598
