# vtk DataFile Version 3.0
time 0.39
ASCII
DATASET UNSTRUCTURED_GRID
POINTS 27 float
0 0 0 0.5 0 0 1 0 0 
0 0.5 0 0.5 0.5 0 1 0.5 0 
0 1 0 0.5 1 0 1 1 0 
0 0 0.5 0.5 0 0.5 1 0 0.5 
0 0.5 0.5 0.5 0.5 0.5 1 0.5 0.5 
0 1 0.5 0.5 1 0.5 1 1 0.5 
0 0 1 0.5 0 1 1 0 1 
0 0.5 1 0.5 0.5 1 1 0.5 1 
0 1 1 0.5 1 1 1 1 1 

CELLS 8 72
8 0 1 4 3 9 10 13 12 
8 1 2 5 4 10 11 14 13 
8 3 4 7 6 12 13 16 15 
8 4 5 8 7 13 14 17 16 
8 9 10 13 12 18 19 22 21 
8 10 11 14 13 19 20 23 22 
8 12 13 16 15 21 22 25 24 
8 13 14 17 16 22 23 26 25 

CELL_TYPES 8
12
12
12
12
12
12
12
12

POINT_DATA 27
VECTORS displacement float
0 0 0
-0.0265652 0 0
-0.0531303 0 0
0 -0.0265652 0
-0.0265652 -0.0265652 0
-0.0531303 -0.0265652 0
0 -0.0531303 0
-0.0265652 -0.0531303 0
-0.0531303 -0.0531303 0
0 0 0.0975
-0.0265652 0 0.0975
-0.0531303 0 0.0975
0 -0.0265652 0.0975
-0.0265652 -0.0265652 0.0975
-0.0531303 -0.0265652 0.0975
0 -0.0531303 0.0975
-0.0265652 -0.0531303 0.0975
-0.0531303 -0.0531303 0.0975
0 0 0.195
-0.0265652 0 0.195
-0.0531303 0 0.195
0 -0.0265652 0.195
-0.0265652 -0.0265652 0.195
-0.0531303 -0.0265652 0.195
0 -0.0531303 0.195
-0.0265652 -0.0531303 0.195
-0.0531303 -0.0531303 0.195

CELL_DATA 8
SCALARS part_id int
LOOKUP_TABLE default
0
0
0
0
0
0
0
0
TENSORS stress float
6.29857e-11 5.06362e-13 8.29882e-12
5.06362e-13 6.29857e-11 8.29885e-12
8.29882e-12 8.29885e-12 0.074324

4.28757e-11 8.73192e-13 2.26924e-11
8.73192e-13 5.21673e-11 7.8232e-12
2.26924e-11 7.8232e-12 0.074324

5.21672e-11 8.73207e-13 7.82317e-12
8.73207e-13 4.28757e-11 2.26924e-11
7.82317e-12 2.26924e-11 0.074324

3.65512e-11 1.83804e-12 2.077e-11
1.83804e-12 3.65512e-11 2.07701e-11
2.077e-11 2.07701e-11 0.074324

-6.32171e-11 -5.0638e-13 8.29883e-12
-5.0638e-13 -6.32171e-11 8.29884e-12
8.29883e-12 8.29884e-12 0.074324

-4.31071e-11 -8.73183e-13 2.26924e-11
-8.73183e-13 -5.23987e-11 7.82321e-12
2.26924e-11 7.82321e-12 0.074324

-5.23987e-11 -8.73167e-13 7.8232e-12
-8.73167e-13 -4.31071e-11 2.26924e-11
7.8232e-12 2.26924e-11 0.074324

-3.67826e-11 -1.83802e-12 2.07701e-11
-1.83802e-12 -3.67826e-11 2.077e-11
2.07701e-11 2.077e-11 0.074324

SCALARS damage float
LOOKUP_TABLE default
0.610437
0.610437
0.610437
0.610437
0.610437
0.610437
0.610437
0.610437
