# vtk DataFile Version 3.0
time 0.44
ASCII
DATASET UNSTRUCTURED_GRID
POINTS 27 float
0 0 0 0.5 0 0 1 0 0 
0 0.5 0 0.5 0.5 0 1 0.5 0 
0 1 0 0.5 1 0 1 1 0 
0 0 0.5 0.5 0 0.5 1 0 0.5 
0 0.5 0.5 0.5 0.5 0.5 1 0.5 0.5 
0 1 0.5 0.5 1 0.5 1 1 0.5 
0 0 1 0.5 0 1 1 0 1 
0 0.5 1 0.5 0.5 1 1 0.5 1 
0 1 1 0.5 1 1 1 1 1 

CELLS 8 72
8 0 1 4 3 9 10 13 12 
8 1 2 5 4 10 11 14 13 
8 3 4 7 6 12 13 16 15 
8 4 5 8 7 13 14 17 16 
8 9 10 13 12 18 19 22 21 
8 10 11 14 13 19 20 23 22 
8 12 13 16 15 21 22 25 24 
8 13 14 17 16 22 23 26 25 

CELL_TYPES 8
12
12
12
12
12
12
12
12

POINT_DATA 27
VECTORS displacement float
0 0 0
-0.0296303 0 0
-0.0592605 0 0
0 -0.0296303 0
-0.0296303 -0.0296303 0
-0.0592605 -0.0296303 0
0 -0.0592605 0
-0.0296303 -0.0592605 0
-0.0592605 -0.0592605 0
0 0 0.11
-0.0296303 0 0.11
-0.0592605 0 0.11
0 -0.0296303 0.11
-0.0296303 -0.0296303 0.11
-0.0592605 -0.0296303 0.11
0 -0.0592605 0.11
-0.0296303 -0.0592605 0.11
-0.0592605 -0.0592605 0.11
0 0 0.22
-0.0296303 0 0.22
-0.0592605 0 0.22
0 -0.0296303 0.22
-0.0296303 -0.0296303 0.22
-0.0592605 -0.0296303 0.22
0 -0.0592605 0.22
-0.0296303 -0.0592605 0.22
-0.0592605 -0.0592605 0.22

CELL_DATA 8
SCALARS part_id int
LOOKUP_TABLE default
0
0
0
0
0
0
0
0
TENSORS stress float
5.26554e-11 4.23046e-13 7.05645e-12
4.23046e-13 5.26554e-11 7.05644e-12
7.05645e-12 7.05644e-12 0.0825747

3.5864e-11 7.33394e-13 1.95914e-11
7.33394e-13 4.36431e-11 6.65163e-12
1.95914e-11 6.65163e-12 0.0825747

4.36431e-11 7.33382e-13 6.65164e-12
7.33382e-13 3.5864e-11 1.95914e-11
6.65164e-12 1.95914e-11 0.0825747

3.05979e-11 1.51428e-12 1.79371e-11
1.51428e-12 3.05979e-11 1.79372e-11
1.79371e-11 1.79372e-11 0.0825747

-5.28438e-11 -4.23054e-13 7.05644e-12
-4.23054e-13 -5.28438e-11 7.05644e-12
7.05644e-12 7.05644e-12 0.0825747

-3.60524e-11 -7.33371e-13 1.95913e-11
-7.33371e-13 -4.38315e-11 6.65164e-12
1.95913e-11 6.65164e-12 0.0825747

-4.38315e-11 -7.33366e-13 6.65164e-12
-7.33366e-13 -3.60524e-11 1.95913e-11
6.65164e-12 1.95913e-11 0.0825747

-3.07862e-11 -1.51427e-12 1.79371e-11
-1.51427e-12 -3.07861e-11 1.79371e-11
1.79371e-11 1.79371e-11 0.0825747

SCALARS damage float
LOOKUP_TABLE default
0.615845
0.615845
0.615845
0.615845
0.615845
0.615845
0.615845
0.615845
