# vtk DataFile Version 3.0
time 0.07
ASCII
DATASET UNSTRUCTURED_GRID
POINTS 27 float
0 0 0 0.5 0 0 1 0 0 
0 0.5 0 0.5 0.5 0 1 0.5 0 
0 1 0 0.5 1 0 1 1 0 
0 0 0.5 0.5 0 0.5 1 0 0.5 
0 0.5 0.5 0.5 0.5 0.5 1 0.5 0.5 
0 1 0.5 0.5 1 0.5 1 1 0.5 
0 0 1 0.5 0 1 1 0 1 
0 0.5 1 0.5 0.5 1 1 0.5 1 
0 1 1 0.5 1 1 1 1 1 

CELLS 8 72
8 0 1 4 3 9 10 13 12 
8 1 2 5 4 10 11 14 13 
8 3 4 7 6 12 13 16 15 
8 4 5 8 7 13 14 17 16 
8 9 10 13 12 18 19 22 21 
8 10 11 14 13 19 20 23 22 
8 12 13 16 15 21 22 25 24 
8 13 14 17 16 22 23 26 25 

CELL_TYPES 8
12
12
12
12
12
12
12
12

POINT_DATA 27
VECTORS displacement float
0 0 0
-0.00515479 0 0
-0.0103096 0 0
0 -0.00515479 0
-0.00515479 -0.00515479 0
-0.0103096 -0.00515479 0
0 -0.0103096 0
-0.00515479 -0.0103096 0
-0.0103096 -0.0103096 0
0 0 0.0175
-0.00515479 0 0.0175
-0.0103096 0 0.0175
0 -0.00515479 0.0175
-0.00515479 -0.00515479 0.0175
-0.0103096 -0.00515479 0.0175
0 -0.0103096 0.0175
-0.00515479 -0.0103096 0.0175
-0.0103096 -0.0103096 0.0175
0 0 0.035
-0.00515479 0 0.035
-0.0103096 0 0.035
0 -0.00515479 0.035
-0.00515479 -0.00515479 0.035
-0.0103096 -0.00515479 0.035
0 -0.0103096 0.035
-0.00515479 -0.0103096 0.035
-0.0103096 -0.0103096 0.035

CELL_DATA 8
SCALARS part_id int
LOOKUP_TABLE default
0
0
0
0
0
0
0
0
TENSORS stress float
4.02345e-10 2.87373e-12 4.11472e-11
2.87373e-12 4.02345e-10 4.11472e-11
4.11472e-11 4.11472e-11 0.0203256

2.89945e-10 4.75734e-12 9.90998e-11
4.75734e-12 3.39807e-10 3.87473e-11
9.90998e-11 3.87473e-11 0.0203256

3.39807e-10 4.75733e-12 3.87473e-11
4.75733e-12 2.89945e-10 9.90997e-11
3.87473e-11 9.90997e-11 0.0203256

2.53295e-10 1.15113e-11 9.03382e-11
1.15113e-11 2.53295e-10 9.03382e-11
9.03382e-11 9.03382e-11 0.0203256

-4.0498e-10 -2.87372e-12 4.11472e-11
-2.87372e-12 -4.0498e-10 4.11472e-11
4.11472e-11 4.11472e-11 0.0203256

-2.9258e-10 -4.75733e-12 9.90998e-11
-4.75733e-12 -3.42442e-10 3.87473e-11
9.90998e-11 3.87473e-11 0.0203256

-3.42442e-10 -4.75732e-12 3.87473e-11
-4.75732e-12 -2.9258e-10 9.90998e-11
3.87473e-11 9.90998e-11 0.0203256

-2.5593e-10 -1.15113e-11 9.03382e-11
-1.15113e-11 -2.5593e-10 9.03382e-11
9.03382e-11 9.03382e-11 0.0203256

SCALARS damage float
LOOKUP_TABLE default
0.416008
0.416008
0.416008
0.416008
0.416008
0.416008
0.416008
0.416008
