# vtk DataFile Version 3.0
time 0.33
ASCII
DATASET UNSTRUCTURED_GRID
POINTS 27 float
0 0 0 0.5 0 0 1 0 0 
0 0.5 0 0.5 0.5 0 1 0.5 0 
0 1 0 0.5 1 0 1 1 0 
0 0 0.5 0.5 0 0.5 1 0 0.5 
0 0.5 0.5 0.5 0.5 0.5 1 0.5 0.5 
0 1 0.5 0.5 1 0.5 1 1 0.5 
0 0 1 0.5 0 1 1 0 1 
0 0.5 1 0.5 0.5 1 1 0.5 1 
0 1 1 0.5 1 1 1 1 1 

CELLS 8 72
8 0 1 4 3 9 10 13 12 
8 1 2 5 4 10 11 14 13 
8 3 4 7 6 12 13 16 15 
8 4 5 8 7 13 14 17 16 
8 9 10 13 12 18 19 22 21 
8 10 11 14 13 19 20 23 22 
8 12 13 16 15 21 22 25 24 
8 13 14 17 16 22 23 26 25 

CELL_TYPES 8
12
12
12
12
12
12
12
12

POINT_DATA 27
VECTORS displacement float
0 0 0
-0.0227944 0 0
-0.0455889 0 0
0 -0.0227944 0
-0.0227944 -0.0227944 0
-0.0455889 -0.0227944 0
0 -0.0455889 0
-0.0227944 -0.0455889 0
-0.0455889 -0.0455889 0
0 0 0.0825
-0.0227944 0 0.0825
-0.0455889 0 0.0825
0 -0.0227944 0.0825
-0.0227944 -0.0227944 0.0825
-0.0455889 -0.0227944 0.0825
0 -0.0455889 0.0825
-0.0227944 -0.0455889 0.0825
-0.0455889 -0.0455889 0.0825
0 0 0.165
-0.0227944 0 0.165
-0.0455889 0 0.165
0 -0.0227944 0.165
-0.0227944 -0.0227944 0.165
-0.0455889 -0.0227944 0.165
0 -0.0455889 0.165
-0.0227944 -0.0455889 0.165
-0.0455889 -0.0455889 0.165

CELL_DATA 8
SCALARS part_id int
LOOKUP_TABLE default
0
0
0
0
0
0
0
0
TENSORS stress float
7.99817e-11 6.42787e-13 1.03096e-11
6.42787e-13 7.99817e-11 1.03096e-11
1.03096e-11 1.03096e-11 0.0644152

5.44465e-11 1.10101e-12 2.76455e-11
1.10101e-12 6.62008e-11 9.71907e-12
2.76455e-11 9.71907e-12 0.0644152

6.62008e-11 1.10099e-12 9.71909e-12
1.10099e-12 5.44466e-11 2.76456e-11
9.71909e-12 2.76456e-11 0.0644152

4.63854e-11 2.37371e-12 2.52932e-11
2.37371e-12 4.63854e-11 2.52932e-11
2.52932e-11 2.52932e-11 0.0644152

-8.02868e-11 -6.42786e-13 1.03096e-11
-6.42786e-13 -8.02867e-11 1.03096e-11
1.03096e-11 1.03096e-11 0.0644152

-5.47515e-11 -1.10098e-12 2.76456e-11
-1.10098e-12 -6.65058e-11 9.71907e-12
2.76456e-11 9.71907e-12 0.0644152

-6.65058e-11 -1.10098e-12 9.71909e-12
-1.10098e-12 -5.47516e-11 2.76456e-11
9.71909e-12 2.76456e-11 0.0644152

-4.66905e-11 -2.37375e-12 2.52932e-11
-2.37375e-12 -4.66905e-11 2.52933e-11
2.52932e-11 2.52933e-11 0.0644152

SCALARS damage float
LOOKUP_TABLE default
0.601794
0.601794
0.601794
0.601794
0.601794
0.601794
0.601794
0.601794
