# vtk DataFile Version 3.0
time 0.41
ASCII
DATASET UNSTRUCTURED_GRID
POINTS 27 float
0 0 0 0.5 0 0 1 0 0 
0 0.5 0 0.5 0.5 0 1 0.5 0 
0 1 0 0.5 1 0 1 1 0 
0 0 0.5 0.5 0 0.5 1 0 0.5 
0 0.5 0.5 0.5 0.5 0.5 1 0.5 0.5 
0 1 0.5 0.5 1 0.5 1 1 0.5 
0 0 1 0.5 0 1 1 0 1 
0 0.5 1 0.5 0.5 1 1 0.5 1 
0 1 1 0.5 1 1 1 1 1 

CELLS 8 72
8 0 1 4 3 9 10 13 12 
8 1 2 5 4 10 11 14 13 
8 3 4 7 6 12 13 16 15 
8 4 5 8 7 13 14 17 16 
8 9 10 13 12 18 19 22 21 
8 10 11 14 13 19 20 23 22 
8 12 13 16 15 21 22 25 24 
8 13 14 17 16 22 23 26 25 

CELL_TYPES 8
12
12
12
12
12
12
12
12

POINT_DATA 27
VECTORS displacement float
0 0 0
-0.0277994 0 0
-0.0555989 0 0
0 -0.0277994 0
-0.0277994 -0.0277994 0
-0.0555989 -0.0277994 0
0 -0.0555989 0
-0.0277994 -0.0555989 0
-0.0555989 -0.0555989 0
0 0 0.1025
-0.0277994 0 0.1025
-0.0555989 0 0.1025
0 -0.0277994 0.1025
-0.0277994 -0.0277994 0.1025
-0.0555989 -0.0277994 0.1025
0 -0.0555989 0.1025
-0.0277994 -0.0555989 0.1025
-0.0555989 -0.0555989 0.1025
0 0 0.205
-0.0277994 0 0.205
-0.0555989 0 0.205
0 -0.0277994 0.205
-0.0277994 -0.0277994 0.205
-0.0555989 -0.0277994 0.205
0 -0.0555989 0.205
-0.0277994 -0.0555989 0.205
-0.0555989 -0.0555989 0.205

CELL_DATA 8
SCALARS part_id int
LOOKUP_TABLE default
0
0
0
0
0
0
0
0
TENSORS stress float
5.85197e-11 4.70375e-13 7.76379e-12
4.70375e-13 5.85197e-11 7.76377e-12
7.76379e-12 7.76377e-12 0.0776246

3.98427e-11 8.12876e-13 2.13614e-11
8.12876e-13 4.84818e-11 7.31866e-12
2.13614e-11 7.31866e-12 0.0776246

4.84818e-11 8.12894e-13 7.31865e-12
8.12894e-13 3.98427e-11 2.13614e-11
7.31865e-12 2.13614e-11 0.0776246

3.39757e-11 1.6978e-12 1.95543e-11
1.6978e-12 3.39757e-11 1.95542e-11
1.95543e-11 1.95542e-11 0.0776246

-5.87324e-11 -4.70383e-13 7.76379e-12
-4.70383e-13 -5.87324e-11 7.76377e-12
7.76379e-12 7.76377e-12 0.0776246

-4.00554e-11 -8.12875e-13 2.13614e-11
-8.12875e-13 -4.86945e-11 7.31865e-12
2.13614e-11 7.31865e-12 0.0776246

-4.86945e-11 -8.12885e-13 7.31867e-12
-8.12885e-13 -4.00553e-11 2.13614e-11
7.31867e-12 2.13614e-11 0.0776246

-3.41882e-11 -1.69782e-12 1.95542e-11
-1.69782e-12 -3.41882e-11 1.95542e-11
1.95542e-11 1.95542e-11 0.0776246

SCALARS damage float
LOOKUP_TABLE default
0.612758
0.612758
0.612758
0.612758
0.612758
0.612758
0.612758
0.612758
