# vtk DataFile Version 3.0
time 0.21
ASCII
DATASET UNSTRUCTURED_GRID
POINTS 27 float
0 0 0 0.5 0 0 1 0 0 
0 0.5 0 0.5 0.5 0 1 0.5 0 
0 1 0 0.5 1 0 1 1 0 
0 0 0.5 0.5 0 0.5 1 0 0.5 
0 0.5 0.5 0.5 0.5 0.5 1 0.5 0.5 
0 1 0.5 0.5 1 0.5 1 1 0.5 
0 0 1 0.5 0 1 1 0 1 
0 0.5 1 0.5 0.5 1 1 0.5 1 
0 1 1 0.5 1 1 1 1 1 

CELLS 8 72
8 0 1 4 3 9 10 13 12 
8 1 2 5 4 10 11 14 13 
8 3 4 7 6 12 13 16 15 
8 4 5 8 7 13 14 17 16 
8 9 10 13 12 18 19 22 21 
8 10 11 14 13 19 20 23 22 
8 12 13 16 15 21 22 25 24 
8 13 14 17 16 22 23 26 25 

CELL_TYPES 8
12
12
12
12
12
12
12
12

POINT_DATA 27
VECTORS displacement float
0 0 0
-0.0149295 0 0
-0.029859 0 0
0 -0.0149295 0
-0.0149295 -0.0149295 0
-0.029859 -0.0149295 0
0 -0.029859 0
-0.0149295 -0.029859 0
-0.029859 -0.029859 0
0 0 0.0525
-0.0149295 0 0.0525
-0.029859 0 0.0525
0 -0.0149295 0.0525
-0.0149295 -0.0149295 0.0525
-0.029859 -0.0149295 0.0525
0 -0.029859 0.0525
-0.0149295 -0.029859 0.0525
-0.029859 -0.029859 0.0525
0 0 0.105
-0.0149295 0 0.105
-0.029859 0 0.105
0 -0.0149295 0.105
-0.0149295 -0.0149295 0.105
-0.029859 -0.0149295 0.105
0 -0.029859 0.105
-0.0149295 -0.029859 0.105
-0.029859 -0.029859 0.105

CELL_DATA 8
SCALARS part_id int
LOOKUP_TABLE default
0
0
0
0
0
0
0
0
TENSORS stress float
1.45926e-10 1.16169e-12 1.77918e-11
1.16169e-12 1.45926e-10 1.77918e-11
1.77918e-11 1.77918e-11 0.0445244

9.98636e-11 1.96059e-12 4.56597e-11
1.96059e-12 1.20843e-10 1.67707e-11
4.56597e-11 1.67707e-11 0.0445244

1.20843e-10 1.96061e-12 1.67707e-11
1.96061e-12 9.98637e-11 4.56597e-11
1.67707e-11 4.56597e-11 0.0445244

8.51758e-11 4.44772e-12 4.1729e-11
4.44772e-12 8.51758e-11 4.17291e-11
4.1729e-11 4.17291e-11 0.0445244

-1.46545e-10 -1.16169e-12 1.77918e-11
-1.16169e-12 -1.46545e-10 1.77918e-11
1.77918e-11 1.77918e-11 0.0445244

-1.00482e-10 -1.96061e-12 4.56597e-11
-1.96061e-12 -1.21462e-10 1.67707e-11
4.56597e-11 1.67707e-11 0.0445244

-1.21462e-10 -1.9606e-12 1.67707e-11
-1.9606e-12 -1.00482e-10 4.56597e-11
1.67707e-11 4.56597e-11 0.0445244

-8.57945e-11 -4.44772e-12 4.17291e-11
-4.44772e-12 -8.57945e-11 4.17291e-11
4.17291e-11 4.17291e-11 0.0445244

SCALARS damage float
LOOKUP_TABLE default
0.569794
0.569794
0.569794
0.569794
0.569794
0.569794
0.569794
0.569794
