# vtk DataFile Version 3.0
time 0.43
ASCII
DATASET UNSTRUCTURED_GRID
POINTS 27 float
0 0 0 0.5 0 0 1 0 0 
0 0.5 0 0.5 0.5 0 1 0.5 0 
0 1 0 0.5 1 0 1 1 0 
0 0 0.5 0.5 0 0.5 1 0 0.5 
0 0.5 0.5 0.5 0.5 0.5 1 0.5 0.5 
0 1 0.5 0.5 1 0.5 1 1 0.5 
0 0 1 0.5 0 1 1 0 1 
0 0.5 1 0.5 0.5 1 1 0.5 1 
0 1 1 0.5 1 1 1 1 1 

CELLS 8 72
8 0 1 4 3 9 10 13 12 
8 1 2 5 4 10 11 14 13 
8 3 4 7 6 12 13 16 15 
8 4 5 8 7 13 14 17 16 
8 9 10 13 12 18 19 22 21 
8 10 11 14 13 19 20 23 22 
8 12 13 16 15 21 22 25 24 
8 13 14 17 16 22 23 26 25 

CELL_TYPES 8
12
12
12
12
12
12
12
12

POINT_DATA 27
VECTORS displacement float
0 0 0
-0.0290227 0 0
-0.0580454 0 0
0 -0.0290227 0
-0.0290227 -0.0290227 0
-0.0580454 -0.0290227 0
0 -0.0580454 0
-0.0290227 -0.0580454 0
-0.0580454 -0.0580454 0
0 0 0.1075
-0.0290227 0 0.1075
-0.0580454 0 0.1075
0 -0.0290227 0.1075
-0.0290227 -0.0290227 0.1075
-0.0580454 -0.0290227 0.1075
0 -0.0580454 0.1075
-0.0290227 -0.0580454 0.1075
-0.0580454 -0.0580454 0.1075
0 0 0.215
-0.0290227 0 0.215
-0.0580454 0 0.215
0 -0.0290227 0.215
-0.0290227 -0.0290227 0.215
-0.0580454 -0.0290227 0.215
0 -0.0580454 0.215
-0.0290227 -0.0580454 0.215
-0.0580454 -0.0580454 0.215

CELL_DATA 8
SCALARS part_id int
LOOKUP_TABLE default
0
0
0
0
0
0
0
0
TENSORS stress float
5.45097e-11 4.38031e-13 7.28069e-12
4.38031e-13 5.45097e-11 7.2807e-12
7.28069e-12 7.2807e-12 0.0809247

3.71216e-11 7.58564e-13 2.01539e-11
7.58564e-13 4.5173e-11 6.86311e-12
2.01539e-11 6.86311e-12 0.0809247

4.5173e-11 7.58533e-13 6.86311e-12
7.58533e-13 3.71216e-11 2.01539e-11
6.86311e-12 2.01539e-11 0.0809247

3.16654e-11 1.57221e-12 1.84511e-11
1.57221e-12 3.16654e-11 1.84511e-11
1.84511e-11 1.84511e-11 0.0809247

-5.47056e-11 -4.38019e-13 7.2807e-12
-4.38019e-13 -5.47056e-11 7.28069e-12
7.2807e-12 7.28069e-12 0.0809247

-3.73176e-11 -7.58558e-13 2.01539e-11
-7.58558e-13 -4.53691e-11 6.86313e-12
2.01539e-11 6.86313e-12 0.0809247

-4.5369e-11 -7.58566e-13 6.86313e-12
-7.58566e-13 -3.73176e-11 2.0154e-11
6.86313e-12 2.0154e-11 0.0809247

-3.18615e-11 -1.57222e-12 1.84511e-11
-1.57222e-12 -3.18614e-11 1.84511e-11
1.84511e-11 1.84511e-11 0.0809247

SCALARS damage float
LOOKUP_TABLE default
0.614863
0.614863
0.614863
0.614863
0.614863
0.614863
0.614863
0.614863
