# vtk DataFile Version 3.0
time 0.14
ASCII
DATASET UNSTRUCTURED_GRID
POINTS 27 float
0 0 0 0.5 0 0 1 0 0 
0 0.5 0 0.5 0.5 0 1 0.5 0 
0 1 0 0.5 1 0 1 1 0 
0 0 0.5 0.5 0 0.5 1 0 0.5 
0 0.5 0.5 0.5 0.5 0.5 1 0.5 0.5 
0 1 0.5 0.5 1 0.5 1 1 0.5 
0 0 1 0.5 0 1 1 0 1 
0 0.5 1 0.5 0.5 1 1 0.5 1 
0 1 1 0.5 1 1 1 1 1 

CELLS 8 72
8 0 1 4 3 9 10 13 12 
8 1 2 5 4 10 11 14 13 
8 3 4 7 6 12 13 16 15 
8 4 5 8 7 13 14 17 16 
8 9 10 13 12 18 19 22 21 
8 10 11 14 13 19 20 23 22 
8 12 13 16 15 21 22 25 24 
8 13 14 17 16 22 23 26 25 

CELL_TYPES 8
12
12
12
12
12
12
12
12

POINT_DATA 27
VECTORS displacement float
0 0 0
-0.0101274 0 0
-0.0202549 0 0
0 -0.0101274 0
-0.0101274 -0.0101274 0
-0.0202549 -0.0101274 0
0 -0.0202549 0
-0.0101274 -0.0202549 0
-0.0202549 -0.0202549 0
0 0 0.035
-0.0101274 0 0.035
-0.0202549 0 0.035
0 -0.0101274 0.035
-0.0101274 -0.0101274 0.035
-0.0202549 -0.0101274 0.035
0 -0.0202549 0.035
-0.0101274 -0.0202549 0.035
-0.0202549 -0.0202549 0.035
0 0 0.07
-0.0101274 0 0.07
-0.0202549 0 0.07
0 -0.0101274 0.07
-0.0101274 -0.0101274 0.07
-0.0202549 -0.0101274 0.07
0 -0.0202549 0.07
-0.0101274 -0.0202549 0.07
-0.0202549 -0.0202549 0.07

CELL_DATA 8
SCALARS part_id int
LOOKUP_TABLE default
0
0
0
0
0
0
0
0
TENSORS stress float
2.34399e-10 1.827e-12 2.70953e-11
1.827e-12 2.34399e-10 2.70953e-11
2.70953e-11 2.70953e-11 0.0327898

1.6235e-10 3.0548e-12 6.74889e-11
3.0548e-12 1.94793e-10 2.55301e-11
6.74889e-11 2.55301e-11 0.0327898

1.94793e-10 3.05478e-12 2.55301e-11
3.05478e-12 1.62351e-10 6.74889e-11
2.55301e-11 6.74889e-11 0.0327898

1.39147e-10 7.15188e-12 6.16099e-11
7.15188e-12 1.39147e-10 6.16099e-11
6.16099e-11 6.16099e-11 0.0327898

-2.35517e-10 -1.82705e-12 2.70953e-11
-1.82705e-12 -2.35517e-10 2.70953e-11
2.70953e-11 2.70953e-11 0.0327898

-1.63468e-10 -3.0548e-12 6.74889e-11
-3.0548e-12 -1.9591e-10 2.55301e-11
6.74889e-11 2.55301e-11 0.0327898

-1.9591e-10 -3.0548e-12 2.55301e-11
-3.0548e-12 -1.63468e-10 6.74889e-11
2.55301e-11 6.74889e-11 0.0327898

-1.40265e-10 -7.15186e-12 6.16099e-11
-7.15186e-12 -1.40265e-10 6.16099e-11
6.16099e-11 6.16099e-11 0.0327898

SCALARS damage float
LOOKUP_TABLE default
0.526684
0.526684
0.526684
0.526684
0.526684
0.526684
0.526684
0.526684
