# vtk DataFile Version 3.0
time 0.33
ASCII
DATASET UNSTRUCTURED_GRID
POINTS 8 float
0 0 0 1 0 0 1 1 0 
0 1 0 0 0 1 1 0 1 
1 1 1 0 1 1 

CELLS 1 9
8 0 1 2 3 4 5 6 7 

CELL_TYPES 1
12

POINT_DATA 8
VECTORS displacement float
0 0 0
-0.0455889 0 0
-0.0455889 -0.0455889 0
0 -0.0455889 0
0 0 0.165
-0.0455889 0 0.165
-0.0455889 -0.0455889 0.165
0 -0.0455889 0.165

CELL_DATA 1
SCALARS part_id int
LOOKUP_TABLE default
0
TENSORS stress float
-1.7521e-14 4.46695e-18 4.37146e-18
4.46695e-18 -1.75132e-14 2.9313e-18
4.37146e-18 2.9313e-18 0.0207619

SCALARS damage float
LOOKUP_TABLE default
0.871653
