# vtk DataFile Version 3.0
time 0.05
ASCII
DATASET UNSTRUCTURED_GRID
POINTS 8 float
0 0 0 1 0 0 1 1 0 
0 1 0 0 0 1 1 0 1 
1 1 1 0 1 1 

CELLS 1 9
8 0 1 2 3 4 5 6 7 

CELL_TYPES 1
12

POINT_DATA 8
VECTORS displacement float
0 0 0
-0.00740222 0 0
-0.00740222 -0.00740222 0
0 -0.00740222 0
0 0 0.025
-0.00740222 0 0.025
-0.00740222 -0.00740222 0.025
0 -0.00740222 0.025

CELL_DATA 1
SCALARS part_id int
LOOKUP_TABLE default
0
TENSORS stress float
-1.1205e-12 -4.40505e-18 9.00293e-18
-4.40505e-18 -1.12049e-12 6.23669e-18
9.00293e-18 6.23669e-18 0.0069686

SCALARS damage float
LOOKUP_TABLE default
0.720115
