# vtk DataFile Version 3.0
time 0.36
ASCII
DATASET UNSTRUCTURED_GRID
POINTS 8 float
0 0 0 1 0 0 1 1 0 
0 1 0 0 0 1 1 0 1 
1 1 1 0 1 1 

CELLS 1 9
8 0 1 2 3 4 5 6 7 

CELL_TYPES 1
12

POINT_DATA 8
VECTORS displacement float
0 0 0
-0.0493854 0 0
-0.0493854 -0.0493854 0
0 -0.0493854 0
0 0 0.18
-0.0493854 0 0.18
-0.0493854 -0.0493854 0.18
0 -0.0493854 0.18

CELL_DATA 1
SCALARS part_id int
LOOKUP_TABLE default
0
TENSORS stress float
-1.4174e-14 -2.92442e-18 4.51433e-18
-2.92442e-18 -1.41676e-14 -1.52545e-18
4.51433e-18 -1.52545e-18 0.0222234

SCALARS damage float
LOOKUP_TABLE default
0.873932
