# vtk DataFile Version 3.0
time 0.19
ASCII
DATASET UNSTRUCTURED_GRID
POINTS 8 float
0 0 0 1 0 0 1 1 0 
0 1 0 0 0 1 1 0 1 
1 1 1 0 1 1 

CELLS 1 9
8 0 1 2 3 4 5 6 7 

CELL_TYPES 1
12

POINT_DATA 8
VECTORS displacement float
0 0 0
-0.0271485 0 0
-0.0271485 -0.0271485 0
0 -0.0271485 0
0 0 0.095
-0.0271485 0 0.095
-0.0271485 -0.0271485 0.095
0 -0.0271485 0.095

CELL_DATA 1
SCALARS part_id int
LOOKUP_TABLE default
0
TENSORS stress float
-6.42276e-14 1.85988e-19 9.94366e-19
1.85988e-19 -6.42197e-14 2.98914e-18
9.94366e-19 2.98914e-18 0.0139183

SCALARS damage float
LOOKUP_TABLE default
0.851523
