# vtk DataFile Version 3.0
time 0.29
ASCII
DATASET UNSTRUCTURED_GRID
POINTS 8 float
0 0 0 1 0 0 1 1 0 
0 1 0 0 0 1 1 0 1 
1 1 1 0 1 1 

CELLS 1 9
8 0 1 2 3 4 5 6 7 

CELL_TYPES 1
12

POINT_DATA 8
VECTORS displacement float
0 0 0
-0.0404442 0 0
-0.0404442 -0.0404442 0
0 -0.0404442 0
0 0 0.145
-0.0404442 0 0.145
-0.0404442 -0.0404442 0.145
0 -0.0404442 0.145

CELL_DATA 1
SCALARS part_id int
LOOKUP_TABLE default
0
TENSORS stress float
-2.38791e-14 4.41274e-18 4.30817e-19
4.41274e-18 -2.38764e-14 4.27716e-18
4.30817e-19 4.27716e-18 0.0188113

SCALARS damage float
LOOKUP_TABLE default
0.867881
