# vtk DataFile Version 3.0
time 0.03
ASCII
DATASET UNSTRUCTURED_GRID
POINTS 8 float
0 0 0 1 0 0 1 1 0 
0 1 0 0 0 1 1 0 1 
1 1 1 0 1 1 

CELLS 1 9
8 0 1 2 3 4 5 6 7 

CELL_TYPES 1
12

POINT_DATA 8
VECTORS displacement float
0 0 0
-0.00446457 0 0
-0.00446457 -0.00446457 0
0 -0.00446457 0
0 0 0.015
-0.00446457 0 0.015
-0.00446457 -0.00446457 0.015
0 -0.00446457 0.015

CELL_DATA 1
SCALARS part_id int
LOOKUP_TABLE default
0
TENSORS stress float
-2.55847e-12 4.84236e-18 1.94883e-18
4.84236e-18 -2.55844e-12 -1.81393e-18
1.94883e-18 -1.81393e-18 0.00577528

SCALARS damage float
LOOKUP_TABLE default
0.614016
