# vtk DataFile Version 3.0
time 0.23
ASCII
DATASET UNSTRUCTURED_GRID
POINTS 8 float
0 0 0 1 0 0 1 1 0 
0 1 0 0 0 1 1 0 1 
1 1 1 0 1 1 

CELLS 1 9
8 0 1 2 3 4 5 6 7 

CELL_TYPES 1
12

POINT_DATA 8
VECTORS displacement float
0 0 0
-0.0325434 0 0
-0.0325434 -0.0325434 0
0 -0.0325434 0
0 0 0.115
-0.0325434 0 0.115
-0.0325434 -0.0325434 0.115
0 -0.0325434 0.115

CELL_DATA 1
SCALARS part_id int
LOOKUP_TABLE default
0
TENSORS stress float
-4.12861e-14 3.46935e-19 5.24797e-18
3.46935e-19 -4.12717e-14 4.73352e-19
5.24797e-18 4.73352e-19 0.015879

SCALARS damage float
LOOKUP_TABLE default
0.859771
