# vtk DataFile Version 3.0
time 0.45
ASCII
DATASET UNSTRUCTURED_GRID
POINTS 8 float
0 0 0 1 0 0 1 1 0 
0 1 0 0 0 1 1 0 1 
1 1 1 0 1 1 

CELLS 1 9
8 0 1 2 3 4 5 6 7 

CELL_TYPES 1
12

POINT_DATA 8
VECTORS displacement float
0 0 0
-0.0604703 0 0
-0.0604703 -0.0604703 0
0 -0.0604703 0
0 0 0.225
-0.0604703 0 0.225
-0.0604703 -0.0604703 0.225
0 -0.0604703 0.225

CELL_DATA 1
SCALARS part_id int
LOOKUP_TABLE default
0
TENSORS stress float
-8.16586e-15 -7.01724e-20 2.1501e-18
-7.01724e-20 -8.16586e-15 2.36993e-18
2.1501e-18 2.36993e-18 0.0266042

SCALARS damage float
LOOKUP_TABLE default
0.878952
