# vtk DataFile Version 3.0
time 0.13
ASCII
DATASET UNSTRUCTURED_GRID
POINTS 8 float
0 0 0 1 0 0 1 1 0 
0 1 0 0 0 1 1 0 1 
1 1 1 0 1 1 

CELLS 1 9
8 0 1 2 3 4 5 6 7 

CELL_TYPES 1
12

POINT_DATA 8
VECTORS displacement float
0 0 0
-0.0188555 0 0
-0.0188555 -0.0188555 0
0 -0.0188555 0
0 0 0.065
-0.0188555 0 0.065
-0.0188555 -0.0188555 0.065
0 -0.0188555 0.065

CELL_DATA 1
SCALARS part_id int
LOOKUP_TABLE default
0
TENSORS stress float
-1.51239e-13 -4.45976e-18 7.02524e-18
-4.45976e-18 -1.51249e-13 5.09472e-19
7.02524e-18 5.09472e-19 0.0109656

SCALARS damage float
LOOKUP_TABLE default
0.829646
