# vtk DataFile Version 3.0
time 0.09
ASCII
DATASET UNSTRUCTURED_GRID
POINTS 8 float
0 0 0 1 0 0 1 1 0 
0 1 0 0 0 1 1 0 1 
1 1 1 0 1 1 

CELLS 1 9
8 0 1 2 3 4 5 6 7 

CELL_TYPES 1
12

POINT_DATA 8
VECTORS displacement float
0 0 0
-0.0131872 0 0
-0.0131872 -0.0131872 0
0 -0.0131872 0
0 0 0.045
-0.0131872 0 0.045
-0.0131872 -0.0131872 0.045
0 -0.0131872 0.045

CELL_DATA 1
SCALARS part_id int
LOOKUP_TABLE default
0
TENSORS stress float
-3.38736e-13 2.08201e-18 3.51385e-18
2.08201e-18 -3.3874e-13 1.62289e-18
3.51385e-18 1.62289e-18 0.00898686

SCALARS damage float
LOOKUP_TABLE default
0.79888
