# vtk DataFile Version 3.0
time 0.19
ASCII
DATASET UNSTRUCTURED_GRID
POINTS 27 float
0 0 0 0.5 0 0 1 0 0 
0 0.5 0 0.5 0.5 0 1 0.5 0 
0 1 0 0.5 1 0 1 1 0 
0 0 0.5 0.5 0 0.5 1 0 0.5 
0 0.5 0.5 0.5 0.5 0.5 1 0.5 0.5 
0 1 0.5 0.5 1 0.5 1 1 0.5 
0 0 1 0.5 0 1 1 0 1 
0 0.5 1 0.5 0.5 1 1 0.5 1 
0 1 1 0.5 1 1 1 1 1 

CELLS 8 72
8 0 1 4 3 9 10 13 12 
8 1 2 5 4 10 11 14 13 
8 3 4 7 6 12 13 16 15 
8 4 5 8 7 13 14 17 16 
8 9 10 13 12 18 19 22 21 
8 10 11 14 13 19 20 23 22 
8 12 13 16 15 21 22 25 24 
8 13 14 17 16 22 23 26 25 

CELL_TYPES 8
12
12
12
12
12
12
12
12

POINT_DATA 27
VECTORS displacement float
0 0 0
-0.0135743 0 0
-0.0271485 0 0
0 -0.0135743 0
-0.0135743 -0.0135743 0
-0.0271485 -0.0135743 0
0 -0.0271485 0
-0.0135743 -0.0271485 0
-0.0271485 -0.0271485 0
0 0 0.0475
-0.0135743 0 0.0475
-0.0271485 0 0.0475
0 -0.0135743 0.0475
-0.0135743 -0.0135743 0.0475
-0.0271485 -0.0135743 0.0475
0 -0.0271485 0.0475
-0.0135743 -0.0271485 0.0475
-0.0271485 -0.0271485 0.0475
0 0 0.095
-0.0135743 0 0.095
-0.0271485 0 0.095
0 -0.0135743 0.095
-0.0135743 -0.0135743 0.095
-0.0271485 -0.0135743 0.095
0 -0.0271485 0.095
-0.0135743 -0.0271485 0.095
-0.0271485 -0.0271485 0.095

CELL_DATA 8
SCALARS part_id int
LOOKUP_TABLE default
0
0
0
0
0
0
0
0
TENSORS stress float
3.27913e-10 2.63957e-12 3.97619e-11
2.63957e-12 3.27913e-10 3.97619e-11
3.97619e-11 3.97619e-11 0.0599906

2.24026e-10 4.44376e-12 1.01026e-10
4.44376e-12 2.70874e-10 3.74592e-11
1.01026e-10 3.74592e-11 0.0599906

2.70874e-10 4.4437e-12 3.74592e-11
4.4437e-12 2.24026e-10 1.01026e-10
3.74592e-11 1.01026e-10 0.0599906

1.90626e-10 1.01723e-11 9.22375e-11
1.01723e-11 1.90626e-10 9.22375e-11
9.22375e-11 9.22375e-11 0.0599906

-3.29228e-10 -2.63959e-12 3.97619e-11
-2.63959e-12 -3.29228e-10 3.97619e-11
3.97619e-11 3.97619e-11 0.0599906

-2.25342e-10 -4.44372e-12 1.01026e-10
-4.44372e-12 -2.72189e-10 3.74592e-11
1.01026e-10 3.74592e-11 0.0599906

-2.72189e-10 -4.4437e-12 3.74592e-11
-4.4437e-12 -2.25342e-10 1.01026e-10
3.74592e-11 1.01026e-10 0.0599906

-1.91942e-10 -1.01722e-11 9.22375e-11
-1.01722e-11 -1.91942e-10 9.22376e-11
9.22375e-11 9.22376e-11 0.0599906

SCALARS damage float
LOOKUP_TABLE default
0.360035
0.360035
0.360035
0.360035
0.360035
0.360035
0.360035
0.360035
