# vtk DataFile Version 3.0
time 0.42
ASCII
DATASET UNSTRUCTURED_GRID
POINTS 27 float
0 0 0 0.5 0 0 1 0 0 
0 0.5 0 0.5 0.5 0 1 0.5 0 
0 1 0 0.5 1 0 1 1 0 
0 0 0.5 0.5 0 0.5 1 0 0.5 
0 0.5 0.5 0.5 0.5 0.5 1 0.5 0.5 
0 1 0.5 0.5 1 0.5 1 1 0.5 
0 0 1 0.5 0 1 1 0 1 
0 0.5 1 0.5 0.5 1 1 0.5 1 
0 1 1 0.5 1 1 1 1 1 

CELLS 8 72
8 0 1 4 3 9 10 13 12 
8 1 2 5 4 10 11 14 13 
8 3 4 7 6 12 13 16 15 
8 4 5 8 7 13 14 17 16 
8 9 10 13 12 18 19 22 21 
8 10 11 14 13 19 20 23 22 
8 12 13 16 15 21 22 25 24 
8 13 14 17 16 22 23 26 25 

CELL_TYPES 8
12
12
12
12
12
12
12
12

POINT_DATA 27
VECTORS displacement float
0 0 0
-0.0284124 0 0
-0.0568249 0 0
0 -0.0284124 0
-0.0284124 -0.0284124 0
-0.0568249 -0.0284124 0
0 -0.0568249 0
-0.0284124 -0.0568249 0
-0.0568249 -0.0568249 0
0 0 0.105
-0.0284124 0 0.105
-0.0568249 0 0.105
0 -0.0284124 0.105
-0.0284124 -0.0284124 0.105
-0.0568249 -0.0284124 0.105
0 -0.0568249 0.105
-0.0284124 -0.0568249 0.105
-0.0568249 -0.0568249 0.105
0 0 0.21
-0.0284124 0 0.21
-0.0568249 0 0.21
0 -0.0284124 0.21
-0.0284124 -0.0284124 0.21
-0.0568249 -0.0284124 0.21
0 -0.0568249 0.21
-0.0284124 -0.0568249 0.21
-0.0568249 -0.0568249 0.21

CELL_DATA 8
SCALARS part_id int
LOOKUP_TABLE default
0
0
0
0
0
0
0
0
TENSORS stress float
1.79693e-10 1.48517e-12 2.43364e-11
1.48517e-12 1.79693e-10 2.43364e-11
2.43364e-11 2.43364e-11 0.103026

1.21218e-10 2.56899e-12 6.70324e-11
2.56899e-12 1.48026e-10 2.29258e-11
6.70324e-11 2.29258e-11 0.103026

1.48026e-10 2.56896e-12 2.29258e-11
2.56896e-12 1.21218e-10 6.70324e-11
2.29258e-11 6.70324e-11 0.103026

1.02713e-10 5.34972e-12 6.1306e-11
5.34972e-12 1.02713e-10 6.1306e-11
6.1306e-11 6.1306e-11 0.103026

-1.80233e-10 -1.48516e-12 2.43364e-11
-1.48516e-12 -1.80233e-10 2.43364e-11
2.43364e-11 2.43364e-11 0.103026

-1.21758e-10 -2.56897e-12 6.70323e-11
-2.56897e-12 -1.48567e-10 2.29258e-11
6.70323e-11 2.29258e-11 0.103026

-1.48567e-10 -2.56898e-12 2.29258e-11
-2.56898e-12 -1.21758e-10 6.70324e-11
2.29258e-11 6.70324e-11 0.103026

-1.03253e-10 -5.34967e-12 6.1306e-11
-5.34967e-12 -1.03253e-10 6.1306e-11
6.1306e-11 6.1306e-11 0.103026

SCALARS damage float
LOOKUP_TABLE default
0.498137
0.498137
0.498137
0.498137
0.498137
0.498137
0.498137
0.498137
