# vtk DataFile Version 3.0
time 0.06
ASCII
DATASET UNSTRUCTURED_GRID
POINTS 27 float
0 0 0 0.5 0 0 1 0 0 
0 0.5 0 0.5 0.5 0 1 0.5 0 
0 1 0 0.5 1 0 1 1 0 
0 0 0.5 0.5 0 0.5 1 0 0.5 
0 0.5 0.5 0.5 0.5 0.5 1 0.5 0.5 
0 1 0.5 0.5 1 0.5 1 1 0.5 
0 0 1 0.5 0 1 1 0 1 
0 0.5 1 0.5 0.5 1 1 0.5 1 
0 1 1 0.5 1 1 1 1 1 

CELLS 8 72
8 0 1 4 3 9 10 13 12 
8 1 2 5 4 10 11 14 13 
8 3 4 7 6 12 13 16 15 
8 4 5 8 7 13 14 17 16 
8 9 10 13 12 18 19 22 21 
8 10 11 14 13 19 20 23 22 
8 12 13 16 15 21 22 25 24 
8 13 14 17 16 22 23 26 25 

CELL_TYPES 8
12
12
12
12
12
12
12
12

POINT_DATA 27
VECTORS displacement float
0 0 0
-0.00442983 0 0
-0.00885965 0 0
0 -0.00442983 0
-0.00442983 -0.00442983 0
-0.00885965 -0.00442983 0
0 -0.00885965 0
-0.00442983 -0.00885965 0
-0.00885965 -0.00885965 0
0 0 0.015
-0.00442983 0 0.015
-0.00885965 0 0.015
0 -0.00442983 0.015
-0.00442983 -0.00442983 0.015
-0.00885965 -0.00442983 0.015
0 -0.00885965 0.015
-0.00442983 -0.00885965 0.015
-0.00885965 -0.00885965 0.015
0 0 0.03
-0.00442983 0 0.03
-0.00885965 0 0.03
0 -0.00442983 0.03
-0.00442983 -0.00442983 0.03
-0.00885965 -0.00442983 0.03
0 -0.00885965 0.03
-0.00442983 -0.00885965 0.03
-0.00885965 -0.00885965 0.03

CELL_DATA 8
SCALARS part_id int
LOOKUP_TABLE default
0
0
0
0
0
0
0
0
TENSORS stress float
3.07498e-10 2.08496e-12 3.0312e-11
2.08496e-12 3.07498e-10 3.0312e-11
3.0312e-11 3.0312e-11 0.0249981

2.24677e-10 3.44458e-12 7.30713e-11
3.44458e-12 2.62053e-10 2.85764e-11
7.30713e-11 2.85764e-11 0.0249981

2.62053e-10 3.44458e-12 2.85764e-11
3.44458e-12 2.24677e-10 7.30713e-11
2.85764e-11 7.30713e-11 0.0249981

1.98031e-10 8.37559e-12 6.6723e-11
8.37559e-12 1.98031e-10 6.6723e-11
6.6723e-11 6.6723e-11 0.0249981

-3.09791e-10 -2.08496e-12 3.0312e-11
-2.08496e-12 -3.09791e-10 3.03121e-11
3.0312e-11 3.03121e-11 0.0249981

-2.26969e-10 -3.44458e-12 7.30713e-11
-3.44458e-12 -2.64346e-10 2.85764e-11
7.30713e-11 2.85764e-11 0.0249981

-2.64346e-10 -3.44459e-12 2.85764e-11
-3.44459e-12 -2.26969e-10 7.30713e-11
2.85764e-11 7.30713e-11 0.0249981

-2.00323e-10 -8.37551e-12 6.67231e-11
-8.37551e-12 -2.00324e-10 6.67231e-11
6.67231e-11 6.67231e-11 0.0249981

SCALARS damage float
LOOKUP_TABLE default
0.162678
0.162678
0.162678
0.162678
0.162678
0.162678
0.162678
0.162678
