# vtk DataFile Version 3.0
time 0.48
ASCII
DATASET UNSTRUCTURED_GRID
POINTS 27 float
0 0 0 0.5 0 0 1 0 0 
0 0.5 0 0.5 0.5 0 1 0.5 0 
0 1 0 0.5 1 0 1 1 0 
0 0 0.5 0.5 0 0.5 1 0 0.5 
0 0.5 0.5 0.5 0.5 0.5 1 0.5 0.5 
0 1 0.5 0.5 1 0.5 1 1 0.5 
0 0 1 0.5 0 1 1 0 1 
0 0.5 1 0.5 0.5 1 1 0.5 1 
0 1 1 0.5 1 1 1 1 1 

CELLS 8 72
8 0 1 4 3 9 10 13 12 
8 1 2 5 4 10 11 14 13 
8 3 4 7 6 12 13 16 15 
8 4 5 8 7 13 14 17 16 
8 9 10 13 12 18 19 22 21 
8 10 11 14 13 19 20 23 22 
8 12 13 16 15 21 22 25 24 
8 13 14 17 16 22 23 26 25 

CELL_TYPES 8
12
12
12
12
12
12
12
12

POINT_DATA 27
VECTORS displacement float
0 0 0
-0.0320338 0 0
-0.0640677 0 0
0 -0.0320338 0
-0.0320338 -0.0320338 0
-0.0640677 -0.0320338 0
0 -0.0640677 0
-0.0320338 -0.0640677 0
-0.0640677 -0.0640677 0
0 0 0.12
-0.0320338 0 0.12
-0.0640677 0 0.12
0 -0.0320338 0.12
-0.0320338 -0.0320338 0.12
-0.0640677 -0.0320338 0.12
0 -0.0640677 0.12
-0.0320338 -0.0640677 0.12
-0.0640677 -0.0640677 0.12
0 0 0.24
-0.0320338 0 0.24
-0.0640677 0 0.24
0 -0.0320338 0.24
-0.0320338 -0.0320338 0.24
-0.0640677 -0.0320338 0.24
0 -0.0640677 0.24
-0.0320338 -0.0640677 0.24
-0.0640677 -0.0640677 0.24

CELL_DATA 8
SCALARS part_id int
LOOKUP_TABLE default
0
0
0
0
0
0
0
0
TENSORS stress float
1.51186e-10 1.24824e-12 2.09253e-11
1.24824e-12 1.51186e-10 2.09253e-11
2.09253e-11 2.09253e-11 0.113296

1.02008e-10 2.17238e-12 5.86817e-11
2.17238e-12 1.24659e-10 1.9713e-11
5.86817e-11 1.9713e-11 0.113296

1.24659e-10 2.17238e-12 1.9713e-11
2.17238e-12 1.02008e-10 5.86817e-11
1.9713e-11 5.86817e-11 0.113296

8.65146e-11 4.42275e-12 5.36963e-11
4.42275e-12 8.65146e-11 5.36962e-11
5.36963e-11 5.36962e-11 0.113296

-1.5163e-10 -1.24822e-12 2.09253e-11
-1.24822e-12 -1.5163e-10 2.09253e-11
2.09253e-11 2.09253e-11 0.113296

-1.02452e-10 -2.17236e-12 5.86817e-11
-2.17236e-12 -1.25103e-10 1.9713e-11
5.86817e-11 1.9713e-11 0.113296

-1.25103e-10 -2.17236e-12 1.9713e-11
-2.17236e-12 -1.02452e-10 5.86817e-11
1.9713e-11 5.86817e-11 0.113296

-8.69588e-11 -4.42278e-12 5.36963e-11
-4.42278e-12 -8.69588e-11 5.36963e-11
5.36963e-11 5.36963e-11 0.113296

SCALARS damage float
LOOKUP_TABLE default
0.516404
0.516404
0.516404
0.516404
0.516404
0.516404
0.516404
0.516404
