# vtk DataFile Version 3.0
time 0.3
ASCII
DATASET UNSTRUCTURED_GRID
POINTS 27 float
0 0 0 0.5 0 0 1 0 0 
0 0.5 0 0.5 0.5 0 1 0.5 0 
0 1 0 0.5 1 0 1 1 0 
0 0 0.5 0.5 0 0.5 1 0 0.5 
0 0.5 0.5 0.5 0.5 0.5 1 0.5 0.5 
0 1 0.5 0.5 1 0.5 1 1 0.5 
0 0 1 0.5 0 1 1 0 1 
0 0.5 1 0.5 0.5 1 1 0.5 1 
0 1 1 0.5 1 1 1 1 1 

CELLS 8 72
8 0 1 4 3 9 10 13 12 
8 1 2 5 4 10 11 14 13 
8 3 4 7 6 12 13 16 15 
8 4 5 8 7 13 14 17 16 
8 9 10 13 12 18 19 22 21 
8 10 11 14 13 19 20 23 22 
8 12 13 16 15 21 22 25 24 
8 13 14 17 16 22 23 26 25 

CELL_TYPES 8
12
12
12
12
12
12
12
12

POINT_DATA 27
VECTORS displacement float
0 0 0
-0.0208697 0 0
-0.0417394 0 0
0 -0.0208697 0
-0.0208697 -0.0208697 0
-0.0417394 -0.0208697 0
0 -0.0417394 0
-0.0208697 -0.0417394 0
-0.0417394 -0.0417394 0
0 0 0.075
-0.0208697 0 0.075
-0.0417394 0 0.075
0 -0.0208697 0.075
-0.0208697 -0.0208697 0.075
-0.0417394 -0.0208697 0.075
0 -0.0417394 0.075
-0.0208697 -0.0417394 0.075
-0.0417394 -0.0417394 0.075
0 0 0.15
-0.0208697 0 0.15
-0.0417394 0 0.15
0 -0.0208697 0.15
-0.0208697 -0.0208697 0.15
-0.0417394 -0.0208697 0.15
0 -0.0417394 0.15
-0.0208697 -0.0417394 0.15
-0.0417394 -0.0417394 0.15

CELL_DATA 8
SCALARS part_id int
LOOKUP_TABLE default
0
0
0
0
0
0
0
0
TENSORS stress float
2.53358e-10 2.08805e-12 3.26767e-11
2.08805e-12 2.53358e-10 3.26768e-11
3.26767e-11 3.26768e-11 0.0817622

1.71291e-10 3.564e-12 8.64831e-11
3.564e-12 2.08534e-10 3.07799e-11
8.64831e-11 3.07799e-11 0.0817622

2.08534e-10 3.56399e-12 3.07798e-11
3.56399e-12 1.71291e-10 8.64831e-11
3.07798e-11 8.64831e-11 0.0817622

1.4507e-10 7.78441e-12 7.901e-11
7.78441e-12 1.4507e-10 7.901e-11
7.901e-11 7.901e-11 0.0817622

-2.54192e-10 -2.08803e-12 3.26767e-11
-2.08803e-12 -2.54192e-10 3.26767e-11
3.26767e-11 3.26767e-11 0.0817622

-1.72125e-10 -3.56396e-12 8.64831e-11
-3.56396e-12 -2.09368e-10 3.07799e-11
8.64831e-11 3.07799e-11 0.0817622

-2.09368e-10 -3.56396e-12 3.07798e-11
-3.56396e-12 -1.72125e-10 8.64831e-11
3.07798e-11 8.64831e-11 0.0817622

-1.45904e-10 -7.78445e-12 7.901e-11
-7.78445e-12 -1.45904e-10 7.901e-11
7.901e-11 7.901e-11 0.0817622

SCALARS damage float
LOOKUP_TABLE default
0.444664
0.444664
0.444664
0.444664
0.444664
0.444664
0.444664
0.444664
