# vtk DataFile Version 3.0
time 0.04
ASCII
DATASET UNSTRUCTURED_GRID
POINTS 27 float
0 0 0 0.5 0 0 1 0 0 
0 0.5 0 0.5 0.5 0 1 0.5 0 
0 1 0 0.5 1 0 1 1 0 
0 0 0.5 0.5 0 0.5 1 0 0.5 
0 0.5 0.5 0.5 0.5 0.5 1 0.5 0.5 
0 1 0.5 0.5 1 0.5 1 1 0.5 
0 0 1 0.5 0 1 1 0 1 
0 0.5 1 0.5 0.5 1 1 0.5 1 
0 1 1 0.5 1 1 1 1 1 

CELLS 8 72
8 0 1 4 3 9 10 13 12 
8 1 2 5 4 10 11 14 13 
8 3 4 7 6 12 13 16 15 
8 4 5 8 7 13 14 17 16 
8 9 10 13 12 18 19 22 21 
8 10 11 14 13 19 20 23 22 
8 12 13 16 15 21 22 25 24 
8 13 14 17 16 22 23 26 25 

CELL_TYPES 8
12
12
12
12
12
12
12
12

POINT_DATA 27
VECTORS displacement float
0 0 0
-0.00296861 0 0
-0.00593722 0 0
0 -0.00296861 0
-0.00296861 -0.00296861 0
-0.00593722 -0.00296861 0
0 -0.00593722 0
-0.00296861 -0.00593722 0
-0.00593722 -0.00593722 0
0 0 0.01
-0.00296861 0 0.01
-0.00593722 0 0.01
0 -0.00296861 0.01
-0.00296861 -0.00296861 0.01
-0.00593722 -0.00296861 0.01
0 -0.00593722 0.01
-0.00296861 -0.00593722 0.01
-0.00593722 -0.00593722 0.01
0 0 0.02
-0.00296861 0 0.02
-0.00593722 0 0.02
0 -0.00296861 0.02
-0.00296861 -0.00296861 0.02
-0.00593722 -0.00296861 0.02
0 -0.00593722 0.02
-0.00296861 -0.00593722 0.02
-0.00593722 -0.00593722 0.02

CELL_DATA 8
SCALARS part_id int
LOOKUP_TABLE default
0
0
0
0
0
0
0
0
TENSORS stress float
2.68674e-10 1.63938e-12 2.36903e-11
1.63938e-12 2.68674e-10 2.36904e-11
2.36903e-11 2.36904e-11 0.0176314

2.0349e-10 2.70003e-12 5.6603e-11
2.70003e-12 2.32893e-10 2.23353e-11
5.6603e-11 2.23353e-11 0.0176314

2.32893e-10 2.70003e-12 2.23353e-11
2.70003e-12 2.0349e-10 5.66031e-11
2.23353e-11 5.66031e-11 0.0176314

1.82507e-10 6.6297e-12 5.16838e-11
6.6297e-12 1.82507e-10 5.16838e-11
5.16838e-11 5.16838e-11 0.0176314

-2.71117e-10 -1.6394e-12 2.36903e-11
-1.6394e-12 -2.71117e-10 2.36903e-11
2.36903e-11 2.36903e-11 0.0176314

-2.05933e-10 -2.69997e-12 5.6603e-11
-2.69997e-12 -2.35336e-10 2.23353e-11
5.6603e-11 2.23353e-11 0.0176314

-2.35336e-10 -2.69995e-12 2.23354e-11
-2.69995e-12 -2.05933e-10 5.6603e-11
2.23354e-11 5.6603e-11 0.0176314

-1.8495e-10 -6.62976e-12 5.16839e-11
-6.62976e-12 -1.8495e-10 5.16839e-11
5.16839e-11 5.16839e-11 0.0176314

SCALARS damage float
LOOKUP_TABLE default
0.115512
0.115512
0.115512
0.115512
0.115512
0.115512
0.115512
0.115512
