# vtk DataFile Version 3.0
time 0.35
ASCII
DATASET UNSTRUCTURED_GRID
POINTS 8 float
0 0 0 1 0 0 1 1 0 
0 1 0 0 0 1 1 0 1 
1 1 1 0 1 1 

CELLS 1 9
8 0 1 2 3 4 5 6 7 

CELL_TYPES 1
12

POINT_DATA 8
VECTORS displacement float
0 0 0
-0.0481257 0 0
-0.0481257 -0.0481257 0
0 -0.0481257 0
0 0 0.175
-0.0481257 0 0.175
-0.0481257 -0.0481257 0.175
0 -0.0481257 0.175

CELL_DATA 1
SCALARS part_id int
LOOKUP_TABLE default
0
TENSORS stress float
-1.518e-14 -1.24793e-18 4.66803e-18
-1.24793e-18 -1.518e-14 6.29533e-18
4.66803e-18 6.29533e-18 0.0217364

SCALARS damage float
LOOKUP_TABLE default
0.873216
