# vtk DataFile Version 3.0
time 0.26
ASCII
DATASET UNSTRUCTURED_GRID
POINTS 8 float
0 0 0 1 0 0 1 1 0 
0 1 0 0 0 1 1 0 1 
1 1 1 0 1 1 

CELLS 1 9
8 0 1 2 3 4 5 6 7 

CELL_TYPES 1
12

POINT_DATA 8
VECTORS displacement float
0 0 0
-0.0365219 0 0
-0.0365219 -0.0365219 0
0 -0.0365219 0
0 0 0.13
-0.0365219 0 0.13
-0.0365219 -0.0365219 0.13
0 -0.0365219 0.13

CELL_DATA 1
SCALARS part_id int
LOOKUP_TABLE default
0
TENSORS stress float
-3.09764e-14 -1.82962e-18 6.33998e-19
-1.82962e-18 -3.09708e-14 2.00518e-18
6.33998e-19 2.00518e-18 0.0173462

SCALARS damage float
LOOKUP_TABLE default
0.864293
