# vtk DataFile Version 3.0
time 0.32
ASCII
DATASET UNSTRUCTURED_GRID
POINTS 8 float
0 0 0 1 0 0 1 1 0 
0 1 0 0 0 1 1 0 1 
1 1 1 0 1 1 

CELLS 1 9
8 0 1 2 3 4 5 6 7 

CELL_TYPES 1
12

POINT_DATA 8
VECTORS displacement float
0 0 0
-0.0443117 0 0
-0.0443117 -0.0443117 0
0 -0.0443117 0
0 0 0.16
-0.0443117 0 0.16
-0.0443117 -0.0443117 0.16
0 -0.0443117 0.16

CELL_DATA 1
SCALARS part_id int
LOOKUP_TABLE default
0
TENSORS stress float
-1.88583e-14 3.11037e-19 2.7843e-18
3.11037e-19 -1.88656e-14 4.19791e-18
2.7843e-18 4.19791e-18 0.0202745

SCALARS damage float
LOOKUP_TABLE default
0.870798
