# vtk DataFile Version 3.0
time 0.49
ASCII
DATASET UNSTRUCTURED_GRID
POINTS 8 float
0 0 0 1 0 0 1 1 0 
0 1 0 0 0 1 1 0 1 
1 1 1 0 1 1 

CELLS 1 9
8 0 1 2 3 4 5 6 7 

CELL_TYPES 1
12

POINT_DATA 8
VECTORS displacement float
0 0 0
-0.0652564 0 0
-0.0652564 -0.0652564 0
0 -0.0652564 0
0 0 0.245
-0.0652564 0 0.245
-0.0652564 -0.0652564 0.245
0 -0.0652564 0.245

CELL_DATA 1
SCALARS part_id int
LOOKUP_TABLE default
0
TENSORS stress float
-6.59606e-15 2.66985e-18 4.9693e-18
2.66985e-18 -6.59606e-15 6.17925e-18
4.9693e-18 6.17925e-18 0.0285512

SCALARS damage float
LOOKUP_TABLE default
0.880594
