# vtk DataFile Version 3.0
time 0.41
ASCII
DATASET UNSTRUCTURED_GRID
POINTS 8 float
0 0 0 1 0 0 1 1 0 
0 1 0 0 0 1 1 0 1 
1 1 1 0 1 1 

CELLS 1 9
8 0 1 2 3 4 5 6 7 

CELL_TYPES 1
12

POINT_DATA 8
VECTORS displacement float
0 0 0
-0.0555989 0 0
-0.0555989 -0.0555989 0
0 -0.0555989 0
0 0 0.205
-0.0555989 0 0.205
-0.0555989 -0.0555989 0.205
0 -0.0555989 0.205

CELL_DATA 1
SCALARS part_id int
LOOKUP_TABLE default
0
TENSORS stress float
-1.02976e-14 1.5866e-18 6.21126e-18
1.5866e-18 -1.02953e-14 4.08862e-18
6.21126e-18 4.08862e-18 0.0246575

SCALARS damage float
LOOKUP_TABLE default
0.876992
