# vtk DataFile Version 3.0
time 0.47
ASCII
DATASET UNSTRUCTURED_GRID
POINTS 8 float
0 0 0 1 0 0 1 1 0 
0 1 0 0 0 1 1 0 1 
1 1 1 0 1 1 

CELLS 1 9
8 0 1 2 3 4 5 6 7 

CELL_TYPES 1
12

POINT_DATA 8
VECTORS displacement float
0 0 0
-0.0628738 0 0
-0.0628738 -0.0628738 0
0 -0.0628738 0
0 0 0.235
-0.0628738 0 0.235
-0.0628738 -0.0628738 0.235
0 -0.0628738 0.235

CELL_DATA 1
SCALARS part_id int
LOOKUP_TABLE default
0
TENSORS stress float
-7.3245e-15 1.80153e-18 4.56569e-20
1.80153e-18 -7.31856e-15 -7.93367e-19
4.56569e-20 -7.93367e-19 0.0275776

SCALARS damage float
LOOKUP_TABLE default
0.879808
