# vtk DataFile Version 3.0
time 0.43
ASCII
DATASET UNSTRUCTURED_GRID
POINTS 8 float
0 0 0 1 0 0 1 1 0 
0 1 0 0 0 1 1 0 1 
1 1 1 0 1 1 

CELLS 1 9
8 0 1 2 3 4 5 6 7 

CELL_TYPES 1
12

POINT_DATA 8
VECTORS displacement float
0 0 0
-0.0580454 0 0
-0.0580454 -0.0580454 0
0 -0.0580454 0
0 0 0.215
-0.0580454 0 0.215
-0.0580454 -0.0580454 0.215
0 -0.0580454 0.215

CELL_DATA 1
SCALARS part_id int
LOOKUP_TABLE default
0
TENSORS stress float
-9.14103e-15 -2.77339e-18 -4.12768e-19
-2.77339e-18 -9.14728e-15 5.17276e-18
-4.12768e-19 5.17276e-18 0.0256308

SCALARS damage float
LOOKUP_TABLE default
0.878018
