# vtk DataFile Version 3.0
time 0.24
ASCII
DATASET UNSTRUCTURED_GRID
POINTS 8 float
0 0 0 1 0 0 1 1 0 
0 1 0 0 0 1 1 0 1 
1 1 1 0 1 1 

CELLS 1 9
8 0 1 2 3 4 5 6 7 

CELL_TYPES 1
12

POINT_DATA 8
VECTORS displacement float
0 0 0
-0.0338759 0 0
-0.0338759 -0.0338759 0
0 -0.0338759 0
0 0 0.12
-0.0338759 0 0.12
-0.0338759 -0.0338759 0.12
0 -0.0338759 0.12

CELL_DATA 1
SCALARS part_id int
LOOKUP_TABLE default
0
TENSORS stress float
-3.73718e-14 -2.05101e-18 4.01234e-18
-2.05101e-18 -3.73789e-14 -4.68128e-19
4.01234e-18 -4.68128e-19 0.0163683

SCALARS damage float
LOOKUP_TABLE default
0.861404
