# vtk DataFile Version 3.0
time 1
ASCII
DATASET UNSTRUCTURED_GRID
POINTS 8 float
0 0 0 1 0 0 1 1 0 
0 1 0 0 0 1 1 0 1 
1 1 1 0 1 1 

CELLS 1 9
8 0 1 2 3 4 5 6 7 

CELL_TYPES 1
12

POINT_DATA 8
VECTORS displacement float
0 0 0
0.0329066 0 0
0.0329066 0.0329066 0
0 0.0329066 0
0 0 -0.1
0.0329066 0 -0.1
0.0329066 0.0329066 -0.1
0 0.0329066 -0.1

CELL_DATA 1
SCALARS part_id int
LOOKUP_TABLE default
0
TENSORS stress float
-5.83537e-11 1.84353e-17 -2.66649e-17
1.84353e-17 -5.83536e-11 1.92108e-17
-2.66649e-17 1.92108e-17 -0.105725

