# vtk DataFile Version 3.0
time 1
ASCII
DATASET UNSTRUCTURED_GRID
POINTS 27 float
0 0 0 1 0 0 2 0 0 
0 1 0 1 1 0 2 1 0 
0 2 0 1 2 0 2 2 0 
0 0 1 1 0 1 2 0 1 
0 1 1 1 1 1 2 1 1 
0 2 1 1 2 1 2 2 1 
0 0 2 1 0 2 2 0 2 
0 1 2 1 1 2 2 1 2 
0 2 2 1 2 2 2 2 2 

CELLS 8 72
8 0 1 4 3 9 10 13 12 
8 1 2 5 4 10 11 14 13 
8 3 4 7 6 12 13 16 15 
8 4 5 8 7 13 14 17 16 
8 9 10 13 12 18 19 22 21 
8 10 11 14 13 19 20 23 22 
8 12 13 16 15 21 22 25 24 
8 13 14 17 16 22 23 26 25 

CELL_TYPES 8
12
12
12
12
12
12
12
12

POINT_DATA 27
VECTORS displacement float
0 0 0
-0.0417401 0 0
-0.0834806 0 0
0 -0.0417401 0
-0.04174 -0.04174 0
-0.0834805 -0.04174 0
0 -0.0834806 0
-0.04174 -0.0834805 0
-0.0834802 -0.0834802 0
0 0 0.150018
-0.0417394 0 0.150018
-0.0834788 0 0.150017
0 -0.0417394 0.150018
-0.0417394 -0.0417394 0.150018
-0.0834788 -0.0417394 0.150017
0 -0.0834788 0.150017
-0.0417394 -0.0834788 0.150017
-0.0834788 -0.0834788 0.150017
0 0 0.3
-0.0417387 0 0.3
-0.083477 0 0.3
0 -0.0417387 0.3
-0.0417388 -0.0417388 0.3
-0.0834771 -0.0417388 0.3
0 -0.083477 0.3
-0.0417388 -0.0834771 0.3
-0.0834773 -0.0834773 0.3

CELL_DATA 8
SCALARS part_id int
LOOKUP_TABLE default
0
0
0
0
0
0
0
0
TENSORS stress float
1.09814e-06 1.376e-09 2.25784e-08
1.376e-09 1.09814e-06 2.25772e-08
2.25784e-08 2.25772e-08 0.0208876

1.04394e-06 2.26287e-09 5.72559e-08
2.26287e-09 1.06817e-06 2.1284e-08
5.72559e-08 2.1284e-08 0.0208876

1.06817e-06 2.26158e-09 2.12823e-08
2.26158e-09 1.04393e-06 5.72572e-08
2.12823e-08 5.72572e-08 0.0208876

1.02688e-06 5.5992e-09 5.22888e-08
5.5992e-09 1.02689e-06 5.22874e-08
5.22888e-08 5.22874e-08 0.0208876

-1.11458e-06 -1.37946e-09 2.25787e-08
-1.37946e-09 -1.11458e-06 2.25798e-08
2.25787e-08 2.25798e-08 0.0208848

-1.06035e-06 -2.25902e-09 5.72667e-08
-2.25902e-09 -1.08461e-06 2.12798e-08
5.72667e-08 2.12798e-08 0.0208849

-1.08461e-06 -2.26032e-09 2.12815e-08
-2.26032e-09 -1.06036e-06 5.72654e-08
2.12815e-08 5.72654e-08 0.0208849

-1.04326e-06 -5.60116e-09 5.22994e-08
-5.60116e-09 -1.04325e-06 5.23007e-08
5.22994e-08 5.23007e-08 0.0208849

