# vtk DataFile Version 3.0
time 0.48
ASCII
DATASET UNSTRUCTURED_GRID
POINTS 8 float
0 0 0 1 0 0 1 1 0 
0 1 0 0 0 1 1 0 1 
1 1 1 0 1 1 

CELLS 1 9
8 0 1 2 3 4 5 6 7 

CELL_TYPES 1
12

POINT_DATA 8
VECTORS displacement float
0 0 0
-0.0640677 0 0
-0.0640677 -0.0640677 0
0 -0.0640677 0
0 0 0.24
-0.0640677 0 0.24
-0.0640677 -0.0640677 0.24
0 -0.0640677 0.24

CELL_DATA 1
SCALARS part_id int
LOOKUP_TABLE default
0
TENSORS stress float
-7.39394e-15 4.89142e-18 1.76865e-17
4.89142e-18 -7.38686e-15 2.1877e-17
1.76865e-17 2.1877e-17 0.0830547

SCALARS damage float
LOOKUP_TABLE default
0.645487
