# vtk DataFile Version 3.0
time 0.14
ASCII
DATASET UNSTRUCTURED_GRID
POINTS 8 float
0 0 0 1 0 0 1 1 0 
0 1 0 0 0 1 1 0 1 
1 1 1 0 1 1 

CELLS 1 9
8 0 1 2 3 4 5 6 7 

CELL_TYPES 1
12

POINT_DATA 8
VECTORS displacement float
0 0 0
-0.0202549 0 0
-0.0202549 -0.0202549 0
0 -0.0202549 0
0 0 0.07
-0.0202549 0 0.07
-0.0202549 -0.0202549 0.07
0 -0.0202549 0.07

CELL_DATA 1
SCALARS part_id int
LOOKUP_TABLE default
0
TENSORS stress float
-1.0115e-13 1.16051e-17 1.8472e-17
1.16051e-17 -1.01142e-13 1.75509e-17
1.8472e-17 1.75509e-17 0.0268769

SCALARS damage float
LOOKUP_TABLE default
0.612035
