# vtk DataFile Version 3.0
time 0.43
ASCII
DATASET UNSTRUCTURED_GRID
POINTS 8 float
0 0 0 1 0 0 1 1 0 
0 1 0 0 0 1 1 0 1 
1 1 1 0 1 1 

CELLS 1 9
8 0 1 2 3 4 5 6 7 

CELL_TYPES 1
12

POINT_DATA 8
VECTORS displacement float
0 0 0
-0.0580454 0 0
-0.0580454 -0.0580454 0
0 -0.0580454 0
0 0 0.215
-0.0580454 0 0.215
-0.0580454 -0.0580454 0.215
0 -0.0580454 0.215

CELL_DATA 1
SCALARS part_id int
LOOKUP_TABLE default
0
TENSORS stress float
-9.24864e-15 3.52936e-18 1.16488e-17
3.52936e-18 -9.23597e-15 6.80011e-18
1.16488e-17 6.80011e-18 0.0748278

SCALARS damage float
LOOKUP_TABLE default
0.64388
