# vtk DataFile Version 3.0
time 0.04
ASCII
DATASET UNSTRUCTURED_GRID
POINTS 8 float
0 0 0 1 0 0 1 1 0 
0 1 0 0 0 1 1 0 1 
1 1 1 0 1 1 

CELLS 1 9
8 0 1 2 3 4 5 6 7 

CELL_TYPES 1
12

POINT_DATA 8
VECTORS displacement float
0 0 0
-0.00593722 0 0
-0.00593722 -0.00593722 0
0 -0.00593722 0
0 0 0.02
-0.00593722 0 0.02
-0.00593722 -0.00593722 0.02
0 -0.00593722 0.02

CELL_DATA 1
SCALARS part_id int
LOOKUP_TABLE default
0
TENSORS stress float
-1.34937e-12 8.93206e-18 1.13715e-17
8.93206e-18 -1.34938e-12 1.01317e-17
1.13715e-17 1.01317e-17 0.0100217

SCALARS damage float
LOOKUP_TABLE default
0.497258
