# vtk DataFile Version 3.0
time 0.18
ASCII
DATASET UNSTRUCTURED_GRID
POINTS 8 float
0 0 0 1 0 0 1 1 0 
0 1 0 0 0 1 1 0 1 
1 1 1 0 1 1 

CELLS 1 9
8 0 1 2 3 4 5 6 7 

CELL_TYPES 1
12

POINT_DATA 8
VECTORS displacement float
0 0 0
-0.0257833 0 0
-0.0257833 -0.0257833 0
0 -0.0257833 0
0 0 0.09
-0.0257833 0 0.09
-0.0257833 -0.0257833 0.09
0 -0.0257833 0.09

CELL_DATA 1
SCALARS part_id int
LOOKUP_TABLE default
0
TENSORS stress float
-5.87145e-14 8.30115e-19 7.2975e-18
8.30115e-19 -5.87339e-14 1.99985e-17
7.2975e-18 1.99985e-17 0.0335418

SCALARS damage float
LOOKUP_TABLE default
0.622519
