# vtk DataFile Version 3.0
time 0.27
ASCII
DATASET UNSTRUCTURED_GRID
POINTS 8 float
0 0 0 1 0 0 1 1 0 
0 1 0 0 0 1 1 0 1 
1 1 1 0 1 1 

CELLS 1 9
8 0 1 2 3 4 5 6 7 

CELL_TYPES 1
12

POINT_DATA 8
VECTORS displacement float
0 0 0
-0.0378355 0 0
-0.0378355 -0.0378355 0
0 -0.0378355 0
0 0 0.135
-0.0378355 0 0.135
-0.0378355 -0.0378355 0.135
0 -0.0378355 0.135

CELL_DATA 1
SCALARS part_id int
LOOKUP_TABLE default
0
TENSORS stress float
-2.46752e-14 -5.13241e-18 8.8183e-18
-5.13241e-18 -2.46714e-14 1.73961e-17
8.8183e-18 1.73961e-17 0.0484596

SCALARS damage float
LOOKUP_TABLE default
0.634757
