# vtk DataFile Version 3.0
time 0.5
ASCII
DATASET UNSTRUCTURED_GRID
POINTS 8 float
0 0 0 1 0 0 1 1 0 
0 1 0 0 0 1 1 0 1 
1 1 1 0 1 1 

CELLS 1 9
8 0 1 2 3 4 5 6 7 

CELL_TYPES 1
12

POINT_DATA 8
VECTORS displacement float
0 0 0
-0.0664399 0 0
-0.0664399 -0.0664399 0
0 -0.0664399 0
0 0 0.25
-0.0664399 0 0.25
-0.0664399 -0.0664399 0.25
0 -0.0664399 0.25

CELL_DATA 1
SCALARS part_id int
LOOKUP_TABLE default
0
TENSORS stress float
-6.80338e-15 6.07128e-18 1.76133e-18
6.07128e-18 -6.83009e-15 1.51025e-17
1.76133e-18 1.51025e-17 0.0863461

SCALARS damage float
LOOKUP_TABLE default
0.64604
