# vtk DataFile Version 3.0
time 1
ASCII
DATASET UNSTRUCTURED_GRID
POINTS 8 float
0 0 0 1 0 0 1 1 0 
0 1 0 0 0 1 1 0 1 
1 1 1 0 1 1 

CELLS 1 9
8 0 1 2 3 4 5 6 7 

CELL_TYPES 1
12

POINT_DATA 8
VECTORS displacement float
0 0 0
0.051799 0 0
0.051799 0.051799 0
0 0.051799 0
0 0 -0.15
0.051799 0 -0.15
0.051799 0.051799 -0.15
0 0.051799 -0.15

CELL_DATA 1
SCALARS part_id int
LOOKUP_TABLE default
0
TENSORS stress float
-2.06733e-09 1.63281e-17 -1.03678e-17
1.63281e-17 -2.06733e-09 -2.25031e-17
-1.03678e-17 -2.25031e-17 -0.163545

