# vtk DataFile Version 3.0
time 0.08
ASCII
DATASET UNSTRUCTURED_GRID
POINTS 8 float
0 0 0 1 0 0 1 1 0 
0 1 0 0 0 1 1 0 1 
1 1 1 0 1 1 

CELLS 1 9
8 0 1 2 3 4 5 6 7 

CELL_TYPES 1
12

POINT_DATA 8
VECTORS displacement float
0 0 0
-0.0117521 0 0
-0.0117521 -0.0117521 0
0 -0.0117521 0
0 0 0.04
-0.0117521 0 0.04
-0.0117521 -0.0117521 0.04
0 -0.0117521 0.04

CELL_DATA 1
SCALARS part_id int
LOOKUP_TABLE default
0
TENSORS stress float
-4.35739e-13 -1.24794e-18 1.56865e-17
-1.24794e-18 -4.35739e-13 9.79122e-18
1.56865e-17 9.79122e-18 0.0084899

SCALARS damage float
LOOKUP_TABLE default
0.786404
