# vtk DataFile Version 3.0
time 0.5
ASCII
DATASET UNSTRUCTURED_GRID
POINTS 8 float
0 0 0 1 0 0 1 1 0 
0 1 0 0 0 1 1 0 1 
1 1 1 0 1 1 

CELLS 1 9
8 0 1 2 3 4 5 6 7 

CELL_TYPES 1
12

POINT_DATA 8
VECTORS displacement float
0 0 0
-0.0664399 0 0
-0.0664399 -0.0664399 0
0 -0.0664399 0
0 0 0.25
-0.0664399 0 0.25
-0.0664399 -0.0664399 0.25
0 -0.0664399 0.25

CELL_DATA 1
SCALARS part_id int
LOOKUP_TABLE default
0
TENSORS stress float
-6.26818e-15 -2.99459e-18 4.60198e-18
-2.99459e-18 -6.26239e-15 1.52496e-18
4.60198e-18 1.52496e-18 0.0290382

SCALARS damage float
LOOKUP_TABLE default
0.880963
