# vtk DataFile Version 3.0
time 0.4
ASCII
DATASET UNSTRUCTURED_GRID
POINTS 8 float
0 0 0 1 0 0 1 1 0 
0 1 0 0 0 1 1 0 1 
1 1 1 0 1 1 

CELLS 1 9
8 0 1 2 3 4 5 6 7 

CELL_TYPES 1
12

POINT_DATA 8
VECTORS displacement float
0 0 0
-0.0543674 0 0
-0.0543674 -0.0543674 0
0 -0.0543674 0
0 0 0.2
-0.0543674 0 0.2
-0.0543674 -0.0543674 0.2
0 -0.0543674 0.2

CELL_DATA 1
SCALARS part_id int
LOOKUP_TABLE default
0
TENSORS stress float
-1.09471e-14 1.52562e-18 2.07428e-18
1.52562e-18 -1.09435e-14 3.85245e-18
2.07428e-18 3.85245e-18 0.0241708

SCALARS damage float
LOOKUP_TABLE default
0.876441
