# vtk DataFile Version 3.0
time 0.07
ASCII
DATASET UNSTRUCTURED_GRID
POINTS 8 float
0 0 0 1 0 0 1 1 0 
0 1 0 0 0 1 1 0 1 
1 1 1 0 1 1 

CELLS 1 9
8 0 1 2 3 4 5 6 7 

CELL_TYPES 1
12

POINT_DATA 8
VECTORS displacement float
0 0 0
-0.0103096 0 0
-0.0103096 -0.0103096 0
0 -0.0103096 0
0 0 0.035
-0.0103096 0 0.035
-0.0103096 -0.0103096 0.035
0 -0.0103096 0.035

CELL_DATA 1
SCALARS part_id int
LOOKUP_TABLE default
0
TENSORS stress float
-5.76634e-13 1.34587e-18 6.1773e-18
1.34587e-18 -5.76634e-13 7.35706e-18
6.1773e-18 7.35706e-18 0.00799061

SCALARS damage float
LOOKUP_TABLE default
0.770415
