# vtk DataFile Version 3.0
time 0.37
ASCII
DATASET UNSTRUCTURED_GRID
POINTS 8 float
0 0 0 1 0 0 1 1 0 
0 1 0 0 0 1 1 0 1 
1 1 1 0 1 1 

CELLS 1 9
8 0 1 2 3 4 5 6 7 

CELL_TYPES 1
12

POINT_DATA 8
VECTORS displacement float
0 0 0
-0.0506394 0 0
-0.0506394 -0.0506394 0
0 -0.0506394 0
0 0 0.185
-0.0506394 0 0.185
-0.0506394 -0.0506394 0.185
0 -0.0506394 0.185

CELL_DATA 1
SCALARS part_id int
LOOKUP_TABLE default
0
TENSORS stress float
-1.32744e-14 -1.41294e-18 1.90288e-18
-1.41294e-18 -1.32707e-14 6.72019e-18
1.90288e-18 6.72019e-18 0.0227103

SCALARS damage float
LOOKUP_TABLE default
0.87461
