# vtk DataFile Version 3.0
time 0.38
ASCII
DATASET UNSTRUCTURED_GRID
POINTS 8 float
0 0 0 1 0 0 1 1 0 
0 1 0 0 0 1 1 0 1 
1 1 1 0 1 1 

CELLS 1 9
8 0 1 2 3 4 5 6 7 

CELL_TYPES 1
12

POINT_DATA 8
VECTORS displacement float
0 0 0
-0.0518877 0 0
-0.0518877 -0.0518877 0
0 -0.0518877 0
0 0 0.19
-0.0518877 0 0.19
-0.0518877 -0.0518877 0.19
0 -0.0518877 0.19

CELL_DATA 1
SCALARS part_id int
LOOKUP_TABLE default
0
TENSORS stress float
-1.24327e-14 1.18033e-18 2.45366e-18
1.18033e-18 -1.24327e-14 9.86408e-20
2.45366e-18 9.86408e-20 0.0231972

SCALARS damage float
LOOKUP_TABLE default
0.875253
