# vtk DataFile Version 3.0
time 0.01
ASCII
DATASET UNSTRUCTURED_GRID
POINTS 8 float
0 0 0 1 0 0 1 1 0 
0 1 0 0 0 1 1 0 1 
1 1 1 0 1 1 

CELLS 1 9
8 0 1 2 3 4 5 6 7 

CELL_TYPES 1
12

POINT_DATA 8
VECTORS displacement float
0 0 0
-0.00149604 0 0
-0.00149604 -0.00149604 0
0 -0.00149604 0
0 0 0.005
-0.00149604 0 0.005
-0.00149604 -0.00149604 0.005
0 -0.00149604 0.005

CELL_DATA 1
SCALARS part_id int
LOOKUP_TABLE default
0
TENSORS stress float
-6.38868e-12 -1.11236e-17 2.26159e-17
-1.11236e-17 -6.38869e-12 1.20974e-17
2.26159e-17 1.20974e-17 0.00334322

SCALARS damage float
LOOKUP_TABLE default
0.330786
