# vtk DataFile Version 3.0
time 0.16
ASCII
DATASET UNSTRUCTURED_GRID
POINTS 8 float
0 0 0 1 0 0 1 1 0 
0 1 0 0 0 1 1 0 1 
1 1 1 0 1 1 

CELLS 1 9
8 0 1 2 3 4 5 6 7 

CELL_TYPES 1
12

POINT_DATA 8
VECTORS displacement float
0 0 0
-0.0230328 0 0
-0.0230328 -0.0230328 0
0 -0.0230328 0
0 0 0.08
-0.0230328 0 0.08
-0.0230328 -0.0230328 0.08
0 -0.0230328 0.08

CELL_DATA 1
SCALARS part_id int
LOOKUP_TABLE default
0
TENSORS stress float
-9.49154e-14 5.67204e-18 2.58509e-18
5.67204e-18 -9.49235e-14 3.97063e-18
2.58509e-18 3.97063e-18 0.0124439

SCALARS damage float
LOOKUP_TABLE default
0.842634
