# vtk DataFile Version 3.0
time 0.1
ASCII
DATASET UNSTRUCTURED_GRID
POINTS 8 float
0 0 0 1 0 0 1 1 0 
0 1 0 0 0 1 1 0 1 
1 1 1 0 1 1 

CELLS 1 9
8 0 1 2 3 4 5 6 7 

CELL_TYPES 1
12

POINT_DATA 8
VECTORS displacement float
0 0 0
-0.0146151 0 0
-0.0146151 -0.0146151 0
0 -0.0146151 0
0 0 0.05
-0.0146151 0 0.05
-0.0146151 -0.0146151 0.05
0 -0.0146151 0.05

CELL_DATA 1
SCALARS part_id int
LOOKUP_TABLE default
0
TENSORS stress float
-2.69566e-13 -5.42296e-18 -4.59658e-19
-5.42296e-18 -2.6957e-13 1.98613e-18
-4.59658e-19 1.98613e-18 0.0094826

SCALARS damage float
LOOKUP_TABLE default
0.808873
