# vtk DataFile Version 3.0
time 0.46
ASCII
DATASET UNSTRUCTURED_GRID
POINTS 8 float
0 0 0 1 0 0 1 1 0 
0 1 0 0 0 1 1 0 1 
1 1 1 0 1 1 

CELLS 1 9
8 0 1 2 3 4 5 6 7 

CELL_TYPES 1
12

POINT_DATA 8
VECTORS displacement float
0 0 0
-0.0616747 0 0
-0.0616747 -0.0616747 0
0 -0.0616747 0
0 0 0.23
-0.0616747 0 0.23
-0.0616747 -0.0616747 0.23
0 -0.0616747 0.23

CELL_DATA 1
SCALARS part_id int
LOOKUP_TABLE default
0
TENSORS stress float
-7.74868e-15 -1.60366e-18 3.61021e-18
-1.60366e-18 -7.75276e-15 1.23622e-18
3.61021e-18 1.23622e-18 0.0270909

SCALARS damage float
LOOKUP_TABLE default
0.879389
