# vtk DataFile Version 3.0
time 0.03
ASCII
DATASET UNSTRUCTURED_GRID
POINTS 27 float
0 0 0 0.5 0 0 1 0 0 
0 0.5 0 0.5 0.5 0 1 0.5 0 
0 1 0 0.5 1 0 1 1 0 
0 0 0.5 0.5 0 0.5 1 0 0.5 
0 0.5 0.5 0.5 0.5 0.5 1 0.5 0.5 
0 1 0.5 0.5 1 0.5 1 1 0.5 
0 0 1 0.5 0 1 1 0 1 
0 0.5 1 0.5 0.5 1 1 0.5 1 
0 1 1 0.5 1 1 1 1 1 

CELLS 8 72
8 0 1 4 3 9 10 13 12 
8 1 2 5 4 10 11 14 13 
8 3 4 7 6 12 13 16 15 
8 4 5 8 7 13 14 17 16 
8 9 10 13 12 18 19 22 21 
8 10 11 14 13 19 20 23 22 
8 12 13 16 15 21 22 25 24 
8 13 14 17 16 22 23 26 25 

CELL_TYPES 8
12
12
12
12
12
12
12
12

POINT_DATA 27
VECTORS displacement float
0 0 0
-0.00223229 0 0
-0.00446457 0 0
0 -0.00223229 0
-0.00223229 -0.00223229 0
-0.00446457 -0.00223229 0
0 -0.00446457 0
-0.00223229 -0.00446457 0
-0.00446457 -0.00446457 0
0 0 0.0075
-0.00223229 0 0.0075
-0.00446457 0 0.0075
0 -0.00223229 0.0075
-0.00223229 -0.00223229 0.0075
-0.00446457 -0.00223229 0.0075
0 -0.00446457 0.0075
-0.00223229 -0.00446457 0.0075
-0.00446457 -0.00446457 0.0075
0 0 0.015
-0.00223229 0 0.015
-0.00446457 0 0.015
0 -0.00223229 0.015
-0.00223229 -0.00223229 0.015
-0.00446457 -0.00223229 0.015
0 -0.00446457 0.015
-0.00223229 -0.00446457 0.015
-0.00446457 -0.00446457 0.015

CELL_DATA 8
SCALARS part_id int
LOOKUP_TABLE default
0
0
0
0
0
0
0
0
TENSORS stress float
4.74862e-10 2.62552e-12 3.74929e-11
2.62552e-12 4.74862e-10 3.74929e-11
3.74929e-11 3.74929e-11 0.0111574

3.71197e-10 4.3178e-12 8.88979e-11
4.3178e-12 4.17541e-10 3.53304e-11
8.88979e-11 3.53304e-11 0.0111574

4.17541e-10 4.3178e-12 3.53304e-11
4.3178e-12 3.71197e-10 8.8898e-11
3.53304e-11 8.8898e-11 0.0111574

3.37583e-10 1.06579e-11 8.11014e-11
1.06579e-11 3.37583e-10 8.11014e-11
8.11014e-11 8.11014e-11 0.0111574

-4.79974e-10 -2.6255e-12 3.74929e-11
-2.6255e-12 -4.79974e-10 3.74929e-11
3.74929e-11 3.74929e-11 0.0111574

-3.76308e-10 -4.31782e-12 8.8898e-11
-4.31782e-12 -4.22652e-10 3.53305e-11
8.8898e-11 3.53305e-11 0.0111574

-4.22652e-10 -4.31773e-12 3.53305e-11
-4.31773e-12 -3.76308e-10 8.8898e-11
3.53305e-11 8.8898e-11 0.0111574

-3.42695e-10 -1.06578e-11 8.11015e-11
-1.06578e-11 -3.42695e-10 8.11015e-11
8.11015e-11 8.11015e-11 0.0111574

SCALARS damage float
LOOKUP_TABLE default
0.254307
0.254307
0.254307
0.254307
0.254307
0.254307
0.254307
0.254307
