# vtk DataFile Version 3.0
time 0.3
ASCII
DATASET UNSTRUCTURED_GRID
POINTS 27 float
0 0 0 0.5 0 0 1 0 0 
0 0.5 0 0.5 0.5 0 1 0.5 0 
0 1 0 0.5 1 0 1 1 0 
0 0 0.5 0.5 0 0.5 1 0 0.5 
0 0.5 0.5 0.5 0.5 0.5 1 0.5 0.5 
0 1 0.5 0.5 1 0.5 1 1 0.5 
0 0 1 0.5 0 1 1 0 1 
0 0.5 1 0.5 0.5 1 1 0.5 1 
0 1 1 0.5 1 1 1 1 1 

CELLS 8 72
8 0 1 4 3 9 10 13 12 
8 1 2 5 4 10 11 14 13 
8 3 4 7 6 12 13 16 15 
8 4 5 8 7 13 14 17 16 
8 9 10 13 12 18 19 22 21 
8 10 11 14 13 19 20 23 22 
8 12 13 16 15 21 22 25 24 
8 13 14 17 16 22 23 26 25 

CELL_TYPES 8
12
12
12
12
12
12
12
12

POINT_DATA 27
VECTORS displacement float
0 0 0
-0.0208697 0 0
-0.0417394 0 0
0 -0.0208697 0
-0.0208697 -0.0208697 0
-0.0417394 -0.0208697 0
0 -0.0417394 0
-0.0208697 -0.0417394 0
-0.0417394 -0.0417394 0
0 0 0.075
-0.0208697 0 0.075
-0.0417394 0 0.075
0 -0.0208697 0.075
-0.0208697 -0.0208697 0.075
-0.0417394 -0.0208697 0.075
0 -0.0417394 0.075
-0.0208697 -0.0417394 0.075
-0.0417394 -0.0417394 0.075
0 0 0.15
-0.0208697 0 0.15
-0.0417394 0 0.15
0 -0.0208697 0.15
-0.0208697 -0.0208697 0.15
-0.0417394 -0.0208697 0.15
0 -0.0417394 0.15
-0.0208697 -0.0417394 0.15
-0.0417394 -0.0417394 0.15

CELL_DATA 8
SCALARS part_id int
LOOKUP_TABLE default
0
0
0
0
0
0
0
0
TENSORS stress float
9.12722e-11 7.32869e-13 1.16251e-11
7.32869e-13 9.12722e-11 1.16251e-11
1.16251e-11 1.16251e-11 0.0594544

6.21608e-11 1.25084e-12 3.0853e-11
1.25084e-12 7.55325e-11 1.09592e-11
3.0853e-11 1.09592e-11 0.0594544

7.55325e-11 1.25082e-12 1.09592e-11
1.25082e-12 6.21608e-11 3.0853e-11
1.09592e-11 3.0853e-11 0.0594544

5.29514e-11 2.73029e-12 2.82213e-11
2.73029e-12 5.29514e-11 2.82213e-11
2.82213e-11 2.82213e-11 0.0594544

-9.16278e-11 -7.3285e-13 1.1625e-11
-7.3285e-13 -9.16278e-11 1.1625e-11
1.1625e-11 1.1625e-11 0.0594544

-6.25164e-11 -1.25083e-12 3.0853e-11
-1.25083e-12 -7.58881e-11 1.09592e-11
3.0853e-11 1.09592e-11 0.0594544

-7.58882e-11 -1.25082e-12 1.09592e-11
-1.25082e-12 -6.25165e-11 3.08529e-11
1.09592e-11 3.08529e-11 0.0594544

-5.33069e-11 -2.73029e-12 2.82213e-11
-2.73029e-12 -5.33069e-11 2.82213e-11
2.82213e-11 2.82213e-11 0.0594544

SCALARS damage float
LOOKUP_TABLE default
0.596181
0.596181
0.596181
0.596181
0.596181
0.596181
0.596181
0.596181
