# vtk DataFile Version 3.0
time 0.46
ASCII
DATASET UNSTRUCTURED_GRID
POINTS 27 float
0 0 0 0.5 0 0 1 0 0 
0 0.5 0 0.5 0.5 0 1 0.5 0 
0 1 0 0.5 1 0 1 1 0 
0 0 0.5 0.5 0 0.5 1 0 0.5 
0 0.5 0.5 0.5 0.5 0.5 1 0.5 0.5 
0 1 0.5 0.5 1 0.5 1 1 0.5 
0 0 1 0.5 0 1 1 0 1 
0 0.5 1 0.5 0.5 1 1 0.5 1 
0 1 1 0.5 1 1 1 1 1 

CELLS 8 72
8 0 1 4 3 9 10 13 12 
8 1 2 5 4 10 11 14 13 
8 3 4 7 6 12 13 16 15 
8 4 5 8 7 13 14 17 16 
8 9 10 13 12 18 19 22 21 
8 10 11 14 13 19 20 23 22 
8 12 13 16 15 21 22 25 24 
8 13 14 17 16 22 23 26 25 

CELL_TYPES 8
12
12
12
12
12
12
12
12

POINT_DATA 27
VECTORS displacement float
0 0 0
-0.0308373 0 0
-0.0616747 0 0
0 -0.0308373 0
-0.0308373 -0.0308373 0
-0.0616747 -0.0308373 0
0 -0.0616747 0
-0.0308373 -0.0616747 0
-0.0616747 -0.0616747 0
0 0 0.115
-0.0308373 0 0.115
-0.0616747 0 0.115
0 -0.0308373 0.115
-0.0308373 -0.0308373 0.115
-0.0616747 -0.0308373 0.115
0 -0.0616747 0.115
-0.0308373 -0.0616747 0.115
-0.0616747 -0.0616747 0.115
0 0 0.23
-0.0308373 0 0.23
-0.0616747 0 0.23
0 -0.0308373 0.23
-0.0308373 -0.0308373 0.23
-0.0616747 -0.0308373 0.23
0 -0.0616747 0.23
-0.0308373 -0.0616747 0.23
-0.0616747 -0.0616747 0.23

CELL_DATA 8
SCALARS part_id int
LOOKUP_TABLE default
0
0
0
0
0
0
0
0
TENSORS stress float
4.92147e-11 3.95233e-13 6.63873e-12
3.95233e-13 4.92147e-11 6.63873e-12
6.63873e-12 6.63873e-12 0.0858747

3.35314e-11 6.86599e-13 1.85397e-11
6.86599e-13 4.08043e-11 6.25773e-12
1.85397e-11 6.25773e-12 0.0858747

4.08043e-11 6.86572e-13 6.25771e-12
6.86572e-13 3.35314e-11 1.85397e-11
6.25771e-12 1.85397e-11 0.0858747

2.8618e-11 1.40703e-12 1.69762e-11
1.40703e-12 2.8618e-11 1.69762e-11
1.69762e-11 1.69762e-11 0.0858747

-4.93889e-11 -3.95245e-13 6.63872e-12
-3.95245e-13 -4.93889e-11 6.63874e-12
6.63872e-12 6.63874e-12 0.0858747

-3.37057e-11 -6.86575e-13 1.85397e-11
-6.86575e-13 -4.09786e-11 6.25772e-12
1.85397e-11 6.25772e-12 0.0858747

-4.09786e-11 -6.86591e-13 6.25771e-12
-6.86591e-13 -3.37057e-11 1.85397e-11
6.25771e-12 1.85397e-11 0.0858747

-2.87922e-11 -1.40701e-12 1.69762e-11
-1.40701e-12 -2.87923e-11 1.69763e-11
1.69762e-11 1.69763e-11 0.0858747

SCALARS damage float
LOOKUP_TABLE default
0.61768
0.61768
0.61768
0.61768
0.61768
0.61768
0.61768
0.61768
