# vtk DataFile Version 3.0
time 0.02
ASCII
DATASET UNSTRUCTURED_GRID
POINTS 27 float
0 0 0 0.5 0 0 1 0 0 
0 0.5 0 0.5 0.5 0 1 0.5 0 
0 1 0 0.5 1 0 1 1 0 
0 0 0.5 0.5 0 0.5 1 0 0.5 
0 0.5 0.5 0.5 0.5 0.5 1 0.5 0.5 
0 1 0.5 0.5 1 0.5 1 1 0.5 
0 0 1 0.5 0 1 1 0 1 
0 0.5 1 0.5 0.5 1 1 0.5 1 
0 1 1 0.5 1 1 1 1 1 

CELLS 8 72
8 0 1 4 3 9 10 13 12 
8 1 2 5 4 10 11 14 13 
8 3 4 7 6 12 13 16 15 
8 4 5 8 7 13 14 17 16 
8 9 10 13 12 18 19 22 21 
8 10 11 14 13 19 20 23 22 
8 12 13 16 15 21 22 25 24 
8 13 14 17 16 22 23 26 25 

CELL_TYPES 8
12
12
12
12
12
12
12
12

POINT_DATA 27
VECTORS displacement float
0 0 0
-0.0014921 0 0
-0.0029842 0 0
0 -0.0014921 0
-0.0014921 -0.0014921 0
-0.0029842 -0.0014921 0
0 -0.0029842 0
-0.0014921 -0.0029842 0
-0.0029842 -0.0029842 0
0 0 0.005
-0.0014921 0 0.005
-0.0029842 0 0.005
0 -0.0014921 0.005
-0.0014921 -0.0014921 0.005
-0.0029842 -0.0014921 0.005
0 -0.0029842 0.005
-0.0014921 -0.0029842 0.005
-0.0029842 -0.0029842 0.005
0 0 0.01
-0.0014921 0 0.01
-0.0029842 0 0.01
0 -0.0014921 0.01
-0.0014921 -0.0014921 0.01
-0.0029842 -0.0014921 0.01
0 -0.0029842 0.01
-0.0014921 -0.0029842 0.01
-0.0029842 -0.0029842 0.01

CELL_DATA 8
SCALARS part_id int
LOOKUP_TABLE default
0
0
0
0
0
0
0
0
TENSORS stress float
4.64829e-10 2.14777e-12 3.07035e-11
2.14777e-12 4.64829e-10 3.07035e-11
3.07035e-11 3.07035e-11 0.00810675

3.79696e-10 3.52607e-12 7.25645e-11
3.52607e-12 4.17899e-10 2.89409e-11
7.25645e-11 2.89409e-11 0.00810675

4.17899e-10 3.52605e-12 2.89408e-11
3.52605e-12 3.79696e-10 7.25645e-11
2.89408e-11 7.25645e-11 0.00810675

3.52171e-10 8.74653e-12 6.62253e-11
8.74653e-12 3.52171e-10 6.62253e-11
6.62253e-11 6.62253e-11 0.00810675

-4.70949e-10 -2.14773e-12 3.07035e-11
-2.14773e-12 -4.70949e-10 3.07035e-11
3.07035e-11 3.07035e-11 0.00810674

-3.85816e-10 -3.52599e-12 7.25646e-11
-3.52599e-12 -4.24019e-10 2.89409e-11
7.25646e-11 2.89409e-11 0.00810674

-4.24018e-10 -3.52605e-12 2.89408e-11
-3.52605e-12 -3.85815e-10 7.25645e-11
2.89408e-11 7.25645e-11 0.00810674

-3.58291e-10 -8.74659e-12 6.62254e-11
-8.74659e-12 -3.58291e-10 6.62254e-11
6.62254e-11 6.62254e-11 0.00810674

SCALARS damage float
LOOKUP_TABLE default
0.187957
0.187957
0.187957
0.187957
0.187957
0.187957
0.187957
0.187957
