# vtk DataFile Version 3.0
time 0.05
ASCII
DATASET UNSTRUCTURED_GRID
POINTS 27 float
0 0 0 0.5 0 0 1 0 0 
0 0.5 0 0.5 0.5 0 1 0.5 0 
0 1 0 0.5 1 0 1 1 0 
0 0 0.5 0.5 0 0.5 1 0 0.5 
0 0.5 0.5 0.5 0.5 0.5 1 0.5 0.5 
0 1 0.5 0.5 1 0.5 1 1 0.5 
0 0 1 0.5 0 1 1 0 1 
0 0.5 1 0.5 0.5 1 1 0.5 1 
0 1 1 0.5 1 1 1 1 1 

CELLS 8 72
8 0 1 4 3 9 10 13 12 
8 1 2 5 4 10 11 14 13 
8 3 4 7 6 12 13 16 15 
8 4 5 8 7 13 14 17 16 
8 9 10 13 12 18 19 22 21 
8 10 11 14 13 19 20 23 22 
8 12 13 16 15 21 22 25 24 
8 13 14 17 16 22 23 26 25 

CELL_TYPES 8
12
12
12
12
12
12
12
12

POINT_DATA 27
VECTORS displacement float
0 0 0
-0.00370111 0 0
-0.00740222 0 0
0 -0.00370111 0
-0.00370111 -0.00370111 0
-0.00740222 -0.00370111 0
0 -0.00740222 0
-0.00370111 -0.00740222 0
-0.00740222 -0.00740222 0
0 0 0.0125
-0.00370111 0 0.0125
-0.00740222 0 0.0125
0 -0.00370111 0.0125
-0.00370111 -0.00370111 0.0125
-0.00740222 -0.00370111 0.0125
0 -0.00740222 0.0125
-0.00370111 -0.00740222 0.0125
-0.00740222 -0.00740222 0.0125
0 0 0.025
-0.00370111 0 0.025
-0.00740222 0 0.025
0 -0.00370111 0.025
-0.00370111 -0.00370111 0.025
-0.00740222 -0.00370111 0.025
0 -0.00740222 0.025
-0.00370111 -0.00740222 0.025
-0.00740222 -0.00740222 0.025

CELL_DATA 8
SCALARS part_id int
LOOKUP_TABLE default
0
0
0
0
0
0
0
0
TENSORS stress float
4.51984e-10 2.97628e-12 4.24471e-11
2.97628e-12 4.51984e-10 4.24472e-11
4.24471e-11 4.24472e-11 0.0161557

3.35281e-10 4.91138e-12 1.01356e-10
4.91138e-12 3.87119e-10 3.99789e-11
1.01356e-10 3.99789e-11 0.0161557

3.87119e-10 4.91135e-12 3.99789e-11
4.91135e-12 3.3528e-10 1.01356e-10
3.99789e-11 1.01356e-10 0.0161557

2.97257e-10 1.20023e-11 9.24076e-11
1.20023e-11 2.97257e-10 9.24077e-11
9.24076e-11 9.24077e-11 0.0161557

-4.55597e-10 -2.97632e-12 4.24471e-11
-2.97632e-12 -4.55597e-10 4.24472e-11
4.24471e-11 4.24472e-11 0.0161557

-3.38894e-10 -4.91139e-12 1.01356e-10
-4.91139e-12 -3.90732e-10 3.99789e-11
1.01356e-10 3.99789e-11 0.0161557

-3.90732e-10 -4.91135e-12 3.99789e-11
-4.91135e-12 -3.38894e-10 1.01356e-10
3.99789e-11 1.01356e-10 0.0161557

-3.00871e-10 -1.20023e-11 9.24076e-11
-1.20023e-11 -3.00871e-10 9.24076e-11
9.24076e-11 9.24076e-11 0.0161557

SCALARS damage float
LOOKUP_TABLE default
0.351125
0.351125
0.351125
0.351125
0.351125
0.351125
0.351125
0.351125
