# vtk DataFile Version 3.0
time 0.36
ASCII
DATASET UNSTRUCTURED_GRID
POINTS 27 float
0 0 0 0.5 0 0 1 0 0 
0 0.5 0 0.5 0.5 0 1 0.5 0 
0 1 0 0.5 1 0 1 1 0 
0 0 0.5 0.5 0 0.5 1 0 0.5 
0 0.5 0.5 0.5 0.5 0.5 1 0.5 0.5 
0 1 0.5 0.5 1 0.5 1 1 0.5 
0 0 1 0.5 0 1 1 0 1 
0 0.5 1 0.5 0.5 1 1 0.5 1 
0 1 1 0.5 1 1 1 1 1 

CELLS 8 72
8 0 1 4 3 9 10 13 12 
8 1 2 5 4 10 11 14 13 
8 3 4 7 6 12 13 16 15 
8 4 5 8 7 13 14 17 16 
8 9 10 13 12 18 19 22 21 
8 10 11 14 13 19 20 23 22 
8 12 13 16 15 21 22 25 24 
8 13 14 17 16 22 23 26 25 

CELL_TYPES 8
12
12
12
12
12
12
12
12

POINT_DATA 27
VECTORS displacement float
0 0 0
-0.0246927 0 0
-0.0493854 0 0
0 -0.0246927 0
-0.0246927 -0.0246927 0
-0.0493854 -0.0246927 0
0 -0.0493854 0
-0.0246927 -0.0493854 0
-0.0493854 -0.0493854 0
0 0 0.09
-0.0246927 0 0.09
-0.0493854 0 0.09
0 -0.0246927 0.09
-0.0246927 -0.0246927 0.09
-0.0493854 -0.0246927 0.09
0 -0.0493854 0.09
-0.0246927 -0.0493854 0.09
-0.0493854 -0.0493854 0.09
0 0 0.18
-0.0246927 0 0.18
-0.0493854 0 0.18
0 -0.0246927 0.18
-0.0246927 -0.0246927 0.18
-0.0493854 -0.0246927 0.18
0 -0.0493854 0.18
-0.0246927 -0.0493854 0.18
-0.0493854 -0.0493854 0.18

CELL_DATA 8
SCALARS part_id int
LOOKUP_TABLE default
0
0
0
0
0
0
0
0
TENSORS stress float
7.07121e-11 5.68501e-13 9.21775e-12
5.68501e-13 7.07121e-11 9.21774e-12
9.21775e-12 9.21774e-12 0.0693712

4.813e-11 9.77078e-13 2.49646e-11
9.77078e-13 5.85451e-11 8.68963e-12
2.49646e-11 8.68963e-12 0.0693712

5.85451e-11 9.77087e-13 8.68965e-12
9.77087e-13 4.813e-11 2.49646e-11
8.68965e-12 2.49646e-11 0.0693712

4.10151e-11 2.08124e-12 2.28452e-11
2.08124e-12 4.10151e-11 2.28452e-11
2.28452e-11 2.28452e-11 0.0693712

-7.09766e-11 -5.685e-13 9.21776e-12
-5.685e-13 -7.09766e-11 9.21774e-12
9.21776e-12 9.21774e-12 0.0693712

-4.83945e-11 -9.7708e-13 2.49646e-11
-9.7708e-13 -5.88097e-11 8.68963e-12
2.49646e-11 8.68963e-12 0.0693712

-5.88097e-11 -9.77085e-13 8.68964e-12
-9.77085e-13 -4.83945e-11 2.49647e-11
8.68964e-12 2.49647e-11 0.0693712

-4.12795e-11 -2.08123e-12 2.28452e-11
-2.08123e-12 -4.12795e-11 2.28453e-11
2.28452e-11 2.28453e-11 0.0693712

SCALARS damage float
LOOKUP_TABLE default
0.606474
0.606474
0.606474
0.606474
0.606474
0.606474
0.606474
0.606474
