# vtk DataFile Version 3.0
time 1
ASCII
DATASET UNSTRUCTURED_GRID
POINTS 125 float
0 0 0 1 0 0 2 0 0 
3 0 0 4 0 0 0 1 0 
1 1 0 2 1 0 3 1 0 
4 1 0 0 2 0 1 2 0 
2 2 0 3 2 0 4 2 0 
0 3 0 1 3 0 2 3 0 
3 3 0 4 3 0 0 4 0 
1 4 0 2 4 0 3 4 0 
4 4 0 0 0 1 1 0 1 
2 0 1 3 0 1 4 0 1 
0 1 1 1 1 1 2 1 1 
3 1 1 4 1 1 0 2 1 
1 2 1 2 2 1 3 2 1 
4 2 1 0 3 1 1 3 1 
2 3 1 3 3 1 4 3 1 
0 4 1 1 4 1 2 4 1 
3 4 1 4 4 1 0 0 2 
1 0 2 2 0 2 3 0 2 
4 0 2 0 1 2 1 1 2 
2 1 2 3 1 2 4 1 2 
0 2 2 1 2 2 2 2 2 
3 2 2 4 2 2 0 3 2 
1 3 2 2 3 2 3 3 2 
4 3 2 0 4 2 1 4 2 
2 4 2 3 4 2 4 4 2 
0 0 3 1 0 3 2 0 3 
3 0 3 4 0 3 0 1 3 
1 1 3 2 1 3 3 1 3 
4 1 3 0 2 3 1 2 3 
2 2 3 3 2 3 4 2 3 
0 3 3 1 3 3 2 3 3 
3 3 3 4 3 3 0 4 3 
1 4 3 2 4 3 3 4 3 
4 4 3 0 0 4 1 0 4 
2 0 4 3 0 4 4 0 4 
0 1 4 1 1 4 2 1 4 
3 1 4 4 1 4 0 2 4 
1 2 4 2 2 4 3 2 4 
4 2 4 0 3 4 1 3 4 
2 3 4 3 3 4 4 3 4 
0 4 4 1 4 4 2 4 4 
3 4 4 4 4 4 

CELLS 64 576
8 0 1 6 5 25 26 31 30 
8 1 2 7 6 26 27 32 31 
8 2 3 8 7 27 28 33 32 
8 3 4 9 8 28 29 34 33 
8 5 6 11 10 30 31 36 35 
8 6 7 12 11 31 32 37 36 
8 7 8 13 12 32 33 38 37 
8 8 9 14 13 33 34 39 38 
8 10 11 16 15 35 36 41 40 
8 11 12 17 16 36 37 42 41 
8 12 13 18 17 37 38 43 42 
8 13 14 19 18 38 39 44 43 
8 15 16 21 20 40 41 46 45 
8 16 17 22 21 41 42 47 46 
8 17 18 23 22 42 43 48 47 
8 18 19 24 23 43 44 49 48 
8 25 26 31 30 50 51 56 55 
8 26 27 32 31 51 52 57 56 
8 27 28 33 32 52 53 58 57 
8 28 29 34 33 53 54 59 58 
8 30 31 36 35 55 56 61 60 
8 31 32 37 36 56 57 62 61 
8 32 33 38 37 57 58 63 62 
8 33 34 39 38 58 59 64 63 
8 35 36 41 40 60 61 66 65 
8 36 37 42 41 61 62 67 66 
8 37 38 43 42 62 63 68 67 
8 38 39 44 43 63 64 69 68 
8 40 41 46 45 65 66 71 70 
8 41 42 47 46 66 67 72 71 
8 42 43 48 47 67 68 73 72 
8 43 44 49 48 68 69 74 73 
8 50 51 56 55 75 76 81 80 
8 51 52 57 56 76 77 82 81 
8 52 53 58 57 77 78 83 82 
8 53 54 59 58 78 79 84 83 
8 55 56 61 60 80 81 86 85 
8 56 57 62 61 81 82 87 86 
8 57 58 63 62 82 83 88 87 
8 58 59 64 63 83 84 89 88 
8 60 61 66 65 85 86 91 90 
8 61 62 67 66 86 87 92 91 
8 62 63 68 67 87 88 93 92 
8 63 64 69 68 88 89 94 93 
8 65 66 71 70 90 91 96 95 
8 66 67 72 71 91 92 97 96 
8 67 68 73 72 92 93 98 97 
8 68 69 74 73 93 94 99 98 
8 75 76 81 80 100 101 106 105 
8 76 77 82 81 101 102 107 106 
8 77 78 83 82 102 103 108 107 
8 78 79 84 83 103 104 109 108 
8 80 81 86 85 105 106 111 110 
8 81 82 87 86 106 107 112 111 
8 82 83 88 87 107 108 113 112 
8 83 84 89 88 108 109 114 113 
8 85 86 91 90 110 111 116 115 
8 86 87 92 91 111 112 117 116 
8 87 88 93 92 112 113 118 117 
8 88 89 94 93 113 114 119 118 
8 90 91 96 95 115 116 121 120 
8 91 92 97 96 116 117 122 121 
8 92 93 98 97 117 118 123 122 
8 93 94 99 98 118 119 124 123 

CELL_TYPES 64
12
12
12
12
12
12
12
12
12
12
12
12
12
12
12
12
12
12
12
12
12
12
12
12
12
12
12
12
12
12
12
12
12
12
12
12
12
12
12
12
12
12
12
12
12
12
12
12
12
12
12
12
12
12
12
12
12
12
12
12
12
12
12
12

POINT_DATA 125
VECTORS displacement float
0 0 0
-0.035999 0 0
-0.0606361 0 0
-0.0721375 0 0
-0.0749002 0 0
0 -0.0158067 0
-0.0371655 -0.0139822 0
-0.0626083 -0.00948751 0
-0.0745062 -0.00402697 0
-0.0774572 0.00136849 0
0 -0.029675 0
-0.0409629 -0.026407 0
-0.0688783 -0.01824 0
-0.0818808 -0.00792594 0
-0.0853051 0.00278169 0
0 -0.040199 0
-0.0479277 -0.0362601 0
-0.0800505 -0.0257561 0
-0.0946076 -0.0116834 0
-0.0985913 0.00383979 0
0 -0.0479446 0
-0.0570732 -0.0438581 0
-0.0950306 -0.0323619 0
-0.111968 -0.0154041 0
-0.11662 0.00408907 0
0 0 0.0677891
-0.0354778 0 0.057087
-0.0579449 0 0.0350392
-0.0672801 0 0.0140589
-0.0690577 0 -0.00214358
0 -0.0179312 0.0676862
-0.0366157 -0.0156469 0.0570386
-0.0598944 -0.0103072 0.0351384
-0.0696455 -0.00431443 0.0142578
-0.0716228 0.00125527 -0.00191566
0 -0.0343755 0.0683003
-0.0403605 -0.0300802 0.0575472
-0.066153 -0.0200037 0.0355995
-0.0771128 -0.00848689 0.0148218
-0.0796087 0.00268132 -0.00119818
0 -0.0479756 0.072364
-0.0475901 -0.0421378 0.0606921
-0.0777445 -0.0285722 0.0370239
-0.0903441 -0.0124457 0.0156813
-0.0933731 0.00400326 6.19734e-05
0 -0.0588454 0.0852121
-0.058757 -0.05227 0.0701863
-0.0947889 -0.0360753 0.0413041
-0.109053 -0.0164089 0.0169452
-0.112509 0.00487015 0.000953008
0 0 0.156754
-0.0326094 0 0.125323
-0.0471397 0 0.0682722
-0.0496961 0 0.0252907
-0.048499 0 -0.0077127
0 -0.0241499 0.156739
-0.0336413 -0.0202038 0.125392
-0.0489914 -0.0121697 0.0685395
-0.0520046 -0.00498108 0.0256857
-0.0510478 0.00095572 -0.00732556
0 -0.0490838 0.157734
-0.0370535 -0.040816 0.126286
-0.0551213 -0.0241815 0.0695752
-0.0596032 -0.00972213 0.0268556
-0.0592968 0.00245464 -0.00616666
0 -0.0745514 0.165571
-0.0444572 -0.0610936 0.131696
-0.0674095 -0.0355248 0.0722911
-0.0739939 -0.0139622 0.0285118
-0.074228 0.00431996 -0.00440354
0 -0.0993717 0.194069
-0.0621173 -0.0799486 0.153169
-0.0906907 -0.0460149 0.0786925
-0.0957177 -0.0178819 0.0303622
-0.0953752 0.00586036 -0.00310863
0 0 0.31131
-0.0176648 0 0.2332
-0.0205072 0 0.0925539
-0.0120762 0 0.029175
-0.0102229 0 -0.0143188
0 -0.0331335 0.311384
-0.018348 -0.0266743 0.233493
-0.0222463 -0.0133363 0.0931626
-0.0142159 -0.00570639 0.0296721
-0.0126647 0.000502229 -0.0139184
0 -0.0717045 0.312081
-0.0204908 -0.0568654 0.235099
-0.028091 -0.0270537 0.0950873
-0.021607 -0.0108763 0.0312132
-0.020991 0.00221029 -0.0127053
0 -0.120702 0.318781
-0.0255669 -0.0942329 0.240437
-0.0403693 -0.0403283 0.099178
-0.0369525 -0.0146594 0.0332841
-0.0367732 0.0046314 -0.0111018
0 -0.169605 0.352082
-0.0523623 -0.142066 0.271624
-0.0699719 -0.0513292 0.103609
-0.0608101 -0.0180337 0.0343756
-0.0587278 0.00626325 -0.0101805
0 0 0.5
0.0376726 0 0.5
0.0438898 0 0.0892551
0.0413371 0 0.0319751
0.0391466 0 -0.0182682
0 -0.0374525 0.5
0.0377275 -0.0310794 0.5
0.0424855 -0.0138536 0.0901759
0.0394931 -0.00654385 0.0324944
0.0369282 2.25546e-05 -0.0180643
0 -0.0831346 0.5
0.0382438 -0.0678843 0.5
0.0377272 -0.0282306 0.093131
0.0329009 -0.0121234 0.0339437
0.0289242 0.00177466 -0.0171541
0 -0.147757 0.5
0.0399317 -0.118034 0.5
0.0275381 -0.0410178 0.0977939
0.0180668 -0.0146596 0.0357752
0.0127844 0.00497209 -0.0156938
0 -0.218042 0.5
0.012471 -0.199584 0.5
-0.000620748 -0.0454685 0.0996142
-0.00616253 -0.014926 0.0349773
-0.00936765 0.00730944 -0.0151827

CELL_DATA 64
SCALARS part_id int
LOOKUP_TABLE default
0
0
0
0
0
0
0
0
0
0
0
0
0
0
0
0
0
0
0
0
0
0
0
0
0
0
0
0
0
0
0
0
0
0
0
0
0
0
0
0
0
0
0
0
0
0
0
0
0
0
0
0
0
0
0
0
0
0
0
0
0
0
0
0
TENSORS stress float
-0.00580725 3.9767e-05 -0.000469167
3.9767e-05 -0.00194778 -0.000101165
-0.000469167 -0.000101165 0.0135147

-0.00434827 0.00010289 -0.00109873
0.00010289 -0.00151835 -8.00241e-05
-0.00109873 -8.00241e-05 0.0129224

-0.0022636 0.000124946 -0.0011927
0.000124946 -0.000843338 -4.29939e-05
-0.0011927 -4.29939e-05 0.0108356

-0.000545559 7.9378e-05 -0.000773013
7.9378e-05 0.000125074 -4.30243e-06
-0.000773013 -4.30243e-06 0.0042637

-0.0063028 8.68888e-05 -0.000462008
8.68888e-05 -0.00174104 -0.000283169
-0.000462008 -0.000283169 0.0133105

-0.00476104 0.000219306 -0.00107961
0.000219306 -0.00132397 -0.000228093
-0.00107961 -0.000228093 0.0127932

-0.0025234 0.000255609 -0.00117401
0.000255609 -0.000686081 -0.000126718
-0.00117401 -0.000126718 0.0108555

-0.000615302 0.000149368 -0.000770671
0.000149368 0.000328648 -1.20035e-06
-0.000770671 -1.20035e-06 0.00459077

-0.00712262 5.21552e-05 -0.000469099
5.21552e-05 -0.00128482 -0.000375338
-0.000469099 -0.000375338 0.0130683

-0.0054183 0.000116868 -0.00110988
0.000116868 -0.000904699 -0.000311697
-0.00110988 -0.000311697 0.012659

-0.00289439 0.000119061 -0.00121254
0.000119061 -0.000374505 -0.000189204
-0.00121254 -0.000189204 0.0109572

-0.000698414 4.37948e-05 -0.000805429
4.37948e-05 0.00050849 3.76682e-05
-0.000805429 3.76682e-05 0.00517822

-0.00779757 -2.35353e-05 -0.0005581
-2.35353e-05 -0.000728678 -0.000276367
-0.0005581 -0.000276367 0.0132202

-0.0059413 -7.0232e-05 -0.00133166
-7.0232e-05 -0.000400813 -0.000238676
-0.00133166 -0.000238676 0.0127851

-0.0031919 -9.85893e-05 -0.00148578
-9.85893e-05 -2.65208e-05 -0.000159394
-0.00148578 -0.000159394 0.0112159

-0.000808292 -5.59046e-05 -0.00101964
-5.59046e-05 0.000486752 6.20055e-05
-0.00101964 6.20055e-05 0.00577336

-0.00304216 7.78527e-05 -0.00153149
7.78527e-05 -0.00062054 -0.000241841
-0.00153149 -0.000241841 0.0159312

-0.00167707 0.000194055 -0.00342154
0.000194055 -0.000660712 -0.000184516
-0.00342154 -0.000184516 0.0138987

-0.000134901 0.000214593 -0.00315058
0.000214593 -0.000703801 -9.19034e-05
-0.00315058 -9.19034e-05 0.0105761

0.000262452 0.000127962 -0.00158095
0.000127962 -0.000577016 -2.64289e-06
-0.00158095 -2.64289e-06 0.00216952

-0.00360608 0.000219614 -0.00150954
0.000219614 -0.000766095 -0.000740471
-0.00150954 -0.000740471 0.0156546

-0.00218851 0.00052914 -0.00336078
0.00052914 -0.000716024 -0.000562195
-0.00336078 -0.000562195 0.0137147

-0.000496319 0.000523632 -0.00309395
0.000523632 -0.000621381 -0.000273323
-0.00309395 -0.000273323 0.0105938

0.000153164 0.000260209 -0.00158395
0.000260209 -0.00026068 2.79487e-05
-0.00158395 2.79487e-05 0.00248043

-0.00466034 0.000308006 -0.00152649
0.000308006 -0.000850119 -0.00113045
-0.00152649 -0.00113045 0.0152214

-0.00308664 0.000666981 -0.00338632
0.000666981 -0.000646996 -0.000858832
-0.00338632 -0.000858832 0.0134141

-0.00106099 0.000516077 -0.00316823
0.000516077 -0.000374964 -0.000419197
-0.00316823 -0.000419197 0.0106465

1.60982e-06 0.000119649 -0.0017141
0.000119649 8.64827e-05 0.000120398
-0.0017141 0.000120398 0.00293896

-0.00592116 0.000246388 -0.00175321
0.000246388 -0.000666582 -0.000968156
-0.00175321 -0.000968156 0.0151184

-0.00376473 0.000410485 -0.00401029
0.000410485 -0.000274357 -0.000724375
-0.00401029 -0.000724375 0.0132547

-0.00109806 0.000171312 -0.00385831
0.000171312 8.06945e-05 -0.000397042
-0.00385831 -0.000397042 0.0107264

3.69913e-05 -7.7224e-05 -0.00221995
-7.7224e-05 0.00020289 0.000133321
-0.00221995 0.000133321 0.0033222

0.00299534 0.000111764 -0.00239824
0.000111764 0.00296376 -0.000237158
-0.00239824 -0.000237158 0.0209299

0.00264109 0.000309329 -0.00588353
0.000309329 0.00134914 -0.00016918
-0.00588353 -0.00016918 0.0152026

0.00387907 0.000344422 -0.00405223
0.000344422 -0.000910093 -4.76163e-05
-0.00405223 -4.76163e-05 0.00875936

0.000989705 0.000219836 -0.000113133
0.000219836 -0.00189703 2.8888e-06
-0.000113133 2.8888e-06 -0.000803652

0.00247631 0.000360162 -0.0023668
0.000360162 0.00238404 -0.00079706
-0.0023668 -0.00079706 0.0207204

0.00203721 0.000960133 -0.00580494
0.000960133 0.000953815 -0.000555457
-0.00580494 -0.000555457 0.0150129

0.00338912 0.000930987 -0.00400097
0.000930987 -0.000913173 -0.000136825
-0.00400097 -0.000136825 0.00880382

0.000822551 0.000477057 -0.000112818
0.000477057 -0.00131189 8.80601e-05
-0.000112818 8.80601e-05 -0.000560912

0.00127516 0.000649767 -0.00236185
0.000649767 0.00124154 -0.00153629
-0.00236185 -0.00153629 0.0201584

0.000765491 0.00165609 -0.00571875
0.00165609 0.000291959 -0.00103896
-0.00571875 -0.00103896 0.0145179

0.00246106 0.00115817 -0.00412726
0.00115817 -0.00064518 -0.000163967
-0.00412726 -0.000163967 0.00891595

0.000660495 0.000196106 -0.000302173
0.000196106 -0.000568039 0.000239559
-0.000302173 0.000239559 -0.000222375

-0.00123352 0.0005008 -0.00258671
0.0005008 8.68095e-05 -0.00182076
-0.00258671 -0.00182076 0.019396

-0.000346842 0.00181929 -0.00639646
0.00181929 -7.02234e-05 -0.00128783
-0.00639646 -0.00128783 0.0138136

0.00300195 0.000526865 -0.00492041
0.000526865 0.000225867 -0.000161316
-0.00492041 -0.000161316 0.008939

0.00107936 -0.000240953 -0.000772722
-0.000240953 -0.000436426 0.000141289
-0.000772722 0.000141289 -0.000231436

0.00988628 0.000102786 -0.00022205
0.000102786 0.0070577 -9.1972e-05
-0.00022205 -9.1972e-05 0.0263506

0.00658128 0.000277568 -0.00844816
0.000277568 0.00466361 -0.000120392
-0.00844816 -0.000120392 0.0200205

0.000901319 0.000525097 -0.000459096
0.000525097 -0.00671251 1.63798e-05
-0.000459096 1.63798e-05 -0.000541069

-0.000100763 0.00032913 0.00145244
0.00032913 -0.00259029 -2.4459e-05
0.00145244 -2.4459e-05 -0.000471009

0.00961416 0.000351297 -0.000180569
0.000351297 0.00640987 -0.000323619
-0.000180569 -0.000323619 0.0262717

0.00610637 0.000913054 -0.00839905
0.000913054 0.00424662 -0.000403671
-0.00839905 -0.000403671 0.0199013

0.000226253 0.00150675 -0.000441813
0.00150675 -0.00668395 7.09876e-05
-0.000441813 7.09876e-05 -0.000493741

-0.000400384 0.000749761 0.001496
0.000749761 -0.00168227 1.9049e-05
0.001496 1.9049e-05 -0.000388144

0.00893604 0.000724879 -9.46592e-05
0.000724879 0.00488014 -0.000723252
-9.46592e-05 -0.000723252 0.025923

0.00496071 0.00182776 -0.00828004
0.00182776 0.00340935 -0.000837634
-0.00828004 -0.000837634 0.0195228

-0.00131253 0.00212426 -0.000572366
0.00212426 -0.0059653 0.000270346
-0.000572366 0.000270346 -0.000415579

-0.000693086 0.000295177 0.00149572
0.000295177 -0.00025754 0.000205083
0.00149572 0.000205083 -0.000160545

0.00631112 0.000472556 -7.46822e-05
0.000472556 0.00214366 -0.00130859
-7.46822e-05 -0.00130859 0.0245258

0.0036333 0.00280557 -0.00855207
0.00280557 0.0022565 -0.00161394
-0.00855207 -0.00161394 0.0183623

0.000280315 0.000806945 -0.00110155
0.000806945 -0.00314198 0.000522961
-0.00110155 0.000522961 0.000357597

-4.85372e-05 -0.000553083 0.00148041
-0.000553083 0.000153199 0.000177119
0.00148041 0.000177119 -0.000420144

