# vtk DataFile Version 3.0
time 1
ASCII
DATASET UNSTRUCTURED_GRID
POINTS 225 float
0 0 0 1 0 0 2 0 0 
3 0 0 4 0 0 5 0 0 
6 0 0 7 0 0 8 0 0 
0 1 0 1 1 0 2 1 0 
3 1 0 4 1 0 5 1 0 
6 1 0 7 1 0 8 1 0 
0 2 0 1 2 0 2 2 0 
3 2 0 4 2 0 5 2 0 
6 2 0 7 2 0 8 2 0 
0 3 0 1 3 0 2 3 0 
3 3 0 4 3 0 5 3 0 
6 3 0 7 3 0 8 3 0 
0 4 0 1 4 0 2 4 0 
3 4 0 4 4 0 5 4 0 
6 4 0 7 4 0 8 4 0 
0 0 1 1 0 1 2 0 1 
3 0 1 4 0 1 5 0 1 
6 0 1 7 0 1 8 0 1 
0 1 1 1 1 1 2 1 1 
3 1 1 4 1 1 5 1 1 
6 1 1 7 1 1 8 1 1 
0 2 1 1 2 1 2 2 1 
3 2 1 4 2 1 5 2 1 
6 2 1 7 2 1 8 2 1 
0 3 1 1 3 1 2 3 1 
3 3 1 4 3 1 5 3 1 
6 3 1 7 3 1 8 3 1 
0 4 1 1 4 1 2 4 1 
3 4 1 4 4 1 5 4 1 
6 4 1 7 4 1 8 4 1 
0 0 2 1 0 2 2 0 2 
3 0 2 4 0 2 5 0 2 
6 0 2 7 0 2 8 0 2 
0 1 2 1 1 2 2 1 2 
3 1 2 4 1 2 5 1 2 
6 1 2 7 1 2 8 1 2 
0 2 2 1 2 2 2 2 2 
3 2 2 4 2 2 5 2 2 
6 2 2 7 2 2 8 2 2 
0 3 2 1 3 2 2 3 2 
3 3 2 4 3 2 5 3 2 
6 3 2 7 3 2 8 3 2 
0 4 2 1 4 2 2 4 2 
3 4 2 4 4 2 5 4 2 
6 4 2 7 4 2 8 4 2 
0 0 3 1 0 3 2 0 3 
3 0 3 4 0 3 5 0 3 
6 0 3 7 0 3 8 0 3 
0 1 3 1 1 3 2 1 3 
3 1 3 4 1 3 5 1 3 
6 1 3 7 1 3 8 1 3 
0 2 3 1 2 3 2 2 3 
3 2 3 4 2 3 5 2 3 
6 2 3 7 2 3 8 2 3 
0 3 3 1 3 3 2 3 3 
3 3 3 4 3 3 5 3 3 
6 3 3 7 3 3 8 3 3 
0 4 3 1 4 3 2 4 3 
3 4 3 4 4 3 5 4 3 
6 4 3 7 4 3 8 4 3 
0 0 4 1 0 4 2 0 4 
3 0 4 4 0 4 5 0 4 
6 0 4 7 0 4 8 0 4 
0 1 4 1 1 4 2 1 4 
3 1 4 4 1 4 5 1 4 
6 1 4 7 1 4 8 1 4 
0 2 4 1 2 4 2 2 4 
3 2 4 4 2 4 5 2 4 
6 2 4 7 2 4 8 2 4 
0 3 4 1 3 4 2 3 4 
3 3 4 4 3 4 5 3 4 
6 3 4 7 3 4 8 3 4 
0 4 4 1 4 4 2 4 4 
3 4 4 4 4 4 5 4 4 
6 4 4 7 4 4 8 4 4 

CELLS 128 1152
8 0 1 10 9 45 46 55 54 
8 1 2 11 10 46 47 56 55 
8 2 3 12 11 47 48 57 56 
8 3 4 13 12 48 49 58 57 
8 4 5 14 13 49 50 59 58 
8 5 6 15 14 50 51 60 59 
8 6 7 16 15 51 52 61 60 
8 7 8 17 16 52 53 62 61 
8 9 10 19 18 54 55 64 63 
8 10 11 20 19 55 56 65 64 
8 11 12 21 20 56 57 66 65 
8 12 13 22 21 57 58 67 66 
8 13 14 23 22 58 59 68 67 
8 14 15 24 23 59 60 69 68 
8 15 16 25 24 60 61 70 69 
8 16 17 26 25 61 62 71 70 
8 18 19 28 27 63 64 73 72 
8 19 20 29 28 64 65 74 73 
8 20 21 30 29 65 66 75 74 
8 21 22 31 30 66 67 76 75 
8 22 23 32 31 67 68 77 76 
8 23 24 33 32 68 69 78 77 
8 24 25 34 33 69 70 79 78 
8 25 26 35 34 70 71 80 79 
8 27 28 37 36 72 73 82 81 
8 28 29 38 37 73 74 83 82 
8 29 30 39 38 74 75 84 83 
8 30 31 40 39 75 76 85 84 
8 31 32 41 40 76 77 86 85 
8 32 33 42 41 77 78 87 86 
8 33 34 43 42 78 79 88 87 
8 34 35 44 43 79 80 89 88 
8 45 46 55 54 90 91 100 99 
8 46 47 56 55 91 92 101 100 
8 47 48 57 56 92 93 102 101 
8 48 49 58 57 93 94 103 102 
8 49 50 59 58 94 95 104 103 
8 50 51 60 59 95 96 105 104 
8 51 52 61 60 96 97 106 105 
8 52 53 62 61 97 98 107 106 
8 54 55 64 63 99 100 109 108 
8 55 56 65 64 100 101 110 109 
8 56 57 66 65 101 102 111 110 
8 57 58 67 66 102 103 112 111 
8 58 59 68 67 103 104 113 112 
8 59 60 69 68 104 105 114 113 
8 60 61 70 69 105 106 115 114 
8 61 62 71 70 106 107 116 115 
8 63 64 73 72 108 109 118 117 
8 64 65 74 73 109 110 119 118 
8 65 66 75 74 110 111 120 119 
8 66 67 76 75 111 112 121 120 
8 67 68 77 76 112 113 122 121 
8 68 69 78 77 113 114 123 122 
8 69 70 79 78 114 115 124 123 
8 70 71 80 79 115 116 125 124 
8 72 73 82 81 117 118 127 126 
8 73 74 83 82 118 119 128 127 
8 74 75 84 83 119 120 129 128 
8 75 76 85 84 120 121 130 129 
8 76 77 86 85 121 122 131 130 
8 77 78 87 86 122 123 132 131 
8 78 79 88 87 123 124 133 132 
8 79 80 89 88 124 125 134 133 
8 90 91 100 99 135 136 145 144 
8 91 92 101 100 136 137 146 145 
8 92 93 102 101 137 138 147 146 
8 93 94 103 102 138 139 148 147 
8 94 95 104 103 139 140 149 148 
8 95 96 105 104 140 141 150 149 
8 96 97 106 105 141 142 151 150 
8 97 98 107 106 142 143 152 151 
8 99 100 109 108 144 145 154 153 
8 100 101 110 109 145 146 155 154 
8 101 102 111 110 146 147 156 155 
8 102 103 112 111 147 148 157 156 
8 103 104 113 112 148 149 158 157 
8 104 105 114 113 149 150 159 158 
8 105 106 115 114 150 151 160 159 
8 106 107 116 115 151 152 161 160 
8 108 109 118 117 153 154 163 162 
8 109 110 119 118 154 155 164 163 
8 110 111 120 119 155 156 165 164 
8 111 112 121 120 156 157 166 165 
8 112 113 122 121 157 158 167 166 
8 113 114 123 122 158 159 168 167 
8 114 115 124 123 159 160 169 168 
8 115 116 125 124 160 161 170 169 
8 117 118 127 126 162 163 172 171 
8 118 119 128 127 163 164 173 172 
8 119 120 129 128 164 165 174 173 
8 120 121 130 129 165 166 175 174 
8 121 122 131 130 166 167 176 175 
8 122 123 132 131 167 168 177 176 
8 123 124 133 132 168 169 178 177 
8 124 125 134 133 169 170 179 178 
8 135 136 145 144 180 181 190 189 
8 136 137 146 145 181 182 191 190 
8 137 138 147 146 182 183 192 191 
8 138 139 148 147 183 184 193 192 
8 139 140 149 148 184 185 194 193 
8 140 141 150 149 185 186 195 194 
8 141 142 151 150 186 187 196 195 
8 142 143 152 151 187 188 197 196 
8 144 145 154 153 189 190 199 198 
8 145 146 155 154 190 191 200 199 
8 146 147 156 155 191 192 201 200 
8 147 148 157 156 192 193 202 201 
8 148 149 158 157 193 194 203 202 
8 149 150 159 158 194 195 204 203 
8 150 151 160 159 195 196 205 204 
8 151 152 161 160 196 197 206 205 
8 153 154 163 162 198 199 208 207 
8 154 155 164 163 199 200 209 208 
8 155 156 165 164 200 201 210 209 
8 156 157 166 165 201 202 211 210 
8 157 158 167 166 202 203 212 211 
8 158 159 168 167 203 204 213 212 
8 159 160 169 168 204 205 214 213 
8 160 161 170 169 205 206 215 214 
8 162 163 172 171 207 208 217 216 
8 163 164 173 172 208 209 218 217 
8 164 165 174 173 209 210 219 218 
8 165 166 175 174 210 211 220 219 
8 166 167 176 175 211 212 221 220 
8 167 168 177 176 212 213 222 221 
8 168 169 178 177 213 214 223 222 
8 169 170 179 178 214 215 224 223 

CELL_TYPES 128
12
12
12
12
12
12
12
12
12
12
12
12
12
12
12
12
12
12
12
12
12
12
12
12
12
12
12
12
12
12
12
12
12
12
12
12
12
12
12
12
12
12
12
12
12
12
12
12
12
12
12
12
12
12
12
12
12
12
12
12
12
12
12
12
12
12
12
12
12
12
12
12
12
12
12
12
12
12
12
12
12
12
12
12
12
12
12
12
12
12
12
12
12
12
12
12
12
12
12
12
12
12
12
12
12
12
12
12
12
12
12
12
12
12
12
12
12
12
12
12
12
12
12
12
12
12
12
12

POINT_DATA 225
VECTORS displacement float
0 0 0
0.0398465 0 0
0.131762 0 0
0.272339 0 0
0.416745 0 0
0.568335 0 0
0.713014 0 0
0.857616 0 0
1 0 0
0 0 0
0.0368176 -0.0364646 0
0.137606 -0.0586629 0
0.273402 -0.0661947 0
0.421296 -0.0680355 0
0.569385 -0.0659503 0
0.714583 -0.0653163 0
0.857875 -0.0642369 0
1 -0.0642791 0
0 0 0
0.0441787 -0.0802697 0
0.142684 -0.121479 0
0.286399 -0.136832 0
0.428628 -0.133539 0
0.574932 -0.132177 0
0.716993 -0.128989 0
0.859112 -0.128282 0
1 -0.127467 0
0 0 0
0.0434822 -0.133763 0
0.165556 -0.1998 0
0.303098 -0.200652 0
0.438604 -0.200283 0
0.580327 -0.194328 0
0.719507 -0.192452 0
0.860198 -0.190453 0
1 -0.190387 0
0 0 0
0.0822521 -0.229492 0
0.196891 -0.251166 0
0.308982 -0.266058 0
0.443723 -0.258539 0
0.580323 -0.256565 0
0.720384 -0.25348 0
0.86007 -0.252672 0
1 -0.252144 0
0 0 0
0.0368176 0 -0.0364646
0.137606 0 -0.0586629
0.273402 0 -0.0661947
0.421296 0 -0.0680355
0.569385 0 -0.0659503
0.714583 0 -0.0653163
0.857875 0 -0.0642369
1 0 -0.0642791
0 0 0
0.033927 -0.0351238 -0.0351238
0.143183 -0.0570294 -0.0570294
0.274535 -0.0648895 -0.0648895
0.425699 -0.0672371 -0.0672371
0.570439 -0.065596 -0.065596
0.716124 -0.0651815 -0.0651815
0.858143 -0.0642267 -0.0642267
1 -0.0642895 -0.0642895
0 0 0
0.0414102 -0.0776478 -0.0311129
0.147934 -0.117927 -0.0524532
0.287288 -0.133978 -0.0615327
0.432793 -0.132001 -0.0653191
0.575911 -0.131427 -0.0647843
0.718508 -0.128755 -0.0649438
0.859399 -0.128257 -0.0642452
1 -0.127492 -0.0643621
0 0 0
0.0417648 -0.130898 -0.0275438
0.170295 -0.195188 -0.0479454
0.303878 -0.196708 -0.0585389
0.442508 -0.198089 -0.0637899
0.581354 -0.193358 -0.064403
0.721092 -0.19216 -0.0649161
0.860519 -0.190384 -0.064387
1 -0.190474 -0.0645346
0 0 0
0.079932 -0.225702 -0.0309351
0.201073 -0.245606 -0.0511457
0.310501 -0.262434 -0.0612949
0.448111 -0.255538 -0.065482
0.581896 -0.256 -0.0653529
0.722188 -0.252757 -0.0653123
0.860501 -0.252932 -0.0645303
1 -0.251905 -0.0646268
0 0 0
0.0441787 0 -0.0802697
0.142684 0 -0.121479
0.286399 0 -0.136832
0.428628 0 -0.133539
0.574932 0 -0.132177
0.716993 0 -0.128989
0.859112 0 -0.128282
1 0 -0.127467
0 0 0
0.0414102 -0.0311129 -0.0776478
0.147934 -0.0524532 -0.117927
0.287288 -0.0615327 -0.133978
0.432793 -0.0653191 -0.132001
0.575911 -0.0647843 -0.131427
0.718508 -0.0649438 -0.128755
0.859399 -0.0642452 -0.128257
1 -0.0643621 -0.127492
0 0 0
0.0479938 -0.0692038 -0.0692038
0.152638 -0.10917 -0.10917
0.299253 -0.127302 -0.127302
0.439353 -0.12837 -0.12837
0.581173 -0.129911 -0.129911
0.720964 -0.128324 -0.128324
0.860677 -0.128251 -0.128251
1 -0.127652 -0.127652
0 0 0
0.0481554 -0.120193 -0.059352
0.174966 -0.180814 -0.0993212
0.314603 -0.186719 -0.120754
0.44867 -0.192966 -0.1257
0.586805 -0.191288 -0.128966
0.723702 -0.191475 -0.128249
0.861945 -0.19045 -0.128463
1 -0.190594 -0.127923
0 0 0
0.0841122 -0.214833 -0.0644073
0.205067 -0.231502 -0.103462
0.322743 -0.250829 -0.123396
0.455939 -0.250839 -0.127867
0.588481 -0.253236 -0.129967
0.725332 -0.252363 -0.128704
0.862208 -0.252647 -0.128716
1 -0.252263 -0.127973
0 0 0
0.0434822 0 -0.133763
0.165556 0 -0.1998
0.303098 0 -0.200652
0.438604 0 -0.200283
0.580327 0 -0.194328
0.719507 0 -0.192452
0.860198 0 -0.190453
1 0 -0.190387
0 0 0
0.0417648 -0.0275438 -0.130898
0.170295 -0.0479454 -0.195188
0.303878 -0.0585389 -0.196708
0.442508 -0.0637899 -0.198089
0.581354 -0.064403 -0.193358
0.721092 -0.0649161 -0.19216
0.860519 -0.064387 -0.190384
1 -0.0645346 -0.190474
0 0 0
0.0481554 -0.059352 -0.120193
0.174966 -0.0993212 -0.180814
0.314603 -0.120754 -0.186719
0.44867 -0.1257 -0.192966
0.586805 -0.128966 -0.191288
0.723702 -0.128249 -0.191475
0.861945 -0.128463 -0.19045
1 -0.127923 -0.190594
0 0 0
0.0513921 -0.103092 -0.103092
0.195589 -0.164352 -0.164352
0.327962 -0.178203 -0.178203
0.45844 -0.189183 -0.189183
0.59269 -0.189934 -0.189934
0.726917 -0.191281 -0.191281
0.863396 -0.19062 -0.19062
1 -0.1909 -0.1909
0 0 0
0.0861679 -0.193406 -0.103778
0.225624 -0.209627 -0.163895
0.338535 -0.241519 -0.178951
0.467679 -0.245528 -0.190039
0.595398 -0.251506 -0.190228
0.72926 -0.251743 -0.191716
0.863875 -0.252718 -0.190615
1 -0.252413 -0.191161
0 0 0
0.0822521 0 -0.229492
0.196891 0 -0.251166
0.308982 0 -0.266058
0.443723 0 -0.258539
0.580323 0 -0.256565
0.720384 0 -0.25348
0.86007 0 -0.252672
1 0 -0.252144
0 0 0
0.079932 -0.0309351 -0.225702
0.201073 -0.0511457 -0.245606
0.310501 -0.0612949 -0.262434
0.448111 -0.065482 -0.255538
0.581896 -0.0653529 -0.256
0.722188 -0.0653123 -0.252757
0.860501 -0.0645303 -0.252932
1 -0.0646268 -0.251905
0 0 0
0.0841122 -0.0644073 -0.214833
0.205067 -0.103462 -0.231502
0.322743 -0.123396 -0.250829
0.455939 -0.127867 -0.250839
0.588481 -0.129967 -0.253236
0.725332 -0.128704 -0.252363
0.862208 -0.128716 -0.252647
1 -0.127973 -0.252263
0 0 0
0.0861679 -0.103778 -0.193406
0.225624 -0.163895 -0.209627
0.338535 -0.178951 -0.241519
0.467679 -0.190039 -0.245528
0.595398 -0.190228 -0.251506
0.72926 -0.191716 -0.251743
0.863875 -0.190615 -0.252718
1 -0.191161 -0.252413
0 0 0
0.121497 -0.186014 -0.186014
0.256271 -0.203533 -0.203533
0.351082 -0.241433 -0.241433
0.47793 -0.243374 -0.243374
0.598773 -0.252136 -0.252136
0.731987 -0.251093 -0.251093
0.864451 -0.253232 -0.253232
1 -0.252062 -0.252062
VECTORS displacement float
0 0 0
0.0398465 0 0
0.131762 0 0
0.272339 0 0
0.416745 0 0
0.568335 0 0
0.713014 0 0
0.857616 0 0
1 0 0
0 0 0
0.0368176 -0.0364646 0
0.137606 -0.0586629 0
0.273402 -0.0661947 0
0.421296 -0.0680355 0
0.569385 -0.0659503 0
0.714583 -0.0653163 0
0.857875 -0.0642369 0
1 -0.0642791 0
0 0 0
0.0441787 -0.0802697 0
0.142684 -0.121479 0
0.286399 -0.136832 0
0.428628 -0.133539 0
0.574932 -0.132177 0
0.716993 -0.128989 0
0.859112 -0.128282 0
1 -0.127467 0
0 0 0
0.0434822 -0.133763 0
0.165556 -0.1998 0
0.303098 -0.200652 0
0.438604 -0.200283 0
0.580327 -0.194328 0
0.719507 -0.192452 0
0.860198 -0.190453 0
1 -0.190387 0
0 0 0
0.0822521 -0.229492 0
0.196891 -0.251166 0
0.308982 -0.266058 0
0.443723 -0.258539 0
0.580323 -0.256565 0
0.720384 -0.25348 0
0.86007 -0.252672 0
1 -0.252144 0
0 0 0
0.0368176 0 -0.0364646
0.137606 0 -0.0586629
0.273402 0 -0.0661947
0.421296 0 -0.0680355
0.569385 0 -0.0659503
0.714583 0 -0.0653163
0.857875 0 -0.0642369
1 0 -0.0642791
0 0 0
0.033927 -0.0351238 -0.0351238
0.143183 -0.0570294 -0.0570294
0.274535 -0.0648895 -0.0648895
0.425699 -0.0672371 -0.0672371
0.570439 -0.065596 -0.065596
0.716124 -0.0651815 -0.0651815
0.858143 -0.0642267 -0.0642267
1 -0.0642895 -0.0642895
0 0 0
0.0414102 -0.0776478 -0.0311129
0.147934 -0.117927 -0.0524532
0.287288 -0.133978 -0.0615327
0.432793 -0.132001 -0.0653191
0.575911 -0.131427 -0.0647843
0.718508 -0.128755 -0.0649438
0.859399 -0.128257 -0.0642452
1 -0.127492 -0.0643621
0 0 0
0.0417648 -0.130898 -0.0275438
0.170295 -0.195188 -0.0479454
0.303878 -0.196708 -0.0585389
0.442508 -0.198089 -0.0637899
0.581354 -0.193358 -0.064403
0.721092 -0.19216 -0.0649161
0.860519 -0.190384 -0.064387
1 -0.190474 -0.0645346
0 0 0
0.079932 -0.225702 -0.0309351
0.201073 -0.245606 -0.0511457
0.310501 -0.262434 -0.0612949
0.448111 -0.255538 -0.065482
0.581896 -0.256 -0.0653529
0.722188 -0.252757 -0.0653123
0.860501 -0.252932 -0.0645303
1 -0.251905 -0.0646268
0 0 0
0.0441787 0 -0.0802697
0.142684 0 -0.121479
0.286399 0 -0.136832
0.428628 0 -0.133539
0.574932 0 -0.132177
0.716993 0 -0.128989
0.859112 0 -0.128282
1 0 -0.127467
0 0 0
0.0414102 -0.0311129 -0.0776478
0.147934 -0.0524532 -0.117927
0.287288 -0.0615327 -0.133978
0.432793 -0.0653191 -0.132001
0.575911 -0.0647843 -0.131427
0.718508 -0.0649438 -0.128755
0.859399 -0.0642452 -0.128257
1 -0.0643621 -0.127492
0 0 0
0.0479938 -0.0692038 -0.0692038
0.152638 -0.10917 -0.10917
0.299253 -0.127302 -0.127302
0.439353 -0.12837 -0.12837
0.581173 -0.129911 -0.129911
0.720964 -0.128324 -0.128324
0.860677 -0.128251 -0.128251
1 -0.127652 -0.127652
0 0 0
0.0481554 -0.120193 -0.059352
0.174966 -0.180814 -0.0993212
0.314603 -0.186719 -0.120754
0.44867 -0.192966 -0.1257
0.586805 -0.191288 -0.128966
0.723702 -0.191475 -0.128249
0.861945 -0.19045 -0.128463
1 -0.190594 -0.127923
0 0 0
0.0841122 -0.214833 -0.0644073
0.205067 -0.231502 -0.103462
0.322743 -0.250829 -0.123396
0.455939 -0.250839 -0.127867
0.588481 -0.253236 -0.129967
0.725332 -0.252363 -0.128704
0.862208 -0.252647 -0.128716
1 -0.252263 -0.127973
0 0 0
0.0434822 0 -0.133763
0.165556 0 -0.1998
0.303098 0 -0.200652
0.438604 0 -0.200283
0.580327 0 -0.194328
0.719507 0 -0.192452
0.860198 0 -0.190453
1 0 -0.190387
0 0 0
0.0417648 -0.0275438 -0.130898
0.170295 -0.0479454 -0.195188
0.303878 -0.0585389 -0.196708
0.442508 -0.0637899 -0.198089
0.581354 -0.064403 -0.193358
0.721092 -0.0649161 -0.19216
0.860519 -0.064387 -0.190384
1 -0.0645346 -0.190474
0 0 0
0.0481554 -0.059352 -0.120193
0.174966 -0.0993212 -0.180814
0.314603 -0.120754 -0.186719
0.44867 -0.1257 -0.192966
0.586805 -0.128966 -0.191288
0.723702 -0.128249 -0.191475
0.861945 -0.128463 -0.19045
1 -0.127923 -0.190594
0 0 0
0.0513921 -0.103092 -0.103092
0.195589 -0.164352 -0.164352
0.327962 -0.178203 -0.178203
0.45844 -0.189183 -0.189183
0.59269 -0.189934 -0.189934
0.726917 -0.191281 -0.191281
0.863396 -0.19062 -0.19062
1 -0.1909 -0.1909
0 0 0
0.0861679 -0.193406 -0.103778
0.225624 -0.209627 -0.163895
0.338535 -0.241519 -0.178951
0.467679 -0.245528 -0.190039
0.595398 -0.251506 -0.190228
0.72926 -0.251743 -0.191716
0.863875 -0.252718 -0.190615
1 -0.252413 -0.191161
0 0 0
0.0822521 0 -0.229492
0.196891 0 -0.251166
0.308982 0 -0.266058
0.443723 0 -0.258539
0.580323 0 -0.256565
0.720384 0 -0.25348
0.86007 0 -0.252672
1 0 -0.252144
0 0 0
0.079932 -0.0309351 -0.225702
0.201073 -0.0511457 -0.245606
0.310501 -0.0612949 -0.262434
0.448111 -0.065482 -0.255538
0.581896 -0.0653529 -0.256
0.722188 -0.0653123 -0.252757
0.860501 -0.0645303 -0.252932
1 -0.0646268 -0.251905
0 0 0
0.0841122 -0.0644073 -0.214833
0.205067 -0.103462 -0.231502
0.322743 -0.123396 -0.250829
0.455939 -0.127867 -0.250839
0.588481 -0.129967 -0.253236
0.725332 -0.128704 -0.252363
0.862208 -0.128716 -0.252647
1 -0.127973 -0.252263
0 0 0
0.0861679 -0.103778 -0.193406
0.225624 -0.163895 -0.209627
0.338535 -0.178951 -0.241519
0.467679 -0.190039 -0.245528
0.595398 -0.190228 -0.251506
0.72926 -0.191716 -0.251743
0.863875 -0.190615 -0.252718
1 -0.191161 -0.252413
0 0 0
0.121497 -0.186014 -0.186014
0.256271 -0.203533 -0.203533
0.351082 -0.241433 -0.241433
0.47793 -0.243374 -0.243374
0.598773 -0.252136 -0.252136
0.731987 -0.251093 -0.251093
0.864451 -0.253232 -0.253232
1 -0.252062 -0.252062

CELL_DATA 128
SCALARS part_id int
LOOKUP_TABLE default
0
0
0
0
0
0
0
0
0
0
0
0
0
0
0
0
0
0
0
0
0
0
0
0
0
0
0
0
0
0
0
0
0
0
0
0
0
0
0
0
0
0
0
0
0
0
0
0
0
0
0
0
0
0
0
0
0
0
0
0
0
0
0
0
0
0
0
0
0
0
0
0
0
0
0
0
0
0
0
0
0
0
0
0
0
0
0
0
0
0
0
0
0
0
0
0
0
0
0
0
0
0
0
0
0
0
0
0
0
0
0
0
0
0
0
0
0
0
0
0
0
0
0
0
0
0
0
0
TENSORS stress float
0.155245 -0.00695015 -0.00695015
-0.00695015 0.116613 0.000454726
-0.00695015 0.000454726 0.116613

0.183355 -0.00413702 -0.00413702
-0.00413702 0.0670425 0.000448862
-0.00413702 0.000448862 0.0670425

0.189801 -0.000483359 -0.000483359
-0.000483359 0.0221506 0.000339176
-0.000483359 0.000339176 0.0221506

0.19247 0.00058817 0.00058817
0.00058817 0.00561412 0.000232604
0.00058817 0.000232604 0.00561412

0.18461 0.00153073 0.00153073
0.00153073 -0.0027317 0.000132949
0.00153073 0.000132949 -0.0027317

0.18059 0.000632513 0.000632513
0.000632513 -0.00191545 5.51394e-05
0.000632513 5.51394e-05 -0.00191545

0.176858 0.00059426 0.00059426
0.00059426 -0.00257991 1.70951e-05
0.00059426 1.70951e-05 -0.00257991

0.175657 3.85734e-05 3.85734e-05
3.85734e-05 -0.00187394 -2.04073e-08
3.85734e-05 -2.04073e-08 -0.00187394

0.159094 -0.0194486 -0.0065842
-0.0194486 0.117284 0.00128655
-0.0065842 0.00128655 0.118205

0.177038 -0.0110454 -0.00419171
-0.0110454 0.0545593 0.00130457
-0.00419171 0.00130457 0.0582966

0.191872 -0.00202873 -0.000744833
-0.00202873 0.0200194 0.000991809
-0.000744833 0.000991809 0.023088

0.186216 0.00403056 0.00031642
0.00403056 0.000565601 0.000651959
0.00031642 0.000651959 0.00174452

0.182527 0.0031576 0.00129754
0.0031576 -0.000587251 0.0003518
0.00129754 0.0003518 -0.000674625

0.177693 0.00235754 0.000525908
0.00235754 -0.00263545 0.000143136
0.000525908 0.000143136 -0.00278271

0.175805 0.00109015 0.000544589
0.00109015 -0.00147905 3.63581e-05
0.000544589 3.63581e-05 -0.00184714

0.174568 0.0004154 3.24639e-05
0.0004154 -0.0016007 -5.04986e-06
3.24639e-05 -5.04986e-06 -0.00189865

0.141093 -0.0387928 -0.00602857
-0.0387928 0.0954065 0.00186796
-0.00602857 0.00186796 0.0943798

0.186708 -0.0186239 -0.0042377
-0.0186239 0.0461941 0.00165789
-0.0042377 0.00165789 0.0570497

0.176007 0.00348412 -0.00114341
0.00348412 0.000559093 0.00127159
-0.00114341 0.00127159 0.00746754

0.180353 0.00560002 -9.3568e-05
0.00560002 0.00477594 0.000842458
-9.3568e-05 0.000842458 0.00584538

0.17458 0.00445737 0.000977833
0.00445737 -0.00353062 0.00042157
0.000977833 0.00042157 -0.00373365

0.175285 0.00259984 0.000414851
0.00259984 0.000169477 0.000151142
0.000414851 0.000151142 -0.00075484

0.173367 0.00129554 0.000501935
0.00129554 -0.0016046 3.00914e-05
0.000501935 3.00914e-05 -0.00242932

0.173401 0.000396742 2.74079e-05
0.000396742 -0.000622956 -1.85752e-05
2.74079e-05 -1.85752e-05 -0.0014459

0.16334 -0.0633576 -0.00654757
-0.0633576 0.093556 0.00221479
-0.00654757 0.00221479 0.0907356

0.147026 -0.00618631 -0.0042829
-0.00618631 -0.00685423 0.000800257
-0.0042829 0.000800257 0.00849389

0.157471 0.00315703 -0.00127798
0.00315703 0.00816285 0.000696891
-0.00127798 0.000696891 0.00973468

0.165731 0.00379932 -7.92352e-05
0.00379932 -0.00293534 0.000469137
-7.92352e-05 0.000469137 -0.00323252

0.170603 0.0025238 0.000985037
0.0025238 0.00110383 0.000235418
0.000985037 0.000235418 -0.000997493

0.172181 0.00135204 0.000520059
0.00135204 -0.000896997 6.90186e-05
0.000520059 6.90186e-05 -0.00241648

0.172681 0.000696026 0.000550642
0.000696026 2.34757e-05 1.6944e-05
0.000550642 1.6944e-05 -0.00141102

0.172722 0.0001661 4.36161e-05
0.0001661 -0.000320584 -1.54299e-05
4.36161e-05 -1.54299e-05 -0.00145817

0.159094 -0.0065842 -0.0194486
-0.0065842 0.118205 0.00128655
-0.0194486 0.00128655 0.117284

0.177038 -0.00419171 -0.0110454
-0.00419171 0.0582966 0.00130457
-0.0110454 0.00130457 0.0545593

0.191872 -0.000744833 -0.00202873
-0.000744833 0.023088 0.000991809
-0.00202873 0.000991809 0.0200194

0.186216 0.00031642 0.00403056
0.00031642 0.00174452 0.000651959
0.00403056 0.000651959 0.000565601

0.182527 0.00129754 0.0031576
0.00129754 -0.000674625 0.0003518
0.0031576 0.0003518 -0.000587251

0.177693 0.000525908 0.00235754
0.000525908 -0.00278271 0.000143136
0.00235754 0.000143136 -0.00263545

0.175805 0.000544589 0.00109015
0.000544589 -0.00184714 3.63581e-05
0.00109015 3.63581e-05 -0.00147905

0.174568 3.24639e-05 0.0004154
3.24639e-05 -0.00189865 -5.04986e-06
0.0004154 -5.04986e-06 -0.0016007

0.163497 -0.0183931 -0.0183931
-0.0183931 0.119621 0.0037518
-0.0183931 0.0037518 0.119621

0.171666 -0.0112302 -0.0112302
-0.0112302 0.0468653 0.00374422
-0.0112302 0.00374422 0.0468653

0.19385 -0.00269982 -0.00269982
-0.00269982 0.0209468 0.00268668
-0.00269982 0.00268668 0.0209468

0.180481 0.00315393 0.00315393
0.00315393 -0.00278889 0.00175016
0.00315393 0.00175016 -0.00278889

0.180618 0.00252386 0.00252386
0.00252386 0.00128865 0.000892834
0.00252386 0.000892834 0.00128865

0.174989 0.0020491 0.0020491
0.0020491 -0.00345717 0.00034465
0.0020491 0.00034465 -0.00345717

0.174722 0.000975312 0.000975312
0.000975312 -0.000819203 7.59498e-05
0.000975312 7.59498e-05 -0.000819203

0.173449 0.00038431 0.00038431
0.00038431 -0.00163194 -2.71034e-05
0.00038431 -2.71034e-05 -0.00163194

0.147443 -0.0369436 -0.0168397
-0.0369436 0.0991855 0.00570269
-0.0168397 0.00570269 0.0983743

0.182747 -0.0183107 -0.0118414
-0.0183107 0.0396699 0.00514116
-0.0118414 0.00514116 0.047666

0.178959 0.002413 -0.00379826
0.002413 0.00298785 0.0035973
-0.00379826 0.0035973 0.00695369

0.175396 0.00417459 0.00170533
0.00417459 0.0018097 0.0022221
0.00170533 0.0022221 0.00175611

0.173318 0.00356338 0.00170975
0.00356338 -0.00160153 0.00101642
0.00170975 0.00101642 -0.0017017

0.172665 0.00221147 0.001714
0.00221147 -0.000733681 0.000353733
0.001714 0.000353733 -0.00147372

0.172237 0.00114116 0.000876334
0.00114116 -0.000990609 4.77285e-05
0.000876334 4.77285e-05 -0.0014318

0.172166 0.00036325 0.000362521
0.00036325 -0.00069593 -6.364e-05
0.000362521 -6.364e-05 -0.00120314

0.168379 -0.0612482 -0.0181981
-0.0612482 0.0957165 0.00647066
-0.0181981 0.00647066 0.0946453

0.146584 -0.00559328 -0.0120985
-0.00559328 -0.0110166 0.00253063
-0.0120985 0.00253063 0.00323053

0.16217 0.00220686 -0.0040103
0.00220686 0.0105741 0.00219543
-0.0040103 0.00219543 0.0109179

0.162503 0.00260847 0.00136431
0.00260847 -0.00498992 0.00126656
0.00136431 0.00126656 -0.00540631

0.169381 0.00188104 0.00180861
0.00188104 0.00258049 0.000507574
0.00180861 0.000507574 0.00103699

0.169358 0.001084 0.00188426
0.001084 -0.00176426 0.000179619
0.00188426 0.000179619 -0.00286679

0.171345 0.000561586 0.000979273
0.000561586 0.00054579 3.89856e-06
0.000979273 3.89856e-06 -0.000440264

0.171226 0.000161691 0.000422591
0.000161691 -0.00044021 -4.47897e-05
0.000422591 -4.47897e-05 -0.00124522

0.141093 -0.00602857 -0.0387928
-0.00602857 0.0943798 0.00186796
-0.0387928 0.00186796 0.0954065

0.186708 -0.0042377 -0.0186239
-0.0042377 0.0570497 0.00165789
-0.0186239 0.00165789 0.0461941

0.176007 -0.00114341 0.00348412
-0.00114341 0.00746754 0.00127159
0.00348412 0.00127159 0.000559093

0.180353 -9.3568e-05 0.00560002
-9.3568e-05 0.00584538 0.000842458
0.00560002 0.000842458 0.00477594

0.17458 0.000977833 0.00445737
0.000977833 -0.00373365 0.00042157
0.00445737 0.00042157 -0.00353062

0.175285 0.000414851 0.00259984
0.000414851 -0.00075484 0.000151142
0.00259984 0.000151142 0.000169477

0.173367 0.000501935 0.00129554
0.000501935 -0.00242932 3.00914e-05
0.00129554 3.00914e-05 -0.0016046

0.173401 2.74079e-05 0.000396742
2.74079e-05 -0.0014459 -1.85752e-05
0.000396742 -1.85752e-05 -0.000622956

0.147443 -0.0168397 -0.0369436
-0.0168397 0.0983743 0.00570269
-0.0369436 0.00570269 0.0991855

0.182747 -0.0118414 -0.0183107
-0.0118414 0.047666 0.00514116
-0.0183107 0.00514116 0.0396699

0.178959 -0.00379826 0.002413
-0.00379826 0.00695369 0.0035973
0.002413 0.0035973 0.00298785

0.175396 0.00170533 0.00417459
0.00170533 0.00175611 0.0022221
0.00417459 0.0022221 0.0018097

0.173318 0.00170975 0.00356338
0.00170975 -0.0017017 0.00101642
0.00356338 0.00101642 -0.00160153

0.172665 0.001714 0.00221147
0.001714 -0.00147372 0.000353733
0.00221147 0.000353733 -0.000733681

0.172237 0.000876334 0.00114116
0.000876334 -0.0014318 4.77285e-05
0.00114116 4.77285e-05 -0.000990609

0.172166 0.000362521 0.00036325
0.000362521 -0.00120314 -6.364e-05
0.00036325 -6.364e-05 -0.00069593

0.139609 -0.0336286 -0.0336286
-0.0336286 0.0858734 0.00963164
-0.0336286 0.00963164 0.0858734

0.193805 -0.0189015 -0.0189015
-0.0189015 0.041138 0.00773856
-0.0189015 0.00773856 0.041138

0.16581 3.54632e-05 3.54632e-05
3.54632e-05 -0.00798849 0.00470282
3.54632e-05 0.00470282 -0.00798849

0.172256 0.00193433 0.00193433
0.00193433 0.00635494 0.00247041
0.00193433 0.00247041 0.00635494

0.166722 0.00251175 0.00251175
0.00251175 -0.00446145 0.00100315
0.00251175 0.00100315 -0.00446145

0.170305 0.00177192 0.00177192
0.00177192 0.000976153 0.000298706
0.00177192 0.000298706 0.000976153

0.169656 0.00101551 0.00101551
0.00101551 -0.00157224 -1.01363e-05
0.00101551 -1.01363e-05 -0.00157224

0.170614 0.000344698 0.000344698
0.000344698 -0.00034988 -0.000108008
0.000344698 -0.000108008 -0.00034988

0.165729 -0.0568621 -0.0346222
-0.0568621 0.086078 0.0116379
-0.0346222 0.0116379 0.0887063

0.162988 -0.00567257 -0.0192218
-0.00567257 -0.00549845 0.00464388
-0.0192218 0.00464388 0.00372891

0.155517 -0.000433072 -0.00132569
-0.000433072 0.00410155 0.00293107
-0.00132569 0.00293107 0.0022746

0.160939 0.000957569 0.00122236
0.000957569 -0.000514782 0.00119265
0.00122236 0.00119265 -0.000174221

0.162767 0.00116221 0.00253957
0.00116221 -0.000158664 0.000456153
0.00253957 0.000456153 -0.00119479

0.16688 0.000700834 0.00181195
0.000700834 4.22649e-05 0.000100544
0.00181195 0.000100544 -0.000223556

0.168135 0.00050384 0.00116177
0.00050384 -0.000285733 -3.05955e-05
0.00116177 -3.05955e-05 -0.000787336

0.16934 0.000102013 0.000352421
0.000102013 -0.000100107 -7.09314e-05
0.000352421 -7.09314e-05 -0.000409852

0.16334 -0.00654757 -0.0633576
-0.00654757 0.0907356 0.00221479
-0.0633576 0.00221479 0.093556

0.147026 -0.0042829 -0.00618631
-0.0042829 0.00849389 0.000800257
-0.00618631 0.000800257 -0.00685423

0.157471 -0.00127798 0.00315703
-0.00127798 0.00973468 0.000696891
0.00315703 0.000696891 0.00816285

0.165731 -7.92352e-05 0.00379932
-7.92352e-05 -0.00323252 0.000469137
0.00379932 0.000469137 -0.00293534

0.170603 0.000985037 0.0025238
0.000985037 -0.000997493 0.000235418
0.0025238 0.000235418 0.00110383

0.172181 0.000520059 0.00135204
0.000520059 -0.00241648 6.90186e-05
0.00135204 6.90186e-05 -0.000896997

0.172681 0.000550642 0.000696026
0.000550642 -0.00141102 1.6944e-05
0.000696026 1.6944e-05 2.34757e-05

0.172722 4.36161e-05 0.0001661
4.36161e-05 -0.00145817 -1.54299e-05
0.0001661 -1.54299e-05 -0.000320584

0.168379 -0.0181981 -0.0612482
-0.0181981 0.0946453 0.00647066
-0.0612482 0.00647066 0.0957165

0.146584 -0.0120985 -0.00559328
-0.0120985 0.00323053 0.00253063
-0.00559328 0.00253063 -0.0110166

0.16217 -0.0040103 0.00220686
-0.0040103 0.0109179 0.00219543
0.00220686 0.00219543 0.0105741

0.162503 0.00136431 0.00260847
0.00136431 -0.00540631 0.00126656
0.00260847 0.00126656 -0.00498992

0.169381 0.00180861 0.00188104
0.00180861 0.00103699 0.000507574
0.00188104 0.000507574 0.00258049

0.169358 0.00188426 0.001084
0.00188426 -0.00286679 0.000179619
0.001084 0.000179619 -0.00176426

0.171345 0.000979273 0.000561586
0.000979273 -0.000440264 3.89856e-06
0.000561586 3.89856e-06 0.00054579

0.171226 0.000422591 0.000161691
0.000422591 -0.00124522 -4.47897e-05
0.000161691 -4.47897e-05 -0.00044021

0.165729 -0.0346222 -0.0568621
-0.0346222 0.0887063 0.0116379
-0.0568621 0.0116379 0.086078

0.162988 -0.0192218 -0.00567257
-0.0192218 0.00372891 0.00464388
-0.00567257 0.00464388 -0.00549845

0.155517 -0.00132569 -0.000433072
-0.00132569 0.0022746 0.00293107
-0.000433072 0.00293107 0.00410155

0.160939 0.00122236 0.000957569
0.00122236 -0.000174221 0.00119265
0.000957569 0.00119265 -0.000514782

0.162767 0.00253957 0.00116221
0.00253957 -0.00119479 0.000456153
0.00116221 0.000456153 -0.000158664

0.16688 0.00181195 0.000700834
0.00181195 -0.000223556 0.000100544
0.000700834 0.000100544 4.22649e-05

0.168135 0.00116177 0.00050384
0.00116177 -0.000787336 -3.05955e-05
0.00050384 -3.05955e-05 -0.000285733

0.16934 0.000352421 0.000102013
0.000352421 -0.000409852 -7.09314e-05
0.000102013 -7.09314e-05 -0.000100107

0.200905 -0.0572912 -0.0572912
-0.0572912 0.0950693 0.0154119
-0.0572912 0.0154119 0.0950693

0.148852 -0.0056528 -0.0056528
-0.0056528 -0.0273056 0.0019304
-0.0056528 0.0019304 -0.0273056

0.148567 -0.00301703 -0.00301703
-0.00301703 0.0140304 0.000910842
-0.00301703 0.000910842 0.0140304

0.149604 0.000855954 0.000855954
0.000855954 -0.00740596 8.95754e-05
0.000855954 8.95754e-05 -0.00740596

0.158556 0.000641899 0.000641899
0.000641899 0.00358857 5.08201e-05
0.000641899 5.08201e-05 0.00358857

0.162226 0.000832058 0.000832058
0.000832058 -0.00213013 -7.90217e-05
0.000832058 -7.90217e-05 -0.00213013

0.16636 0.000429811 0.000429811
0.000429811 0.000840795 -3.28085e-05
0.000429811 -3.28085e-05 0.000840795

0.167548 0.000176403 0.000176403
0.000176403 -0.000405984 -4.74128e-05
0.000176403 -4.74128e-05 -0.000405984

TENSORS stress float
0.155245 -0.00695015 -0.00695015
-0.00695015 0.116613 0.000454726
-0.00695015 0.000454726 0.116613

0.183355 -0.00413702 -0.00413702
-0.00413702 0.0670425 0.000448862
-0.00413702 0.000448862 0.0670425

0.189801 -0.000483359 -0.000483359
-0.000483359 0.0221506 0.000339176
-0.000483359 0.000339176 0.0221506

0.19247 0.00058817 0.00058817
0.00058817 0.00561412 0.000232604
0.00058817 0.000232604 0.00561412

0.18461 0.00153073 0.00153073
0.00153073 -0.0027317 0.000132949
0.00153073 0.000132949 -0.0027317

0.18059 0.000632513 0.000632513
0.000632513 -0.00191545 5.51394e-05
0.000632513 5.51394e-05 -0.00191545

0.176858 0.00059426 0.00059426
0.00059426 -0.00257991 1.70951e-05
0.00059426 1.70951e-05 -0.00257991

0.175657 3.85734e-05 3.85734e-05
3.85734e-05 -0.00187394 -2.04073e-08
3.85734e-05 -2.04073e-08 -0.00187394

0.159094 -0.0194486 -0.0065842
-0.0194486 0.117284 0.00128655
-0.0065842 0.00128655 0.118205

0.177038 -0.0110454 -0.00419171
-0.0110454 0.0545593 0.00130457
-0.00419171 0.00130457 0.0582966

0.191872 -0.00202873 -0.000744833
-0.00202873 0.0200194 0.000991809
-0.000744833 0.000991809 0.023088

0.186216 0.00403056 0.00031642
0.00403056 0.000565601 0.000651959
0.00031642 0.000651959 0.00174452

0.182527 0.0031576 0.00129754
0.0031576 -0.000587251 0.0003518
0.00129754 0.0003518 -0.000674625

0.177693 0.00235754 0.000525908
0.00235754 -0.00263545 0.000143136
0.000525908 0.000143136 -0.00278271

0.175805 0.00109015 0.000544589
0.00109015 -0.00147905 3.63581e-05
0.000544589 3.63581e-05 -0.00184714

0.174568 0.0004154 3.24639e-05
0.0004154 -0.0016007 -5.04986e-06
3.24639e-05 -5.04986e-06 -0.00189865

0.141093 -0.0387928 -0.00602857
-0.0387928 0.0954065 0.00186796
-0.00602857 0.00186796 0.0943798

0.186708 -0.0186239 -0.0042377
-0.0186239 0.0461941 0.00165789
-0.0042377 0.00165789 0.0570497

0.176007 0.00348412 -0.00114341
0.00348412 0.000559093 0.00127159
-0.00114341 0.00127159 0.00746754

0.180353 0.00560002 -9.3568e-05
0.00560002 0.00477594 0.000842458
-9.3568e-05 0.000842458 0.00584538

0.17458 0.00445737 0.000977833
0.00445737 -0.00353062 0.00042157
0.000977833 0.00042157 -0.00373365

0.175285 0.00259984 0.000414851
0.00259984 0.000169477 0.000151142
0.000414851 0.000151142 -0.00075484

0.173367 0.00129554 0.000501935
0.00129554 -0.0016046 3.00914e-05
0.000501935 3.00914e-05 -0.00242932

0.173401 0.000396742 2.74079e-05
0.000396742 -0.000622956 -1.85752e-05
2.74079e-05 -1.85752e-05 -0.0014459

0.16334 -0.0633576 -0.00654757
-0.0633576 0.093556 0.00221479
-0.00654757 0.00221479 0.0907356

0.147026 -0.00618631 -0.0042829
-0.00618631 -0.00685423 0.000800257
-0.0042829 0.000800257 0.00849389

0.157471 0.00315703 -0.00127798
0.00315703 0.00816285 0.000696891
-0.00127798 0.000696891 0.00973468

0.165731 0.00379932 -7.92352e-05
0.00379932 -0.00293534 0.000469137
-7.92352e-05 0.000469137 -0.00323252

0.170603 0.0025238 0.000985037
0.0025238 0.00110383 0.000235418
0.000985037 0.000235418 -0.000997493

0.172181 0.00135204 0.000520059
0.00135204 -0.000896997 6.90186e-05
0.000520059 6.90186e-05 -0.00241648

0.172681 0.000696026 0.000550642
0.000696026 2.34757e-05 1.6944e-05
0.000550642 1.6944e-05 -0.00141102

0.172722 0.0001661 4.36161e-05
0.0001661 -0.000320584 -1.54299e-05
4.36161e-05 -1.54299e-05 -0.00145817

0.159094 -0.0065842 -0.0194486
-0.0065842 0.118205 0.00128655
-0.0194486 0.00128655 0.117284

0.177038 -0.00419171 -0.0110454
-0.00419171 0.0582966 0.00130457
-0.0110454 0.00130457 0.0545593

0.191872 -0.000744833 -0.00202873
-0.000744833 0.023088 0.000991809
-0.00202873 0.000991809 0.0200194

0.186216 0.00031642 0.00403056
0.00031642 0.00174452 0.000651959
0.00403056 0.000651959 0.000565601

0.182527 0.00129754 0.0031576
0.00129754 -0.000674625 0.0003518
0.0031576 0.0003518 -0.000587251

0.177693 0.000525908 0.00235754
0.000525908 -0.00278271 0.000143136
0.00235754 0.000143136 -0.00263545

0.175805 0.000544589 0.00109015
0.000544589 -0.00184714 3.63581e-05
0.00109015 3.63581e-05 -0.00147905

0.174568 3.24639e-05 0.0004154
3.24639e-05 -0.00189865 -5.04986e-06
0.0004154 -5.04986e-06 -0.0016007

0.163497 -0.0183931 -0.0183931
-0.0183931 0.119621 0.0037518
-0.0183931 0.0037518 0.119621

0.171666 -0.0112302 -0.0112302
-0.0112302 0.0468653 0.00374422
-0.0112302 0.00374422 0.0468653

0.19385 -0.00269982 -0.00269982
-0.00269982 0.0209468 0.00268668
-0.00269982 0.00268668 0.0209468

0.180481 0.00315393 0.00315393
0.00315393 -0.00278889 0.00175016
0.00315393 0.00175016 -0.00278889

0.180618 0.00252386 0.00252386
0.00252386 0.00128865 0.000892834
0.00252386 0.000892834 0.00128865

0.174989 0.0020491 0.0020491
0.0020491 -0.00345717 0.00034465
0.0020491 0.00034465 -0.00345717

0.174722 0.000975312 0.000975312
0.000975312 -0.000819203 7.59498e-05
0.000975312 7.59498e-05 -0.000819203

0.173449 0.00038431 0.00038431
0.00038431 -0.00163194 -2.71034e-05
0.00038431 -2.71034e-05 -0.00163194

0.147443 -0.0369436 -0.0168397
-0.0369436 0.0991855 0.00570269
-0.0168397 0.00570269 0.0983743

0.182747 -0.0183107 -0.0118414
-0.0183107 0.0396699 0.00514116
-0.0118414 0.00514116 0.047666

0.178959 0.002413 -0.00379826
0.002413 0.00298785 0.0035973
-0.00379826 0.0035973 0.00695369

0.175396 0.00417459 0.00170533
0.00417459 0.0018097 0.0022221
0.00170533 0.0022221 0.00175611

0.173318 0.00356338 0.00170975
0.00356338 -0.00160153 0.00101642
0.00170975 0.00101642 -0.0017017

0.172665 0.00221147 0.001714
0.00221147 -0.000733681 0.000353733
0.001714 0.000353733 -0.00147372

0.172237 0.00114116 0.000876334
0.00114116 -0.000990609 4.77285e-05
0.000876334 4.77285e-05 -0.0014318

0.172166 0.00036325 0.000362521
0.00036325 -0.00069593 -6.364e-05
0.000362521 -6.364e-05 -0.00120314

0.168379 -0.0612482 -0.0181981
-0.0612482 0.0957165 0.00647066
-0.0181981 0.00647066 0.0946453

0.146584 -0.00559328 -0.0120985
-0.00559328 -0.0110166 0.00253063
-0.0120985 0.00253063 0.00323053

0.16217 0.00220686 -0.0040103
0.00220686 0.0105741 0.00219543
-0.0040103 0.00219543 0.0109179

0.162503 0.00260847 0.00136431
0.00260847 -0.00498992 0.00126656
0.00136431 0.00126656 -0.00540631

0.169381 0.00188104 0.00180861
0.00188104 0.00258049 0.000507574
0.00180861 0.000507574 0.00103699

0.169358 0.001084 0.00188426
0.001084 -0.00176426 0.000179619
0.00188426 0.000179619 -0.00286679

0.171345 0.000561586 0.000979273
0.000561586 0.00054579 3.89856e-06
0.000979273 3.89856e-06 -0.000440264

0.171226 0.000161691 0.000422591
0.000161691 -0.00044021 -4.47897e-05
0.000422591 -4.47897e-05 -0.00124522

0.141093 -0.00602857 -0.0387928
-0.00602857 0.0943798 0.00186796
-0.0387928 0.00186796 0.0954065

0.186708 -0.0042377 -0.0186239
-0.0042377 0.0570497 0.00165789
-0.0186239 0.00165789 0.0461941

0.176007 -0.00114341 0.00348412
-0.00114341 0.00746754 0.00127159
0.00348412 0.00127159 0.000559093

0.180353 -9.3568e-05 0.00560002
-9.3568e-05 0.00584538 0.000842458
0.00560002 0.000842458 0.00477594

0.17458 0.000977833 0.00445737
0.000977833 -0.00373365 0.00042157
0.00445737 0.00042157 -0.00353062

0.175285 0.000414851 0.00259984
0.000414851 -0.00075484 0.000151142
0.00259984 0.000151142 0.000169477

0.173367 0.000501935 0.00129554
0.000501935 -0.00242932 3.00914e-05
0.00129554 3.00914e-05 -0.0016046

0.173401 2.74079e-05 0.000396742
2.74079e-05 -0.0014459 -1.85752e-05
0.000396742 -1.85752e-05 -0.000622956

0.147443 -0.0168397 -0.0369436
-0.0168397 0.0983743 0.00570269
-0.0369436 0.00570269 0.0991855

0.182747 -0.0118414 -0.0183107
-0.0118414 0.047666 0.00514116
-0.0183107 0.00514116 0.0396699

0.178959 -0.00379826 0.002413
-0.00379826 0.00695369 0.0035973
0.002413 0.0035973 0.00298785

0.175396 0.00170533 0.00417459
0.00170533 0.00175611 0.0022221
0.00417459 0.0022221 0.0018097

0.173318 0.00170975 0.00356338
0.00170975 -0.0017017 0.00101642
0.00356338 0.00101642 -0.00160153

0.172665 0.001714 0.00221147
0.001714 -0.00147372 0.000353733
0.00221147 0.000353733 -0.000733681

0.172237 0.000876334 0.00114116
0.000876334 -0.0014318 4.77285e-05
0.00114116 4.77285e-05 -0.000990609

0.172166 0.000362521 0.00036325
0.000362521 -0.00120314 -6.364e-05
0.00036325 -6.364e-05 -0.00069593

0.139609 -0.0336286 -0.0336286
-0.0336286 0.0858734 0.00963164
-0.0336286 0.00963164 0.0858734

0.193805 -0.0189015 -0.0189015
-0.0189015 0.041138 0.00773856
-0.0189015 0.00773856 0.041138

0.16581 3.54632e-05 3.54632e-05
3.54632e-05 -0.00798849 0.00470282
3.54632e-05 0.00470282 -0.00798849

0.172256 0.00193433 0.00193433
0.00193433 0.00635494 0.00247041
0.00193433 0.00247041 0.00635494

0.166722 0.00251175 0.00251175
0.00251175 -0.00446145 0.00100315
0.00251175 0.00100315 -0.00446145

0.170305 0.00177192 0.00177192
0.00177192 0.000976153 0.000298706
0.00177192 0.000298706 0.000976153

0.169656 0.00101551 0.00101551
0.00101551 -0.00157224 -1.01363e-05
0.00101551 -1.01363e-05 -0.00157224

0.170614 0.000344698 0.000344698
0.000344698 -0.00034988 -0.000108008
0.000344698 -0.000108008 -0.00034988

0.165729 -0.0568621 -0.0346222
-0.0568621 0.086078 0.0116379
-0.0346222 0.0116379 0.0887063

0.162988 -0.00567257 -0.0192218
-0.00567257 -0.00549845 0.00464388
-0.0192218 0.00464388 0.00372891

0.155517 -0.000433072 -0.00132569
-0.000433072 0.00410155 0.00293107
-0.00132569 0.00293107 0.0022746

0.160939 0.000957569 0.00122236
0.000957569 -0.000514782 0.00119265
0.00122236 0.00119265 -0.000174221

0.162767 0.00116221 0.00253957
0.00116221 -0.000158664 0.000456153
0.00253957 0.000456153 -0.00119479

0.16688 0.000700834 0.00181195
0.000700834 4.22649e-05 0.000100544
0.00181195 0.000100544 -0.000223556

0.168135 0.00050384 0.00116177
0.00050384 -0.000285733 -3.05955e-05
0.00116177 -3.05955e-05 -0.000787336

0.16934 0.000102013 0.000352421
0.000102013 -0.000100107 -7.09314e-05
0.000352421 -7.09314e-05 -0.000409852

0.16334 -0.00654757 -0.0633576
-0.00654757 0.0907356 0.00221479
-0.0633576 0.00221479 0.093556

0.147026 -0.0042829 -0.00618631
-0.0042829 0.00849389 0.000800257
-0.00618631 0.000800257 -0.00685423

0.157471 -0.00127798 0.00315703
-0.00127798 0.00973468 0.000696891
0.00315703 0.000696891 0.00816285

0.165731 -7.92352e-05 0.00379932
-7.92352e-05 -0.00323252 0.000469137
0.00379932 0.000469137 -0.00293534

0.170603 0.000985037 0.0025238
0.000985037 -0.000997493 0.000235418
0.0025238 0.000235418 0.00110383

0.172181 0.000520059 0.00135204
0.000520059 -0.00241648 6.90186e-05
0.00135204 6.90186e-05 -0.000896997

0.172681 0.000550642 0.000696026
0.000550642 -0.00141102 1.6944e-05
0.000696026 1.6944e-05 2.34757e-05

0.172722 4.36161e-05 0.0001661
4.36161e-05 -0.00145817 -1.54299e-05
0.0001661 -1.54299e-05 -0.000320584

0.168379 -0.0181981 -0.0612482
-0.0181981 0.0946453 0.00647066
-0.0612482 0.00647066 0.0957165

0.146584 -0.0120985 -0.00559328
-0.0120985 0.00323053 0.00253063
-0.00559328 0.00253063 -0.0110166

0.16217 -0.0040103 0.00220686
-0.0040103 0.0109179 0.00219543
0.00220686 0.00219543 0.0105741

0.162503 0.00136431 0.00260847
0.00136431 -0.00540631 0.00126656
0.00260847 0.00126656 -0.00498992

0.169381 0.00180861 0.00188104
0.00180861 0.00103699 0.000507574
0.00188104 0.000507574 0.00258049

0.169358 0.00188426 0.001084
0.00188426 -0.00286679 0.000179619
0.001084 0.000179619 -0.00176426

0.171345 0.000979273 0.000561586
0.000979273 -0.000440264 3.89856e-06
0.000561586 3.89856e-06 0.00054579

0.171226 0.000422591 0.000161691
0.000422591 -0.00124522 -4.47897e-05
0.000161691 -4.47897e-05 -0.00044021

0.165729 -0.0346222 -0.0568621
-0.0346222 0.0887063 0.0116379
-0.0568621 0.0116379 0.086078

0.162988 -0.0192218 -0.00567257
-0.0192218 0.00372891 0.00464388
-0.00567257 0.00464388 -0.00549845

0.155517 -0.00132569 -0.000433072
-0.00132569 0.0022746 0.00293107
-0.000433072 0.00293107 0.00410155

0.160939 0.00122236 0.000957569
0.00122236 -0.000174221 0.00119265
0.000957569 0.00119265 -0.000514782

0.162767 0.00253957 0.00116221
0.00253957 -0.00119479 0.000456153
0.00116221 0.000456153 -0.000158664

0.16688 0.00181195 0.000700834
0.00181195 -0.000223556 0.000100544
0.000700834 0.000100544 4.22649e-05

0.168135 0.00116177 0.00050384
0.00116177 -0.000787336 -3.05955e-05
0.00050384 -3.05955e-05 -0.000285733

0.16934 0.000352421 0.000102013
0.000352421 -0.000409852 -7.09314e-05
0.000102013 -7.09314e-05 -0.000100107

0.200905 -0.0572912 -0.0572912
-0.0572912 0.0950693 0.0154119
-0.0572912 0.0154119 0.0950693

0.148852 -0.0056528 -0.0056528
-0.0056528 -0.0273056 0.0019304
-0.0056528 0.0019304 -0.0273056

0.148567 -0.00301703 -0.00301703
-0.00301703 0.0140304 0.000910842
-0.00301703 0.000910842 0.0140304

0.149604 0.000855954 0.000855954
0.000855954 -0.00740596 8.95754e-05
0.000855954 8.95754e-05 -0.00740596

0.158556 0.000641899 0.000641899
0.000641899 0.00358857 5.08201e-05
0.000641899 5.08201e-05 0.00358857

0.162226 0.000832058 0.000832058
0.000832058 -0.00213013 -7.90217e-05
0.000832058 -7.90217e-05 -0.00213013

0.16636 0.000429811 0.000429811
0.000429811 0.000840795 -3.28085e-05
0.000429811 -3.28085e-05 0.000840795

0.167548 0.000176403 0.000176403
0.000176403 -0.000405984 -4.74128e-05
0.000176403 -4.74128e-05 -0.000405984

