# vtk DataFile Version 3.0
time 1
ASCII
DATASET UNSTRUCTURED_GRID
POINTS 8 float
0 0 0 1 0 0 1 1 0 
0 1 0 0 0 1 1 0 1 
1 1 1 0 1 1 

CELLS 1 9
8 0 1 2 3 4 5 6 7 

CELL_TYPES 1
12

POINT_DATA 8
VECTORS displacement float
0 0 0
-0.155899 0 0
-0.155899 -0.155899 0
0 -0.155899 0
0 0 0.7
-0.155899 0 0.7
-0.155899 -0.155899 0.7
0 -0.155899 0.7

CELL_DATA 1
SCALARS part_id int
LOOKUP_TABLE default
0
TENSORS stress float
-1.91303e-07 -3.63131e-18 1.74524e-17
-3.63131e-18 -1.91303e-07 1.19558e-17
1.74524e-17 1.19558e-17 0.245455

