# vtk DataFile Version 3.0
time 0.08
ASCII
DATASET UNSTRUCTURED_GRID
POINTS 27 float
0 0 0 0.5 0 0 1 0 0 
0 0.5 0 0.5 0.5 0 1 0.5 0 
0 1 0 0.5 1 0 1 1 0 
0 0 0.5 0.5 0 0.5 1 0 0.5 
0 0.5 0.5 0.5 0.5 0.5 1 0.5 0.5 
0 1 0.5 0.5 1 0.5 1 1 0.5 
0 0 1 0.5 0 1 1 0 1 
0 0.5 1 0.5 0.5 1 1 0.5 1 
0 1 1 0.5 1 1 1 1 1 

CELLS 8 72
8 0 1 4 3 9 10 13 12 
8 1 2 5 4 10 11 14 13 
8 3 4 7 6 12 13 16 15 
8 4 5 8 7 13 14 17 16 
8 9 10 13 12 18 19 22 21 
8 10 11 14 13 19 20 23 22 
8 12 13 16 15 21 22 25 24 
8 13 14 17 16 22 23 26 25 

CELL_TYPES 8
12
12
12
12
12
12
12
12

POINT_DATA 27
VECTORS displacement float
0 0 0
-0.00587604 0 0
-0.0117521 0 0
0 -0.00587604 0
-0.00587604 -0.00587604 0
-0.0117521 -0.00587604 0
0 -0.0117521 0
-0.00587604 -0.0117521 0
-0.0117521 -0.0117521 0
0 0 0.02
-0.00587604 0 0.02
-0.0117521 0 0.02
0 -0.00587604 0.02
-0.00587604 -0.00587604 0.02
-0.0117521 -0.00587604 0.02
0 -0.0117521 0.02
-0.00587604 -0.0117521 0.02
-0.0117521 -0.0117521 0.02
0 0 0.04
-0.00587604 0 0.04
-0.0117521 0 0.04
0 -0.00587604 0.04
-0.00587604 -0.00587604 0.04
-0.0117521 -0.00587604 0.04
0 -0.0117521 0.04
-0.00587604 -0.0117521 0.04
-0.0117521 -0.0117521 0.04

CELL_DATA 8
SCALARS part_id int
LOOKUP_TABLE default
0
0
0
0
0
0
0
0
TENSORS stress float
3.74594e-10 2.74178e-12 3.94098e-11
2.74178e-12 3.74594e-10 3.94098e-11
3.94098e-11 3.94098e-11 0.0222405

2.67327e-10 4.54573e-12 9.53655e-11
4.54573e-12 3.14965e-10 3.71119e-11
9.53655e-11 3.71119e-11 0.0222405

3.14965e-10 4.54573e-12 3.71119e-11
4.54573e-12 2.67327e-10 9.53656e-11
3.71119e-11 9.53656e-11 0.0222405

2.32384e-10 1.0946e-11 8.6943e-11
1.0946e-11 2.32384e-10 8.69431e-11
8.6943e-11 8.69431e-11 0.0222405

-3.76874e-10 -2.74179e-12 3.94098e-11
-2.74179e-12 -3.76874e-10 3.94098e-11
3.94098e-11 3.94098e-11 0.0222405

-2.69606e-10 -4.54574e-12 9.53656e-11
-4.54574e-12 -3.17245e-10 3.71119e-11
9.53656e-11 3.71119e-11 0.0222405

-3.17245e-10 -4.54567e-12 3.71119e-11
-4.54567e-12 -2.69606e-10 9.53655e-11
3.71119e-11 9.53655e-11 0.0222405

-2.34663e-10 -1.0946e-11 8.69431e-11
-1.0946e-11 -2.34663e-10 8.69431e-11
8.69431e-11 8.69431e-11 0.0222405

SCALARS damage float
LOOKUP_TABLE default
0.440455
0.440455
0.440455
0.440455
0.440455
0.440455
0.440455
0.440455
