# vtk DataFile Version 3.0
time 0.34
ASCII
DATASET UNSTRUCTURED_GRID
POINTS 27 float
0 0 0 0.5 0 0 1 0 0 
0 0.5 0 0.5 0.5 0 1 0.5 0 
0 1 0 0.5 1 0 1 1 0 
0 0 0.5 0.5 0 0.5 1 0 0.5 
0 0.5 0.5 0.5 0.5 0.5 1 0.5 0.5 
0 1 0.5 0.5 1 0.5 1 1 0.5 
0 0 1 0.5 0 1 1 0 1 
0 0.5 1 0.5 0.5 1 1 0.5 1 
0 1 1 0.5 1 1 1 1 1 

CELLS 8 72
8 0 1 4 3 9 10 13 12 
8 1 2 5 4 10 11 14 13 
8 3 4 7 6 12 13 16 15 
8 4 5 8 7 13 14 17 16 
8 9 10 13 12 18 19 22 21 
8 10 11 14 13 19 20 23 22 
8 12 13 16 15 21 22 25 24 
8 13 14 17 16 22 23 26 25 

CELL_TYPES 8
12
12
12
12
12
12
12
12

POINT_DATA 27
VECTORS displacement float
0 0 0
-0.0234301 0 0
-0.0468602 0 0
0 -0.0234301 0
-0.0234301 -0.0234301 0
-0.0468602 -0.0234301 0
0 -0.0468602 0
-0.0234301 -0.0468602 0
-0.0468602 -0.0468602 0
0 0 0.085
-0.0234301 0 0.085
-0.0468602 0 0.085
0 -0.0234301 0.085
-0.0234301 -0.0234301 0.085
-0.0468602 -0.0234301 0.085
0 -0.0468602 0.085
-0.0234301 -0.0468602 0.085
-0.0468602 -0.0468602 0.085
0 0 0.17
-0.0234301 0 0.17
-0.0468602 0 0.17
0 -0.0234301 0.17
-0.0234301 -0.0234301 0.17
-0.0468602 -0.0234301 0.17
0 -0.0468602 0.17
-0.0234301 -0.0468602 0.17
-0.0468602 -0.0468602 0.17

CELL_DATA 8
SCALARS part_id int
LOOKUP_TABLE default
0
0
0
0
0
0
0
0
TENSORS stress float
7.66943e-11 6.16467e-13 9.92366e-12
6.16467e-13 7.66944e-11 9.92366e-12
9.92366e-12 9.92366e-12 0.0660677

5.22048e-11 1.05714e-12 2.67e-11
1.05714e-12 6.34852e-11 9.35518e-12
2.67e-11 9.35518e-12 0.0660677

6.34852e-11 1.05713e-12 9.35518e-12
1.05713e-12 5.22047e-11 2.67e-11
9.35518e-12 2.67e-11 0.0660677

4.44789e-11 2.26996e-12 2.44299e-11
2.26996e-12 4.44789e-11 2.44299e-11
2.44299e-11 2.44299e-11 0.0660677

-7.69849e-11 -6.16481e-13 9.92367e-12
-6.16481e-13 -7.69849e-11 9.92366e-12
9.92367e-12 9.92366e-12 0.0660677

-5.24953e-11 -1.05712e-12 2.67001e-11
-1.05712e-12 -6.37758e-11 9.35521e-12
2.67001e-11 9.35521e-12 0.0660677

-6.37758e-11 -1.05715e-12 9.35522e-12
-1.05715e-12 -5.24953e-11 2.67001e-11
9.35522e-12 2.67001e-11 0.0660677

-4.47694e-11 -2.26992e-12 2.44299e-11
-2.26992e-12 -4.47694e-11 2.44299e-11
2.44299e-11 2.44299e-11 0.0660677

SCALARS damage float
LOOKUP_TABLE default
0.603446
0.603446
0.603446
0.603446
0.603446
0.603446
0.603446
0.603446
