# vtk DataFile Version 3.0
time 0.26
ASCII
DATASET UNSTRUCTURED_GRID
POINTS 27 float
0 0 0 0.5 0 0 1 0 0 
0 0.5 0 0.5 0.5 0 1 0.5 0 
0 1 0 0.5 1 0 1 1 0 
0 0 0.5 0.5 0 0.5 1 0 0.5 
0 0.5 0.5 0.5 0.5 0.5 1 0.5 0.5 
0 1 0.5 0.5 1 0.5 1 1 0.5 
0 0 1 0.5 0 1 1 0 1 
0 0.5 1 0.5 0.5 1 1 0.5 1 
0 1 1 0.5 1 1 1 1 1 

CELLS 8 72
8 0 1 4 3 9 10 13 12 
8 1 2 5 4 10 11 14 13 
8 3 4 7 6 12 13 16 15 
8 4 5 8 7 13 14 17 16 
8 9 10 13 12 18 19 22 21 
8 10 11 14 13 19 20 23 22 
8 12 13 16 15 21 22 25 24 
8 13 14 17 16 22 23 26 25 

CELL_TYPES 8
12
12
12
12
12
12
12
12

POINT_DATA 27
VECTORS displacement float
0 0 0
-0.0182609 0 0
-0.0365219 0 0
0 -0.0182609 0
-0.0182609 -0.0182609 0
-0.0365219 -0.0182609 0
0 -0.0365219 0
-0.0182609 -0.0365219 0
-0.0365219 -0.0365219 0
0 0 0.065
-0.0182609 0 0.065
-0.0365219 0 0.065
0 -0.0182609 0.065
-0.0182609 -0.0182609 0.065
-0.0365219 -0.0182609 0.065
0 -0.0365219 0.065
-0.0182609 -0.0365219 0.065
-0.0365219 -0.0365219 0.065
0 0 0.13
-0.0182609 0 0.13
-0.0365219 0 0.13
0 -0.0182609 0.13
-0.0182609 -0.0182609 0.13
-0.0365219 -0.0182609 0.13
0 -0.0365219 0.13
-0.0182609 -0.0365219 0.13
-0.0365219 -0.0365219 0.13

CELL_DATA 8
SCALARS part_id int
LOOKUP_TABLE default
0
0
0
0
0
0
0
0
TENSORS stress float
1.107e-10 8.86686e-13 1.38541e-11
8.86686e-13 1.107e-10 1.38541e-11
1.38541e-11 1.38541e-11 0.0528298

7.54921e-11 1.50602e-12 3.62431e-11
1.50602e-12 9.1611e-11 1.30602e-11
3.62431e-11 1.30602e-11 0.0528298

9.16111e-11 1.50603e-12 1.30602e-11
1.50603e-12 7.54921e-11 3.62431e-11
1.30602e-11 3.62431e-11 0.0528298

6.43191e-11 3.34322e-12 3.31404e-11
3.34322e-12 6.43191e-11 3.31404e-11
3.31404e-11 3.31404e-11 0.0528298

-1.11145e-10 -8.86693e-13 1.38541e-11
-8.86693e-13 -1.11145e-10 1.38541e-11
1.38541e-11 1.38541e-11 0.0528298

-7.59378e-11 -1.50601e-12 3.62432e-11
-1.50601e-12 -9.20567e-11 1.30602e-11
3.62432e-11 1.30602e-11 0.0528298

-9.20567e-11 -1.50602e-12 1.30602e-11
-1.50602e-12 -7.59378e-11 3.62432e-11
1.30602e-11 3.62432e-11 0.0528298

-6.47649e-11 -3.34324e-12 3.31405e-11
-3.34324e-12 -6.47649e-11 3.31404e-11
3.31405e-11 3.31404e-11 0.0528298

SCALARS damage float
LOOKUP_TABLE default
0.586691
0.586691
0.586691
0.586691
0.586691
0.586691
0.586691
0.586691
