# vtk DataFile Version 3.0
time 0.47
ASCII
DATASET UNSTRUCTURED_GRID
POINTS 27 float
0 0 0 0.5 0 0 1 0 0 
0 0.5 0 0.5 0.5 0 1 0.5 0 
0 1 0 0.5 1 0 1 1 0 
0 0 0.5 0.5 0 0.5 1 0 0.5 
0 0.5 0.5 0.5 0.5 0.5 1 0.5 0.5 
0 1 0.5 0.5 1 0.5 1 1 0.5 
0 0 1 0.5 0 1 1 0 1 
0 0.5 1 0.5 0.5 1 1 0.5 1 
0 1 1 0.5 1 1 1 1 1 

CELLS 8 72
8 0 1 4 3 9 10 13 12 
8 1 2 5 4 10 11 14 13 
8 3 4 7 6 12 13 16 15 
8 4 5 8 7 13 14 17 16 
8 9 10 13 12 18 19 22 21 
8 10 11 14 13 19 20 23 22 
8 12 13 16 15 21 22 25 24 
8 13 14 17 16 22 23 26 25 

CELL_TYPES 8
12
12
12
12
12
12
12
12

POINT_DATA 27
VECTORS displacement float
0 0 0
-0.0314369 0 0
-0.0628738 0 0
0 -0.0314369 0
-0.0314369 -0.0314369 0
-0.0628738 -0.0314369 0
0 -0.0628738 0
-0.0314369 -0.0628738 0
-0.0628738 -0.0628738 0
0 0 0.1175
-0.0314369 0 0.1175
-0.0628738 0 0.1175
0 -0.0314369 0.1175
-0.0314369 -0.0314369 0.1175
-0.0628738 -0.0314369 0.1175
0 -0.0628738 0.1175
-0.0314369 -0.0628738 0.1175
-0.0628738 -0.0628738 0.1175
0 0 0.235
-0.0314369 0 0.235
-0.0628738 0 0.235
0 -0.0314369 0.235
-0.0314369 -0.0314369 0.235
-0.0628738 -0.0314369 0.235
0 -0.0628738 0.235
-0.0314369 -0.0628738 0.235
-0.0628738 -0.0628738 0.235

CELL_DATA 8
SCALARS part_id int
LOOKUP_TABLE default
0
0
0
0
0
0
0
0
TENSORS stress float
4.76163e-11 3.82318e-13 6.44398e-12
3.82318e-13 4.76163e-11 6.44397e-12
6.44398e-12 6.44397e-12 0.0875248

3.24483e-11 6.64798e-13 1.80476e-11
6.64798e-13 3.94856e-11 6.07406e-12
1.80476e-11 6.07406e-12 0.0875248

3.94856e-11 6.64798e-13 6.07408e-12
6.64798e-13 3.24482e-11 1.80476e-11
6.07408e-12 1.80476e-11 0.0875248

2.76986e-11 1.35731e-12 1.65266e-11
1.35731e-12 2.76986e-11 1.65265e-11
1.65266e-11 1.65265e-11 0.0875248

-4.77841e-11 -3.82302e-13 6.44397e-12
-3.82302e-13 -4.77841e-11 6.44398e-12
6.44397e-12 6.44398e-12 0.0875248

-3.26161e-11 -6.64795e-13 1.80476e-11
-6.64795e-13 -3.96534e-11 6.07408e-12
1.80476e-11 6.07408e-12 0.0875248

-3.96533e-11 -6.64782e-13 6.07407e-12
-6.64782e-13 -3.2616e-11 1.80476e-11
6.07407e-12 1.80476e-11 0.0875248

-2.78664e-11 -1.3573e-12 1.65265e-11
-1.3573e-12 -2.78664e-11 1.65265e-11
1.65265e-11 1.65265e-11 0.0875248

SCALARS damage float
LOOKUP_TABLE default
0.618539
0.618539
0.618539
0.618539
0.618539
0.618539
0.618539
0.618539
