# vtk DataFile Version 3.0
time 0.28
ASCII
DATASET UNSTRUCTURED_GRID
POINTS 27 float
0 0 0 0.5 0 0 1 0 0 
0 0.5 0 0.5 0.5 0 1 0.5 0 
0 1 0 0.5 1 0 1 1 0 
0 0 0.5 0.5 0 0.5 1 0 0.5 
0 0.5 0.5 0.5 0.5 0.5 1 0.5 0.5 
0 1 0.5 0.5 1 0.5 1 1 0.5 
0 0 1 0.5 0 1 1 0 1 
0 0.5 1 0.5 0.5 1 1 0.5 1 
0 1 1 0.5 1 1 1 1 1 

CELLS 8 72
8 0 1 4 3 9 10 13 12 
8 1 2 5 4 10 11 14 13 
8 3 4 7 6 12 13 16 15 
8 4 5 8 7 13 14 17 16 
8 9 10 13 12 18 19 22 21 
8 10 11 14 13 19 20 23 22 
8 12 13 16 15 21 22 25 24 
8 13 14 17 16 22 23 26 25 

CELL_TYPES 8
12
12
12
12
12
12
12
12

POINT_DATA 27
VECTORS displacement float
0 0 0
-0.0195715 0 0
-0.0391429 0 0
0 -0.0195715 0
-0.0195715 -0.0195715 0
-0.0391429 -0.0195715 0
0 -0.0391429 0
-0.0195715 -0.0391429 0
-0.0391429 -0.0391429 0
0 0 0.07
-0.0195715 0 0.07
-0.0391429 0 0.07
0 -0.0195715 0.07
-0.0195715 -0.0195715 0.07
-0.0391429 -0.0195715 0.07
0 -0.0391429 0.07
-0.0195715 -0.0391429 0.07
-0.0391429 -0.0391429 0.07
0 0 0.14
-0.0195715 0 0.14
-0.0391429 0 0.14
0 -0.0195715 0.14
-0.0195715 -0.0195715 0.14
-0.0391429 -0.0195715 0.14
0 -0.0391429 0.14
-0.0195715 -0.0391429 0.14
-0.0391429 -0.0391429 0.14

CELL_DATA 8
SCALARS part_id int
LOOKUP_TABLE default
0
0
0
0
0
0
0
0
TENSORS stress float
1.00249e-10 8.04112e-13 1.26603e-11
8.04112e-13 1.00249e-10 1.26603e-11
1.26603e-11 1.26603e-11 0.0561438

6.83116e-11 1.36918e-12 3.33627e-11
1.36918e-12 8.29584e-11 1.1935e-11
3.33627e-11 1.1935e-11 0.0561438

8.29585e-11 1.36918e-12 1.1935e-11
1.36918e-12 6.83117e-11 3.33627e-11
1.1935e-11 3.33627e-11 0.0561438

5.81929e-11 3.01371e-12 3.05119e-11
3.01371e-12 5.81928e-11 3.05119e-11
3.05119e-11 3.05119e-11 0.0561438

-1.00646e-10 -8.04135e-13 1.26603e-11
-8.04135e-13 -1.00646e-10 1.26603e-11
1.26603e-11 1.26603e-11 0.0561438

-6.87083e-11 -1.36915e-12 3.33627e-11
-1.36915e-12 -8.33552e-11 1.19351e-11
3.33627e-11 1.19351e-11 0.0561438

-8.33553e-11 -1.36914e-12 1.19351e-11
-1.36914e-12 -6.87084e-11 3.33627e-11
1.19351e-11 3.33627e-11 0.0561438

-5.85895e-11 -3.01372e-12 3.0512e-11
-3.01372e-12 -5.85896e-11 3.0512e-11
3.0512e-11 3.0512e-11 0.0561438

SCALARS damage float
LOOKUP_TABLE default
0.591773
0.591773
0.591773
0.591773
0.591773
0.591773
0.591773
0.591773
