# vtk DataFile Version 3.0
time 0.25
ASCII
DATASET UNSTRUCTURED_GRID
POINTS 27 float
0 0 0 0.5 0 0 1 0 0 
0 0.5 0 0.5 0.5 0 1 0.5 0 
0 1 0 0.5 1 0 1 1 0 
0 0 0.5 0.5 0 0.5 1 0 0.5 
0 0.5 0.5 0.5 0.5 0.5 1 0.5 0.5 
0 1 0.5 0.5 1 0.5 1 1 0.5 
0 0 1 0.5 0 1 1 0 1 
0 0.5 1 0.5 0.5 1 1 0.5 1 
0 1 1 0.5 1 1 1 1 1 

CELLS 8 72
8 0 1 4 3 9 10 13 12 
8 1 2 5 4 10 11 14 13 
8 3 4 7 6 12 13 16 15 
8 4 5 8 7 13 14 17 16 
8 9 10 13 12 18 19 22 21 
8 10 11 14 13 19 20 23 22 
8 12 13 16 15 21 22 25 24 
8 13 14 17 16 22 23 26 25 

CELL_TYPES 8
12
12
12
12
12
12
12
12

POINT_DATA 27
VECTORS displacement float
0 0 0
-0.017601 0 0
-0.035202 0 0
0 -0.017601 0
-0.017601 -0.017601 0
-0.035202 -0.017601 0
0 -0.035202 0
-0.017601 -0.035202 0
-0.035202 -0.035202 0
0 0 0.0625
-0.017601 0 0.0625
-0.035202 0 0.0625
0 -0.017601 0.0625
-0.017601 -0.017601 0.0625
-0.035202 -0.017601 0.0625
0 -0.035202 0.0625
-0.017601 -0.035202 0.0625
-0.035202 -0.035202 0.0625
0 0 0.125
-0.017601 0 0.125
-0.035202 0 0.125
0 -0.017601 0.125
-0.017601 -0.017601 0.125
-0.035202 -0.017601 0.125
0 -0.035202 0.125
-0.017601 -0.035202 0.125
-0.035202 -0.035202 0.125

CELL_DATA 8
SCALARS part_id int
LOOKUP_TABLE default
0
0
0
0
0
0
0
0
TENSORS stress float
1.16586e-10 9.32995e-13 1.45213e-11
9.32995e-13 1.16586e-10 1.45213e-11
1.45213e-11 1.45213e-11 0.0511713

7.95467e-11 1.58269e-12 3.78473e-11
1.58269e-12 9.64887e-11 1.3689e-11
3.78473e-11 1.3689e-11 0.0511713

9.64887e-11 1.58271e-12 1.3689e-11
1.58271e-12 7.95466e-11 3.78473e-11
1.3689e-11 3.78473e-11 0.0511713

6.7782e-11 3.52853e-12 3.4604e-11
3.52853e-12 6.77821e-11 3.4604e-11
3.4604e-11 3.4604e-11 0.0511713

-1.1706e-10 -9.32996e-13 1.45213e-11
-9.32996e-13 -1.1706e-10 1.45212e-11
1.45213e-11 1.45212e-11 0.0511713

-8.00203e-11 -1.58269e-12 3.78473e-11
-1.58269e-12 -9.69624e-11 1.3689e-11
3.78473e-11 1.3689e-11 0.0511713

-9.69624e-11 -1.5827e-12 1.3689e-11
-1.5827e-12 -8.00203e-11 3.78473e-11
1.3689e-11 3.78473e-11 0.0511713

-6.82557e-11 -3.52851e-12 3.46041e-11
-3.52851e-12 -6.82557e-11 3.4604e-11
3.46041e-11 3.4604e-11 0.0511713

SCALARS damage float
LOOKUP_TABLE default
0.583847
0.583847
0.583847
0.583847
0.583847
0.583847
0.583847
0.583847
