# vtk DataFile Version 3.0
time 0.27
ASCII
DATASET UNSTRUCTURED_GRID
POINTS 27 float
0 0 0 0.5 0 0 1 0 0 
0 0.5 0 0.5 0.5 0 1 0.5 0 
0 1 0 0.5 1 0 1 1 0 
0 0 0.5 0.5 0 0.5 1 0 0.5 
0 0.5 0.5 0.5 0.5 0.5 1 0.5 0.5 
0 1 0.5 0.5 1 0.5 1 1 0.5 
0 0 1 0.5 0 1 1 0 1 
0 0.5 1 0.5 0.5 1 1 0.5 1 
0 1 1 0.5 1 1 1 1 1 

CELLS 8 72
8 0 1 4 3 9 10 13 12 
8 1 2 5 4 10 11 14 13 
8 3 4 7 6 12 13 16 15 
8 4 5 8 7 13 14 17 16 
8 9 10 13 12 18 19 22 21 
8 10 11 14 13 19 20 23 22 
8 12 13 16 15 21 22 25 24 
8 13 14 17 16 22 23 26 25 

CELL_TYPES 8
12
12
12
12
12
12
12
12

POINT_DATA 27
VECTORS displacement float
0 0 0
-0.0189177 0 0
-0.0378355 0 0
0 -0.0189177 0
-0.0189177 -0.0189177 0
-0.0378355 -0.0189177 0
0 -0.0378355 0
-0.0189177 -0.0378355 0
-0.0378355 -0.0378355 0
0 0 0.0675
-0.0189177 0 0.0675
-0.0378355 0 0.0675
0 -0.0189177 0.0675
-0.0189177 -0.0189177 0.0675
-0.0378355 -0.0189177 0.0675
0 -0.0378355 0.0675
-0.0189177 -0.0378355 0.0675
-0.0378355 -0.0378355 0.0675
0 0 0.135
-0.0189177 0 0.135
-0.0378355 0 0.135
0 -0.0189177 0.135
-0.0189177 -0.0189177 0.135
-0.0378355 -0.0189177 0.135
0 -0.0378355 0.135
-0.0189177 -0.0378355 0.135
-0.0378355 -0.0378355 0.135

CELL_DATA 8
SCALARS part_id int
LOOKUP_TABLE default
0
0
0
0
0
0
0
0
TENSORS stress float
1.0527e-10 8.43847e-13 1.32353e-11
8.43847e-13 1.0527e-10 1.32353e-11
1.32353e-11 1.32353e-11 0.0544873

7.17587e-11 1.43503e-12 3.47519e-11
1.43503e-12 8.71145e-11 1.2477e-11
3.47519e-11 1.2477e-11 0.0544873

8.71144e-11 1.43501e-12 1.2477e-11
1.43501e-12 7.17586e-11 3.47519e-11
1.2477e-11 3.47519e-11 0.0544873

6.11328e-11 3.17211e-12 3.17797e-11
3.17211e-12 6.11328e-11 3.17797e-11
3.17797e-11 3.17797e-11 0.0544873

-1.0569e-10 -8.43849e-13 1.32353e-11
-8.43849e-13 -1.0569e-10 1.32353e-11
1.32353e-11 1.32353e-11 0.0544873

-7.21788e-11 -1.43502e-12 3.47519e-11
-1.43502e-12 -8.75346e-11 1.2477e-11
3.47519e-11 1.2477e-11 0.0544873

-8.75346e-11 -1.43504e-12 1.24771e-11
-1.43504e-12 -7.21788e-11 3.47519e-11
1.24771e-11 3.47519e-11 0.0544873

-6.15528e-11 -3.17207e-12 3.17797e-11
-3.17207e-12 -6.15528e-11 3.17797e-11
3.17797e-11 3.17797e-11 0.0544873

SCALARS damage float
LOOKUP_TABLE default
0.589326
0.589326
0.589326
0.589326
0.589326
0.589326
0.589326
0.589326
