# vtk DataFile Version 3.0
time 0.4
ASCII
DATASET UNSTRUCTURED_GRID
POINTS 27 float
0 0 0 0.5 0 0 1 0 0 
0 0.5 0 0.5 0.5 0 1 0.5 0 
0 1 0 0.5 1 0 1 1 0 
0 0 0.5 0.5 0 0.5 1 0 0.5 
0 0.5 0.5 0.5 0.5 0.5 1 0.5 0.5 
0 1 0.5 0.5 1 0.5 1 1 0.5 
0 0 1 0.5 0 1 1 0 1 
0 0.5 1 0.5 0.5 1 1 0.5 1 
0 1 1 0.5 1 1 1 1 1 

CELLS 8 72
8 0 1 4 3 9 10 13 12 
8 1 2 5 4 10 11 14 13 
8 3 4 7 6 12 13 16 15 
8 4 5 8 7 13 14 17 16 
8 9 10 13 12 18 19 22 21 
8 10 11 14 13 19 20 23 22 
8 12 13 16 15 21 22 25 24 
8 13 14 17 16 22 23 26 25 

CELL_TYPES 8
12
12
12
12
12
12
12
12

POINT_DATA 27
VECTORS displacement float
0 0 0
-0.0271837 0 0
-0.0543674 0 0
0 -0.0271837 0
-0.0271837 -0.0271837 0
-0.0543674 -0.0271837 0
0 -0.0543674 0
-0.0271837 -0.0543674 0
-0.0543674 -0.0543674 0
0 0 0.1
-0.0271837 0 0.1
-0.0543674 0 0.1
0 -0.0271837 0.1
-0.0271837 -0.0271837 0.1
-0.0543674 -0.0271837 0.1
0 -0.0543674 0.1
-0.0271837 -0.0543674 0.1
-0.0543674 -0.0543674 0.1
0 0 0.2
-0.0271837 0 0.2
-0.0543674 0 0.2
0 -0.0271837 0.2
-0.0271837 -0.0271837 0.2
-0.0543674 -0.0271837 0.2
0 -0.0543674 0.2
-0.0271837 -0.0543674 0.2
-0.0543674 -0.0543674 0.2

CELL_DATA 8
SCALARS part_id int
LOOKUP_TABLE default
0
0
0
0
0
0
0
0
TENSORS stress float
6.06912e-11 4.87889e-13 8.02432e-12
4.87889e-13 6.06912e-11 8.02434e-12
8.02432e-12 8.02434e-12 0.0759744

4.13173e-11 8.42242e-13 2.20103e-11
8.42242e-13 5.02739e-11 7.56434e-12
2.20103e-11 7.56434e-12 0.0759744

5.02739e-11 8.42225e-13 7.56434e-12
8.42225e-13 4.13173e-11 2.20104e-11
7.56434e-12 2.20104e-11 0.0759744

3.52276e-11 1.76594e-12 2.0147e-11
1.76594e-12 3.52276e-11 2.0147e-11
2.0147e-11 2.0147e-11 0.0759744

-6.09131e-11 -4.87886e-13 8.02431e-12
-4.87886e-13 -6.0913e-11 8.02434e-12
8.02431e-12 8.02434e-12 0.0759744

-4.15389e-11 -8.42219e-13 2.20103e-11
-8.42219e-13 -5.04956e-11 7.56436e-12
2.20103e-11 7.56436e-12 0.0759744

-5.04956e-11 -8.42215e-13 7.56434e-12
-8.42215e-13 -4.15389e-11 2.20103e-11
7.56434e-12 2.20103e-11 0.0759744

-3.54493e-11 -1.76594e-12 2.0147e-11
-1.76594e-12 -3.54493e-11 2.0147e-11
2.0147e-11 2.0147e-11 0.0759744

SCALARS damage float
LOOKUP_TABLE default
0.611626
0.611626
0.611626
0.611626
0.611626
0.611626
0.611626
0.611626
