# vtk DataFile Version 3.0
time 0.16
ASCII
DATASET UNSTRUCTURED_GRID
POINTS 27 float
0 0 0 0.5 0 0 1 0 0 
0 0.5 0 0.5 0.5 0 1 0.5 0 
0 1 0 0.5 1 0 1 1 0 
0 0 0.5 0.5 0 0.5 1 0 0.5 
0 0.5 0.5 0.5 0.5 0.5 1 0.5 0.5 
0 1 0.5 0.5 1 0.5 1 1 0.5 
0 0 1 0.5 0 1 1 0 1 
0 0.5 1 0.5 0.5 1 1 0.5 1 
0 1 1 0.5 1 1 1 1 1 

CELLS 8 72
8 0 1 4 3 9 10 13 12 
8 1 2 5 4 10 11 14 13 
8 3 4 7 6 12 13 16 15 
8 4 5 8 7 13 14 17 16 
8 9 10 13 12 18 19 22 21 
8 10 11 14 13 19 20 23 22 
8 12 13 16 15 21 22 25 24 
8 13 14 17 16 22 23 26 25 

CELL_TYPES 8
12
12
12
12
12
12
12
12

POINT_DATA 27
VECTORS displacement float
0 0 0
-0.0115164 0 0
-0.0230328 0 0
0 -0.0115164 0
-0.0115164 -0.0115164 0
-0.0230328 -0.0115164 0
0 -0.0230328 0
-0.0115164 -0.0230328 0
-0.0230328 -0.0230328 0
0 0 0.04
-0.0115164 0 0.04
-0.0230328 0 0.04
0 -0.0115164 0.04
-0.0115164 -0.0115164 0.04
-0.0230328 -0.0115164 0.04
0 -0.0230328 0.04
-0.0115164 -0.0230328 0.04
-0.0230328 -0.0230328 0.04
0 0 0.08
-0.0115164 0 0.08
-0.0230328 0 0.08
0 -0.0115164 0.08
-0.0115164 -0.0115164 0.08
-0.0230328 -0.0115164 0.08
0 -0.0230328 0.08
-0.0115164 -0.0230328 0.08
-0.0230328 -0.0230328 0.08

CELL_DATA 8
SCALARS part_id int
LOOKUP_TABLE default
0
0
0
0
0
0
0
0
TENSORS stress float
2.02384e-10 1.59095e-12 2.38297e-11
1.59095e-12 2.02384e-10 2.38297e-11
2.38297e-11 2.38297e-11 0.0361661

1.39508e-10 2.66733e-12 5.98904e-11
2.66733e-12 1.67933e-10 2.24567e-11
5.98904e-11 2.24567e-11 0.0361661

1.67933e-10 2.66732e-12 2.24567e-11
2.66732e-12 1.39508e-10 5.98903e-11
2.24567e-11 5.98903e-11 0.0361661

1.19328e-10 6.18788e-12 5.46945e-11
6.18788e-12 1.19328e-10 5.46945e-11
5.46945e-11 5.46945e-11 0.0361661

-2.03308e-10 -1.59093e-12 2.38297e-11
-1.59093e-12 -2.03308e-10 2.38297e-11
2.38297e-11 2.38297e-11 0.0361661

-1.40433e-10 -2.66726e-12 5.98904e-11
-2.66726e-12 -1.68858e-10 2.24567e-11
5.98904e-11 2.24567e-11 0.0361661

-1.68858e-10 -2.66731e-12 2.24567e-11
-2.66731e-12 -1.40433e-10 5.98904e-11
2.24567e-11 5.98904e-11 0.0361661

-1.20252e-10 -6.18789e-12 5.46946e-11
-6.18789e-12 -1.20252e-10 5.46946e-11
5.46946e-11 5.46946e-11 0.0361661

SCALARS damage float
LOOKUP_TABLE default
0.542643
0.542643
0.542643
0.542643
0.542643
0.542643
0.542643
0.542643
