# vtk DataFile Version 3.0
time 0.35
ASCII
DATASET UNSTRUCTURED_GRID
POINTS 27 float
0 0 0 0.5 0 0 1 0 0 
0 0.5 0 0.5 0.5 0 1 0.5 0 
0 1 0 0.5 1 0 1 1 0 
0 0 0.5 0.5 0 0.5 1 0 0.5 
0 0.5 0.5 0.5 0.5 0.5 1 0.5 0.5 
0 1 0.5 0.5 1 0.5 1 1 0.5 
0 0 1 0.5 0 1 1 0 1 
0 0.5 1 0.5 0.5 1 1 0.5 1 
0 1 1 0.5 1 1 1 1 1 

CELLS 8 72
8 0 1 4 3 9 10 13 12 
8 1 2 5 4 10 11 14 13 
8 3 4 7 6 12 13 16 15 
8 4 5 8 7 13 14 17 16 
8 9 10 13 12 18 19 22 21 
8 10 11 14 13 19 20 23 22 
8 12 13 16 15 21 22 25 24 
8 13 14 17 16 22 23 26 25 

CELL_TYPES 8
12
12
12
12
12
12
12
12

POINT_DATA 27
VECTORS displacement float
0 0 0
-0.0240629 0 0
-0.0481257 0 0
0 -0.0240629 0
-0.0240629 -0.0240629 0
-0.0481257 -0.0240629 0
0 -0.0481257 0
-0.0240629 -0.0481257 0
-0.0481257 -0.0481257 0
0 0 0.0875
-0.0240629 0 0.0875
-0.0481257 0 0.0875
0 -0.0240629 0.0875
-0.0240629 -0.0240629 0.0875
-0.0481257 -0.0240629 0.0875
0 -0.0481257 0.0875
-0.0240629 -0.0481257 0.0875
-0.0481257 -0.0481257 0.0875
0 0 0.175
-0.0240629 0 0.175
-0.0481257 0 0.175
0 -0.0240629 0.175
-0.0240629 -0.0240629 0.175
-0.0481257 -0.0240629 0.175
0 -0.0481257 0.175
-0.0240629 -0.0481257 0.175
-0.0481257 -0.0481257 0.175

CELL_DATA 8
SCALARS part_id int
LOOKUP_TABLE default
0
0
0
0
0
0
0
0
TENSORS stress float
7.36103e-11 5.91773e-13 9.56031e-12
5.91773e-13 7.36103e-11 9.56031e-12
9.56031e-12 9.56031e-12 0.0677196

5.01032e-11 1.0159e-12 2.58078e-11
1.0159e-12 6.09382e-11 9.01262e-12
2.58078e-11 9.01262e-12 0.0677196

6.09382e-11 1.01589e-12 9.01263e-12
1.01589e-12 5.01033e-11 2.58078e-11
9.01263e-12 2.58078e-11 0.0677196

4.26922e-11 2.17266e-12 2.36153e-11
2.17266e-12 4.26922e-11 2.36152e-11
2.36153e-11 2.36152e-11 0.0677196

-7.38873e-11 -5.91759e-13 9.56033e-12
-5.91759e-13 -7.38873e-11 9.56032e-12
9.56033e-12 9.56032e-12 0.0677196

-5.03804e-11 -1.0159e-12 2.58079e-11
-1.0159e-12 -6.12153e-11 9.01263e-12
2.58079e-11 9.01263e-12 0.0677196

-6.12153e-11 -1.01592e-12 9.01263e-12
-1.01592e-12 -5.03804e-11 2.58078e-11
9.01263e-12 2.58078e-11 0.0677196

-4.29694e-11 -2.17262e-12 2.36152e-11
-2.17262e-12 -4.29694e-11 2.36153e-11
2.36152e-11 2.36153e-11 0.0677196

SCALARS damage float
LOOKUP_TABLE default
0.605003
0.605003
0.605003
0.605003
0.605003
0.605003
0.605003
0.605003
