# vtk DataFile Version 3.0
time 0.32
ASCII
DATASET UNSTRUCTURED_GRID
POINTS 27 float
0 0 0 0.5 0 0 1 0 0 
0 0.5 0 0.5 0.5 0 1 0.5 0 
0 1 0 0.5 1 0 1 1 0 
0 0 0.5 0.5 0 0.5 1 0 0.5 
0 0.5 0.5 0.5 0.5 0.5 1 0.5 0.5 
0 1 0.5 0.5 1 0.5 1 1 0.5 
0 0 1 0.5 0 1 1 0 1 
0 0.5 1 0.5 0.5 1 1 0.5 1 
0 1 1 0.5 1 1 1 1 1 

CELLS 8 72
8 0 1 4 3 9 10 13 12 
8 1 2 5 4 10 11 14 13 
8 3 4 7 6 12 13 16 15 
8 4 5 8 7 13 14 17 16 
8 9 10 13 12 18 19 22 21 
8 10 11 14 13 19 20 23 22 
8 12 13 16 15 21 22 25 24 
8 13 14 17 16 22 23 26 25 

CELL_TYPES 8
12
12
12
12
12
12
12
12

POINT_DATA 27
VECTORS displacement float
0 0 0
-0.0221558 0 0
-0.0443117 0 0
0 -0.0221558 0
-0.0221558 -0.0221558 0
-0.0443117 -0.0221558 0
0 -0.0443117 0
-0.0221558 -0.0443117 0
-0.0443117 -0.0443117 0
0 0 0.08
-0.0221558 0 0.08
-0.0443117 0 0.08
0 -0.0221558 0.08
-0.0221558 -0.0221558 0.08
-0.0443117 -0.0221558 0.08
0 -0.0443117 0.08
-0.0221558 -0.0443117 0.08
-0.0443117 -0.0443117 0.08
0 0 0.16
-0.0221558 0 0.16
-0.0443116 0 0.16
0 -0.0221558 0.16
-0.0221558 -0.0221558 0.16
-0.0443116 -0.0221558 0.16
0 -0.0443116 0.16
-0.0221558 -0.0443116 0.16
-0.0443116 -0.0443116 0.16

CELL_DATA 8
SCALARS part_id int
LOOKUP_TABLE default
0
0
0
0
0
0
0
0
TENSORS stress float
8.34919e-11 6.70849e-13 1.07202e-11
6.70849e-13 8.3492e-11 1.07202e-11
1.07202e-11 1.07202e-11 0.0627622

5.68424e-11 1.14767e-12 2.86492e-11
1.14767e-12 6.91011e-11 1.01062e-11
2.86492e-11 1.01062e-11 0.0627622

6.91011e-11 1.14773e-12 1.01062e-11
1.14773e-12 5.68423e-11 2.86492e-11
1.01062e-11 2.86492e-11 0.0627622

4.84237e-11 2.4846e-12 2.62096e-11
2.4846e-12 4.84238e-11 2.62095e-11
2.62096e-11 2.62095e-11 0.0627622

-8.38125e-11 -6.70851e-13 1.07202e-11
-6.70851e-13 -8.38125e-11 1.07202e-11
1.07202e-11 1.07202e-11 0.0627622

-5.7163e-11 -1.1477e-12 2.86492e-11
-1.1477e-12 -6.94218e-11 1.01062e-11
2.86492e-11 1.01062e-11 0.0627622

-6.94217e-11 -1.14767e-12 1.01062e-11
-1.14767e-12 -5.71629e-11 2.86492e-11
1.01062e-11 2.86492e-11 0.0627622

-4.87444e-11 -2.48455e-12 2.62096e-11
-2.48455e-12 -4.87444e-11 2.62096e-11
2.62096e-11 2.62096e-11 0.0627622

SCALARS damage float
LOOKUP_TABLE default
0.600039
0.600039
0.600039
0.600039
0.600039
0.600039
0.600039
0.600039
