# vtk DataFile Version 3.0
time 0.01
ASCII
DATASET UNSTRUCTURED_GRID
POINTS 27 float
0 0 0 0.5 0 0 1 0 0 
0 0.5 0 0.5 0.5 0 1 0.5 0 
0 1 0 0.5 1 0 1 1 0 
0 0 0.5 0.5 0 0.5 1 0 0.5 
0 0.5 0.5 0.5 0.5 0.5 1 0.5 0.5 
0 1 0.5 0.5 1 0.5 1 1 0.5 
0 0 1 0.5 0 1 1 0 1 
0 0.5 1 0.5 0.5 1 1 0.5 1 
0 1 1 0.5 1 1 1 1 1 

CELLS 8 72
8 0 1 4 3 9 10 13 12 
8 1 2 5 4 10 11 14 13 
8 3 4 7 6 12 13 16 15 
8 4 5 8 7 13 14 17 16 
8 9 10 13 12 18 19 22 21 
8 10 11 14 13 19 20 23 22 
8 12 13 16 15 21 22 25 24 
8 13 14 17 16 22 23 26 25 

CELL_TYPES 8
12
12
12
12
12
12
12
12

POINT_DATA 27
VECTORS displacement float
0 0 0
-0.000748019 0 0
-0.00149604 0 0
0 -0.000748019 0
-0.000748019 -0.000748019 0
-0.00149604 -0.000748019 0
0 -0.00149604 0
-0.000748019 -0.00149604 0
-0.00149604 -0.00149604 0
0 0 0.0025
-0.000748019 0 0.0025
-0.00149604 0 0.0025
0 -0.000748019 0.0025
-0.000748019 -0.000748019 0.0025
-0.00149604 -0.000748019 0.0025
0 -0.00149604 0.0025
-0.000748019 -0.00149604 0.0025
-0.00149604 -0.00149604 0.0025
0 0 0.005
-0.000748019 0 0.005
-0.00149604 0 0.005
0 -0.000748019 0.005
-0.000748019 -0.000748019 0.005
-0.00149604 -0.000748019 0.005
0 -0.00149604 0.005
-0.000748019 -0.00149604 0.005
-0.00149604 -0.00149604 0.005

CELL_DATA 8
SCALARS part_id int
LOOKUP_TABLE default
0
0
0
0
0
0
0
0
TENSORS stress float
4.29505e-10 1.34405e-12 1.92225e-11
1.34405e-12 4.29504e-10 1.92217e-11
1.92225e-11 1.92217e-11 0.00447181

3.75975e-10 2.212e-12 4.53555e-11
2.212e-12 4.00053e-10 1.81062e-11
4.53555e-11 1.81062e-11 0.00447181

4.00052e-10 2.21091e-12 1.81051e-11
2.21091e-12 3.75968e-10 4.53565e-11
1.81051e-11 4.53565e-11 0.00447181

3.58706e-10 5.49498e-12 4.14099e-11
5.49498e-12 3.58713e-10 4.14089e-11
4.14099e-11 4.14089e-11 0.00447181

-4.36801e-10 -1.34671e-12 1.92204e-11
-1.34671e-12 -4.36802e-10 1.92213e-11
1.92204e-11 1.92213e-11 0.00447181

-3.83254e-10 -2.2085e-12 4.53582e-11
-2.2085e-12 -4.0735e-10 1.81012e-11
4.53582e-11 1.81012e-11 0.00447181

-4.0735e-10 -2.20959e-12 1.81024e-11
-2.20959e-12 -3.83261e-10 4.53573e-11
1.81024e-11 4.53573e-11 0.00447181

-3.65964e-10 -5.4959e-12 4.14128e-11
-5.4959e-12 -3.65956e-10 4.14138e-11
4.14128e-11 4.14138e-11 0.00447181

SCALARS damage float
LOOKUP_TABLE default
0.104875
0.104875
0.104875
0.104875
0.104875
0.104875
0.104875
0.104875
