# vtk DataFile Version 3.0
time 0.23
ASCII
DATASET UNSTRUCTURED_GRID
POINTS 27 float
0 0 0 0.5 0 0 1 0 0 
0 0.5 0 0.5 0.5 0 1 0.5 0 
0 1 0 0.5 1 0 1 1 0 
0 0 0.5 0.5 0 0.5 1 0 0.5 
0 0.5 0.5 0.5 0.5 0.5 1 0.5 0.5 
0 1 0.5 0.5 1 0.5 1 1 0.5 
0 0 1 0.5 0 1 1 0 1 
0 0.5 1 0.5 0.5 1 1 0.5 1 
0 1 1 0.5 1 1 1 1 1 

CELLS 8 72
8 0 1 4 3 9 10 13 12 
8 1 2 5 4 10 11 14 13 
8 3 4 7 6 12 13 16 15 
8 4 5 8 7 13 14 17 16 
8 9 10 13 12 18 19 22 21 
8 10 11 14 13 19 20 23 22 
8 12 13 16 15 21 22 25 24 
8 13 14 17 16 22 23 26 25 

CELL_TYPES 8
12
12
12
12
12
12
12
12

POINT_DATA 27
VECTORS displacement float
0 0 0
-0.0162717 0 0
-0.0325434 0 0
0 -0.0162717 0
-0.0162717 -0.0162717 0
-0.0325434 -0.0162717 0
0 -0.0325434 0
-0.0162717 -0.0325434 0
-0.0325434 -0.0325434 0
0 0 0.0575
-0.0162717 0 0.0575
-0.0325434 0 0.0575
0 -0.0162717 0.0575
-0.0162717 -0.0162717 0.0575
-0.0325434 -0.0162717 0.0575
0 -0.0325434 0.0575
-0.0162717 -0.0325434 0.0575
-0.0325434 -0.0325434 0.0575
0 0 0.115
-0.0162717 0 0.115
-0.0325434 0 0.115
0 -0.0162717 0.115
-0.0162717 -0.0162717 0.115
-0.0325434 -0.0162717 0.115
0 -0.0325434 0.115
-0.0162717 -0.0325434 0.115
-0.0325434 -0.0325434 0.115

CELL_DATA 8
SCALARS part_id int
LOOKUP_TABLE default
0
0
0
0
0
0
0
0
TENSORS stress float
1.29957e-10 1.03767e-12 1.6023e-11
1.03767e-12 1.29958e-10 1.6023e-11
1.6023e-11 1.6023e-11 0.0478508

8.87829e-11 1.75582e-12 4.14445e-11
1.75582e-12 1.07579e-10 1.51042e-11
4.14445e-11 1.51042e-11 0.0478508

1.07579e-10 1.75581e-12 1.51042e-11
1.75581e-12 8.87829e-11 4.14445e-11
1.51042e-11 4.14445e-11 0.0478508

7.56809e-11 3.94842e-12 3.78853e-11
3.94842e-12 7.56809e-11 3.78854e-11
3.78853e-11 3.78854e-11 0.0478508

-1.30496e-10 -1.03766e-12 1.6023e-11
-1.03766e-12 -1.30496e-10 1.6023e-11
1.6023e-11 1.6023e-11 0.0478508

-8.93216e-11 -1.75579e-12 4.14446e-11
-1.75579e-12 -1.08117e-10 1.51042e-11
4.14446e-11 1.51042e-11 0.0478508

-1.08117e-10 -1.7558e-12 1.51042e-11
-1.7558e-12 -8.93215e-11 4.14446e-11
1.51042e-11 4.14446e-11 0.0478508

-7.62194e-11 -3.94844e-12 3.78854e-11
-3.94844e-12 -7.62193e-11 3.78854e-11
3.78854e-11 3.78854e-11 0.0478508

SCALARS damage float
LOOKUP_TABLE default
0.577424
0.577424
0.577424
0.577424
0.577424
0.577424
0.577424
0.577424
