# vtk DataFile Version 3.0
time 1
ASCII
DATASET UNSTRUCTURED_GRID
POINTS 8 float
0 0 0 1 0 0 1 1 0 
0 1 0 0 0 1 1 0 1 
1 1 1 0 1 1 

CELLS 1 9
8 0 1 2 3 4 5 6 7 

CELL_TYPES 1
12

POINT_DATA 8
VECTORS displacement float
0 0 0
-0.0997325 0 0
-0.0997325 -0.0997325 0
0 -0.0997325 0
0 0 0.4
-0.0997325 0 0.4
-0.0997325 -0.0997325 0.4
0 -0.0997325 0.4

CELL_DATA 1
SCALARS part_id int
LOOKUP_TABLE default
0
TENSORS stress float
-1.17853e-09 4.25204e-18 1.78833e-17
4.25204e-18 -1.17853e-09 1.29241e-17
1.78833e-17 1.29241e-17 0.142262

