# vtk DataFile Version 3.0
time 1
ASCII
DATASET UNSTRUCTURED_GRID
POINTS 8 float
0 0 0 1 0 0 1 1 0 
0 1 0 0 0 1 1 0 1 
1 1 1 0 1 1 

CELLS 1 9
8 0 1 2 3 4 5 6 7 

CELL_TYPES 1
12

POINT_DATA 8
VECTORS displacement float
0 0 0
-0.172197 0 0
-0.172197 -0.172197 0
0 -0.172197 0
0 0 0.8
-0.172197 0 0.8
-0.172197 -0.172197 0.8
0 -0.172197 0.8

CELL_DATA 1
SCALARS part_id int
LOOKUP_TABLE default
0
TENSORS stress float
-2.3744e-10 1.91915e-18 8.04321e-18
1.91915e-18 -2.3744e-10 6.10372e-18
8.04321e-18 6.10372e-18 0.0550688

