# vtk DataFile Version 3.0
time 0.35
ASCII
DATASET UNSTRUCTURED_GRID
POINTS 27 float
0 0 0 0.5 0 0 1 0 0 
0 0.5 0 0.5 0.5 0 1 0.5 0 
0 1 0 0.5 1 0 1 1 0 
0 0 0.5 0.5 0 0.5 1 0 0.5 
0 0.5 0.5 0.5 0.5 0.5 1 0.5 0.5 
0 1 0.5 0.5 1 0.5 1 1 0.5 
0 0 1 0.5 0 1 1 0 1 
0 0.5 1 0.5 0.5 1 1 0.5 1 
0 1 1 0.5 1 1 1 1 1 

CELLS 8 72
8 0 1 4 3 9 10 13 12 
8 1 2 5 4 10 11 14 13 
8 3 4 7 6 12 13 16 15 
8 4 5 8 7 13 14 17 16 
8 9 10 13 12 18 19 22 21 
8 10 11 14 13 19 20 23 22 
8 12 13 16 15 21 22 25 24 
8 13 14 17 16 22 23 26 25 

CELL_TYPES 8
12
12
12
12
12
12
12
12

POINT_DATA 27
VECTORS displacement float
0 0 0
-0.0240629 0 0
-0.0481257 0 0
0 -0.0240629 0
-0.0240629 -0.0240629 0
-0.0481257 -0.0240629 0
0 -0.0481257 0
-0.0240629 -0.0481257 0
-0.0481257 -0.0481257 0
0 0 0.0875
-0.0240629 0 0.0875
-0.0481257 0 0.0875
0 -0.0240629 0.0875
-0.0240629 -0.0240629 0.0875
-0.0481257 -0.0240629 0.0875
0 -0.0481257 0.0875
-0.0240629 -0.0481257 0.0875
-0.0481257 -0.0481257 0.0875
0 0 0.175
-0.0240629 0 0.175
-0.0481257 0 0.175
0 -0.0240629 0.175
-0.0240629 -0.0240629 0.175
-0.0481257 -0.0240629 0.175
0 -0.0481257 0.175
-0.0240629 -0.0481257 0.175
-0.0481257 -0.0481257 0.175

CELL_DATA 8
SCALARS part_id int
LOOKUP_TABLE default
0
0
0
0
0
0
0
0
TENSORS stress float
2.20098e-10 1.81853e-12 2.90066e-11
1.81853e-12 2.20098e-10 2.90066e-11
2.90066e-11 2.90066e-11 0.090796

1.48576e-10 3.12186e-12 7.81075e-11
3.12186e-12 1.81171e-10 2.73237e-11
7.81075e-11 2.73237e-11 0.090796

1.81171e-10 3.12185e-12 2.73237e-11
3.12185e-12 1.48576e-10 7.81075e-11
2.73237e-11 7.81075e-11 0.090796

1.25814e-10 6.68166e-12 7.13895e-11
6.68166e-12 1.25814e-10 7.13896e-11
7.13895e-11 7.13896e-11 0.090796

-2.20789e-10 -1.81853e-12 2.90066e-11
-1.81853e-12 -2.20789e-10 2.90066e-11
2.90066e-11 2.90066e-11 0.090796

-1.49266e-10 -3.12183e-12 7.81075e-11
-3.12183e-12 -1.81862e-10 2.73237e-11
7.81075e-11 2.73237e-11 0.090796

-1.81862e-10 -3.12185e-12 2.73237e-11
-3.12185e-12 -1.49266e-10 7.81075e-11
2.73237e-11 7.81075e-11 0.090796

-1.26505e-10 -6.68168e-12 7.13896e-11
-6.68168e-12 -1.26505e-10 7.13896e-11
7.13896e-11 7.13896e-11 0.090796

SCALARS damage float
LOOKUP_TABLE default
0.470403
0.470403
0.470403
0.470403
0.470403
0.470403
0.470403
0.470403
