# vtk DataFile Version 3.0
time 0.38
ASCII
DATASET UNSTRUCTURED_GRID
POINTS 27 float
0 0 0 0.5 0 0 1 0 0 
0 0.5 0 0.5 0.5 0 1 0.5 0 
0 1 0 0.5 1 0 1 1 0 
0 0 0.5 0.5 0 0.5 1 0 0.5 
0 0.5 0.5 0.5 0.5 0.5 1 0.5 0.5 
0 1 0.5 0.5 1 0.5 1 1 0.5 
0 0 1 0.5 0 1 1 0 1 
0 0.5 1 0.5 0.5 1 1 0.5 1 
0 1 1 0.5 1 1 1 1 1 

CELLS 8 72
8 0 1 4 3 9 10 13 12 
8 1 2 5 4 10 11 14 13 
8 3 4 7 6 12 13 16 15 
8 4 5 8 7 13 14 17 16 
8 9 10 13 12 18 19 22 21 
8 10 11 14 13 19 20 23 22 
8 12 13 16 15 21 22 25 24 
8 13 14 17 16 22 23 26 25 

CELL_TYPES 8
12
12
12
12
12
12
12
12

POINT_DATA 27
VECTORS displacement float
0 0 0
-0.0259438 0 0
-0.0518877 0 0
0 -0.0259438 0
-0.0259438 -0.0259438 0
-0.0518877 -0.0259438 0
0 -0.0518877 0
-0.0259438 -0.0518877 0
-0.0518877 -0.0518877 0
0 0 0.095
-0.0259438 0 0.095
-0.0518877 0 0.095
0 -0.0259438 0.095
-0.0259438 -0.0259438 0.095
-0.0518877 -0.0259438 0.095
0 -0.0518877 0.095
-0.0259438 -0.0518877 0.095
-0.0518877 -0.0518877 0.095
0 0 0.19
-0.0259438 0 0.19
-0.0518877 0 0.19
0 -0.0259438 0.19
-0.0259438 -0.0259438 0.19
-0.0518877 -0.0259438 0.19
0 -0.0518877 0.19
-0.0259438 -0.0518877 0.19
-0.0518877 -0.0518877 0.19

CELL_DATA 8
SCALARS part_id int
LOOKUP_TABLE default
0
0
0
0
0
0
0
0
TENSORS stress float
2.01829e-10 1.66832e-12 2.69205e-11
1.66832e-12 2.01829e-10 2.69205e-11
2.69205e-11 2.69205e-11 0.0960824

1.36181e-10 2.87352e-12 7.3213e-11
2.87352e-12 1.66177e-10 2.53592e-11
7.3213e-11 2.53592e-11 0.0960824

1.66177e-10 2.87353e-12 2.53592e-11
2.87353e-12 1.36181e-10 7.32131e-11
2.53592e-11 7.32131e-11 0.0960824

1.1534e-10 6.0775e-12 6.69345e-11
6.0775e-12 1.1534e-10 6.69346e-11
6.69345e-11 6.69346e-11 0.0960824

-2.02449e-10 -1.66832e-12 2.69204e-11
-1.66832e-12 -2.02449e-10 2.69205e-11
2.69204e-11 2.69205e-11 0.0960824

-1.36802e-10 -2.87351e-12 7.32131e-11
-2.87351e-12 -1.66797e-10 2.53592e-11
7.32131e-11 2.53592e-11 0.0960824

-1.66797e-10 -2.87351e-12 2.53592e-11
-2.87351e-12 -1.36802e-10 7.32131e-11
2.53592e-11 7.32131e-11 0.0960824

-1.15961e-10 -6.07748e-12 6.69345e-11
-6.07748e-12 -1.15961e-10 6.69345e-11
6.69345e-11 6.69345e-11 0.0960824

SCALARS damage float
LOOKUP_TABLE default
0.483299
0.483299
0.483299
0.483299
0.483299
0.483299
0.483299
0.483299
