# vtk DataFile Version 3.0
time 0.46
ASCII
DATASET UNSTRUCTURED_GRID
POINTS 27 float
0 0 0 0.5 0 0 1 0 0 
0 0.5 0 0.5 0.5 0 1 0.5 0 
0 1 0 0.5 1 0 1 1 0 
0 0 0.5 0.5 0 0.5 1 0 0.5 
0 0.5 0.5 0.5 0.5 0.5 1 0.5 0.5 
0 1 0.5 0.5 1 0.5 1 1 0.5 
0 0 1 0.5 0 1 1 0 1 
0 0.5 1 0.5 0.5 1 1 0.5 1 
0 1 1 0.5 1 1 1 1 1 

CELLS 8 72
8 0 1 4 3 9 10 13 12 
8 1 2 5 4 10 11 14 13 
8 3 4 7 6 12 13 16 15 
8 4 5 8 7 13 14 17 16 
8 9 10 13 12 18 19 22 21 
8 10 11 14 13 19 20 23 22 
8 12 13 16 15 21 22 25 24 
8 13 14 17 16 22 23 26 25 

CELL_TYPES 8
12
12
12
12
12
12
12
12

POINT_DATA 27
VECTORS displacement float
0 0 0
-0.0308373 0 0
-0.0616747 0 0
0 -0.0308373 0
-0.0308373 -0.0308373 0
-0.0616747 -0.0308373 0
0 -0.0616747 0
-0.0308373 -0.0616747 0
-0.0616747 -0.0616747 0
0 0 0.115
-0.0308373 0 0.115
-0.0616747 0 0.115
0 -0.0308373 0.115
-0.0308373 -0.0308373 0.115
-0.0616747 -0.0308373 0.115
0 -0.0616747 0.115
-0.0308373 -0.0616747 0.115
-0.0616747 -0.0616747 0.115
0 0 0.23
-0.0308373 0 0.23
-0.0616747 0 0.23
0 -0.0308373 0.23
-0.0308373 -0.0308373 0.23
-0.0616747 -0.0308373 0.23
0 -0.0616747 0.23
-0.0308373 -0.0616747 0.23
-0.0616747 -0.0616747 0.23

CELL_DATA 8
SCALARS part_id int
LOOKUP_TABLE default
0
0
0
0
0
0
0
0
TENSORS stress float
1.60087e-10 1.32231e-12 2.20001e-11
1.32231e-12 1.60087e-10 2.20001e-11
2.20001e-11 2.20001e-11 0.109887

1.08e-10 2.29668e-12 6.13363e-11
2.29668e-12 1.31955e-10 2.07254e-11
6.13363e-11 2.07254e-11 0.109887

1.31955e-10 2.29667e-12 2.07254e-11
2.29667e-12 1.08e-10 6.13363e-11
2.07254e-11 6.13363e-11 0.109887

9.15667e-11 4.71071e-12 5.6116e-11
4.71071e-12 9.15667e-11 5.6116e-11
5.6116e-11 5.6116e-11 0.109887

-1.6056e-10 -1.32227e-12 2.20001e-11
-1.32227e-12 -1.6056e-10 2.20001e-11
2.20001e-11 2.20001e-11 0.109887

-1.08473e-10 -2.29662e-12 6.13363e-11
-2.29662e-12 -1.32429e-10 2.07254e-11
6.13363e-11 2.07254e-11 0.109887

-1.32429e-10 -2.29664e-12 2.07254e-11
-2.29664e-12 -1.08473e-10 6.13363e-11
2.07254e-11 6.13363e-11 0.109887

-9.204e-11 -4.71071e-12 5.6116e-11
-4.71071e-12 -9.204e-11 5.6116e-11
5.6116e-11 5.6116e-11 0.109887

SCALARS damage float
LOOKUP_TABLE default
0.510774
0.510774
0.510774
0.510774
0.510774
0.510774
0.510774
0.510774
