# vtk DataFile Version 3.0
time 0.1
ASCII
DATASET UNSTRUCTURED_GRID
POINTS 27 float
0 0 0 0.5 0 0 1 0 0 
0 0.5 0 0.5 0.5 0 1 0.5 0 
0 1 0 0.5 1 0 1 1 0 
0 0 0.5 0.5 0 0.5 1 0 0.5 
0 0.5 0.5 0.5 0.5 0.5 1 0.5 0.5 
0 1 0.5 0.5 1 0.5 1 1 0.5 
0 0 1 0.5 0 1 1 0 1 
0 0.5 1 0.5 0.5 1 1 0.5 1 
0 1 1 0.5 1 1 1 1 1 

CELLS 8 72
8 0 1 4 3 9 10 13 12 
8 1 2 5 4 10 11 14 13 
8 3 4 7 6 12 13 16 15 
8 4 5 8 7 13 14 17 16 
8 9 10 13 12 18 19 22 21 
8 10 11 14 13 19 20 23 22 
8 12 13 16 15 21 22 25 24 
8 13 14 17 16 22 23 26 25 

CELL_TYPES 8
12
12
12
12
12
12
12
12

POINT_DATA 27
VECTORS displacement float
0 0 0
-0.00730753 0 0
-0.0146151 0 0
0 -0.00730753 0
-0.00730753 -0.00730753 0
-0.0146151 -0.00730753 0
0 -0.0146151 0
-0.00730753 -0.0146151 0
-0.0146151 -0.0146151 0
0 0 0.025
-0.00730753 0 0.025
-0.0146151 0 0.025
0 -0.00730753 0.025
-0.00730753 -0.00730753 0.025
-0.0146151 -0.00730753 0.025
0 -0.0146151 0.025
-0.00730753 -0.0146151 0.025
-0.0146151 -0.0146151 0.025
0 0 0.05
-0.00730753 0 0.05
-0.0146151 0 0.05
0 -0.00730753 0.05
-0.00730753 -0.00730753 0.05
-0.0146151 -0.00730753 0.05
0 -0.0146151 0.05
-0.00730753 -0.0146151 0.05
-0.0146151 -0.0146151 0.05

CELL_DATA 8
SCALARS part_id int
LOOKUP_TABLE default
0
0
0
0
0
0
0
0
TENSORS stress float
3.44617e-10 2.57329e-12 3.78171e-11
2.57329e-12 3.44617e-10 3.78172e-11
3.78171e-11 3.78172e-11 0.0376757

2.42702e-10 4.27739e-12 9.27164e-11
4.27739e-12 2.8868e-10 3.56442e-11
9.27164e-11 3.56442e-11 0.0376757

2.8868e-10 4.2774e-12 3.56441e-11
4.2774e-12 2.42702e-10 9.27164e-11
3.56441e-11 9.27164e-11 0.0376757

2.09916e-10 1.02027e-11 8.46569e-11
1.02027e-11 2.09917e-10 8.46569e-11
8.46569e-11 8.46569e-11 0.0376757

-3.46574e-10 -2.57331e-12 3.78171e-11
-2.57331e-12 -3.46574e-10 3.78172e-11
3.78171e-11 3.78172e-11 0.0376757

-2.44659e-10 -4.27739e-12 9.27164e-11
-4.27739e-12 -2.90637e-10 3.56442e-11
9.27164e-11 3.56442e-11 0.0376757

-2.90637e-10 -4.27739e-12 3.56442e-11
-4.27739e-12 -2.44659e-10 9.27163e-11
3.56442e-11 9.27163e-11 0.0376757

-2.11873e-10 -1.02028e-11 8.4657e-11
-1.02028e-11 -2.11873e-10 8.4657e-11
8.4657e-11 8.4657e-11 0.0376757

SCALARS damage float
LOOKUP_TABLE default
0.240627
0.240627
0.240627
0.240627
0.240627
0.240627
0.240627
0.240627
