# vtk DataFile Version 3.0
time 0.25
ASCII
DATASET UNSTRUCTURED_GRID
POINTS 27 float
0 0 0 0.5 0 0 1 0 0 
0 0.5 0 0.5 0.5 0 1 0.5 0 
0 1 0 0.5 1 0 1 1 0 
0 0 0.5 0.5 0 0.5 1 0 0.5 
0 0.5 0.5 0.5 0.5 0.5 1 0.5 0.5 
0 1 0.5 0.5 1 0.5 1 1 0.5 
0 0 1 0.5 0 1 1 0 1 
0 0.5 1 0.5 0.5 1 1 0.5 1 
0 1 1 0.5 1 1 1 1 1 

CELLS 8 72
8 0 1 4 3 9 10 13 12 
8 1 2 5 4 10 11 14 13 
8 3 4 7 6 12 13 16 15 
8 4 5 8 7 13 14 17 16 
8 9 10 13 12 18 19 22 21 
8 10 11 14 13 19 20 23 22 
8 12 13 16 15 21 22 25 24 
8 13 14 17 16 22 23 26 25 

CELL_TYPES 8
12
12
12
12
12
12
12
12

POINT_DATA 27
VECTORS displacement float
0 0 0
-0.017601 0 0
-0.035202 0 0
0 -0.017601 0
-0.017601 -0.017601 0
-0.035202 -0.017601 0
0 -0.035202 0
-0.017601 -0.035202 0
-0.035202 -0.035202 0
0 0 0.0625
-0.017601 0 0.0625
-0.035202 0 0.0625
0 -0.017601 0.0625
-0.017601 -0.017601 0.0625
-0.035202 -0.017601 0.0625
0 -0.035202 0.0625
-0.017601 -0.035202 0.0625
-0.035202 -0.035202 0.0625
0 0 0.125
-0.017601 0 0.125
-0.035202 0 0.125
0 -0.017601 0.125
-0.017601 -0.017601 0.125
-0.035202 -0.017601 0.125
0 -0.035202 0.125
-0.017601 -0.035202 0.125
-0.035202 -0.035202 0.125

CELL_DATA 8
SCALARS part_id int
LOOKUP_TABLE default
0
0
0
0
0
0
0
0
TENSORS stress float
2.88632e-10 2.36369e-12 3.63204e-11
2.36369e-12 2.88632e-10 3.63204e-11
3.63204e-11 3.63204e-11 0.0723001

1.95741e-10 4.01011e-12 9.43998e-11
4.01011e-12 2.37742e-10 3.42124e-11
9.43998e-11 3.42124e-11 0.0723001

2.37742e-10 4.0101e-12 3.42125e-11
4.0101e-12 1.95741e-10 9.43998e-11
3.42125e-11 9.43998e-11 0.0723001

1.65958e-10 8.94407e-12 8.62105e-11
8.94407e-12 1.65958e-10 8.62106e-11
8.62105e-11 8.62106e-11 0.0723001

-2.89651e-10 -2.3637e-12 3.63204e-11
-2.3637e-12 -2.89651e-10 3.63204e-11
3.63204e-11 3.63204e-11 0.0723001

-1.9676e-10 -4.01008e-12 9.43998e-11
-4.01008e-12 -2.38761e-10 3.42124e-11
9.43998e-11 3.42124e-11 0.0723001

-2.38761e-10 -4.01009e-12 3.42125e-11
-4.01009e-12 -1.9676e-10 9.43998e-11
3.42125e-11 9.43998e-11 0.0723001

-1.66977e-10 -8.94399e-12 8.62106e-11
-8.94399e-12 -1.66977e-10 8.62106e-11
8.62106e-11 8.62106e-11 0.0723001

SCALARS damage float
LOOKUP_TABLE default
0.412016
0.412016
0.412016
0.412016
0.412016
0.412016
0.412016
0.412016
