# vtk DataFile Version 3.0
time 0.18
ASCII
DATASET UNSTRUCTURED_GRID
POINTS 27 float
0 0 0 0.5 0 0 1 0 0 
0 0.5 0 0.5 0.5 0 1 0.5 0 
0 1 0 0.5 1 0 1 1 0 
0 0 0.5 0.5 0 0.5 1 0 0.5 
0 0.5 0.5 0.5 0.5 0.5 1 0.5 0.5 
0 1 0.5 0.5 1 0.5 1 1 0.5 
0 0 1 0.5 0 1 1 0 1 
0 0.5 1 0.5 0.5 1 1 0.5 1 
0 1 1 0.5 1 1 1 1 1 

CELLS 8 72
8 0 1 4 3 9 10 13 12 
8 1 2 5 4 10 11 14 13 
8 3 4 7 6 12 13 16 15 
8 4 5 8 7 13 14 17 16 
8 9 10 13 12 18 19 22 21 
8 10 11 14 13 19 20 23 22 
8 12 13 16 15 21 22 25 24 
8 13 14 17 16 22 23 26 25 

CELL_TYPES 8
12
12
12
12
12
12
12
12

POINT_DATA 27
VECTORS displacement float
0 0 0
-0.0128917 0 0
-0.0257833 0 0
0 -0.0128917 0
-0.0128917 -0.0128917 0
-0.0257833 -0.0128917 0
0 -0.0257833 0
-0.0128917 -0.0257833 0
-0.0257833 -0.0257833 0
0 0 0.045
-0.0128917 0 0.045
-0.0257833 0 0.045
0 -0.0128917 0.045
-0.0128917 -0.0128917 0.045
-0.0257833 -0.0128917 0.045
0 -0.0257833 0.045
-0.0128917 -0.0257833 0.045
-0.0257833 -0.0257833 0.045
0 0 0.09
-0.0128917 0 0.09
-0.0257833 0 0.09
0 -0.0128917 0.09
-0.0128917 -0.0128917 0.09
-0.0257833 -0.0128917 0.09
0 -0.0257833 0.09
-0.0128917 -0.0257833 0.09
-0.0257833 -0.0257833 0.09

CELL_DATA 8
SCALARS part_id int
LOOKUP_TABLE default
0
0
0
0
0
0
0
0
TENSORS stress float
3.33318e-10 2.67111e-12 4.01154e-11
2.67111e-12 3.33318e-10 4.01154e-11
4.01154e-11 4.01154e-11 0.0577911

2.28141e-10 4.4908e-12 1.01531e-10
4.4908e-12 2.75561e-10 3.77936e-11
1.01531e-10 3.77936e-11 0.0577911

2.75561e-10 4.49075e-12 3.77936e-11
4.49075e-12 2.28141e-10 1.01531e-10
3.77936e-11 1.01531e-10 0.0577911

1.94318e-10 1.03257e-11 9.26968e-11
1.03257e-11 1.94318e-10 9.26967e-11
9.26968e-11 9.26967e-11 0.0577911

-3.34693e-10 -2.67111e-12 4.01154e-11
-2.67111e-12 -3.34693e-10 4.01154e-11
4.01154e-11 4.01154e-11 0.0577911

-2.29516e-10 -4.49076e-12 1.01531e-10
-4.49076e-12 -2.76936e-10 3.77936e-11
1.01531e-10 3.77936e-11 0.0577911

-2.76936e-10 -4.49078e-12 3.77936e-11
-4.49078e-12 -2.29516e-10 1.01531e-10
3.77936e-11 1.01531e-10 0.0577911

-1.95692e-10 -1.03256e-11 9.26968e-11
-1.03256e-11 -1.95692e-10 9.26969e-11
9.26968e-11 9.26969e-11 0.0577911

SCALARS damage float
LOOKUP_TABLE default
0.349614
0.349614
0.349614
0.349614
0.349614
0.349614
0.349614
0.349614
