# vtk DataFile Version 3.0
time 0.13
ASCII
DATASET UNSTRUCTURED_GRID
POINTS 27 float
0 0 0 0.5 0 0 1 0 0 
0 0.5 0 0.5 0.5 0 1 0.5 0 
0 1 0 0.5 1 0 1 1 0 
0 0 0.5 0.5 0 0.5 1 0 0.5 
0 0.5 0.5 0.5 0.5 0.5 1 0.5 0.5 
0 1 0.5 0.5 1 0.5 1 1 0.5 
0 0 1 0.5 0 1 1 0 1 
0 0.5 1 0.5 0.5 1 1 0.5 1 
0 1 1 0.5 1 1 1 1 1 

CELLS 8 72
8 0 1 4 3 9 10 13 12 
8 1 2 5 4 10 11 14 13 
8 3 4 7 6 12 13 16 15 
8 4 5 8 7 13 14 17 16 
8 9 10 13 12 18 19 22 21 
8 10 11 14 13 19 20 23 22 
8 12 13 16 15 21 22 25 24 
8 13 14 17 16 22 23 26 25 

CELL_TYPES 8
12
12
12
12
12
12
12
12

POINT_DATA 27
VECTORS displacement float
0 0 0
-0.00942776 0 0
-0.0188555 0 0
0 -0.00942776 0
-0.00942776 -0.00942776 0
-0.0188555 -0.00942776 0
0 -0.0188555 0
-0.00942776 -0.0188555 0
-0.0188555 -0.0188555 0
0 0 0.0325
-0.00942776 0 0.0325
-0.0188555 0 0.0325
0 -0.00942776 0.0325
-0.00942776 -0.00942776 0.0325
-0.0188555 -0.00942776 0.0325
0 -0.0188555 0.0325
-0.00942776 -0.0188555 0.0325
-0.0188555 -0.0188555 0.0325
0 0 0.065
-0.00942776 0 0.065
-0.0188555 0 0.065
0 -0.00942776 0.065
-0.00942776 -0.00942776 0.065
-0.0188555 -0.00942776 0.065
0 -0.0188555 0.065
-0.00942776 -0.0188555 0.065
-0.0188555 -0.0188555 0.065

CELL_DATA 8
SCALARS part_id int
LOOKUP_TABLE default
0
0
0
0
0
0
0
0
TENSORS stress float
3.49431e-10 2.70614e-12 4.00796e-11
2.70614e-12 3.49431e-10 4.00796e-11
4.00796e-11 4.00796e-11 0.0458551

2.4252e-10 4.51807e-12 9.9464e-11
4.51807e-12 2.90724e-10 3.77695e-11
9.9464e-11 3.77695e-11 0.0458551

2.90724e-10 4.51811e-12 3.77696e-11
4.51811e-12 2.4252e-10 9.9464e-11
3.77696e-11 9.9464e-11 0.0458551

2.08123e-10 1.06268e-11 9.08119e-11
1.06268e-11 2.08122e-10 9.08119e-11
9.08119e-11 9.08119e-11 0.0458551

-3.51147e-10 -2.7062e-12 4.00796e-11
-2.7062e-12 -3.51147e-10 4.00795e-11
4.00796e-11 4.00795e-11 0.0458551

-2.44236e-10 -4.51807e-12 9.9464e-11
-4.51807e-12 -2.92441e-10 3.77695e-11
9.9464e-11 3.77695e-11 0.0458551

-2.92441e-10 -4.51809e-12 3.77696e-11
-4.51809e-12 -2.44236e-10 9.9464e-11
3.77696e-11 9.9464e-11 0.0458551

-2.09839e-10 -1.06268e-11 9.08119e-11
-1.06268e-11 -2.09839e-10 9.08119e-11
9.08119e-11 9.08119e-11 0.0458551

SCALARS damage float
LOOKUP_TABLE default
0.287625
0.287625
0.287625
0.287625
0.287625
0.287625
0.287625
0.287625
