# vtk DataFile Version 3.0
time 0.16
ASCII
DATASET UNSTRUCTURED_GRID
POINTS 27 float
0 0 0 0.5 0 0 1 0 0 
0 0.5 0 0.5 0.5 0 1 0.5 0 
0 1 0 0.5 1 0 1 1 0 
0 0 0.5 0.5 0 0.5 1 0 0.5 
0 0.5 0.5 0.5 0.5 0.5 1 0.5 0.5 
0 1 0.5 0.5 1 0.5 1 1 0.5 
0 0 1 0.5 0 1 1 0 1 
0 0.5 1 0.5 0.5 1 1 0.5 1 
0 1 1 0.5 1 1 1 1 1 

CELLS 8 72
8 0 1 4 3 9 10 13 12 
8 1 2 5 4 10 11 14 13 
8 3 4 7 6 12 13 16 15 
8 4 5 8 7 13 14 17 16 
8 9 10 13 12 18 19 22 21 
8 10 11 14 13 19 20 23 22 
8 12 13 16 15 21 22 25 24 
8 13 14 17 16 22 23 26 25 

CELL_TYPES 8
12
12
12
12
12
12
12
12

POINT_DATA 27
VECTORS displacement float
0 0 0
-0.0115164 0 0
-0.0230328 0 0
0 -0.0115164 0
-0.0115164 -0.0115164 0
-0.0230328 -0.0115164 0
0 -0.0230328 0
-0.0115164 -0.0230328 0
-0.0230328 -0.0230328 0
0 0 0.04
-0.0115164 0 0.04
-0.0230328 0 0.04
0 -0.0115164 0.04
-0.0115164 -0.0115164 0.04
-0.0230328 -0.0115164 0.04
0 -0.0230328 0.04
-0.0115164 -0.0230328 0.04
-0.0230328 -0.0230328 0.04
0 0 0.08
-0.0115164 0 0.08
-0.0230328 0 0.08
0 -0.0115164 0.08
-0.0115164 -0.0115164 0.08
-0.0230328 -0.0115164 0.08
0 -0.0230328 0.08
-0.0115164 -0.0230328 0.08
-0.0230328 -0.0230328 0.08

CELL_DATA 8
SCALARS part_id int
LOOKUP_TABLE default
0
0
0
0
0
0
0
0
TENSORS stress float
3.42338e-10 2.7135e-12 4.05167e-11
2.7135e-12 3.42338e-10 4.05167e-11
4.05167e-11 4.05167e-11 0.0532234

2.35369e-10 4.54957e-12 1.0175e-10
4.54957e-12 2.83588e-10 3.81751e-11
1.0175e-10 3.81751e-11 0.0532234

2.83588e-10 4.54961e-12 3.81751e-11
4.54961e-12 2.35369e-10 1.0175e-10
3.81751e-11 1.0175e-10 0.0532234

2.00957e-10 1.05552e-11 9.28958e-11
1.05552e-11 2.00957e-10 9.28957e-11
9.28958e-11 9.28957e-11 0.0532234

-3.4384e-10 -2.71353e-12 4.05167e-11
-2.71353e-12 -3.4384e-10 4.05167e-11
4.05167e-11 4.05167e-11 0.0532234

-2.36871e-10 -4.54957e-12 1.0175e-10
-4.54957e-12 -2.8509e-10 3.81751e-11
1.0175e-10 3.81751e-11 0.0532234

-2.8509e-10 -4.54959e-12 3.81752e-11
-4.54959e-12 -2.36871e-10 1.0175e-10
3.81752e-11 1.0175e-10 0.0532234

-2.02459e-10 -1.05552e-11 9.28957e-11
-1.05552e-11 -2.02459e-10 9.28957e-11
9.28957e-11 9.28957e-11 0.0532234

SCALARS damage float
LOOKUP_TABLE default
0.326936
0.326936
0.326936
0.326936
0.326936
0.326936
0.326936
0.326936
