# vtk DataFile Version 3.0
time 0.33
ASCII
DATASET UNSTRUCTURED_GRID
POINTS 27 float
0 0 0 0.5 0 0 1 0 0 
0 0.5 0 0.5 0.5 0 1 0.5 0 
0 1 0 0.5 1 0 1 1 0 
0 0 0.5 0.5 0 0.5 1 0 0.5 
0 0.5 0.5 0.5 0.5 0.5 1 0.5 0.5 
0 1 0.5 0.5 1 0.5 1 1 0.5 
0 0 1 0.5 0 1 1 0 1 
0 0.5 1 0.5 0.5 1 1 0.5 1 
0 1 1 0.5 1 1 1 1 1 

CELLS 8 72
8 0 1 4 3 9 10 13 12 
8 1 2 5 4 10 11 14 13 
8 3 4 7 6 12 13 16 15 
8 4 5 8 7 13 14 17 16 
8 9 10 13 12 18 19 22 21 
8 10 11 14 13 19 20 23 22 
8 12 13 16 15 21 22 25 24 
8 13 14 17 16 22 23 26 25 

CELL_TYPES 8
12
12
12
12
12
12
12
12

POINT_DATA 27
VECTORS displacement float
0 0 0
-0.0227944 0 0
-0.0455889 0 0
0 -0.0227944 0
-0.0227944 -0.0227944 0
-0.0455889 -0.0227944 0
0 -0.0455889 0
-0.0227944 -0.0455889 0
-0.0455889 -0.0455889 0
0 0 0.0825
-0.0227944 0 0.0825
-0.0455889 0 0.0825
0 -0.0227944 0.0825
-0.0227944 -0.0227944 0.0825
-0.0455889 -0.0227944 0.0825
0 -0.0455889 0.0825
-0.0227944 -0.0455889 0.0825
-0.0455889 -0.0455889 0.0825
0 0 0.165
-0.0227944 0 0.165
-0.0455889 0 0.165
0 -0.0227944 0.165
-0.0227944 -0.0227944 0.165
-0.0455889 -0.0227944 0.165
0 -0.0455889 0.165
-0.0227944 -0.0455889 0.165
-0.0455889 -0.0455889 0.165

CELL_DATA 8
SCALARS part_id int
LOOKUP_TABLE default
0
0
0
0
0
0
0
0
TENSORS stress float
2.33023e-10 1.92399e-12 3.04541e-11
1.92399e-12 2.33023e-10 3.04541e-11
3.04541e-11 3.04541e-11 0.0872216

1.57375e-10 3.2954e-12 8.14494e-11
3.2954e-12 1.91791e-10 2.86867e-11
8.14494e-11 2.86867e-11 0.0872216

1.91791e-10 3.29543e-12 2.86868e-11
3.29543e-12 1.57375e-10 8.14493e-11
2.86868e-11 8.14493e-11 0.0872216

1.33262e-10 7.1102e-12 7.44306e-11
7.1102e-12 1.33262e-10 7.44306e-11
7.44306e-11 7.44306e-11 0.0872216

-2.33767e-10 -1.924e-12 3.04541e-11
-1.924e-12 -2.33767e-10 3.04541e-11
3.04541e-11 3.04541e-11 0.0872216

-1.58119e-10 -3.29544e-12 8.14493e-11
-3.29544e-12 -1.92535e-10 2.86868e-11
8.14493e-11 2.86868e-11 0.0872216

-1.92535e-10 -3.29541e-12 2.86867e-11
-3.29541e-12 -1.58119e-10 8.14494e-11
2.86867e-11 8.14494e-11 0.0872216

-1.34006e-10 -7.1102e-12 7.44306e-11
-7.1102e-12 -1.34006e-10 7.44306e-11
7.44306e-11 7.44306e-11 0.0872216

SCALARS damage float
LOOKUP_TABLE default
0.460808
0.460808
0.460808
0.460808
0.460808
0.460808
0.460808
0.460808
