# vtk DataFile Version 3.0
time 0.45
ASCII
DATASET UNSTRUCTURED_GRID
POINTS 27 float
0 0 0 0.5 0 0 1 0 0 
0 0.5 0 0.5 0.5 0 1 0.5 0 
0 1 0 0.5 1 0 1 1 0 
0 0 0.5 0.5 0 0.5 1 0 0.5 
0 0.5 0.5 0.5 0.5 0.5 1 0.5 0.5 
0 1 0.5 0.5 1 0.5 1 1 0.5 
0 0 1 0.5 0 1 1 0 1 
0 0.5 1 0.5 0.5 1 1 0.5 1 
0 1 1 0.5 1 1 1 1 1 

CELLS 8 72
8 0 1 4 3 9 10 13 12 
8 1 2 5 4 10 11 14 13 
8 3 4 7 6 12 13 16 15 
8 4 5 8 7 13 14 17 16 
8 9 10 13 12 18 19 22 21 
8 10 11 14 13 19 20 23 22 
8 12 13 16 15 21 22 25 24 
8 13 14 17 16 22 23 26 25 

CELL_TYPES 8
12
12
12
12
12
12
12
12

POINT_DATA 27
VECTORS displacement float
0 0 0
-0.0302351 0 0
-0.0604703 0 0
0 -0.0302351 0
-0.0302351 -0.0302351 0
-0.0604703 -0.0302351 0
0 -0.0604703 0
-0.0302351 -0.0604703 0
-0.0604703 -0.0604703 0
0 0 0.1125
-0.0302351 0 0.1125
-0.0604703 0 0.1125
0 -0.0302351 0.1125
-0.0302351 -0.0302351 0.1125
-0.0604703 -0.0302351 0.1125
0 -0.0604703 0.1125
-0.0302351 -0.0604703 0.1125
-0.0604703 -0.0604703 0.1125
0 0 0.225
-0.0302351 0 0.225
-0.0604703 0 0.225
0 -0.0302351 0.225
-0.0302351 -0.0302351 0.225
-0.0604703 -0.0302351 0.225
0 -0.0604703 0.225
-0.0302351 -0.0604703 0.225
-0.0604703 -0.0604703 0.225

CELL_DATA 8
SCALARS part_id int
LOOKUP_TABLE default
0
0
0
0
0
0
0
0
TENSORS stress float
1.64758e-10 1.36112e-12 2.25607e-11
1.36112e-12 1.64758e-10 2.25607e-11
2.25607e-11 2.25607e-11 0.108178

1.11146e-10 2.36172e-12 6.27123e-11
2.36172e-12 1.35784e-10 2.12534e-11
6.27123e-11 2.12534e-11 0.108178

1.35784e-10 2.36172e-12 2.12534e-11
2.36172e-12 1.11147e-10 6.27123e-11
2.12534e-11 6.27123e-11 0.108178

9.42198e-11 4.86237e-12 5.73699e-11
4.86237e-12 9.42198e-11 5.73699e-11
5.73699e-11 5.73699e-11 0.108178

-1.65247e-10 -1.36113e-12 2.25607e-11
-1.36113e-12 -1.65247e-10 2.25607e-11
2.25607e-11 2.25607e-11 0.108178

-1.11636e-10 -2.36173e-12 6.27123e-11
-2.36173e-12 -1.36273e-10 2.12534e-11
6.27123e-11 2.12534e-11 0.108178

-1.36273e-10 -2.36174e-12 2.12534e-11
-2.36174e-12 -1.11636e-10 6.27122e-11
2.12534e-11 6.27122e-11 0.108178

-9.47088e-11 -4.86236e-12 5.737e-11
-4.86236e-12 -9.47089e-11 5.737e-11
5.737e-11 5.737e-11 0.108178

SCALARS damage float
LOOKUP_TABLE default
0.507797
0.507797
0.507797
0.507797
0.507797
0.507797
0.507797
0.507797
