# vtk DataFile Version 3.0
time 1
ASCII
DATASET UNSTRUCTURED_GRID
POINTS 8 float
0 0 0 1 0 0 1 1 0 
0 1 0 0 0 1 1 0 1 
1 1 1 0 1 1 

CELLS 1 9
8 0 1 2 3 4 5 6 7 

CELL_TYPES 1
12

POINT_DATA 8
VECTORS displacement float
0 0 0
0.00610959 0 0
0.00610959 0.00610959 0
0 0.00610959 0
0 0 -0.02
0.00610959 0 -0.02
0.00610959 0.00610959 -0.02
0 0.00610959 -0.02

CELL_DATA 1
SCALARS part_id int
LOOKUP_TABLE default
0
TENSORS stress float
1.37491e-10 5.44249e-18 -4.5392e-17
5.44249e-18 1.37491e-10 -4.91072e-17
-4.5392e-17 -4.91072e-17 -0.0202132

