# vtk DataFile Version 3.0
time 0.26
ASCII
DATASET UNSTRUCTURED_GRID
POINTS 8 float
0 0 0 1 0 0 1 1 0 
0 1 0 0 0 1 1 0 1 
1 1 1 0 1 1 

CELLS 1 9
8 0 1 2 3 4 5 6 7 

CELL_TYPES 1
12

POINT_DATA 8
VECTORS displacement float
0 0 0
-0.0365219 0 0
-0.0365219 -0.0365219 0
0 -0.0365219 0
0 0 0.13
-0.0365219 0 0.13
-0.0365219 -0.0365219 0.13
0 -0.0365219 0.13

CELL_DATA 1
SCALARS part_id int
LOOKUP_TABLE default
0
TENSORS stress float
-2.37613e-14 2.22998e-18 1.8121e-17
2.22998e-18 -2.37613e-14 8.05466e-18
1.8121e-17 8.05466e-18 0.0664464

SCALARS damage float
LOOKUP_TABLE default
0.480163
