# vtk DataFile Version 3.0
time 0.27
ASCII
DATASET UNSTRUCTURED_GRID
POINTS 8 float
0 0 0 1 0 0 1 1 0 
0 1 0 0 0 1 1 0 1 
1 1 1 0 1 1 

CELLS 1 9
8 0 1 2 3 4 5 6 7 

CELL_TYPES 1
12

POINT_DATA 8
VECTORS displacement float
0 0 0
-0.0378355 0 0
-0.0378355 -0.0378355 0
0 -0.0378355 0
0 0 0.135
-0.0378355 0 0.135
-0.0378355 -0.0378355 0.135
0 -0.0378355 0.135

CELL_DATA 1
SCALARS part_id int
LOOKUP_TABLE default
0
TENSORS stress float
-2.20751e-14 -5.07461e-18 -1.17853e-17
-5.07461e-18 -2.20618e-14 1.52884e-18
-1.17853e-17 1.52884e-18 0.0688761

SCALARS damage float
LOOKUP_TABLE default
0.480877
