# vtk DataFile Version 3.0
time 0.17
ASCII
DATASET UNSTRUCTURED_GRID
POINTS 8 float
0 0 0 1 0 0 1 1 0 
0 1 0 0 0 1 1 0 1 
1 1 1 0 1 1 

CELLS 1 9
8 0 1 2 3 4 5 6 7 

CELL_TYPES 1
12

POINT_DATA 8
VECTORS displacement float
0 0 0
-0.0244114 0 0
-0.0244114 -0.0244114 0
0 -0.0244114 0
0 0 0.085
-0.0244114 0 0.085
-0.0244114 -0.0244114 0.085
0 -0.0244114 0.085

CELL_DATA 1
SCALARS part_id int
LOOKUP_TABLE default
0
TENSORS stress float
-5.49276e-14 1.58692e-17 -1.85778e-19
1.58692e-17 -5.49768e-14 -3.00992e-18
-1.85778e-19 -3.00992e-18 0.044506

SCALARS damage float
LOOKUP_TABLE default
0.46997
