# vtk DataFile Version 3.0
time 0.28
ASCII
DATASET UNSTRUCTURED_GRID
POINTS 8 float
0 0 0 1 0 0 1 1 0 
0 1 0 0 0 1 1 0 1 
1 1 1 0 1 1 

CELLS 1 9
8 0 1 2 3 4 5 6 7 

CELL_TYPES 1
12

POINT_DATA 8
VECTORS displacement float
0 0 0
-0.0391429 0 0
-0.0391429 -0.0391429 0
0 -0.0391429 0
0 0 0.14
-0.0391429 0 0.14
-0.0391429 -0.0391429 0.14
0 -0.0391429 0.14

CELL_DATA 1
SCALARS part_id int
LOOKUP_TABLE default
0
TENSORS stress float
-2.05744e-14 -3.15798e-19 2.00451e-17
-3.15798e-19 -2.0564e-14 5.53984e-18
2.00451e-17 5.53984e-18 0.0713044

SCALARS damage float
LOOKUP_TABLE default
0.481539
