# vtk DataFile Version 3.0
time 0.3
ASCII
DATASET UNSTRUCTURED_GRID
POINTS 8 float
0 0 0 1 0 0 1 1 0 
0 1 0 0 0 1 1 0 1 
1 1 1 0 1 1 

CELLS 1 9
8 0 1 2 3 4 5 6 7 

CELL_TYPES 1
12

POINT_DATA 8
VECTORS displacement float
0 0 0
-0.0417394 0 0
-0.0417394 -0.0417394 0
0 -0.0417394 0
0 0 0.15
-0.0417394 0 0.15
-0.0417394 -0.0417394 0.15
0 -0.0417394 0.15

CELL_DATA 1
SCALARS part_id int
LOOKUP_TABLE default
0
TENSORS stress float
-1.81507e-14 -9.70851e-18 2.53693e-17
-9.70851e-18 -1.81455e-14 2.17362e-17
2.53693e-17 2.17362e-17 0.0761574

SCALARS damage float
LOOKUP_TABLE default
0.482732
