# vtk DataFile Version 3.0
time 0.35
ASCII
DATASET UNSTRUCTURED_GRID
POINTS 8 float
0 0 0 1 0 0 1 1 0 
0 1 0 0 0 1 1 0 1 
1 1 1 0 1 1 

CELLS 1 9
8 0 1 2 3 4 5 6 7 

CELL_TYPES 1
12

POINT_DATA 8
VECTORS displacement float
0 0 0
-0.0481257 0 0
-0.0481257 -0.0481257 0
0 -0.0481257 0
0 0 0.175
-0.0481257 0 0.175
-0.0481257 -0.0481257 0.175
0 -0.0481257 0.175

CELL_DATA 1
SCALARS part_id int
LOOKUP_TABLE default
0
TENSORS stress float
-1.35597e-14 -3.83933e-18 3.79144e-18
-3.83933e-18 -1.35553e-14 1.34332e-17
3.79144e-18 1.34332e-17 0.0882729

SCALARS damage float
LOOKUP_TABLE default
0.48512
