# vtk DataFile Version 3.0
time 0.31
ASCII
DATASET UNSTRUCTURED_GRID
POINTS 8 float
0 0 0 1 0 0 1 1 0 
0 1 0 0 0 1 1 0 1 
1 1 1 0 1 1 

CELLS 1 9
8 0 1 2 3 4 5 6 7 

CELL_TYPES 1
12

POINT_DATA 8
VECTORS displacement float
0 0 0
-0.0430285 0 0
-0.0430285 -0.0430285 0
0 -0.0430285 0
0 0 0.155
-0.0430285 0 0.155
-0.0430285 -0.0430285 0.155
0 -0.0430285 0.155

CELL_DATA 1
SCALARS part_id int
LOOKUP_TABLE default
0
TENSORS stress float
-1.70449e-14 -4.99067e-18 -3.95285e-18
-4.99067e-18 -1.70761e-14 1.21005e-17
-3.95285e-18 1.21005e-17 0.0785823

SCALARS damage float
LOOKUP_TABLE default
0.483271
