# vtk DataFile Version 3.0
time 0.13
ASCII
DATASET UNSTRUCTURED_GRID
POINTS 8 float
0 0 0 1 0 0 1 1 0 
0 1 0 0 0 1 1 0 1 
1 1 1 0 1 1 

CELLS 1 9
8 0 1 2 3 4 5 6 7 

CELL_TYPES 1
12

POINT_DATA 8
VECTORS displacement float
0 0 0
-0.0188555 0 0
-0.0188555 -0.0188555 0
0 -0.0188555 0
0 0 0.065
-0.0188555 0 0.065
-0.0188555 -0.0188555 0.065
0 -0.0188555 0.065

CELL_DATA 1
SCALARS part_id int
LOOKUP_TABLE default
0
TENSORS stress float
-1.18884e-13 -8.00128e-18 1.69631e-17
-8.00128e-18 -1.18884e-13 1.22989e-17
1.69631e-17 1.22989e-17 0.0252066

SCALARS damage float
LOOKUP_TABLE default
0.608407
