# vtk DataFile Version 3.0
time 0.01
ASCII
DATASET UNSTRUCTURED_GRID
POINTS 8 float
0 0 0 1 0 0 1 1 0 
0 1 0 0 0 1 1 0 1 
1 1 1 0 1 1 

CELLS 1 9
8 0 1 2 3 4 5 6 7 

CELL_TYPES 1
12

POINT_DATA 8
VECTORS displacement float
0 0 0
-0.00149604 0 0
-0.00149604 -0.00149604 0
0 -0.00149604 0
0 0 0.005
-0.00149604 0 0.005
-0.00149604 -0.00149604 0.005
0 -0.00149604 0.005

CELL_DATA 1
SCALARS part_id int
LOOKUP_TABLE default
0
TENSORS stress float
-5.62288e-12 8.05749e-18 3.26931e-17
8.05749e-18 -5.62288e-12 3.39668e-17
3.26931e-17 3.39668e-17 0.00378389

SCALARS damage float
LOOKUP_TABLE default
0.242577
