# vtk DataFile Version 3.0
time 0.08
ASCII
DATASET UNSTRUCTURED_GRID
POINTS 8 float
0 0 0 1 0 0 1 1 0 
0 1 0 0 0 1 1 0 1 
1 1 1 0 1 1 

CELLS 1 9
8 0 1 2 3 4 5 6 7 

CELL_TYPES 1
12

POINT_DATA 8
VECTORS displacement float
0 0 0
-0.0117521 0 0
-0.0117521 -0.0117521 0
0 -0.0117521 0
0 0 0.04
-0.0117521 0 0.04
-0.0117521 -0.0117521 0.04
0 -0.0117521 0.04

CELL_DATA 1
SCALARS part_id int
LOOKUP_TABLE default
0
TENSORS stress float
-3.40679e-13 -6.0455e-18 1.30134e-18
-6.0455e-18 -3.40688e-13 6.10168e-18
1.30134e-18 6.10168e-18 0.0168253

SCALARS damage float
LOOKUP_TABLE default
0.576697
