# vtk DataFile Version 3.0
time 0.45
ASCII
DATASET UNSTRUCTURED_GRID
POINTS 8 float
0 0 0 1 0 0 1 1 0 
0 1 0 0 0 1 1 0 1 
1 1 1 0 1 1 

CELLS 1 9
8 0 1 2 3 4 5 6 7 

CELL_TYPES 1
12

POINT_DATA 8
VECTORS displacement float
0 0 0
-0.0604703 0 0
-0.0604703 -0.0604703 0
0 -0.0604703 0
0 0 0.225
-0.0604703 0 0.225
-0.0604703 -0.0604703 0.225
0 -0.0604703 0.225

CELL_DATA 1
SCALARS part_id int
LOOKUP_TABLE default
0
TENSORS stress float
-8.43082e-15 -8.24196e-18 7.11937e-18
-8.24196e-18 -8.43082e-15 1.28693e-17
7.11937e-18 1.28693e-17 0.0781185

SCALARS damage float
LOOKUP_TABLE default
0.644565
