# vtk DataFile Version 3.0
time 0.21
ASCII
DATASET UNSTRUCTURED_GRID
POINTS 8 float
0 0 0 1 0 0 1 1 0 
0 1 0 0 0 1 1 0 1 
1 1 1 0 1 1 

CELLS 1 9
8 0 1 2 3 4 5 6 7 

CELL_TYPES 1
12

POINT_DATA 8
VECTORS displacement float
0 0 0
-0.029859 0 0
-0.029859 -0.029859 0
0 -0.029859 0
0 0 0.105
-0.029859 0 0.105
-0.029859 -0.029859 0.105
0 -0.029859 0.105

CELL_DATA 1
SCALARS part_id int
LOOKUP_TABLE default
0
TENSORS stress float
-4.21432e-14 3.24346e-18 1.88675e-17
3.24346e-18 -4.21319e-14 2.14325e-18
1.88675e-17 2.14325e-18 0.038525

SCALARS damage float
LOOKUP_TABLE default
0.627762
