# vtk DataFile Version 3.0
time 0.32
ASCII
DATASET UNSTRUCTURED_GRID
POINTS 8 float
0 0 0 1 0 0 1 1 0 
0 1 0 0 0 1 1 0 1 
1 1 1 0 1 1 

CELLS 1 9
8 0 1 2 3 4 5 6 7 

CELL_TYPES 1
12

POINT_DATA 8
VECTORS displacement float
0 0 0
-0.0443117 0 0
-0.0443117 -0.0443117 0
0 -0.0443117 0
0 0 0.16
-0.0443117 0 0.16
-0.0443117 -0.0443117 0.16
0 -0.0443117 0.16

CELL_DATA 1
SCALARS part_id int
LOOKUP_TABLE default
0
TENSORS stress float
-1.72425e-14 -3.69775e-18 8.31651e-18
-3.69775e-18 -1.72391e-14 2.09833e-17
8.31651e-18 2.09833e-17 0.0567136

SCALARS damage float
LOOKUP_TABLE default
0.638585
