# vtk DataFile Version 3.0
time 0.22
ASCII
DATASET UNSTRUCTURED_GRID
POINTS 8 float
0 0 0 1 0 0 1 1 0 
0 1 0 0 0 1 1 0 1 
1 1 1 0 1 1 

CELLS 1 9
8 0 1 2 3 4 5 6 7 

CELL_TYPES 1
12

POINT_DATA 8
VECTORS displacement float
0 0 0
-0.0312044 0 0
-0.0312044 -0.0312044 0
0 -0.0312044 0
0 0 0.11
-0.0312044 0 0.11
-0.0312044 -0.0312044 0.11
0 -0.0312044 0.11

CELL_DATA 1
SCALARS part_id int
LOOKUP_TABLE default
0
TENSORS stress float
-3.81427e-14 2.99084e-18 1.22573e-17
2.99084e-18 -3.8158e-14 1.29467e-19
1.22573e-17 1.29467e-19 0.0401835

SCALARS damage float
LOOKUP_TABLE default
0.629193
