# vtk DataFile Version 3.0
time 0.42
ASCII
DATASET UNSTRUCTURED_GRID
POINTS 8 float
0 0 0 1 0 0 1 1 0 
0 1 0 0 0 1 1 0 1 
1 1 1 0 1 1 

CELLS 1 9
8 0 1 2 3 4 5 6 7 

CELL_TYPES 1
12

POINT_DATA 8
VECTORS displacement float
0 0 0
-0.0568249 0 0
-0.0568249 -0.0568249 0
0 -0.0568249 0
0 0 0.21
-0.0568249 0 0.21
-0.0568249 -0.0568249 0.21
0 -0.0568249 0.21

CELL_DATA 1
SCALARS part_id int
LOOKUP_TABLE default
0
TENSORS stress float
-9.74269e-15 -4.58507e-18 8.42223e-18
-4.58507e-18 -9.73527e-15 9.53491e-18
8.42223e-18 9.53491e-18 0.0731824

SCALARS damage float
LOOKUP_TABLE default
0.643513
