# vtk DataFile Version 3.0
time 1
ASCII
DATASET UNSTRUCTURED_GRID
POINTS 8 float
0 0 0 1 0 0 1 1 0 
0 1 0 0 0 1 1 0 1 
1 1 1 0 1 1 

CELLS 1 9
8 0 1 2 3 4 5 6 7 

CELL_TYPES 1
12

POINT_DATA 8
VECTORS displacement float
0 0 0
-0.078 0 0
-0.078 -0.078 0
0 -0.078 0
0 0 0.3
-0.078 0 0.3
-0.078 -0.078 0.3
0 -0.078 0.3

CELL_DATA 1
SCALARS part_id int
LOOKUP_TABLE default
0
TENSORS stress float
-3.67597e-11 4.33453e-19 5.92061e-18
4.33453e-19 -3.67597e-11 4.02237e-18
5.92061e-18 4.02237e-18 0.0284529

