# vtk DataFile Version 3.0
time 1
ASCII
DATASET UNSTRUCTURED_GRID
POINTS 125 float
0 0 0 1 0 0 2 0 0 
3 0 0 4 0 0 0 1 0 
1 1 0 2 1 0 3 1 0 
4 1 0 0 2 0 1 2 0 
2 2 0 3 2 0 4 2 0 
0 3 0 1 3 0 2 3 0 
3 3 0 4 3 0 0 4 0 
1 4 0 2 4 0 3 4 0 
4 4 0 0 0 1 1 0 1 
2 0 1 3 0 1 4 0 1 
0 1 1 1 1 1 2 1 1 
3 1 1 4 1 1 0 2 1 
1 2 1 2 2 1 3 2 1 
4 2 1 0 3 1 1 3 1 
2 3 1 3 3 1 4 3 1 
0 4 1 1 4 1 2 4 1 
3 4 1 4 4 1 0 0 2 
1 0 2 2 0 2 3 0 2 
4 0 2 0 1 2 1 1 2 
2 1 2 3 1 2 4 1 2 
0 2 2 1 2 2 2 2 2 
3 2 2 4 2 2 0 3 2 
1 3 2 2 3 2 3 3 2 
4 3 2 0 4 2 1 4 2 
2 4 2 3 4 2 4 4 2 
0 0 3 1 0 3 2 0 3 
3 0 3 4 0 3 0 1 3 
1 1 3 2 1 3 3 1 3 
4 1 3 0 2 3 1 2 3 
2 2 3 3 2 3 4 2 3 
0 3 3 1 3 3 2 3 3 
3 3 3 4 3 3 0 4 3 
1 4 3 2 4 3 3 4 3 
4 4 3 0 0 4 1 0 4 
2 0 4 3 0 4 4 0 4 
0 1 4 1 1 4 2 1 4 
3 1 4 4 1 4 0 2 4 
1 2 4 2 2 4 3 2 4 
4 2 4 0 3 4 1 3 4 
2 3 4 3 3 4 4 3 4 
0 4 4 1 4 4 2 4 4 
3 4 4 4 4 4 

CELLS 64 576
8 0 1 6 5 25 26 31 30 
8 1 2 7 6 26 27 32 31 
8 2 3 8 7 27 28 33 32 
8 3 4 9 8 28 29 34 33 
8 5 6 11 10 30 31 36 35 
8 6 7 12 11 31 32 37 36 
8 7 8 13 12 32 33 38 37 
8 8 9 14 13 33 34 39 38 
8 10 11 16 15 35 36 41 40 
8 11 12 17 16 36 37 42 41 
8 12 13 18 17 37 38 43 42 
8 13 14 19 18 38 39 44 43 
8 15 16 21 20 40 41 46 45 
8 16 17 22 21 41 42 47 46 
8 17 18 23 22 42 43 48 47 
8 18 19 24 23 43 44 49 48 
8 25 26 31 30 50 51 56 55 
8 26 27 32 31 51 52 57 56 
8 27 28 33 32 52 53 58 57 
8 28 29 34 33 53 54 59 58 
8 30 31 36 35 55 56 61 60 
8 31 32 37 36 56 57 62 61 
8 32 33 38 37 57 58 63 62 
8 33 34 39 38 58 59 64 63 
8 35 36 41 40 60 61 66 65 
8 36 37 42 41 61 62 67 66 
8 37 38 43 42 62 63 68 67 
8 38 39 44 43 63 64 69 68 
8 40 41 46 45 65 66 71 70 
8 41 42 47 46 66 67 72 71 
8 42 43 48 47 67 68 73 72 
8 43 44 49 48 68 69 74 73 
8 50 51 56 55 75 76 81 80 
8 51 52 57 56 76 77 82 81 
8 52 53 58 57 77 78 83 82 
8 53 54 59 58 78 79 84 83 
8 55 56 61 60 80 81 86 85 
8 56 57 62 61 81 82 87 86 
8 57 58 63 62 82 83 88 87 
8 58 59 64 63 83 84 89 88 
8 60 61 66 65 85 86 91 90 
8 61 62 67 66 86 87 92 91 
8 62 63 68 67 87 88 93 92 
8 63 64 69 68 88 89 94 93 
8 65 66 71 70 90 91 96 95 
8 66 67 72 71 91 92 97 96 
8 67 68 73 72 92 93 98 97 
8 68 69 74 73 93 94 99 98 
8 75 76 81 80 100 101 106 105 
8 76 77 82 81 101 102 107 106 
8 77 78 83 82 102 103 108 107 
8 78 79 84 83 103 104 109 108 
8 80 81 86 85 105 106 111 110 
8 81 82 87 86 106 107 112 111 
8 82 83 88 87 107 108 113 112 
8 83 84 89 88 108 109 114 113 
8 85 86 91 90 110 111 116 115 
8 86 87 92 91 111 112 117 116 
8 87 88 93 92 112 113 118 117 
8 88 89 94 93 113 114 119 118 
8 90 91 96 95 115 116 121 120 
8 91 92 97 96 116 117 122 121 
8 92 93 98 97 117 118 123 122 
8 93 94 99 98 118 119 124 123 

CELL_TYPES 64
12
12
12
12
12
12
12
12
12
12
12
12
12
12
12
12
12
12
12
12
12
12
12
12
12
12
12
12
12
12
12
12
12
12
12
12
12
12
12
12
12
12
12
12
12
12
12
12
12
12
12
12
12
12
12
12
12
12
12
12
12
12
12
12

POINT_DATA 125
VECTORS displacement float
0 0 0
-0.00947674 0 0
-0.0164132 0 0
-0.0199621 0 0
-0.0207924 0 0
0 -0.00423631 0
-0.00966046 -0.00381194 0
-0.0167442 -0.00273418 0
-0.0203858 -0.00140094 0
-0.0212821 -0.000189254 0
0 -0.00816694 0
-0.0103057 -0.00736138 0
-0.017879 -0.00531303 0
-0.0218042 -0.0027219 0
-0.0228767 -0.000216905 0
0 -0.0115509 0
-0.0116426 -0.0104669 0
-0.0201512 -0.0076236 0
-0.0245474 -0.0039319 0
-0.0258485 -0.000104563 0
0 -0.0144605 0
-0.0138245 -0.0131778 0
-0.0237881 -0.00973538 0
-0.0288123 -0.00505519 0
-0.0302911 -3.73897e-05 0
0 0 0.0189815
-0.00933855 0 0.0165338
-0.0157689 0 0.0107528
-0.0186759 0 0.00448411
-0.0191362 0 -0.000426448
0 -0.00463476 0.0189268
-0.00951157 -0.00414348 0.0165018
-0.0160873 -0.00292472 0.0107686
-0.0190927 -0.00148292 0.00452967
-0.0196242 -0.000229976 -0.000371443
0 -0.00902341 0.0189337
-0.0101363 -0.00807239 0.0165347
-0.0172057 -0.00570671 0.0108651
-0.0205198 -0.00287381 0.00467004
-0.0212425 -0.000258874 -0.000193377
0 -0.012929 0.0195154
-0.0115259 -0.0115721 0.0170551
-0.0195545 -0.00822054 0.0112028
-0.0233655 -0.00411553 0.00491064
-0.0243188 -6.83197e-05 0.000123489
0 -0.0163078 0.0217574
-0.014065 -0.0146879 0.01883
-0.0235874 -0.0104749 0.0121525
-0.0279304 -0.00525203 0.00522248
-0.0290226 0.00019297 0.000314653
0 0 0.0412681
-0.00881715 0 0.0347387
-0.0130283 0 0.0208405
-0.0138402 0 0.00797213
-0.0130545 0 -0.00209235
0 -0.00571489 0.0411751
-0.00894872 -0.00501125 0.0346915
-0.0133021 -0.00339932 0.0208781
-0.0142293 -0.00168847 0.0080584
-0.0135336 -0.000334803 -0.0019959
0 -0.0115524 0.04109
-0.00947116 -0.010083 0.0346922
-0.0143412 -0.00670907 0.0210763
-0.0156533 -0.00323514 0.00833242
-0.0152022 -0.00035715 -0.00169889
0 -0.0173258 0.0421344
-0.0108921 -0.0149591 0.0354686
-0.0168356 -0.00977278 0.0217111
-0.0187525 -0.00452993 0.00875273
-0.0185561 -1.22828e-05 -0.00124228
0 -0.0228028 0.0469046
-0.0145598 -0.0192765 0.0391204
-0.0220677 -0.0125203 0.0231915
-0.0240334 -0.00557863 0.00922004
-0.0237663 0.000453846 -0.000962154
0 0 0.0717797
-0.00519576 0 0.0569421
-0.00612045 0 0.0282501
-0.0025462 0 0.00898113
-0.00142081 0 -0.00404213
0 -0.00716177 0.071708
-0.00526888 -0.00604592 0.0569464
-0.00633075 -0.00385629 0.0283365
-0.00289055 -0.00193479 0.00909212
-0.00187461 -0.000483755 -0.00394599
0 -0.0152548 0.0715709
-0.00556267 -0.0126894 0.0570945
-0.00717883 -0.00772149 0.0286658
-0.004254 -0.00362069 0.00946521
-0.00357841 -0.000459669 -0.00363546
0 -0.0248814 0.0723825
-0.00667286 -0.0204229 0.0578069
-0.00953364 -0.0112806 0.0296011
-0.00761701 -0.00477486 0.0100165
-0.0071817 4.68626e-05 -0.00322102
0 -0.0334564 0.0781297
-0.0119837 -0.0289644 0.0629775
-0.0164844 -0.0139609 0.0308135
-0.0136027 -0.00574833 0.0103011
-0.0126443 0.000581219 -0.0031026
0 0 0.1
0.0115725 0 0.1
0.0151083 0 0.0272808
0.0140216 0 0.0101159
0.0135966 0 -0.00495238
0 -0.00786845 0.1
0.011538 -0.00674627 0.1
0.0149287 -0.00409165 0.0274575
0.0137307 -0.00217421 0.0102276
0.0131978 -0.000638954 -0.0049233
0 -0.0171569 0.1
0.0114262 -0.0144307 0.1
0.0141815 -0.00828161 0.0280836
0.0125173 -0.00402114 0.0105679
0.0115567 -0.00062504 -0.00472295
0 -0.0294703 0.1
0.0109028 -0.0243579 0.1
0.0122825 -0.011971 0.0292586
0.00921435 -0.00483871 0.0110784
0.0078125 9.5729e-05 -0.00439934
0 -0.0419041 0.1
0.00460257 -0.0386798 0.1
0.00489156 -0.013308 0.0304122
0.00315366 -0.00471549 0.0106822
0.00234701 0.000799151 -0.00442413

CELL_DATA 64
SCALARS part_id int
LOOKUP_TABLE default
0
0
0
0
0
0
0
0
0
0
0
0
0
0
0
0
0
0
0
0
0
0
0
0
0
0
0
0
0
0
0
0
0
0
0
0
0
0
0
0
0
0
0
0
0
0
0
0
0
0
0
0
0
0
0
0
0
0
0
0
0
0
0
0
TENSORS stress float
-0.00293441 3.0507e-05 -0.000252148
3.0507e-05 -0.000594475 -4.61578e-05
-0.000252148 -4.61578e-05 0.00923428

-0.00212257 7.91793e-05 -0.000610067
7.91793e-05 -0.000451912 -3.41204e-05
-0.000610067 -3.41204e-05 0.00805035

-0.00100309 9.47028e-05 -0.000631743
9.47028e-05 -0.000313172 -1.6247e-05
-0.000631743 -1.6247e-05 0.00545842

-0.000210528 5.67052e-05 -0.000339522
5.67052e-05 -0.000304287 -2.46037e-06
-0.000339522 -2.46037e-06 0.00168867

-0.00316046 7.59477e-05 -0.000246997
7.59477e-05 -0.000533616 -0.000127623
-0.000246997 -0.000127623 0.00915258

-0.00230998 0.000194206 -0.000597633
0.000194206 -0.000390644 -9.49058e-05
-0.000597633 -9.49058e-05 0.00800762

-0.00111589 0.0002271 -0.000622276
0.0002271 -0.00024287 -4.47387e-05
-0.000622276 -4.47387e-05 0.00548567

-0.000237168 0.000133277 -0.000336739
0.000133277 -0.000146413 -1.30158e-06
-0.000336739 -1.30158e-06 0.00181906

-0.00363148 7.70441e-05 -0.000247118
7.70441e-05 -0.000400706 -0.000165604
-0.000247118 -0.000165604 0.00907279

-0.00268076 0.000193492 -0.000603701
0.000193492 -0.00025983 -0.000123321
-0.000603701 -0.000123321 0.00799621

-0.00132781 0.000216648 -0.000633826
0.000216648 -0.000116737 -5.79158e-05
-0.000633826 -5.79158e-05 0.00557006

-0.000286944 0.000116919 -0.000345876
0.000116919 5.72039e-05 1.66697e-05
-0.000345876 1.66697e-05 0.00205338

-0.00430433 2.72668e-05 -0.000285442
2.72668e-05 -0.000254682 -0.000102159
-0.000285442 -0.000102159 0.00917855

-0.00317852 7.63578e-05 -0.000696564
7.63578e-05 -0.000116063 -7.9023e-05
-0.000696564 -7.9023e-05 0.00816485

-0.00157232 7.99282e-05 -0.000738479
7.99282e-05 1.72849e-05 -3.80409e-05
-0.000738479 -3.80409e-05 0.00577534

-0.000345732 2.91187e-05 -0.000412932
2.91187e-05 0.000167021 3.06602e-05
-0.000412932 3.06602e-05 0.00228908

-0.00195723 4.58251e-05 -0.000868768
4.58251e-05 -0.00017549 -0.000115921
-0.000868768 -0.000115921 0.0104112

-0.000915603 0.000115292 -0.00193833
0.000115292 -0.000165842 -8.44618e-05
-0.00193833 -8.44618e-05 0.00853739

-5.22914e-05 0.000129846 -0.00168355
0.000129846 -0.000309197 -3.88198e-05
-0.00168355 -3.88198e-05 0.00513553

0.000160733 7.36178e-05 -0.000702043
7.36178e-05 -0.00058818 -4.1062e-06
-0.000702043 -4.1062e-06 0.000724497

-0.00221223 0.000126499 -0.000850605
0.000126499 -0.000252035 -0.000348677
-0.000850605 -0.000348677 0.010277

-0.00114356 0.000312589 -0.00189593
0.000312589 -0.000191199 -0.000248657
-0.00189593 -0.000248657 0.00846439

-0.000200343 0.000327985 -0.00165388
0.000327985 -0.00025203 -0.000105107
-0.00165388 -0.000105107 0.00515605

0.000121013 0.000173172 -0.000695964
0.000173172 -0.000388447 5.46404e-06
-0.000695964 5.46404e-06 0.000847386

-0.00277041 0.000167401 -0.000849565
0.000167401 -0.00029956 -0.000501119
-0.000849565 -0.000501119 0.0100754

-0.00160944 0.000387032 -0.00188525
0.000387032 -0.000164852 -0.0003515
-0.00188525 -0.0003515 0.00836886

-0.000478059 0.000354115 -0.00168042
0.000354115 -0.000129038 -0.000135685
-0.00168042 -0.000135685 0.00521297

4.65582e-05 0.000147856 -0.000730056
0.000147856 -0.000122 4.62061e-05
-0.000730056 4.62061e-05 0.00103211

-0.00370439 0.000122095 -0.000965117
0.000122095 -0.000278469 -0.000341973
-0.000965117 -0.000341973 0.010006

-0.0022053 0.000219874 -0.00216237
0.000219874 -4.31022e-05 -0.000237358
-0.00216237 -0.000237358 0.00839904

-0.000666917 0.000168693 -0.0019597
0.000168693 5.53818e-05 -9.85358e-05
-0.0019597 -9.85358e-05 0.00533794

2.75804e-05 2.41787e-05 -0.000894204
2.41787e-05 5.48487e-05 6.03046e-05
-0.000894204 6.03046e-05 0.00119873

0.000929846 7.12955e-05 -0.0015477
7.12955e-05 0.00132149 -0.000123574
-0.0015477 -0.000123574 0.0130148

0.00121923 0.000171437 -0.00348016
0.000171437 0.000395056 -8.23372e-05
-0.00348016 -8.23372e-05 0.00900052

0.00211637 0.000184684 -0.00208088
0.000184684 -0.000341898 -3.35628e-05
-0.00208088 -3.35628e-05 0.00392959

0.000412318 0.000103056 -2.8116e-05
0.000103056 -0.00109695 -3.4513e-06
-2.8116e-05 -3.4513e-06 -0.000579816

0.000668193 0.000222109 -0.00151288
0.000222109 0.00100061 -0.000408128
-0.00151288 -0.000408128 0.0128651

0.000945771 0.000518156 -0.00341807
0.000518156 0.000215606 -0.000258722
-0.00341807 -0.000258722 0.00891862

0.00190521 0.000499311 -0.00204044
0.000499311 -0.000305336 -8.40245e-05
-0.00204044 -8.40245e-05 0.00394145

0.000351936 0.000244369 -2.30311e-05
0.000244369 -0.00080165 2.44328e-05
-2.30311e-05 2.44328e-05 -0.000478996

-2.4053e-05 0.000365192 -0.00148869
0.000365192 0.000402177 -0.000743192
-0.00148869 -0.000743192 0.0124714

0.000318272 0.00083243 -0.00333764
0.00083243 -5.65655e-05 -0.000439293
-0.00333764 -0.000439293 0.00871878

0.00147296 0.000610291 -0.0020675
0.000610291 -0.000146715 -6.98389e-05
-0.0020675 -6.98389e-05 0.00399337

0.000267659 0.000179951 -7.97215e-05
0.000179951 -0.000395758 9.07487e-05
-7.97215e-05 9.07487e-05 -0.000334425

-0.00156351 0.000240419 -0.00161373
0.000240419 -4.44445e-05 -0.000668526
-0.00161373 -0.000668526 0.0119369

-0.000517359 0.000775602 -0.00372201
0.000775602 -0.000164968 -0.000401756
-0.00372201 -0.000401756 0.00842023

0.00145447 0.000265203 -0.00242487
0.000265203 0.000208744 -2.7707e-05
-0.00242487 -2.7707e-05 0.00405252

0.000353793 -2.08581e-05 -0.000254874
-2.08581e-05 -0.00021993 6.13347e-05
-0.000254874 6.13347e-05 -0.000313696

0.00707337 7.25538e-05 8.90849e-05
7.25538e-05 0.00436429 -5.26656e-05
8.90849e-05 -5.26656e-05 0.0160471

0.00416917 0.000180076 -0.00495825
0.000180076 0.00205922 -3.53886e-05
-0.00495825 -3.53886e-05 0.0103605

0.000225603 0.000238798 0.00021997
0.000238798 -0.00273957 -5.17785e-06
0.00021997 -5.17785e-06 -0.0005062

-7.61951e-05 0.000134426 0.000626741
0.000134426 -0.00131654 -8.04432e-06
0.000626741 -8.04432e-06 -0.000243303

0.00686127 0.00024403 0.00011101
0.00024403 0.00390348 -0.000181537
0.00011101 -0.000181537 0.0159319

0.00390694 0.000578275 -0.00492106
0.000578275 0.00179363 -0.000113688
-0.00492106 -0.000113688 0.0102801

-2.19343e-05 0.000679392 0.000224789
0.000679392 -0.00269344 3.30768e-07
0.000224789 3.30768e-07 -0.000487678

-0.00017573 0.000325949 0.000632376
0.000325949 -0.00092825 1.16236e-05
0.000632376 1.16236e-05 -0.000204445

0.00626878 0.000463755 0.000148497
0.000463755 0.00284229 -0.000392343
0.000148497 -0.000392343 0.0155644

0.00327484 0.00111279 -0.00482996
0.00111279 0.00130187 -0.000217838
-0.00482996 -0.000217838 0.0100477

-0.000640655 0.000940425 0.000184662
0.000940425 -0.00234941 8.83413e-05
0.000184662 8.83413e-05 -0.000459985

-0.000290294 0.000208327 0.000603553
0.000208327 -0.000283528 8.99267e-05
0.000603553 8.99267e-05 -0.000104796

0.00417176 0.000237343 0.000125045
0.000237343 0.00113306 -0.000649337
0.000125045 -0.000649337 0.0144186

0.00223484 0.00150889 -0.00501895
0.00150889 0.000627162 -0.00035096
-0.00501895 -0.00035096 0.00925617

-0.000189778 0.000364571 -0.000110955
0.000364571 -0.00117211 0.000228931
-0.000110955 0.000228931 -7.0877e-05

-0.000110912 -0.000124664 0.000579558
-0.000124664 2.02261e-05 8.29562e-05
0.000579558 8.29562e-05 -0.000184799

