# vtk DataFile Version 3.0
time 0.02
ASCII
DATASET UNSTRUCTURED_GRID
POINTS 8 float
0 0 0 1 0 0 1 1 0 
0 1 0 0 0 1 1 0 1 
1 1 1 0 1 1 

CELLS 1 9
8 0 1 2 3 4 5 6 7 

CELL_TYPES 1
12

POINT_DATA 8
VECTORS displacement float
0 0 0
-0.0029842 0 0
-0.0029842 -0.0029842 0
0 -0.0029842 0
0 0 0.01
-0.0029842 0 0.01
-0.0029842 -0.0029842 0.01
0 -0.0029842 0.01

CELL_DATA 1
SCALARS part_id int
LOOKUP_TABLE default
0
TENSORS stress float
-2.81672e-12 2.37382e-17 2.57307e-17
2.37382e-17 -2.81671e-12 2.31164e-17
2.57307e-17 2.31164e-17 0.00715338

SCALARS damage float
LOOKUP_TABLE default
0.283454
