# vtk DataFile Version 3.0
time 0.34
ASCII
DATASET UNSTRUCTURED_GRID
POINTS 8 float
0 0 0 1 0 0 1 1 0 
0 1 0 0 0 1 1 0 1 
1 1 1 0 1 1 

CELLS 1 9
8 0 1 2 3 4 5 6 7 

CELL_TYPES 1
12

POINT_DATA 8
VECTORS displacement float
0 0 0
-0.0468602 0 0
-0.0468602 -0.0468602 0
0 -0.0468602 0
0 0 0.17
-0.0468602 0 0.17
-0.0468602 -0.0468602 0.17
0 -0.0468602 0.17

CELL_DATA 1
SCALARS part_id int
LOOKUP_TABLE default
0
TENSORS stress float
-1.43235e-14 -3.08302e-19 6.24438e-18
-3.08302e-19 -1.43597e-14 3.04161e-17
6.24438e-18 3.04161e-17 0.0858514

SCALARS damage float
LOOKUP_TABLE default
0.484698
