# vtk DataFile Version 3.0
time 0.41
ASCII
DATASET UNSTRUCTURED_GRID
POINTS 8 float
0 0 0 1 0 0 1 1 0 
0 1 0 0 0 1 1 0 1 
1 1 1 0 1 1 

CELLS 1 9
8 0 1 2 3 4 5 6 7 

CELL_TYPES 1
12

POINT_DATA 8
VECTORS displacement float
0 0 0
-0.0555989 0 0
-0.0555989 -0.0555989 0
0 -0.0555989 0
0 0 0.205
-0.0555989 0 0.205
-0.0555989 -0.0555989 0.205
0 -0.0555989 0.205

CELL_DATA 1
SCALARS part_id int
LOOKUP_TABLE default
0
TENSORS stress float
-1.02185e-14 -1.05224e-17 -5.17858e-18
-1.05224e-17 -1.02132e-14 5.53629e-18
-5.17858e-18 5.53629e-18 0.10279

SCALARS damage float
LOOKUP_TABLE default
0.487218
