# vtk DataFile Version 3.0
time 0.11
ASCII
DATASET UNSTRUCTURED_GRID
POINTS 8 float
0 0 0 1 0 0 1 1 0 
0 1 0 0 0 1 1 0 1 
1 1 1 0 1 1 

CELLS 1 9
8 0 1 2 3 4 5 6 7 

CELL_TYPES 1
12

POINT_DATA 8
VECTORS displacement float
0 0 0
-0.0160357 0 0
-0.0160357 -0.0160357 0
0 -0.0160357 0
0 0 0.055
-0.0160357 0 0.055
-0.0160357 -0.0160357 0.055
0 -0.0160357 0.055

CELL_DATA 1
SCALARS part_id int
LOOKUP_TABLE default
0
TENSORS stress float
-1.35403e-13 -4.21176e-18 -1.31711e-18
-4.21176e-18 -1.35426e-13 8.70599e-18
-1.31711e-18 8.70599e-18 0.0297823

SCALARS damage float
LOOKUP_TABLE default
0.453919
