# vtk DataFile Version 3.0
time 0.18
ASCII
DATASET UNSTRUCTURED_GRID
POINTS 8 float
0 0 0 1 0 0 1 1 0 
0 1 0 0 0 1 1 0 1 
1 1 1 0 1 1 

CELLS 1 9
8 0 1 2 3 4 5 6 7 

CELL_TYPES 1
12

POINT_DATA 8
VECTORS displacement float
0 0 0
-0.0257833 0 0
-0.0257833 -0.0257833 0
0 -0.0257833 0
0 0 0.09
-0.0257833 0 0.09
-0.0257833 -0.0257833 0.09
0 -0.0257833 0.09

CELL_DATA 1
SCALARS part_id int
LOOKUP_TABLE default
0
TENSORS stress float
-4.88553e-14 5.31194e-18 2.24729e-17
5.31194e-18 -4.88553e-14 2.39077e-17
2.24729e-17 2.39077e-17 0.0469515

SCALARS damage float
LOOKUP_TABLE default
0.471605
