# vtk DataFile Version 3.0
time 1
ASCII
DATASET UNSTRUCTURED_GRID
POINTS 8 float
0 0 0 1 0 0 1 1 0 
0 1 0 0 0 1 1 0 1 
1 1 1 0 1 1 

CELLS 1 9
8 0 1 2 3 4 5 6 7 

CELL_TYPES 1
12

POINT_DATA 8
VECTORS displacement float
0 0 0
-0.263379 0 0
-0.263379 -0.263379 0
0 -0.263379 0
0 0 1.5
-0.263379 0 1.5
-0.263379 -0.263379 1.5
0 -0.263379 1.5

CELL_DATA 1
SCALARS part_id int
LOOKUP_TABLE default
0
TENSORS stress float
-3.0924e-09 3.12254e-18 1.55031e-17
3.12254e-18 -3.0924e-09 7.03605e-18
1.55031e-17 7.03605e-18 0.0985634

