# vtk DataFile Version 3.0
time 1
ASCII
DATASET UNSTRUCTURED_GRID
POINTS 8 float
0 0 0 1 0 0 1 1 0 
0 1 0 0 0 1 1 0 1 
1 1 1 0 1 1 

CELLS 1 9
8 0 1 2 3 4 5 6 7 

CELL_TYPES 1
12

POINT_DATA 8
VECTORS displacement float
0 0 0
-0.0146151 0 0
-0.0146151 -0.0146151 0
0 -0.0146151 0
0 0 0.05
-0.0146151 0 0.05
-0.0146151 -0.0146151 0.05
0 -0.0146151 0.05

CELL_DATA 1
SCALARS part_id int
LOOKUP_TABLE default
0
TENSORS stress float
-1.34925e-11 5.38194e-18 2.63445e-17
5.38194e-18 -1.34925e-11 1.50981e-17
2.63445e-17 1.50981e-17 0.0258799

