# vtk DataFile Version 3.0
time 1
ASCII
DATASET UNSTRUCTURED_GRID
POINTS 8 float
0 0 0 1 0 0 1 1 0 
0 1 0 0 0 1 1 0 1 
1 1 1 0 1 1 

CELLS 1 9
8 0 1 2 3 4 5 6 7 

CELL_TYPES 1
12

POINT_DATA 8
VECTORS displacement float
0 0 0
-0.0146151 0 0
-0.0146151 -0.0146151 0
0 -0.0146151 0
0 0 0.05
-0.0146151 0 0.05
-0.0146151 -0.0146151 0.05
0 -0.0146151 0.05

CELL_DATA 1
SCALARS part_id int
LOOKUP_TABLE default
0
TENSORS stress float
-1.11671e-11 4.41817e-18 1.63706e-17
4.41817e-18 -1.11671e-11 1.94999e-17
1.63706e-17 1.94999e-17 0.0154513

