# vtk DataFile Version 3.0
time 1
ASCII
DATASET UNSTRUCTURED_GRID
POINTS 8 float
0 0 0 1 0 0 1 1 0 
0 1 0 0 0 1 1 0 1 
1 1 1 0 1 1 

CELLS 1 9
8 0 1 2 3 4 5 6 7 

CELL_TYPES 1
12

POINT_DATA 8
VECTORS displacement float
0 0 0
-0.201923 0 0
-0.201923 -0.201923 0
0 -0.201923 0
0 0 1
-0.201923 0 1
-0.201923 -0.201923 1
0 -0.201923 1

CELL_DATA 1
SCALARS part_id int
LOOKUP_TABLE default
0
TENSORS stress float
-6.36707e-09 2.77167e-18 7.04903e-18
2.77167e-18 -6.36707e-09 1.05769e-17
7.04903e-18 1.05769e-17 0.0666625

