# vtk DataFile Version 3.0
time 1
ASCII
DATASET UNSTRUCTURED_GRID
POINTS 8 float
0 0 0 1 0 0 1 1 0 
0 1 0 0 0 1 1 0 1 
1 1 1 0 1 1 

CELLS 1 9
8 0 1 2 3 4 5 6 7 

CELL_TYPES 1
12

POINT_DATA 8
VECTORS displacement float
0 0 0
-0.0285071 0 0
-0.0285071 -0.0285071 0
0 -0.0285071 0
0 0 0.1
-0.0285071 0 0.1
-0.0285071 -0.0285071 0.1
0 -0.0285071 0.1

CELL_DATA 1
SCALARS part_id int
LOOKUP_TABLE default
0
TENSORS stress float
-5.36152e-10 -5.77779e-34 -4.60562e-19
-5.77779e-34 -5.36152e-10 -6.57945e-19
-4.60562e-19 -6.57945e-19 0.0183572

