# vtk DataFile Version 3.0
time 1
ASCII
DATASET UNSTRUCTURED_GRID
POINTS 125 float
0 0 0 1 0 0 2 0 0 
3 0 0 4 0 0 0 1 0 
1 1 0 2 1 0 3 1 0 
4 1 0 0 2 0 1 2 0 
2 2 0 3 2 0 4 2 0 
0 3 0 1 3 0 2 3 0 
3 3 0 4 3 0 0 4 0 
1 4 0 2 4 0 3 4 0 
4 4 0 0 0 1 1 0 1 
2 0 1 3 0 1 4 0 1 
0 1 1 1 1 1 2 1 1 
3 1 1 4 1 1 0 2 1 
1 2 1 2 2 1 3 2 1 
4 2 1 0 3 1 1 3 1 
2 3 1 3 3 1 4 3 1 
0 4 1 1 4 1 2 4 1 
3 4 1 4 4 1 0 0 2 
1 0 2 2 0 2 3 0 2 
4 0 2 0 1 2 1 1 2 
2 1 2 3 1 2 4 1 2 
0 2 2 1 2 2 2 2 2 
3 2 2 4 2 2 0 3 2 
1 3 2 2 3 2 3 3 2 
4 3 2 0 4 2 1 4 2 
2 4 2 3 4 2 4 4 2 
0 0 3 1 0 3 2 0 3 
3 0 3 4 0 3 0 1 3 
1 1 3 2 1 3 3 1 3 
4 1 3 0 2 3 1 2 3 
2 2 3 3 2 3 4 2 3 
0 3 3 1 3 3 2 3 3 
3 3 3 4 3 3 0 4 3 
1 4 3 2 4 3 3 4 3 
4 4 3 0 0 4 1 0 4 
2 0 4 3 0 4 4 0 4 
0 1 4 1 1 4 2 1 4 
3 1 4 4 1 4 0 2 4 
1 2 4 2 2 4 3 2 4 
4 2 4 0 3 4 1 3 4 
2 3 4 3 3 4 4 3 4 
0 4 4 1 4 4 2 4 4 
3 4 4 4 4 4 

CELLS 64 576
8 0 1 6 5 25 26 31 30 
8 1 2 7 6 26 27 32 31 
8 2 3 8 7 27 28 33 32 
8 3 4 9 8 28 29 34 33 
8 5 6 11 10 30 31 36 35 
8 6 7 12 11 31 32 37 36 
8 7 8 13 12 32 33 38 37 
8 8 9 14 13 33 34 39 38 
8 10 11 16 15 35 36 41 40 
8 11 12 17 16 36 37 42 41 
8 12 13 18 17 37 38 43 42 
8 13 14 19 18 38 39 44 43 
8 15 16 21 20 40 41 46 45 
8 16 17 22 21 41 42 47 46 
8 17 18 23 22 42 43 48 47 
8 18 19 24 23 43 44 49 48 
8 25 26 31 30 50 51 56 55 
8 26 27 32 31 51 52 57 56 
8 27 28 33 32 52 53 58 57 
8 28 29 34 33 53 54 59 58 
8 30 31 36 35 55 56 61 60 
8 31 32 37 36 56 57 62 61 
8 32 33 38 37 57 58 63 62 
8 33 34 39 38 58 59 64 63 
8 35 36 41 40 60 61 66 65 
8 36 37 42 41 61 62 67 66 
8 37 38 43 42 62 63 68 67 
8 38 39 44 43 63 64 69 68 
8 40 41 46 45 65 66 71 70 
8 41 42 47 46 66 67 72 71 
8 42 43 48 47 67 68 73 72 
8 43 44 49 48 68 69 74 73 
8 50 51 56 55 75 76 81 80 
8 51 52 57 56 76 77 82 81 
8 52 53 58 57 77 78 83 82 
8 53 54 59 58 78 79 84 83 
8 55 56 61 60 80 81 86 85 
8 56 57 62 61 81 82 87 86 
8 57 58 63 62 82 83 88 87 
8 58 59 64 63 83 84 89 88 
8 60 61 66 65 85 86 91 90 
8 61 62 67 66 86 87 92 91 
8 62 63 68 67 87 88 93 92 
8 63 64 69 68 88 89 94 93 
8 65 66 71 70 90 91 96 95 
8 66 67 72 71 91 92 97 96 
8 67 68 73 72 92 93 98 97 
8 68 69 74 73 93 94 99 98 
8 75 76 81 80 100 101 106 105 
8 76 77 82 81 101 102 107 106 
8 77 78 83 82 102 103 108 107 
8 78 79 84 83 103 104 109 108 
8 80 81 86 85 105 106 111 110 
8 81 82 87 86 106 107 112 111 
8 82 83 88 87 107 108 113 112 
8 83 84 89 88 108 109 114 113 
8 85 86 91 90 110 111 116 115 
8 86 87 92 91 111 112 117 116 
8 87 88 93 92 112 113 118 117 
8 88 89 94 93 113 114 119 118 
8 90 91 96 95 115 116 121 120 
8 91 92 97 96 116 117 122 121 
8 92 93 98 97 117 118 123 122 
8 93 94 99 98 118 119 124 123 

CELL_TYPES 64
12
12
12
12
12
12
12
12
12
12
12
12
12
12
12
12
12
12
12
12
12
12
12
12
12
12
12
12
12
12
12
12
12
12
12
12
12
12
12
12
12
12
12
12
12
12
12
12
12
12
12
12
12
12
12
12
12
12
12
12
12
12
12
12

POINT_DATA 125
VECTORS displacement float
0 0 0
-0.00740224 0 0
-0.0148045 0 0
-0.0222067 0 0
-0.029609 0 0
0 -0.00740224 0
-0.00740224 -0.00740224 0
-0.0148045 -0.00740224 0
-0.0222067 -0.00740224 0
-0.029609 -0.00740224 0
0 -0.0148045 0
-0.00740224 -0.0148045 0
-0.0148045 -0.0148045 0
-0.0222067 -0.0148045 0
-0.029609 -0.0148045 0
0 -0.0222067 0
-0.00740224 -0.0222067 0
-0.0148045 -0.0222067 0
-0.0222067 -0.0222067 0
-0.0296089 -0.0222067 0
0 -0.029609 0
-0.00740224 -0.029609 0
-0.0148045 -0.029609 0
-0.0222067 -0.0296089 0
-0.0296089 -0.0296089 0
0 0 0.0250001
-0.00740223 0 0.0250001
-0.0148045 0 0.0250001
-0.0222067 0 0.0250001
-0.029609 0 0.0250001
0 -0.00740223 0.0250001
-0.00740223 -0.00740223 0.0250001
-0.0148045 -0.00740223 0.0250001
-0.0222067 -0.00740223 0.0250001
-0.029609 -0.00740223 0.0250001
0 -0.0148045 0.0250001
-0.00740223 -0.0148045 0.0250001
-0.0148045 -0.0148045 0.0250001
-0.0222067 -0.0148045 0.0250001
-0.0296089 -0.0148045 0.0250001
0 -0.0222067 0.0250001
-0.00740223 -0.0222067 0.0250001
-0.0148045 -0.0222067 0.0250001
-0.0222067 -0.0222067 0.0250001
-0.0296089 -0.0222067 0.0250001
0 -0.029609 0.0250001
-0.00740223 -0.029609 0.0250001
-0.0148045 -0.0296089 0.0250001
-0.0222067 -0.0296089 0.0250001
-0.0296089 -0.0296089 0.0250001
0 0 0.0500002
-0.00740222 0 0.0500002
-0.0148044 0 0.0500002
-0.0222067 0 0.0500002
-0.0296089 0 0.0500002
0 -0.00740222 0.0500002
-0.00740222 -0.00740222 0.0500002
-0.0148044 -0.00740222 0.0500002
-0.0222067 -0.00740222 0.0500002
-0.0296089 -0.00740222 0.0500002
0 -0.0148044 0.0500002
-0.00740222 -0.0148044 0.0500002
-0.0148044 -0.0148044 0.0500002
-0.0222067 -0.0148044 0.0500002
-0.0296089 -0.0148044 0.0500002
0 -0.0222067 0.0500002
-0.00740222 -0.0222067 0.0500002
-0.0148044 -0.0222067 0.0500002
-0.0222067 -0.0222067 0.0500002
-0.0296089 -0.0222067 0.0500002
0 -0.0296089 0.0500002
-0.00740222 -0.0296089 0.0500002
-0.0148044 -0.0296089 0.0500002
-0.0222067 -0.0296089 0.0500002
-0.0296089 -0.0296089 0.0500001
0 0 0.0750003
-0.00740221 0 0.0750003
-0.0148044 0 0.0750003
-0.0222066 0 0.0750003
-0.0296088 0 0.0750002
0 -0.00740221 0.0750003
-0.00740221 -0.00740221 0.0750003
-0.0148044 -0.00740221 0.0750003
-0.0222066 -0.00740221 0.0750003
-0.0296088 -0.00740221 0.0750002
0 -0.0148044 0.0750003
-0.00740221 -0.0148044 0.0750003
-0.0148044 -0.0148044 0.0750003
-0.0222066 -0.0148044 0.0750003
-0.0296088 -0.0148044 0.0750002
0 -0.0222066 0.0750003
-0.00740221 -0.0222066 0.0750003
-0.0148044 -0.0222066 0.0750003
-0.0222066 -0.0222066 0.0750003
-0.0296088 -0.0222066 0.0750002
0 -0.0296088 0.0750002
-0.00740221 -0.0296088 0.0750002
-0.0148044 -0.0296088 0.0750002
-0.0222066 -0.0296088 0.0750002
-0.0296088 -0.0296088 0.0750002
0 0 0.1
-0.00740221 0 0.1
-0.0148044 0 0.1
-0.0222066 0 0.1
-0.0296088 0 0.1
0 -0.00740221 0.1
-0.00740221 -0.00740221 0.1
-0.0148044 -0.00740221 0.1
-0.0222066 -0.00740221 0.1
-0.0296088 -0.00740221 0.1
0 -0.0148044 0.1
-0.00740221 -0.0148044 0.1
-0.0148044 -0.0148044 0.1
-0.0222066 -0.0148044 0.1
-0.0296088 -0.0148044 0.1
0 -0.0222066 0.1
-0.00740221 -0.0222066 0.1
-0.0148044 -0.0222066 0.1
-0.0222066 -0.0222066 0.1
-0.0296088 -0.0222066 0.1
0 -0.0296088 0.1
-0.00740221 -0.0296088 0.1
-0.0148044 -0.0296088 0.1
-0.0222066 -0.0296088 0.1
-0.0296088 -0.0296088 0.1

CELL_DATA 64
SCALARS part_id int
LOOKUP_TABLE default
0
0
0
0
0
0
0
0
0
0
0
0
0
0
0
0
0
0
0
0
0
0
0
0
0
0
0
0
0
0
0
0
0
0
0
0
0
0
0
0
0
0
0
0
0
0
0
0
0
0
0
0
0
0
0
0
0
0
0
0
0
0
0
0
TENSORS stress float
1.68593e-08 5.16172e-11 4.33716e-10
5.16172e-11 1.68839e-08 4.36822e-10
4.33716e-10 4.36822e-10 0.0123144

1.5104e-08 1.48319e-10 1.06498e-09
1.48319e-10 1.64079e-08 4.10564e-10
1.06498e-09 4.10564e-10 0.0123144

1.25156e-08 2.0121e-10 8.03523e-10
2.0121e-10 1.50523e-08 3.88086e-10
8.03523e-10 3.88086e-10 0.0123144

1.13375e-08 1.20616e-10 7.48952e-11
1.20616e-10 1.26991e-08 4.10338e-10
7.48952e-11 4.10338e-10 0.0123144

1.63978e-08 1.48656e-10 4.12418e-10
1.48656e-10 1.51241e-08 1.07309e-09
4.12418e-10 1.07309e-09 0.0123144

1.47512e-08 4.37348e-10 1.00864e-09
4.37348e-10 1.47575e-08 1.0221e-09
1.00864e-09 1.0221e-09 0.0123144

1.23256e-08 6.19289e-10 7.27614e-10
6.19289e-10 1.36672e-08 9.51125e-10
7.27614e-10 9.51125e-10 0.0123144

1.12342e-08 3.96625e-10 4.38799e-11
3.96625e-10 1.16825e-08 9.71931e-10
4.38799e-11 9.71931e-10 0.0123144

1.50549e-08 1.99374e-10 3.87777e-10
1.99374e-10 1.25316e-08 8.05746e-10
3.87777e-10 8.05746e-10 0.0123144

1.3668e-08 6.20349e-10 9.4165e-10
6.20349e-10 1.23215e-08 7.27285e-10
9.4165e-10 7.27285e-10 0.0123144

1.16803e-08 9.61088e-10 6.55898e-10
9.61088e-10 1.16699e-08 6.61159e-10
6.55898e-10 6.61159e-10 0.0123144

1.09155e-08 6.88578e-10 2.09359e-11
6.88578e-10 1.05176e-08 7.11746e-10
2.09359e-11 7.11746e-10 0.0123144

1.26983e-08 1.18721e-10 4.01423e-10
1.18721e-10 1.13546e-08 8.21811e-11
4.01423e-10 8.21811e-11 0.0123144

1.16735e-08 3.95231e-10 9.62258e-10
3.95231e-10 1.12275e-08 3.80858e-11
9.62258e-10 3.80858e-11 0.0123144

1.05023e-08 6.89203e-10 7.04716e-10
6.89203e-10 1.08874e-08 4.2649e-12
7.04716e-10 4.2649e-12 0.0123144

1.07451e-08 5.64872e-10 7.89264e-11
5.64872e-10 1.07404e-08 6.95864e-11
7.89264e-11 6.95864e-11 0.0123144

2.01048e-08 2.37138e-11 1.17148e-09
2.37138e-11 2.01125e-08 1.17512e-09
1.17148e-09 1.17512e-09 0.0123144

1.88937e-08 6.75537e-11 3.27788e-09
6.75537e-11 1.99693e-08 1.12117e-09
3.27788e-09 1.12117e-09 0.0123144

1.58387e-08 9.2383e-11 3.83148e-09
9.2383e-11 1.91182e-08 1.05233e-09
3.83148e-09 1.05233e-09 0.0123144

1.13483e-08 5.42695e-11 8.50149e-10
5.42695e-11 1.5735e-08 1.10329e-09
8.50149e-10 1.10329e-09 0.0123144

1.99576e-08 6.64983e-11 1.11835e-09
6.64983e-11 1.89013e-08 3.29716e-09
1.11835e-09 3.29716e-09 0.0123144

1.88138e-08 2.09477e-10 3.1115e-09
2.09477e-10 1.88247e-08 3.12959e-09
3.1115e-09 3.12959e-09 0.0123144

1.58164e-08 3.21758e-10 3.58303e-09
3.21758e-10 1.81041e-08 2.90552e-09
3.58303e-09 2.90552e-09 0.0123144

1.13722e-08 2.14612e-10 6.99397e-10
2.14612e-10 1.48969e-08 2.96911e-09
6.99397e-10 2.96911e-09 0.0123144

1.9097e-08 9.36068e-11 1.04469e-09
9.36068e-11 1.58285e-08 3.84216e-09
1.04469e-09 3.84216e-09 0.0123144

1.80969e-08 3.21374e-10 2.89233e-09
3.21374e-10 1.58275e-08 3.59318e-09
2.89233e-09 3.59318e-09 0.0123144

1.54244e-08 6.05545e-10 3.25638e-09
6.05545e-10 1.5436e-08 3.26751e-09
3.25638e-09 3.26751e-09 0.0123144

1.1227e-08 5.14048e-10 5.12622e-10
5.14048e-10 1.2865e-08 3.29065e-09
5.12622e-10 3.29065e-09 0.0123144

1.57063e-08 5.61624e-11 1.07703e-09
5.61624e-11 1.13136e-08 8.56443e-10
1.07703e-09 8.56443e-10 0.0123144

1.48988e-08 2.1722e-10 2.95642e-09
2.1722e-10 1.13732e-08 6.87103e-10
2.95642e-09 6.87103e-10 0.0123144

1.29023e-08 5.15306e-10 3.28525e-09
5.15306e-10 1.1268e-08 4.9927e-10
3.28525e-09 4.9927e-10 0.0123144

1.00834e-08 6.92687e-10 5.80386e-10
6.92687e-10 1.00842e-08 5.7164e-10
5.80386e-10 5.7164e-10 0.0123144

2.48796e-08 -2.16281e-11 1.36177e-09
-2.16281e-11 2.48691e-08 1.36208e-09
1.36177e-09 1.36208e-09 0.0123144

2.53934e-08 -5.83832e-11 4.36963e-09
-5.83832e-11 2.50957e-08 1.29952e-09
4.36963e-09 1.29952e-09 0.0123144

2.55037e-08 -7.70891e-11 7.73194e-09
-7.70891e-11 2.5664e-08 1.21519e-09
7.73194e-09 1.21519e-09 0.0123144

2.23245e-08 -4.88786e-11 7.43592e-09
-4.88786e-11 2.46972e-08 1.26029e-09
7.43592e-09 1.26029e-09 0.0123144

2.50965e-08 -5.92566e-11 1.29169e-09
-5.92566e-11 2.53889e-08 4.36847e-09
1.29169e-09 4.36847e-09 0.0123144

2.55637e-08 -1.66726e-10 4.15044e-09
-1.66726e-10 2.55657e-08 4.14183e-09
4.15044e-09 4.14183e-09 0.0123144

2.56354e-08 -2.219e-10 7.3885e-09
-2.219e-10 2.60691e-08 3.82666e-09
7.3885e-09 3.82666e-09 0.0123144

2.24503e-08 -1.42113e-10 7.16062e-09
-1.42113e-10 2.49862e-08 3.91797e-09
7.16062e-09 3.91797e-09 0.0123144

2.56877e-08 -7.68858e-11 1.20349e-09
-7.68858e-11 2.55283e-08 7.75472e-09
1.20349e-09 7.75472e-09 0.0123144

2.60716e-08 -2.27117e-10 3.82275e-09
-2.27117e-10 2.5648e-08 7.39856e-09
3.82275e-09 7.39856e-09 0.0123144

2.60295e-08 -2.87038e-10 6.73271e-09
-2.87038e-10 2.60366e-08 6.72535e-09
6.73271e-09 6.72535e-09 0.0123144

2.28403e-08 -1.45569e-10 6.51756e-09
-1.45569e-10 2.48091e-08 6.54337e-09
6.51756e-09 6.54337e-09 0.0123144

2.47797e-08 -4.5072e-11 1.25795e-09
-4.5072e-11 2.23877e-08 7.44812e-09
1.25795e-09 7.44812e-09 0.0123144

2.50359e-08 -1.41699e-10 3.90664e-09
-1.41699e-10 2.24951e-08 7.18e-09
3.90664e-09 7.18e-09 0.0123144

2.48015e-08 -1.5055e-10 6.55087e-09
-1.5055e-10 2.28329e-08 6.52924e-09
6.55087e-09 6.52924e-09 0.0123144

2.18967e-08 4.13121e-11 5.98685e-09
4.13121e-11 2.18965e-08 5.97781e-09
5.98685e-09 5.97781e-09 0.0123144

-6.19697e-08 -5.35308e-11 6.23595e-10
-5.35308e-11 -6.19908e-08 6.23601e-10
6.23595e-10 6.23601e-10 0.0123143

-5.9517e-08 -1.57013e-10 2.15625e-09
-1.57013e-10 -6.15982e-08 5.88724e-10
2.15625e-09 5.88724e-10 0.0123143

-5.39747e-08 -2.16249e-10 4.7038e-09
-2.16249e-10 -5.99553e-08 5.5102e-10
4.7038e-09 5.5102e-10 0.0123143

-4.51322e-08 -1.26558e-10 6.6612e-09
-1.26558e-10 -5.32535e-08 5.67213e-10
6.6612e-09 5.67213e-10 0.0123143

-6.15781e-08 -1.55807e-10 5.84858e-10
-1.55807e-10 -5.95405e-08 2.14436e-09
5.84858e-10 2.14436e-09 0.0123143

-5.92536e-08 -4.80076e-10 2.04722e-09
-4.80076e-10 -5.92725e-08 2.03428e-09
2.04722e-09 2.03428e-09 0.0123143

-5.38967e-08 -7.19141e-10 4.53342e-09
-7.19141e-10 -5.79618e-08 1.87231e-09
4.53342e-09 1.87231e-09 0.0123143

-4.51788e-08 -4.68664e-10 6.50537e-09
-4.68664e-10 -5.16871e-08 1.92128e-09
6.50537e-09 1.92128e-09 0.0123143

-5.99647e-08 -2.15589e-10 5.46242e-10
-2.15589e-10 -5.40124e-08 4.71823e-09
5.46242e-10 4.71823e-09 0.0123143

-5.79601e-08 -7.13432e-10 1.87192e-09
-7.13432e-10 -5.3919e-08 4.5328e-09
1.87192e-09 4.5328e-09 0.0123143

-5.32549e-08 -1.2796e-09 4.13245e-09
-1.2796e-09 -5.32617e-08 4.11903e-09
4.13245e-09 4.11903e-09 0.0123143

-4.51015e-08 -1.05672e-09 6.02577e-09
-1.05672e-09 -4.83118e-08 3.9647e-09
6.02577e-09 3.9647e-09 0.0123143

-5.33116e-08 -1.29449e-10 5.82424e-10
-1.29449e-10 -4.51831e-08 6.6737e-09
5.82424e-10 6.6737e-09 0.0123143

-5.17323e-08 -4.69768e-10 1.91246e-09
-4.69768e-10 -4.52187e-08 6.53094e-09
1.91246e-09 6.53094e-09 0.0123143

-4.83262e-08 -1.05344e-09 3.97021e-09
-1.05344e-09 -4.51088e-08 6.03447e-09
3.97021e-09 6.03447e-09 0.0123143

-4.2847e-08 -1.29932e-09 5.48547e-09
-1.29932e-09 -4.28422e-08 5.47573e-09
5.48547e-09 5.47573e-09 0.0123143

