# vtk DataFile Version 3.0
time 0.18
ASCII
DATASET UNSTRUCTURED_GRID
POINTS 27 float
0 0 0 0.5 0 0 1 0 0 
0 0.5 0 0.5 0.5 0 1 0.5 0 
0 1 0 0.5 1 0 1 1 0 
0 0 0.5 0.5 0 0.5 1 0 0.5 
0 0.5 0.5 0.5 0.5 0.5 1 0.5 0.5 
0 1 0.5 0.5 1 0.5 1 1 0.5 
0 0 1 0.5 0 1 1 0 1 
0 0.5 1 0.5 0.5 1 1 0.5 1 
0 1 1 0.5 1 1 1 1 1 

CELLS 8 72
8 0 1 4 3 9 10 13 12 
8 1 2 5 4 10 11 14 13 
8 3 4 7 6 12 13 16 15 
8 4 5 8 7 13 14 17 16 
8 9 10 13 12 18 19 22 21 
8 10 11 14 13 19 20 23 22 
8 12 13 16 15 21 22 25 24 
8 13 14 17 16 22 23 26 25 

CELL_TYPES 8
12
12
12
12
12
12
12
12

POINT_DATA 27
VECTORS displacement float
0 0 0
-0.0128917 0 0
-0.0257833 0 0
0 -0.0128917 0
-0.0128917 -0.0128917 0
-0.0257833 -0.0128917 0
0 -0.0257833 0
-0.0128917 -0.0257833 0
-0.0257833 -0.0257833 0
0 0 0.045
-0.0128917 0 0.045
-0.0257833 0 0.045
0 -0.0128917 0.045
-0.0128917 -0.0128917 0.045
-0.0257833 -0.0128917 0.045
0 -0.0257833 0.045
-0.0128917 -0.0257833 0.045
-0.0257833 -0.0257833 0.045
0 0 0.09
-0.0128917 0 0.09
-0.0257833 0 0.09
0 -0.0128917 0.09
-0.0128917 -0.0128917 0.09
-0.0257833 -0.0128917 0.09
0 -0.0257833 0.09
-0.0128917 -0.0257833 0.09
-0.0257833 -0.0257833 0.09

CELL_DATA 8
SCALARS part_id int
LOOKUP_TABLE default
0
0
0
0
0
0
0
0
TENSORS stress float
1.76358e-10 1.39495e-12 2.10888e-11
1.39495e-12 1.76359e-10 2.10888e-11
2.10888e-11 2.10888e-11 0.0395193

1.21139e-10 2.34497e-12 5.34597e-11
2.34497e-12 1.46187e-10 1.98761e-11
5.34597e-11 1.98761e-11 0.0395193

1.46187e-10 2.34496e-12 1.98761e-11
2.34496e-12 1.21139e-10 5.34597e-11
1.98761e-11 5.34597e-11 0.0395193

1.03467e-10 5.39118e-12 4.88378e-11
5.39118e-12 1.03467e-10 4.88378e-11
4.88378e-11 4.88378e-11 0.0395193

-1.77137e-10 -1.39493e-12 2.10888e-11
-1.39493e-12 -1.77137e-10 2.10888e-11
2.10888e-11 2.10888e-11 0.0395193

-1.21918e-10 -2.34499e-12 5.34596e-11
-2.34499e-12 -1.46965e-10 1.98761e-11
5.34596e-11 1.98761e-11 0.0395193

-1.46965e-10 -2.34498e-12 1.98761e-11
-2.34498e-12 -1.21918e-10 5.34597e-11
1.98761e-11 5.34597e-11 0.0395193

-1.04246e-10 -5.39118e-12 4.88377e-11
-5.39118e-12 -1.04246e-10 4.88378e-11
4.88377e-11 4.88378e-11 0.0395193

SCALARS damage float
LOOKUP_TABLE default
0.555247
0.555247
0.555247
0.555247
0.555247
0.555247
0.555247
0.555247
