# vtk DataFile Version 3.0
time 0.19
ASCII
DATASET UNSTRUCTURED_GRID
POINTS 27 float
0 0 0 0.5 0 0 1 0 0 
0 0.5 0 0.5 0.5 0 1 0.5 0 
0 1 0 0.5 1 0 1 1 0 
0 0 0.5 0.5 0 0.5 1 0 0.5 
0 0.5 0.5 0.5 0.5 0.5 1 0.5 0.5 
0 1 0.5 0.5 1 0.5 1 1 0.5 
0 0 1 0.5 0 1 1 0 1 
0 0.5 1 0.5 0.5 1 1 0.5 1 
0 1 1 0.5 1 1 1 1 1 

CELLS 8 72
8 0 1 4 3 9 10 13 12 
8 1 2 5 4 10 11 14 13 
8 3 4 7 6 12 13 16 15 
8 4 5 8 7 13 14 17 16 
8 9 10 13 12 18 19 22 21 
8 10 11 14 13 19 20 23 22 
8 12 13 16 15 21 22 25 24 
8 13 14 17 16 22 23 26 25 

CELL_TYPES 8
12
12
12
12
12
12
12
12

POINT_DATA 27
VECTORS displacement float
0 0 0
-0.0135743 0 0
-0.0271485 0 0
0 -0.0135743 0
-0.0135743 -0.0135743 0
-0.0271485 -0.0135743 0
0 -0.0271485 0
-0.0135743 -0.0271485 0
-0.0271485 -0.0271485 0
0 0 0.0475
-0.0135743 0 0.0475
-0.0271485 0 0.0475
0 -0.0135743 0.0475
-0.0135743 -0.0135743 0.0475
-0.0271485 -0.0135743 0.0475
0 -0.0271485 0.0475
-0.0135743 -0.0271485 0.0475
-0.0271485 -0.0271485 0.0475
0 0 0.095
-0.0135743 0 0.095
-0.0271485 0 0.095
0 -0.0135743 0.095
-0.0135743 -0.0135743 0.095
-0.0271485 -0.0135743 0.095
0 -0.0271485 0.095
-0.0135743 -0.0271485 0.095
-0.0271485 -0.0271485 0.095

CELL_DATA 8
SCALARS part_id int
LOOKUP_TABLE default
0
0
0
0
0
0
0
0
TENSORS stress float
1.65202e-10 1.3099e-12 1.98914e-11
1.3099e-12 1.65202e-10 1.98915e-11
1.98914e-11 1.98915e-11 0.0411903

1.13315e-10 2.20495e-12 5.06354e-11
2.20495e-12 1.36886e-10 1.87485e-11
5.06354e-11 1.87485e-11 0.0411903

1.36886e-10 2.20497e-12 1.87485e-11
2.20497e-12 1.13315e-10 5.06354e-11
1.87485e-11 5.06354e-11 0.0411903

9.67312e-11 5.04666e-12 4.62644e-11
5.04666e-12 9.67312e-11 4.62644e-11
4.62644e-11 4.62644e-11 0.0411903

-1.65921e-10 -1.30991e-12 1.98915e-11
-1.30991e-12 -1.65921e-10 1.98915e-11
1.98915e-11 1.98915e-11 0.0411903

-1.14034e-10 -2.20498e-12 5.06353e-11
-2.20498e-12 -1.37605e-10 1.87485e-11
5.06353e-11 1.87485e-11 0.0411903

-1.37605e-10 -2.20498e-12 1.87485e-11
-2.20498e-12 -1.14034e-10 5.06353e-11
1.87485e-11 5.06353e-11 0.0411903

-9.74498e-11 -5.04668e-12 4.62643e-11
-5.04668e-12 -9.74499e-11 4.62644e-11
4.62643e-11 4.62644e-11 0.0411903

SCALARS damage float
LOOKUP_TABLE default
0.560592
0.560592
0.560592
0.560592
0.560592
0.560592
0.560592
0.560592
