# vtk DataFile Version 3.0
time 0.11
ASCII
DATASET UNSTRUCTURED_GRID
POINTS 27 float
0 0 0 0.5 0 0 1 0 0 
0 0.5 0 0.5 0.5 0 1 0.5 0 
0 1 0 0.5 1 0 1 1 0 
0 0 0.5 0.5 0 0.5 1 0 0.5 
0 0.5 0.5 0.5 0.5 0.5 1 0.5 0.5 
0 1 0.5 0.5 1 0.5 1 1 0.5 
0 0 1 0.5 0 1 1 0 1 
0 0.5 1 0.5 0.5 1 1 0.5 1 
0 1 1 0.5 1 1 1 1 1 

CELLS 8 72
8 0 1 4 3 9 10 13 12 
8 1 2 5 4 10 11 14 13 
8 3 4 7 6 12 13 16 15 
8 4 5 8 7 13 14 17 16 
8 9 10 13 12 18 19 22 21 
8 10 11 14 13 19 20 23 22 
8 12 13 16 15 21 22 25 24 
8 13 14 17 16 22 23 26 25 

CELL_TYPES 8
12
12
12
12
12
12
12
12

POINT_DATA 27
VECTORS displacement float
0 0 0
-0.00801784 0 0
-0.0160357 0 0
0 -0.00801784 0
-0.00801784 -0.00801784 0
-0.0160357 -0.00801784 0
0 -0.0160357 0
-0.00801784 -0.0160357 0
-0.0160357 -0.0160357 0
0 0 0.0275
-0.00801784 0 0.0275
-0.0160357 0 0.0275
0 -0.00801784 0.0275
-0.00801784 -0.00801784 0.0275
-0.0160357 -0.00801784 0.0275
0 -0.0160357 0.0275
-0.00801784 -0.0160357 0.0275
-0.0160357 -0.0160357 0.0275
0 0 0.055
-0.00801784 0 0.055
-0.0160357 0 0.055
0 -0.00801784 0.055
-0.00801784 -0.00801784 0.055
-0.0160357 -0.00801784 0.055
0 -0.0160357 0.055
-0.00801784 -0.0160357 0.055
-0.0160357 -0.0160357 0.055

CELL_DATA 8
SCALARS part_id int
LOOKUP_TABLE default
0
0
0
0
0
0
0
0
TENSORS stress float
2.96253e-10 2.2621e-12 3.30149e-11
2.2621e-12 2.96253e-10 3.30149e-11
3.30149e-11 3.30149e-11 0.0276391

2.07422e-10 3.76665e-12 8.10727e-11
3.76665e-12 2.47136e-10 3.10982e-11
8.10727e-11 3.10982e-11 0.0276391

2.47136e-10 3.7666e-12 3.10983e-11
3.7666e-12 2.07422e-10 8.10727e-11
3.10983e-11 8.10727e-11 0.0276391

1.78643e-10 8.94188e-12 7.39594e-11
8.94188e-12 1.78643e-10 7.39594e-11
7.39594e-11 7.39594e-11 0.0276391

-2.978e-10 -2.2621e-12 3.30149e-11
-2.2621e-12 -2.978e-10 3.30149e-11
3.30149e-11 3.30149e-11 0.0276391

-2.0897e-10 -3.76659e-12 8.10726e-11
-3.76659e-12 -2.48684e-10 3.10982e-11
8.10726e-11 3.10982e-11 0.0276391

-2.48684e-10 -3.76662e-12 3.10982e-11
-3.76662e-12 -2.0897e-10 8.10726e-11
3.10982e-11 8.10726e-11 0.0276391

-1.80191e-10 -8.94188e-12 7.39594e-11
-8.94188e-12 -1.80191e-10 7.39594e-11
7.39594e-11 7.39594e-11 0.0276391

SCALARS damage float
LOOKUP_TABLE default
0.493216
0.493216
0.493216
0.493216
0.493216
0.493216
0.493216
0.493216
