# vtk DataFile Version 3.0
time 0.5
ASCII
DATASET UNSTRUCTURED_GRID
POINTS 27 float
0 0 0 0.5 0 0 1 0 0 
0 0.5 0 0.5 0.5 0 1 0.5 0 
0 1 0 0.5 1 0 1 1 0 
0 0 0.5 0.5 0 0.5 1 0 0.5 
0 0.5 0.5 0.5 0.5 0.5 1 0.5 0.5 
0 1 0.5 0.5 1 0.5 1 1 0.5 
0 0 1 0.5 0 1 1 0 1 
0 0.5 1 0.5 0.5 1 1 0.5 1 
0 1 1 0.5 1 1 1 1 1 

CELLS 8 72
8 0 1 4 3 9 10 13 12 
8 1 2 5 4 10 11 14 13 
8 3 4 7 6 12 13 16 15 
8 4 5 8 7 13 14 17 16 
8 9 10 13 12 18 19 22 21 
8 10 11 14 13 19 20 23 22 
8 12 13 16 15 21 22 25 24 
8 13 14 17 16 22 23 26 25 

CELL_TYPES 8
12
12
12
12
12
12
12
12

POINT_DATA 27
VECTORS displacement float
0 0 0
-0.0332199 0 0
-0.0664399 0 0
0 -0.0332199 0
-0.0332199 -0.0332199 0
-0.0664399 -0.0332199 0
0 -0.0664399 0
-0.0332199 -0.0664399 0
-0.0664399 -0.0664399 0
0 0 0.125
-0.0332199 0 0.125
-0.0664399 0 0.125
0 -0.0332199 0.125
-0.0332199 -0.0332199 0.125
-0.0664399 -0.0332199 0.125
0 -0.0664399 0.125
-0.0332199 -0.0664399 0.125
-0.0664399 -0.0664399 0.125
0 0 0.25
-0.0332199 0 0.25
-0.0664399 0 0.25
0 -0.0332199 0.25
-0.0332199 -0.0332199 0.25
-0.0664399 -0.0332199 0.25
0 -0.0664399 0.25
-0.0332199 -0.0664399 0.25
-0.0664399 -0.0664399 0.25

CELL_DATA 8
SCALARS part_id int
LOOKUP_TABLE default
0
0
0
0
0
0
0
0
TENSORS stress float
4.32485e-11 3.46976e-13 5.90928e-12
3.46976e-13 4.32485e-11 5.90929e-12
5.90928e-12 5.90929e-12 0.092476

2.94893e-11 6.05127e-13 1.669e-11
6.05127e-13 3.58816e-11 5.5698e-12
1.669e-11 5.5698e-12 0.092476

3.58817e-11 6.05139e-13 5.56979e-12
6.05139e-13 2.94893e-11 1.669e-11
5.56979e-12 1.669e-11 0.092476

2.51872e-11 1.22198e-12 1.52858e-11
1.22198e-12 2.51872e-11 1.52858e-11
1.52858e-11 1.52858e-11 0.092476

-4.33987e-11 -3.46981e-13 5.90926e-12
-3.46981e-13 -4.33987e-11 5.90926e-12
5.90926e-12 5.90926e-12 0.092476

-2.96395e-11 -6.0514e-13 1.669e-11
-6.0514e-13 -3.60319e-11 5.56978e-12
1.669e-11 5.56978e-12 0.092476

-3.60319e-11 -6.05137e-13 5.56977e-12
-6.05137e-13 -2.96395e-11 1.669e-11
5.56977e-12 1.669e-11 0.092476

-2.53374e-11 -1.22195e-12 1.52858e-11
-1.22195e-12 -2.53374e-11 1.52858e-11
1.52858e-11 1.52858e-11 0.092476

SCALARS damage float
LOOKUP_TABLE default
0.620911
0.620911
0.620911
0.620911
0.620911
0.620911
0.620911
0.620911
