# vtk DataFile Version 3.0
time 0.04
ASCII
DATASET UNSTRUCTURED_GRID
POINTS 27 float
0 0 0 0.5 0 0 1 0 0 
0 0.5 0 0.5 0.5 0 1 0.5 0 
0 1 0 0.5 1 0 1 1 0 
0 0 0.5 0.5 0 0.5 1 0 0.5 
0 0.5 0.5 0.5 0.5 0.5 1 0.5 0.5 
0 1 0.5 0.5 1 0.5 1 1 0.5 
0 0 1 0.5 0 1 1 0 1 
0 0.5 1 0.5 0.5 1 1 0.5 1 
0 1 1 0.5 1 1 1 1 1 

CELLS 8 72
8 0 1 4 3 9 10 13 12 
8 1 2 5 4 10 11 14 13 
8 3 4 7 6 12 13 16 15 
8 4 5 8 7 13 14 17 16 
8 9 10 13 12 18 19 22 21 
8 10 11 14 13 19 20 23 22 
8 12 13 16 15 21 22 25 24 
8 13 14 17 16 22 23 26 25 

CELL_TYPES 8
12
12
12
12
12
12
12
12

POINT_DATA 27
VECTORS displacement float
0 0 0
-0.00296861 0 0
-0.00593722 0 0
0 -0.00296861 0
-0.00296861 -0.00296861 0
-0.00593722 -0.00296861 0
0 -0.00593722 0
-0.00296861 -0.00593722 0
-0.00593722 -0.00593722 0
0 0 0.01
-0.00296861 0 0.01
-0.00593722 0 0.01
0 -0.00296861 0.01
-0.00296861 -0.00296861 0.01
-0.00593722 -0.00296861 0.01
0 -0.00593722 0.01
-0.00296861 -0.00593722 0.01
-0.00593722 -0.00593722 0.01
0 0 0.02
-0.00296861 0 0.02
-0.00593722 0 0.02
0 -0.00296861 0.02
-0.00296861 -0.00296861 0.02
-0.00593722 -0.00296861 0.02
0 -0.00593722 0.02
-0.00296861 -0.00593722 0.02
-0.00593722 -0.00593722 0.02

CELL_DATA 8
SCALARS part_id int
LOOKUP_TABLE default
0
0
0
0
0
0
0
0
TENSORS stress float
4.68679e-10 2.8803e-12 4.10844e-11
2.8803e-12 4.68679e-10 4.10844e-11
4.10844e-11 4.10844e-11 0.0137996

3.55396e-10 4.74494e-12 9.77397e-11
4.74494e-12 4.05852e-10 3.87039e-11
9.77397e-11 3.87039e-11 0.0137996

4.05852e-10 4.74495e-12 3.87039e-11
4.74495e-12 3.55396e-10 9.77397e-11
3.87039e-11 9.77397e-11 0.0137996

3.18561e-10 1.16538e-11 8.9135e-11
1.16538e-11 3.18561e-10 8.91351e-11
8.9135e-11 8.91351e-11 0.0137996

-4.72962e-10 -2.88028e-12 4.10844e-11
-2.88028e-12 -4.72962e-10 4.10844e-11
4.10844e-11 4.10844e-11 0.0137996

-3.5968e-10 -4.74492e-12 9.77397e-11
-4.74492e-12 -4.10135e-10 3.87039e-11
9.77397e-11 3.87039e-11 0.0137996

-4.10135e-10 -4.74495e-12 3.8704e-11
-4.74495e-12 -3.59679e-10 9.77397e-11
3.8704e-11 9.77397e-11 0.0137996

-3.22845e-10 -1.16538e-11 8.9135e-11
-1.16538e-11 -3.22845e-10 8.9135e-11
8.9135e-11 8.9135e-11 0.0137996

SCALARS damage float
LOOKUP_TABLE default
0.307737
0.307737
0.307737
0.307737
0.307737
0.307737
0.307737
0.307737
