# vtk DataFile Version 3.0
time 0.49
ASCII
DATASET UNSTRUCTURED_GRID
POINTS 27 float
0 0 0 0.5 0 0 1 0 0 
0 0.5 0 0.5 0.5 0 1 0.5 0 
0 1 0 0.5 1 0 1 1 0 
0 0 0.5 0.5 0 0.5 1 0 0.5 
0 0.5 0.5 0.5 0.5 0.5 1 0.5 0.5 
0 1 0.5 0.5 1 0.5 1 1 0.5 
0 0 1 0.5 0 1 1 0 1 
0 0.5 1 0.5 0.5 1 1 0.5 1 
0 1 1 0.5 1 1 1 1 1 

CELLS 8 72
8 0 1 4 3 9 10 13 12 
8 1 2 5 4 10 11 14 13 
8 3 4 7 6 12 13 16 15 
8 4 5 8 7 13 14 17 16 
8 9 10 13 12 18 19 22 21 
8 10 11 14 13 19 20 23 22 
8 12 13 16 15 21 22 25 24 
8 13 14 17 16 22 23 26 25 

CELL_TYPES 8
12
12
12
12
12
12
12
12

POINT_DATA 27
VECTORS displacement float
0 0 0
-0.0326282 0 0
-0.0652564 0 0
0 -0.0326282 0
-0.0326282 -0.0326282 0
-0.0652564 -0.0326282 0
0 -0.0652564 0
-0.0326282 -0.0652564 0
-0.0652564 -0.0652564 0
0 0 0.1225
-0.0326282 0 0.1225
-0.0652564 0 0.1225
0 -0.0326282 0.1225
-0.0326282 -0.0326282 0.1225
-0.0652564 -0.0326282 0.1225
0 -0.0652564 0.1225
-0.0326282 -0.0652564 0.1225
-0.0652564 -0.0652564 0.1225
0 0 0.245
-0.0326282 0 0.245
-0.0652564 0 0.245
0 -0.0326282 0.245
-0.0326282 -0.0326282 0.245
-0.0652564 -0.0326282 0.245
0 -0.0652564 0.245
-0.0326282 -0.0652564 0.245
-0.0652564 -0.0652564 0.245

CELL_DATA 8
SCALARS part_id int
LOOKUP_TABLE default
0
0
0
0
0
0
0
0
TENSORS stress float
4.46378e-11 3.58205e-13 6.07974e-12
3.58205e-13 4.46378e-11 6.07975e-12
6.07974e-12 6.07975e-12 0.0908254

3.04303e-11 6.24133e-13 1.71239e-11
6.24133e-13 3.7028e-11 5.73057e-12
1.71239e-11 5.73057e-12 0.0908254

3.70279e-11 6.24141e-13 5.73056e-12
6.24141e-13 3.04302e-11 1.71239e-11
5.73056e-12 1.71239e-11 0.0908254

2.59858e-11 1.26495e-12 1.56824e-11
1.26495e-12 2.59858e-11 1.56824e-11
1.56824e-11 1.56824e-11 0.0908254

-4.47935e-11 -3.58224e-13 6.07975e-12
-3.58224e-13 -4.47935e-11 6.07975e-12
6.07975e-12 6.07975e-12 0.0908254

-3.05861e-11 -6.24134e-13 1.71239e-11
-6.24134e-13 -3.71838e-11 5.73059e-12
1.71239e-11 5.73059e-12 0.0908254

-3.71838e-11 -6.24157e-13 5.73056e-12
-6.24157e-13 -3.05861e-11 1.71239e-11
5.73056e-12 1.71239e-11 0.0908254

-2.61416e-11 -1.26491e-12 1.56824e-11
-1.26491e-12 -2.61417e-11 1.56824e-11
1.56824e-11 1.56824e-11 0.0908254

SCALARS damage float
LOOKUP_TABLE default
0.620153
0.620153
0.620153
0.620153
0.620153
0.620153
0.620153
0.620153
