# vtk DataFile Version 3.0
time 0.49
ASCII
DATASET UNSTRUCTURED_GRID
POINTS 27 float
0 0 0 0.5 0 0 1 0 0 
0 0.5 0 0.5 0.5 0 1 0.5 0 
0 1 0 0.5 1 0 1 1 0 
0 0 0.5 0.5 0 0.5 1 0 0.5 
0 0.5 0.5 0.5 0.5 0.5 1 0.5 0.5 
0 1 0.5 0.5 1 0.5 1 1 0.5 
0 0 1 0.5 0 1 1 0 1 
0 0.5 1 0.5 0.5 1 1 0.5 1 
0 1 1 0.5 1 1 1 1 1 

CELLS 8 72
8 0 1 4 3 9 10 13 12 
8 1 2 5 4 10 11 14 13 
8 3 4 7 6 12 13 16 15 
8 4 5 8 7 13 14 17 16 
8 9 10 13 12 18 19 22 21 
8 10 11 14 13 19 20 23 22 
8 12 13 16 15 21 22 25 24 
8 13 14 17 16 22 23 26 25 

CELL_TYPES 8
12
12
12
12
12
12
12
12

POINT_DATA 27
VECTORS displacement float
0 0 0
-0.0326282 0 0
-0.0652564 0 0
0 -0.0326282 0
-0.0326282 -0.0326282 0
-0.0652564 -0.0326282 0
0 -0.0652564 0
-0.0326282 -0.0652564 0
-0.0652564 -0.0652564 0
0 0 0.1225
-0.0326282 0 0.1225
-0.0652564 0 0.1225
0 -0.0326282 0.1225
-0.0326282 -0.0326282 0.1225
-0.0652564 -0.0326282 0.1225
0 -0.0652564 0.1225
-0.0326282 -0.0652564 0.1225
-0.0652564 -0.0652564 0.1225
0 0 0.245
-0.0326282 0 0.245
-0.0652564 0 0.245
0 -0.0326282 0.245
-0.0326282 -0.0326282 0.245
-0.0652564 -0.0326282 0.245
0 -0.0652564 0.245
-0.0326282 -0.0652564 0.245
-0.0652564 -0.0652564 0.245

CELL_DATA 8
SCALARS part_id int
LOOKUP_TABLE default
0
0
0
0
0
0
0
0
TENSORS stress float
1.4695e-10 1.21298e-12 2.04106e-11
1.21298e-12 1.4695e-10 2.04106e-11
2.04106e-11 2.04106e-11 0.114996

9.91572e-11 2.11311e-12 5.74029e-11
2.11311e-12 1.21186e-10 1.92282e-11
5.74029e-11 1.92282e-11 0.114996

1.21186e-10 2.11308e-12 1.92282e-11
2.11308e-12 9.91573e-11 5.74029e-11
1.92282e-11 5.74029e-11 0.114996

8.41114e-11 4.28629e-12 5.25304e-11
4.28629e-12 8.41114e-11 5.25303e-11
5.25304e-11 5.25303e-11 0.114996

-1.4738e-10 -1.21298e-12 2.04106e-11
-1.21298e-12 -1.4738e-10 2.04106e-11
2.04106e-11 2.04106e-11 0.114996

-9.95876e-11 -2.11307e-12 5.7403e-11
-2.11307e-12 -1.21617e-10 1.92282e-11
5.7403e-11 1.92282e-11 0.114996

-1.21616e-10 -2.11308e-12 1.92282e-11
-2.11308e-12 -9.95875e-11 5.7403e-11
1.92282e-11 5.7403e-11 0.114996

-8.45418e-11 -4.2863e-12 5.25304e-11
-4.2863e-12 -8.45418e-11 5.25303e-11
5.25304e-11 5.25303e-11 0.114996

SCALARS damage float
LOOKUP_TABLE default
0.519066
0.519066
0.519066
0.519066
0.519066
0.519066
0.519066
0.519066
