# vtk DataFile Version 3.0
time 0.41
ASCII
DATASET UNSTRUCTURED_GRID
POINTS 27 float
0 0 0 0.5 0 0 1 0 0 
0 0.5 0 0.5 0.5 0 1 0.5 0 
0 1 0 0.5 1 0 1 1 0 
0 0 0.5 0.5 0 0.5 1 0 0.5 
0 0.5 0.5 0.5 0.5 0.5 1 0.5 0.5 
0 1 0.5 0.5 1 0.5 1 1 0.5 
0 0 1 0.5 0 1 1 0 1 
0 0.5 1 0.5 0.5 1 1 0.5 1 
0 1 1 0.5 1 1 1 1 1 

CELLS 8 72
8 0 1 4 3 9 10 13 12 
8 1 2 5 4 10 11 14 13 
8 3 4 7 6 12 13 16 15 
8 4 5 8 7 13 14 17 16 
8 9 10 13 12 18 19 22 21 
8 10 11 14 13 19 20 23 22 
8 12 13 16 15 21 22 25 24 
8 13 14 17 16 22 23 26 25 

CELL_TYPES 8
12
12
12
12
12
12
12
12

POINT_DATA 27
VECTORS displacement float
0 0 0
-0.0277994 0 0
-0.0555989 0 0
0 -0.0277994 0
-0.0277994 -0.0277994 0
-0.0555989 -0.0277994 0
0 -0.0555989 0
-0.0277994 -0.0555989 0
-0.0555989 -0.0555989 0
0 0 0.1025
-0.0277994 0 0.1025
-0.0555989 0 0.1025
0 -0.0277994 0.1025
-0.0277994 -0.0277994 0.1025
-0.0555989 -0.0277994 0.1025
0 -0.0555989 0.1025
-0.0277994 -0.0555989 0.1025
-0.0555989 -0.0555989 0.1025
0 0 0.205
-0.0277994 0 0.205
-0.0555989 0 0.205
0 -0.0277994 0.205
-0.0277994 -0.0277994 0.205
-0.0555989 -0.0277994 0.205
0 -0.0555989 0.205
-0.0277994 -0.0555989 0.205
-0.0555989 -0.0555989 0.205

CELL_DATA 8
SCALARS part_id int
LOOKUP_TABLE default
0
0
0
0
0
0
0
0
TENSORS stress float
1.84986e-10 1.52905e-12 2.49597e-11
1.52905e-12 1.84986e-10 2.49596e-11
2.49597e-11 2.49596e-11 0.101299

1.24791e-10 2.64212e-12 6.85345e-11
2.64212e-12 1.52366e-10 2.35127e-11
6.85345e-11 2.35127e-11 0.101299

1.52366e-10 2.64212e-12 2.35127e-11
2.64212e-12 1.24791e-10 6.85346e-11
2.35127e-11 6.85346e-11 0.101299

1.05727e-10 5.52318e-12 6.26743e-11
5.52318e-12 1.05727e-10 6.26743e-11
6.26743e-11 6.26743e-11 0.101299

-1.85545e-10 -1.52905e-12 2.49597e-11
-1.52905e-12 -1.85545e-10 2.49596e-11
2.49597e-11 2.49596e-11 0.101299

-1.2535e-10 -2.64209e-12 6.85346e-11
-2.64209e-12 -1.52925e-10 2.35128e-11
6.85346e-11 2.35128e-11 0.101299

-1.52925e-10 -2.6421e-12 2.35128e-11
-2.6421e-12 -1.2535e-10 6.85346e-11
2.35128e-11 6.85346e-11 0.101299

-1.06286e-10 -5.52314e-12 6.26744e-11
-5.52314e-12 -1.06286e-10 6.26743e-11
6.26744e-11 6.26743e-11 0.101299

SCALARS damage float
LOOKUP_TABLE default
0.494653
0.494653
0.494653
0.494653
0.494653
0.494653
0.494653
0.494653
