# vtk DataFile Version 3.0
time 0.21
ASCII
DATASET UNSTRUCTURED_GRID
POINTS 27 float
0 0 0 0.5 0 0 1 0 0 
0 0.5 0 0.5 0.5 0 1 0.5 0 
0 1 0 0.5 1 0 1 1 0 
0 0 0.5 0.5 0 0.5 1 0 0.5 
0 0.5 0.5 0.5 0.5 0.5 1 0.5 0.5 
0 1 0.5 0.5 1 0.5 1 1 0.5 
0 0 1 0.5 0 1 1 0 1 
0 0.5 1 0.5 0.5 1 1 0.5 1 
0 1 1 0.5 1 1 1 1 1 

CELLS 8 72
8 0 1 4 3 9 10 13 12 
8 1 2 5 4 10 11 14 13 
8 3 4 7 6 12 13 16 15 
8 4 5 8 7 13 14 17 16 
8 9 10 13 12 18 19 22 21 
8 10 11 14 13 19 20 23 22 
8 12 13 16 15 21 22 25 24 
8 13 14 17 16 22 23 26 25 

CELL_TYPES 8
12
12
12
12
12
12
12
12

POINT_DATA 27
VECTORS displacement float
0 0 0
-0.0149295 0 0
-0.029859 0 0
0 -0.0149295 0
-0.0149295 -0.0149295 0
-0.029859 -0.0149295 0
0 -0.029859 0
-0.0149295 -0.029859 0
-0.029859 -0.029859 0
0 0 0.0525
-0.0149295 0 0.0525
-0.029859 0 0.0525
0 -0.0149295 0.0525
-0.0149295 -0.0149295 0.0525
-0.029859 -0.0149295 0.0525
0 -0.029859 0.0525
-0.0149295 -0.029859 0.0525
-0.029859 -0.029859 0.0525
0 0 0.105
-0.0149295 0 0.105
-0.029859 0 0.105
0 -0.0149295 0.105
-0.0149295 -0.0149295 0.105
-0.029859 -0.0149295 0.105
0 -0.029859 0.105
-0.0149295 -0.029859 0.105
-0.029859 -0.029859 0.105

CELL_DATA 8
SCALARS part_id int
LOOKUP_TABLE default
0
0
0
0
0
0
0
0
TENSORS stress float
3.15817e-10 2.56097e-12 3.88217e-11
2.56097e-12 3.15817e-10 3.88217e-11
3.88217e-11 3.88217e-11 0.0642464

2.15099e-10 4.32278e-12 9.93957e-11
4.32278e-12 2.60546e-10 3.65711e-11
9.93957e-11 3.65711e-11 0.0642464

2.60546e-10 4.32273e-12 3.65711e-11
4.32273e-12 2.15099e-10 9.93957e-11
3.65711e-11 9.93957e-11 0.0642464

1.8274e-10 9.8088e-12 9.07546e-11
9.8088e-12 1.8274e-10 9.07547e-11
9.07546e-11 9.07547e-11 0.0642464

-3.17023e-10 -2.56097e-12 3.88217e-11
-2.56097e-12 -3.17023e-10 3.88217e-11
3.88217e-11 3.88217e-11 0.0642464

-2.16305e-10 -4.32273e-12 9.93956e-11
-4.32273e-12 -2.61751e-10 3.65711e-11
9.93956e-11 3.65711e-11 0.0642464

-2.61751e-10 -4.32274e-12 3.65711e-11
-4.32274e-12 -2.16305e-10 9.93956e-11
3.65711e-11 9.93956e-11 0.0642464

-1.83946e-10 -9.80877e-12 9.07545e-11
-9.80877e-12 -1.83946e-10 9.07546e-11
9.07545e-11 9.07546e-11 0.0642464

SCALARS damage float
LOOKUP_TABLE default
0.379236
0.379236
0.379236
0.379236
0.379236
0.379236
0.379236
0.379236
