# vtk DataFile Version 3.0
time 1
ASCII
DATASET UNSTRUCTURED_GRID
POINTS 8 float
0 0 0 1 0 0 1 1 0 
0 1 0 0 0 1 1 0 1 
1 1 1 0 1 1 

CELLS 1 9
8 0 1 2 3 4 5 6 7 

CELL_TYPES 1
12

POINT_DATA 8
VECTORS displacement float
0 0 0
-0.0143477 0 0
-0.0143477 -0.0143477 0
0 -0.0143477 0
0 0 0.05
-0.0143477 0 0.05
-0.0143477 -0.0143477 0.05
0 -0.0143477 0.05

CELL_DATA 1
SCALARS part_id int
LOOKUP_TABLE default
0
TENSORS stress float
-1.04977e-08 6.08236e-33 -1.25379e-17
6.08236e-33 -1.04977e-08 -1.34714e-17
-1.25379e-17 -1.34714e-17 0.0487381

