# vtk DataFile Version 3.0
time 1
ASCII
DATASET UNSTRUCTURED_GRID
POINTS 125 float
0 0 0 1 0 0 2 0 0 
3 0 0 4 0 0 0 1 0 
1 1 0 2 1 0 3 1 0 
4 1 0 0 2 0 1 2 0 
2 2 0 3 2 0 4 2 0 
0 3 0 1 3 0 2 3 0 
3 3 0 4 3 0 0 4 0 
1 4 0 2 4 0 3 4 0 
4 4 0 0 0 1 1 0 1 
2 0 1 3 0 1 4 0 1 
0 1 1 1 1 1 2 1 1 
3 1 1 4 1 1 0 2 1 
1 2 1 2 2 1 3 2 1 
4 2 1 0 3 1 1 3 1 
2 3 1 3 3 1 4 3 1 
0 4 1 1 4 1 2 4 1 
3 4 1 4 4 1 0 0 2 
1 0 2 2 0 2 3 0 2 
4 0 2 0 1 2 1 1 2 
2 1 2 3 1 2 4 1 2 
0 2 2 1 2 2 2 2 2 
3 2 2 4 2 2 0 3 2 
1 3 2 2 3 2 3 3 2 
4 3 2 0 4 2 1 4 2 
2 4 2 3 4 2 4 4 2 
0 0 3 1 0 3 2 0 3 
3 0 3 4 0 3 0 1 3 
1 1 3 2 1 3 3 1 3 
4 1 3 0 2 3 1 2 3 
2 2 3 3 2 3 4 2 3 
0 3 3 1 3 3 2 3 3 
3 3 3 4 3 3 0 4 3 
1 4 3 2 4 3 3 4 3 
4 4 3 0 0 4 1 0 4 
2 0 4 3 0 4 4 0 4 
0 1 4 1 1 4 2 1 4 
3 1 4 4 1 4 0 2 4 
1 2 4 2 2 4 3 2 4 
4 2 4 0 3 4 1 3 4 
2 3 4 3 3 4 4 3 4 
0 4 4 1 4 4 2 4 4 
3 4 4 4 4 4 

CELLS 64 576
8 0 1 6 5 25 26 31 30 
8 1 2 7 6 26 27 32 31 
8 2 3 8 7 27 28 33 32 
8 3 4 9 8 28 29 34 33 
8 5 6 11 10 30 31 36 35 
8 6 7 12 11 31 32 37 36 
8 7 8 13 12 32 33 38 37 
8 8 9 14 13 33 34 39 38 
8 10 11 16 15 35 36 41 40 
8 11 12 17 16 36 37 42 41 
8 12 13 18 17 37 38 43 42 
8 13 14 19 18 38 39 44 43 
8 15 16 21 20 40 41 46 45 
8 16 17 22 21 41 42 47 46 
8 17 18 23 22 42 43 48 47 
8 18 19 24 23 43 44 49 48 
8 25 26 31 30 50 51 56 55 
8 26 27 32 31 51 52 57 56 
8 27 28 33 32 52 53 58 57 
8 28 29 34 33 53 54 59 58 
8 30 31 36 35 55 56 61 60 
8 31 32 37 36 56 57 62 61 
8 32 33 38 37 57 58 63 62 
8 33 34 39 38 58 59 64 63 
8 35 36 41 40 60 61 66 65 
8 36 37 42 41 61 62 67 66 
8 37 38 43 42 62 63 68 67 
8 38 39 44 43 63 64 69 68 
8 40 41 46 45 65 66 71 70 
8 41 42 47 46 66 67 72 71 
8 42 43 48 47 67 68 73 72 
8 43 44 49 48 68 69 74 73 
8 50 51 56 55 75 76 81 80 
8 51 52 57 56 76 77 82 81 
8 52 53 58 57 77 78 83 82 
8 53 54 59 58 78 79 84 83 
8 55 56 61 60 80 81 86 85 
8 56 57 62 61 81 82 87 86 
8 57 58 63 62 82 83 88 87 
8 58 59 64 63 83 84 89 88 
8 60 61 66 65 85 86 91 90 
8 61 62 67 66 86 87 92 91 
8 62 63 68 67 87 88 93 92 
8 63 64 69 68 88 89 94 93 
8 65 66 71 70 90 91 96 95 
8 66 67 72 71 91 92 97 96 
8 67 68 73 72 92 93 98 97 
8 68 69 74 73 93 94 99 98 
8 75 76 81 80 100 101 106 105 
8 76 77 82 81 101 102 107 106 
8 77 78 83 82 102 103 108 107 
8 78 79 84 83 103 104 109 108 
8 80 81 86 85 105 106 111 110 
8 81 82 87 86 106 107 112 111 
8 82 83 88 87 107 108 113 112 
8 83 84 89 88 108 109 114 113 
8 85 86 91 90 110 111 116 115 
8 86 87 92 91 111 112 117 116 
8 87 88 93 92 112 113 118 117 
8 88 89 94 93 113 114 119 118 
8 90 91 96 95 115 116 121 120 
8 91 92 97 96 116 117 122 121 
8 92 93 98 97 117 118 123 122 
8 93 94 99 98 118 119 124 123 

CELL_TYPES 64
12
12
12
12
12
12
12
12
12
12
12
12
12
12
12
12
12
12
12
12
12
12
12
12
12
12
12
12
12
12
12
12
12
12
12
12
12
12
12
12
12
12
12
12
12
12
12
12
12
12
12
12
12
12
12
12
12
12
12
12
12
12
12
12

POINT_DATA 125
VECTORS displacement float
0 0 0
-0.0146151 0 0
-0.0292303 0 0
-0.0438454 0 0
-0.0584606 0 0
0 -0.0146151 0
-0.0146151 -0.0146151 0
-0.0292303 -0.0146151 0
-0.0438454 -0.0146151 0
-0.0584606 -0.0146151 0
0 -0.0292303 0
-0.0146151 -0.0292303 0
-0.0292303 -0.0292303 0
-0.0438454 -0.0292303 0
-0.0584605 -0.0292303 0
0 -0.0438454 0
-0.0146151 -0.0438454 0
-0.0292303 -0.0438454 0
-0.0438454 -0.0438454 0
-0.0584605 -0.0438454 0
0 -0.0584606 0
-0.0146151 -0.0584606 0
-0.0292303 -0.0584605 0
-0.0438454 -0.0584605 0
-0.0584605 -0.0584605 0
0 0 0.0500007
-0.0146151 0 0.0500007
-0.0292302 0 0.0500007
-0.0438454 0 0.0500007
-0.0584605 0 0.0500006
0 -0.0146151 0.0500007
-0.0146151 -0.0146151 0.0500007
-0.0292302 -0.0146151 0.0500007
-0.0438454 -0.0146151 0.0500007
-0.0584605 -0.0146151 0.0500006
0 -0.0292302 0.0500007
-0.0146151 -0.0292302 0.0500007
-0.0292302 -0.0292302 0.0500007
-0.0438454 -0.0292302 0.0500007
-0.0584605 -0.0292302 0.0500006
0 -0.0438454 0.0500007
-0.0146151 -0.0438454 0.0500007
-0.0292302 -0.0438454 0.0500007
-0.0438454 -0.0438454 0.0500006
-0.0584605 -0.0438454 0.0500006
0 -0.0584605 0.0500006
-0.0146151 -0.0584605 0.0500006
-0.0292302 -0.0584605 0.0500006
-0.0438454 -0.0584605 0.0500006
-0.0584605 -0.0584605 0.0500005
0 0 0.100001
-0.0146151 0 0.100001
-0.0292301 0 0.100001
-0.0438452 0 0.100001
-0.0584604 0 0.100001
0 -0.0146151 0.100001
-0.0146151 -0.0146151 0.100001
-0.0292301 -0.0146151 0.100001
-0.0438452 -0.0146151 0.100001
-0.0584604 -0.0146151 0.100001
0 -0.0292301 0.100001
-0.0146151 -0.0292301 0.100001
-0.0292301 -0.0292301 0.100001
-0.0438452 -0.0292301 0.100001
-0.0584604 -0.0292301 0.100001
0 -0.0438452 0.100001
-0.0146151 -0.0438452 0.100001
-0.0292301 -0.0438452 0.100001
-0.0438452 -0.0438452 0.100001
-0.0584604 -0.0438452 0.100001
0 -0.0584604 0.100001
-0.0146151 -0.0584604 0.100001
-0.0292301 -0.0584604 0.100001
-0.0438452 -0.0584604 0.100001
-0.0584604 -0.0584604 0.100001
0 0 0.150002
-0.014615 0 0.150002
-0.02923 0 0.150002
-0.043845 0 0.150002
-0.0584599 0 0.150002
0 -0.014615 0.150002
-0.014615 -0.014615 0.150002
-0.02923 -0.014615 0.150002
-0.043845 -0.014615 0.150002
-0.0584599 -0.014615 0.150002
0 -0.02923 0.150002
-0.014615 -0.02923 0.150002
-0.02923 -0.02923 0.150002
-0.043845 -0.02923 0.150002
-0.05846 -0.02923 0.150002
0 -0.043845 0.150002
-0.014615 -0.043845 0.150002
-0.02923 -0.043845 0.150002
-0.043845 -0.043845 0.150002
-0.05846 -0.043845 0.150002
0 -0.0584599 0.150002
-0.014615 -0.0584599 0.150002
-0.02923 -0.05846 0.150002
-0.043845 -0.05846 0.150002
-0.05846 -0.05846 0.150002
0 0 0.2
-0.014615 0 0.2
-0.0292299 0 0.2
-0.0438448 0 0.2
-0.0584596 0 0.2
0 -0.014615 0.2
-0.014615 -0.014615 0.2
-0.0292299 -0.014615 0.2
-0.0438448 -0.014615 0.2
-0.0584596 -0.014615 0.2
0 -0.0292299 0.2
-0.014615 -0.0292299 0.2
-0.0292299 -0.0292299 0.2
-0.0438448 -0.0292299 0.2
-0.0584596 -0.0292299 0.2
0 -0.0438448 0.2
-0.014615 -0.0438448 0.2
-0.0292299 -0.0438448 0.2
-0.0438448 -0.0438448 0.2
-0.0584597 -0.0438448 0.2
0 -0.0584596 0.2
-0.014615 -0.0584596 0.2
-0.0292299 -0.0584596 0.2
-0.0438448 -0.0584597 0.2
-0.0584597 -0.0584597 0.2

CELL_DATA 64
SCALARS part_id int
LOOKUP_TABLE default
0
0
0
0
0
0
0
0
0
0
0
0
0
0
0
0
0
0
0
0
0
0
0
0
0
0
0
0
0
0
0
0
0
0
0
0
0
0
0
0
0
0
0
0
0
0
0
0
0
0
0
0
0
0
0
0
0
0
0
0
0
0
0
0
TENSORS stress float
7.82246e-08 1.59089e-10 1.37483e-09
1.59089e-10 7.82795e-08 1.38113e-09
1.37483e-09 1.38113e-09 0.0154514

7.27548e-08 4.56437e-10 3.42695e-09
4.56437e-10 7.68151e-08 1.30364e-09
3.42695e-09 1.30364e-09 0.0154513

6.46943e-08 6.18893e-10 2.69876e-09
6.18893e-10 7.27213e-08 1.2337e-09
2.69876e-09 1.2337e-09 0.0154513

6.11753e-08 3.71058e-10 3.8024e-10
3.71058e-10 6.56784e-08 1.29934e-09
3.8024e-10 1.29934e-09 0.0154513

7.67924e-08 4.57447e-10 1.30982e-09
4.57447e-10 7.27988e-08 3.44586e-09
1.30982e-09 3.44586e-09 0.0154513

7.16621e-08 1.34506e-09 3.25227e-09
1.34506e-09 7.16759e-08 3.28475e-09
3.25227e-09 3.28475e-09 0.0154513

6.40997e-08 1.90362e-09 2.46372e-09
1.90362e-09 6.83948e-08 3.0664e-09
2.46372e-09 3.0664e-09 0.0154513

6.08415e-08 1.21741e-09 2.80977e-10
1.21741e-09 6.24813e-08 3.13133e-09
2.80977e-10 3.13133e-09 0.0154513

7.27284e-08 6.14131e-10 1.23385e-09
6.14131e-10 6.47283e-08 2.70356e-09
1.23385e-09 2.70356e-09 0.0154513

6.83939e-08 1.90681e-09 3.04514e-09
1.90681e-09 6.4086e-08 2.46239e-09
3.04514e-09 2.46239e-09 0.0154513

6.21845e-08 2.94947e-09 2.24132e-09
2.94947e-09 6.21599e-08 2.25525e-09
2.24132e-09 2.25525e-09 0.0154513

5.99095e-08 2.11124e-09 2.08825e-10
2.11124e-09 5.87945e-08 2.40567e-09
2.08825e-10 2.40567e-09 0.0154513

6.56796e-08 3.66209e-10 1.27511e-09
3.66209e-10 6.12156e-08 3.99078e-10
1.27511e-09 3.99078e-10 0.0154513

6.24567e-08 1.21383e-09 3.10872e-09
1.21383e-09 6.08243e-08 2.66322e-10
3.10872e-09 2.66322e-10 0.0154513

5.87568e-08 2.11286e-09 2.3878e-09
2.11286e-09 5.98394e-08 1.66493e-10
2.3878e-09 1.66493e-10 0.0154513

5.9588e-08 1.74784e-09 3.91961e-10
1.74784e-09 5.95767e-08 3.66642e-10
3.91961e-10 3.66642e-10 0.0154513

8.90411e-08 7.41576e-11 3.72402e-09
7.41576e-11 8.90582e-08 3.73097e-09
3.72402e-09 3.73097e-09 0.0154514

8.51838e-08 2.12507e-10 1.05324e-08
2.12507e-10 8.85142e-08 3.56229e-09
1.05324e-08 3.56229e-09 0.0154514

7.54636e-08 2.91098e-10 1.26121e-08
2.91098e-10 8.57281e-08 3.34827e-09
1.26121e-08 3.34827e-09 0.0154513

6.13097e-08 1.71899e-10 3.2645e-09
1.71899e-10 7.52668e-08 3.50226e-09
3.2645e-09 3.50226e-09 0.0154513

8.84867e-08 2.09944e-10 3.55632e-09
2.09944e-10 8.52002e-08 1.05773e-08
3.55632e-09 1.05773e-08 0.0154514

8.48434e-08 6.58005e-10 1.00114e-08
6.58005e-10 8.48674e-08 1.00526e-08
1.00114e-08 1.00526e-08 0.0154514

7.5332e-08 1.00667e-09 1.18313e-08
1.00667e-09 8.25128e-08 9.3542e-09
1.18313e-08 9.3542e-09 0.0154513

6.13546e-08 6.73522e-10 2.77286e-09
6.73522e-10 7.26224e-08 9.54971e-09
2.77286e-09 9.54971e-09 0.0154513

8.56764e-08 2.94233e-10 3.32889e-09
2.94233e-10 7.54344e-08 1.26375e-08
3.32889e-09 1.26375e-08 0.0154513

8.24929e-08 1.00602e-09 9.3243e-09
1.00602e-09 7.53528e-08 1.18551e-08
9.3243e-09 1.18551e-08 0.0154513

7.4021e-08 1.8874e-09 1.08001e-08
1.8874e-09 7.4049e-08 1.08262e-08
1.08001e-08 1.08262e-08 0.0154513

6.08636e-08 1.59788e-09 2.17532e-09
1.59788e-09 6.61708e-08 1.08823e-08
2.17532e-09 1.08823e-08 0.0154513

7.51964e-08 1.76373e-10 3.43399e-09
1.76373e-10 6.12255e-08 3.28131e-09
3.43399e-09 3.28131e-09 0.0154513

7.26247e-08 6.798e-10 9.51898e-09
6.798e-10 6.13559e-08 2.74119e-09
9.51898e-09 2.74119e-09 0.0154513

6.62582e-08 1.60075e-09 1.08681e-08
1.60075e-09 6.0958e-08 2.13998e-09
1.08681e-08 2.13998e-09 0.0154513

5.74054e-08 2.14386e-09 2.38233e-09
2.14386e-09 5.74074e-08 2.35757e-09
2.38233e-09 2.35757e-09 0.0154513

1.05235e-07 -6.49732e-11 4.34815e-09
-6.49732e-11 1.05212e-07 4.34918e-09
4.34815e-09 4.34918e-09 0.0154514

1.06783e-07 -1.77677e-10 1.40366e-08
-1.77677e-10 1.05848e-07 4.1503e-09
1.40366e-08 4.1503e-09 0.0154514

1.06988e-07 -2.35548e-10 2.52336e-08
-2.35548e-10 1.07443e-07 3.88193e-09
2.52336e-08 3.88193e-09 0.0154514

9.67759e-08 -1.48435e-10 2.51752e-08
-1.48435e-10 1.04225e-07 4.02547e-09
2.51752e-08 4.02547e-09 0.0154514

1.05849e-07 -1.80195e-10 4.12954e-09
-1.80195e-10 1.06773e-07 1.40305e-08
4.12954e-09 1.40305e-08 0.0154514

1.0726e-07 -5.07743e-10 1.33455e-08
-5.07743e-10 1.07266e-07 1.33197e-08
1.33455e-08 1.33197e-08 0.0154514

1.07339e-07 -6.76166e-10 2.41293e-08
-6.76166e-10 1.08654e-07 1.23189e-08
2.41293e-08 1.23189e-08 0.0154514

9.7112e-08 -4.2968e-10 2.42595e-08
-4.2968e-10 1.05075e-07 1.25961e-08
2.42595e-08 1.25961e-08 0.0154514

1.07493e-07 -2.34873e-10 3.85077e-09
-2.34873e-10 1.07039e-07 2.5289e-08
3.85077e-09 2.5289e-08 0.0154514

1.08658e-07 -6.8785e-10 1.23094e-08
-6.8785e-10 1.07366e-07 2.41518e-08
1.23094e-08 2.41518e-08 0.0154514

1.08399e-07 -8.64822e-10 2.20325e-08
-8.64822e-10 1.08418e-07 2.2009e-08
2.20325e-08 2.2009e-08 0.0154514

9.81942e-08 -4.33159e-10 2.21426e-08
-4.33159e-10 1.04412e-07 2.1415e-08
2.21426e-08 2.1415e-08 0.0154514

1.0441e-07 -1.37996e-10 4.01901e-09
-1.37996e-10 9.69172e-08 2.5205e-08
4.01901e-09 2.5205e-08 0.0154514

1.05193e-07 -4.27918e-10 1.25654e-08
-4.27918e-10 9.72181e-08 2.43083e-08
1.25654e-08 2.43083e-08 0.0154514

1.04391e-07 -4.44926e-10 2.14338e-08
-4.44926e-10 9.81748e-08 2.21702e-08
2.14338e-08 2.21702e-08 0.0154514

9.51207e-08 1.32652e-10 2.03737e-08
1.32652e-10 9.51209e-08 2.03496e-08
2.03737e-08 2.03496e-08 0.0154514

-2.7337e-07 -1.67498e-10 1.99709e-09
-1.67498e-10 -2.73416e-07 1.99854e-09
1.99709e-09 1.99854e-09 0.015451

-2.65591e-07 -4.89125e-10 6.92908e-09
-4.89125e-10 -2.72044e-07 1.89082e-09
6.92908e-09 1.89082e-09 0.015451

-2.47972e-07 -6.73307e-10 1.53197e-08
-6.73307e-10 -2.66738e-07 1.76773e-09
1.53197e-08 1.76773e-09 0.015451

-2.2011e-07 -3.97025e-10 2.22939e-08
-3.97025e-10 -2.46021e-07 1.82198e-09
2.22939e-08 1.82198e-09 0.015451

-2.71999e-07 -4.86796e-10 1.87887e-09
-4.86796e-10 -2.65643e-07 6.89894e-09
1.87887e-09 6.89894e-09 0.015451

-2.6463e-07 -1.49525e-09 6.5849e-09
-1.49525e-09 -2.64672e-07 6.55184e-09
6.5849e-09 6.55184e-09 0.015451

-2.47609e-07 -2.23414e-09 1.47636e-08
-2.23414e-09 -2.6041e-07 6.0314e-09
1.47636e-08 6.0314e-09 0.015451

-2.20158e-07 -1.45919e-09 2.17692e-08
-1.45919e-09 -2.41026e-07 6.18009e-09
2.17692e-08 6.18009e-09 0.015451

-2.66763e-07 -6.71212e-10 1.7542e-09
-6.71212e-10 -2.48061e-07 1.53551e-08
1.7542e-09 1.53551e-08 0.015451

-2.60403e-07 -2.21972e-09 6.02966e-09
-2.21972e-09 -2.47655e-07 1.47602e-08
6.02966e-09 1.47602e-08 0.015451

-2.4545e-07 -3.97219e-09 1.34751e-08
-3.97219e-09 -2.45464e-07 1.34386e-08
1.34751e-08 1.34386e-08 0.015451

-2.19802e-07 -3.27449e-09 2.0176e-08
-3.27449e-09 -2.30219e-07 1.29398e-08
2.0176e-08 1.29398e-08 0.015451

-2.4616e-07 -4.02955e-10 1.86058e-09
-4.02955e-10 -2.20232e-07 2.23225e-08
1.86058e-09 2.23225e-08 0.015451

-2.41133e-07 -1.46129e-09 6.15527e-09
-1.46129e-09 -2.20252e-07 2.18337e-08
6.15527e-09 2.18337e-08 0.015451

-2.30248e-07 -3.26642e-09 1.29532e-08
-3.26642e-09 -2.19815e-07 2.01982e-08
1.29532e-08 2.01982e-08 0.015451

-2.12963e-07 -4.02646e-09 1.83841e-08
-4.02646e-09 -2.1295e-07 1.83589e-08
1.83841e-08 1.83589e-08 0.015451

