# vtk DataFile Version 3.0
time 0.05
ASCII
DATASET UNSTRUCTURED_GRID
POINTS 8 float
0 0 0 1 0 0 1 1 0 
0 1 0 0 0 1 1 0 1 
1 1 1 0 1 1 

CELLS 1 9
8 0 1 2 3 4 5 6 7 

CELL_TYPES 1
12

POINT_DATA 8
VECTORS displacement float
0 0 0
-0.00740222 0 0
-0.00740222 -0.00740222 0
0 -0.00740222 0
0 0 0.025
-0.00740222 0 0.025
-0.00740222 -0.00740222 0.025
0 -0.00740222 0.025

CELL_DATA 1
SCALARS part_id int
LOOKUP_TABLE default
0
TENSORS stress float
-8.97218e-13 1.64021e-17 1.5819e-17
1.64021e-17 -8.97203e-13 3.54427e-17
1.5819e-17 3.54427e-17 0.0117498

SCALARS damage float
LOOKUP_TABLE default
0.528084
