# vtk DataFile Version 3.0
time 0.07
ASCII
DATASET UNSTRUCTURED_GRID
POINTS 8 float
0 0 0 1 0 0 1 1 0 
0 1 0 0 0 1 1 0 1 
1 1 1 0 1 1 

CELLS 1 9
8 0 1 2 3 4 5 6 7 

CELL_TYPES 1
12

POINT_DATA 8
VECTORS displacement float
0 0 0
-0.0103096 0 0
-0.0103096 -0.0103096 0
0 -0.0103096 0
0 0 0.035
-0.0103096 0 0.035
-0.0103096 -0.0103096 0.035
0 -0.0103096 0.035

CELL_DATA 1
SCALARS part_id int
LOOKUP_TABLE default
0
TENSORS stress float
-4.52872e-13 -8.50074e-19 1.14087e-17
-8.50074e-19 -4.52845e-13 1.30515e-17
1.14087e-17 1.30515e-17 0.015141

SCALARS damage float
LOOKUP_TABLE default
0.564971
