# vtk DataFile Version 3.0
time 0.39
ASCII
DATASET UNSTRUCTURED_GRID
POINTS 8 float
0 0 0 1 0 0 1 1 0 
0 1 0 0 0 1 1 0 1 
1 1 1 0 1 1 

CELLS 1 9
8 0 1 2 3 4 5 6 7 

CELL_TYPES 1
12

POINT_DATA 8
VECTORS displacement float
0 0 0
-0.0531303 0 0
-0.0531303 -0.0531303 0
0 -0.0531303 0
0 0 0.195
-0.0531303 0 0.195
-0.0531303 -0.0531303 0.195
0 -0.0531303 0.195

CELL_DATA 1
SCALARS part_id int
LOOKUP_TABLE default
0
TENSORS stress float
-1.1387e-14 -4.64025e-18 1.2378e-17
-4.64025e-18 -1.13768e-14 6.43374e-18
1.2378e-17 6.43374e-18 0.0682451

SCALARS damage float
LOOKUP_TABLE default
0.642299
