# vtk DataFile Version 3.0
time 0.31
ASCII
DATASET UNSTRUCTURED_GRID
POINTS 8 float
0 0 0 1 0 0 1 1 0 
0 1 0 0 0 1 1 0 1 
1 1 1 0 1 1 

CELLS 1 9
8 0 1 2 3 4 5 6 7 

CELL_TYPES 1
12

POINT_DATA 8
VECTORS displacement float
0 0 0
-0.0430285 0 0
-0.0430285 -0.0430285 0
0 -0.0430285 0
0 0 0.155
-0.0430285 0 0.155
-0.0430285 -0.0430285 0.155
0 -0.0430285 0.155

CELL_DATA 1
SCALARS part_id int
LOOKUP_TABLE default
0
TENSORS stress float
-1.83961e-14 1.09283e-18 1.46406e-17
1.09283e-18 -1.83632e-14 7.4239e-18
1.46406e-17 7.4239e-18 0.0550642

SCALARS damage float
LOOKUP_TABLE default
0.637918
