# vtk DataFile Version 3.0
time 0.36
ASCII
DATASET UNSTRUCTURED_GRID
POINTS 8 float
0 0 0 1 0 0 1 1 0 
0 1 0 0 0 1 1 0 1 
1 1 1 0 1 1 

CELLS 1 9
8 0 1 2 3 4 5 6 7 

CELL_TYPES 1
12

POINT_DATA 8
VECTORS displacement float
0 0 0
-0.0493854 0 0
-0.0493854 -0.0493854 0
0 -0.0493854 0
0 0 0.18
-0.0493854 0 0.18
-0.0493854 -0.0493854 0.18
0 -0.0493854 0.18

CELL_DATA 1
SCALARS part_id int
LOOKUP_TABLE default
0
TENSORS stress float
-1.34788e-14 -1.02529e-17 9.94293e-18
-1.02529e-17 -1.34894e-14 4.27204e-19
9.94293e-18 4.27204e-19 0.0633055

SCALARS damage float
LOOKUP_TABLE default
0.640884
