# vtk DataFile Version 3.0
time 0.19
ASCII
DATASET UNSTRUCTURED_GRID
POINTS 8 float
0 0 0 1 0 0 1 1 0 
0 1 0 0 0 1 1 0 1 
1 1 1 0 1 1 

CELLS 1 9
8 0 1 2 3 4 5 6 7 

CELL_TYPES 1
12

POINT_DATA 8
VECTORS displacement float
0 0 0
-0.0271485 0 0
-0.0271485 -0.0271485 0
0 -0.0271485 0
0 0 0.095
-0.0271485 0 0.095
-0.0271485 -0.0271485 0.095
0 -0.0271485 0.095

CELL_DATA 1
SCALARS part_id int
LOOKUP_TABLE default
0
TENSORS stress float
-5.22244e-14 5.64514e-18 6.48631e-18
5.64514e-18 -5.22046e-14 1.39145e-17
6.48631e-18 1.39145e-17 0.0352042

SCALARS damage float
LOOKUP_TABLE default
0.62445
