# vtk DataFile Version 3.0
time 0.12
ASCII
DATASET UNSTRUCTURED_GRID
POINTS 8 float
0 0 0 1 0 0 1 1 0 
0 1 0 0 0 1 1 0 1 
1 1 1 0 1 1 

CELLS 1 9
8 0 1 2 3 4 5 6 7 

CELL_TYPES 1
12

POINT_DATA 8
VECTORS displacement float
0 0 0
-0.0174491 0 0
-0.0174491 -0.0174491 0
0 -0.0174491 0
0 0 0.06
-0.0174491 0 0.06
-0.0174491 -0.0174491 0.06
0 -0.0174491 0.06

CELL_DATA 1
SCALARS part_id int
LOOKUP_TABLE default
0
TENSORS stress float
-1.41455e-13 6.33928e-18 6.15507e-18
6.33928e-18 -1.41447e-13 1.19766e-17
6.15507e-18 1.19766e-17 0.0235345

SCALARS damage float
LOOKUP_TABLE default
0.604174
