# vtk DataFile Version 3.0
time 1
ASCII
DATASET UNSTRUCTURED_GRID
POINTS 8 float
0 0 0 1 0 0 1 1 0 
0 1 0 0 0 1 1 0 1 
1 1 1 0 1 1 

CELLS 1 9
8 0 1 2 3 4 5 6 7 

CELL_TYPES 1
12

POINT_DATA 8
VECTORS displacement float
0 0 0
-0.0543675 0 0
-0.0543675 -0.0543675 0
0 -0.0543675 0
0 0 0.2
-0.0543675 0 0.2
-0.0543675 -0.0543675 0.2
0 -0.0543675 0.2

CELL_DATA 1
SCALARS part_id int
LOOKUP_TABLE default
0
TENSORS stress float
-5.92376e-08 1.14176e-18 2.75287e-18
1.14176e-18 -5.92376e-08 8.05229e-18
2.75287e-18 8.05229e-18 0.0759744

