# vtk DataFile Version 3.0
time 1
ASCII
DATASET UNSTRUCTURED_GRID
POINTS 125 float
0 0 0 1 0 0 2 0 0 
3 0 0 4 0 0 0 1 0 
1 1 0 2 1 0 3 1 0 
4 1 0 0 2 0 1 2 0 
2 2 0 3 2 0 4 2 0 
0 3 0 1 3 0 2 3 0 
3 3 0 4 3 0 0 4 0 
1 4 0 2 4 0 3 4 0 
4 4 0 0 0 1 1 0 1 
2 0 1 3 0 1 4 0 1 
0 1 1 1 1 1 2 1 1 
3 1 1 4 1 1 0 2 1 
1 2 1 2 2 1 3 2 1 
4 2 1 0 3 1 1 3 1 
2 3 1 3 3 1 4 3 1 
0 4 1 1 4 1 2 4 1 
3 4 1 4 4 1 0 0 2 
1 0 2 2 0 2 3 0 2 
4 0 2 0 1 2 1 1 2 
2 1 2 3 1 2 4 1 2 
0 2 2 1 2 2 2 2 2 
3 2 2 4 2 2 0 3 2 
1 3 2 2 3 2 3 3 2 
4 3 2 0 4 2 1 4 2 
2 4 2 3 4 2 4 4 2 
0 0 3 1 0 3 2 0 3 
3 0 3 4 0 3 0 1 3 
1 1 3 2 1 3 3 1 3 
4 1 3 0 2 3 1 2 3 
2 2 3 3 2 3 4 2 3 
0 3 3 1 3 3 2 3 3 
3 3 3 4 3 3 0 4 3 
1 4 3 2 4 3 3 4 3 
4 4 3 0 0 4 1 0 4 
2 0 4 3 0 4 4 0 4 
0 1 4 1 1 4 2 1 4 
3 1 4 4 1 4 0 2 4 
1 2 4 2 2 4 3 2 4 
4 2 4 0 3 4 1 3 4 
2 3 4 3 3 4 4 3 4 
0 4 4 1 4 4 2 4 4 
3 4 4 4 4 4 

CELLS 64 576
8 0 1 6 5 25 26 31 30 
8 1 2 7 6 26 27 32 31 
8 2 3 8 7 27 28 33 32 
8 3 4 9 8 28 29 34 33 
8 5 6 11 10 30 31 36 35 
8 6 7 12 11 31 32 37 36 
8 7 8 13 12 32 33 38 37 
8 8 9 14 13 33 34 39 38 
8 10 11 16 15 35 36 41 40 
8 11 12 17 16 36 37 42 41 
8 12 13 18 17 37 38 43 42 
8 13 14 19 18 38 39 44 43 
8 15 16 21 20 40 41 46 45 
8 16 17 22 21 41 42 47 46 
8 17 18 23 22 42 43 48 47 
8 18 19 24 23 43 44 49 48 
8 25 26 31 30 50 51 56 55 
8 26 27 32 31 51 52 57 56 
8 27 28 33 32 52 53 58 57 
8 28 29 34 33 53 54 59 58 
8 30 31 36 35 55 56 61 60 
8 31 32 37 36 56 57 62 61 
8 32 33 38 37 57 58 63 62 
8 33 34 39 38 58 59 64 63 
8 35 36 41 40 60 61 66 65 
8 36 37 42 41 61 62 67 66 
8 37 38 43 42 62 63 68 67 
8 38 39 44 43 63 64 69 68 
8 40 41 46 45 65 66 71 70 
8 41 42 47 46 66 67 72 71 
8 42 43 48 47 67 68 73 72 
8 43 44 49 48 68 69 74 73 
8 50 51 56 55 75 76 81 80 
8 51 52 57 56 76 77 82 81 
8 52 53 58 57 77 78 83 82 
8 53 54 59 58 78 79 84 83 
8 55 56 61 60 80 81 86 85 
8 56 57 62 61 81 82 87 86 
8 57 58 63 62 82 83 88 87 
8 58 59 64 63 83 84 89 88 
8 60 61 66 65 85 86 91 90 
8 61 62 67 66 86 87 92 91 
8 62 63 68 67 87 88 93 92 
8 63 64 69 68 88 89 94 93 
8 65 66 71 70 90 91 96 95 
8 66 67 72 71 91 92 97 96 
8 67 68 73 72 92 93 98 97 
8 68 69 74 73 93 94 99 98 
8 75 76 81 80 100 101 106 105 
8 76 77 82 81 101 102 107 106 
8 77 78 83 82 102 103 108 107 
8 78 79 84 83 103 104 109 108 
8 80 81 86 85 105 106 111 110 
8 81 82 87 86 106 107 112 111 
8 82 83 88 87 107 108 113 112 
8 83 84 89 88 108 109 114 113 
8 85 86 91 90 110 111 116 115 
8 86 87 92 91 111 112 117 116 
8 87 88 93 92 112 113 118 117 
8 88 89 94 93 113 114 119 118 
8 90 91 96 95 115 116 121 120 
8 91 92 97 96 116 117 122 121 
8 92 93 98 97 117 118 123 122 
8 93 94 99 98 118 119 124 123 

CELL_TYPES 64
12
12
12
12
12
12
12
12
12
12
12
12
12
12
12
12
12
12
12
12
12
12
12
12
12
12
12
12
12
12
12
12
12
12
12
12
12
12
12
12
12
12
12
12
12
12
12
12
12
12
12
12
12
12
12
12
12
12
12
12
12
12
12
12

POINT_DATA 125
VECTORS displacement float
0 0 0
-0.0209752 0 0
-0.0358522 0 0
-0.0431581 0 0
-0.0449335 0 0
0 -0.00955567 0
-0.0216332 -0.00848605 0
-0.0369856 -0.00580937 0
-0.0445448 -0.00248817 0
-0.0464526 0.000790602 0
0 -0.0180197 0
-0.0238133 -0.0160847 0
-0.0406412 -0.0111782 0
-0.0489165 -0.00488033 0
-0.0511612 0.00166281 0
0 -0.0246364 0
-0.0279076 -0.0222596 0
-0.0472744 -0.0158459 0
-0.0565926 -0.00718214 0
-0.0592501 0.0023671 0
0 -0.0298341 0
-0.033423 -0.0273011 0
-0.0563811 -0.0200786 0
-0.0672466 -0.00948186 0
-0.0703627 0.00257093 0
0 0 0.0400704
-0.0207894 0 0.034434
-0.0344305 0 0.0218483
-0.0402923 0 0.00875926
-0.0413297 0 -0.00151165
0 -0.0108066 0.0399969
-0.0214329 -0.0095037 0.0344066
-0.035546 -0.00635959 0.0219255
-0.0416716 -0.00270955 0.00890144
-0.0428515 0.000688185 -0.00135074
0 -0.020739 0.0403548
-0.0236034 -0.0182865 0.0347396
-0.0392036 -0.0123329 0.0222787
-0.0461006 -0.00530075 0.00932116
-0.047648 0.00155352 -0.000836478
0 -0.0290265 0.0427746
-0.0279433 -0.0257019 0.0366823
-0.0461495 -0.0176251 0.0233147
-0.0541184 -0.00773008 0.00999734
-0.0560596 0.00243051 7.37628e-05
0 -0.0358947 0.0503935
-0.0347291 -0.0321331 0.0424034
-0.0565391 -0.0223646 0.026134
-0.0656533 -0.0101431 0.0109374
-0.0678979 0.00304864 0.000723378
0 0 0.0915549
-0.0198813 0 0.0748102
-0.0283634 0 0.0425396
-0.0296032 0 0.0155774
-0.0283552 0 -0.00534861
0 -0.014458 0.0915396
-0.0204506 -0.0122603 0.0748392
-0.0293938 -0.00767639 0.0427154
-0.03093 -0.00324871 0.01585
-0.0298604 0.000413843 -0.00507211
0 -0.0293649 0.092179
-0.0224209 -0.0247423 0.0753848
-0.0329325 -0.0152053 0.0434351
-0.0354203 -0.00628074 0.0166793
-0.0348246 0.00128275 -0.00423123
0 -0.0444994 0.0972381
-0.0269988 -0.036898 0.0788142
-0.040432 -0.0222407 0.0453458
-0.0442346 -0.00891271 0.0179116
-0.0440271 0.00251395 -0.00292242
0 -0.0596239 0.115459
-0.037843 -0.0481769 0.091998
-0.0548018 -0.0286784 0.0497355
-0.0578261 -0.0112775 0.0193215
-0.0572527 0.00358288 -0.00196069
0 0 0.182859
-0.0110941 0 0.135071
-0.012244 0 0.0575835
-0.00566045 0 0.0176335
-0.00398078 0 -0.0096132
0 -0.0202117 0.182972
-0.0114828 -0.0161641 0.135334
-0.0131686 -0.00869553 0.0579614
-0.00686758 -0.00386826 0.01798
-0.00540982 3.82087e-07 -0.00932643
0 -0.043936 0.183728
-0.0127641 -0.0345395 0.13665
-0.0164002 -0.0176062 0.0592091
-0.0112002 -0.00729778 0.0190745
-0.0104284 0.000934798 -0.00843969
0 -0.0743511 0.189045
-0.0160941 -0.0573812 0.140863
-0.0237522 -0.0261281 0.0620336
-0.0206794 -0.00967356 0.0206028
-0.0202453 0.00252127 -0.00722425
0 -0.104741 0.213148
-0.0335489 -0.0861752 0.162373
-0.0428247 -0.0330755 0.0653328
-0.0359598 -0.0117525 0.021537
-0.0341205 0.0036904 -0.00653198
0 0 0.3
0.0265557 0 0.3
0.0301442 0 0.054858
0.0284099 0 0.0198077
0.0273352 0 -0.0118897
0 -0.0233661 0.3
0.02656 -0.0193221 0.3
0.0294101 -0.00919616 0.0554732
0.0273894 -0.00454628 0.0201707
0.0260605 -0.000446606 -0.0117411
0 -0.0522124 0.3
0.0267387 -0.042402 0.3
0.0267863 -0.0187756 0.0575146
0.0235676 -0.00840284 0.0212103
0.0212544 0.000407047 -0.0110665
0 -0.0933988 0.3
0.0273089 -0.0741836 0.3
0.0208711 -0.0273258 0.0609978
0.0144033 -0.0100612 0.0225927
0.0111755 0.00244431 -0.00998561
0 -0.137287 0.3
0.00829777 -0.124771 0.3
0.00232445 -0.030196 0.0630806
-0.00107812 -0.0100106 0.0220724
-0.00285138 0.00403864 -0.00956553

CELL_DATA 64
SCALARS part_id int
LOOKUP_TABLE default
0
0
0
0
0
0
0
0
0
0
0
0
0
0
0
0
0
0
0
0
0
0
0
0
0
0
0
0
0
0
0
0
0
0
0
0
0
0
0
0
0
0
0
0
0
0
0
0
0
0
0
0
0
0
0
0
0
0
0
0
0
0
0
0
TENSORS stress float
-0.00481427 3.60461e-05 -0.000376747
3.60461e-05 -0.0015517 -8.74197e-05
-0.000376747 -8.74197e-05 0.0119588

-0.00356762 9.35458e-05 -0.000915357
9.35458e-05 -0.00117183 -6.80005e-05
-0.000915357 -6.80005e-05 0.0111754

-0.00178474 0.000112351 -0.00100435
0.000112351 -0.000618887 -3.5038e-05
-0.00100435 -3.5038e-05 0.00858535

-0.000398572 6.94334e-05 -0.000596711
6.94334e-05 5.7404e-06 -4.37094e-06
-0.000596711 -4.37094e-06 0.0028793

-0.005241 7.84405e-05 -0.000371012
7.84405e-05 -0.00137058 -0.000238992
-0.000371012 -0.000238992 0.0118038

-0.00391294 0.00020108 -0.000899864
0.00020108 -0.00100376 -0.000189322
-0.000899864 -0.000189322 0.011098

-0.00199339 0.000235324 -0.000990358
0.000235324 -0.000484403 -9.94117e-05
-0.000990358 -9.94117e-05 0.00864125

-0.00045045 0.000138276 -0.000595215
0.000138276 0.000189367 -9.49392e-07
-0.000595215 -9.49392e-07 0.00315693

-0.00598545 4.49086e-05 -0.000381263
4.49086e-05 -0.000990603 -0.000302615
-0.000381263 -0.000302615 0.0116288

-0.0044851 0.000115728 -0.000931954
0.000115728 -0.000659137 -0.000247613
-0.000931954 -0.000247613 0.0110618

-0.00230914 0.000133365 -0.0010283
0.000133365 -0.000238175 -0.00013807
-0.0010283 -0.00013807 0.0088073

-0.000522211 6.45086e-05 -0.000625422
6.45086e-05 0.000363302 3.5059e-05
-0.000625422 3.5059e-05 0.00366295

-0.00666744 -2.45902e-05 -0.000465569
-2.45902e-05 -0.000568751 -0.000194073
-0.000465569 -0.000194073 0.01176

-0.00501041 -4.40733e-05 -0.00113049
-4.40733e-05 -0.000283722 -0.000170973
-0.00113049 -0.000170973 0.011283

-0.00260333 -4.15296e-05 -0.00126013
-4.15296e-05 1.108e-05 -0.000104162
-0.00126013 -0.000104162 0.00915788

-0.00061778 -2.50021e-05 -0.000791188
-2.50021e-05 0.000371819 5.79044e-05
-0.000791188 5.79044e-05 0.00419525

-0.00280238 6.76912e-05 -0.0012889
6.76912e-05 -0.000633077 -0.000210244
-0.0012889 -0.000210244 0.0138602

-0.00136295 0.000168344 -0.00290723
0.000168344 -0.000568143 -0.000160357
-0.00290723 -0.000160357 0.0120393

-2.57157e-05 0.000187397 -0.00264913
0.000187397 -0.00058053 -7.89148e-05
-0.00264913 -7.89148e-05 0.00825336

0.000263128 0.000108113 -0.00119229
0.000108113 -0.000555353 -5.80961e-06
-0.00119229 -5.80961e-06 0.00123414

-0.00328376 0.000187612 -0.00126987
0.000187612 -0.000748308 -0.000634073
-0.00126987 -0.000634073 0.0136207

-0.00179239 0.000451679 -0.00285128
0.000451679 -0.000603591 -0.000479637
-0.00285128 -0.000479637 0.0119036

-0.000316743 0.00045413 -0.00260152
0.00045413 -0.000496577 -0.000224766
-0.00260152 -0.000224766 0.00829744

0.000181614 0.000226122 -0.00119145
0.000226122 -0.000278889 1.80169e-05
-0.00119145 1.80169e-05 0.00148981

-0.00419747 0.0002509 -0.00129494
0.0002509 -0.000784114 -0.000925107
-0.00129494 -0.000925107 0.0132616

-0.0025585 0.000539889 -0.00288506
0.000539889 -0.000516284 -0.000701807
-0.00288506 -0.000701807 0.0117118

-0.000776574 0.000436351 -0.00267911
0.000436351 -0.000279665 -0.00032064
-0.00267911 -0.00032064 0.00841003

6.29377e-05 0.000121584 -0.00129341
0.000121584 3.07943e-05 0.000104124
-0.00129341 0.000104124 0.00187908

-0.00527574 0.000196534 -0.00152412
0.000196534 -0.000609598 -0.000693271
-0.00152412 -0.000693271 0.013181

-0.00318415 0.000295882 -0.0034613
0.000295882 -0.000192743 -0.000524945
-0.0034613 -0.000524945 0.0116882

-0.000859899 0.000145451 -0.00328374
0.000145451 8.17919e-05 -0.000271229
-0.00328374 -0.000271229 0.008604

7.79503e-05 -4.75782e-05 -0.00169538
-4.75782e-05 0.000148661 0.000123752
-0.00169538 0.000123752 0.0022298

0.00245565 0.000104625 -0.00218504
0.000104625 0.0024704 -0.000207501
-0.00218504 -0.000207501 0.0179167

0.00230143 0.000276329 -0.00504115
0.000276329 0.000894619 -0.000144615
-0.00504115 -0.000144615 0.0130271

0.00338033 0.000297524 -0.0032254
0.000297524 -0.000798628 -4.89091e-05
-0.0032254 -4.89091e-05 0.00652858

0.000722991 0.000176817 1.82128e-05
0.000176817 -0.00157491 -2.80272e-06
1.82128e-05 -2.80272e-06 -0.000966387

0.0020008 0.000336125 -0.00215276
0.000336125 0.00193839 -0.000692957
-0.00215276 -0.000692957 0.017706

0.0017911 0.000853059 -0.004965
0.000853059 0.00054595 -0.000469795
-0.004965 -0.000469795 0.0128696

0.00297858 0.000800967 -0.00317384
0.000800967 -0.000782861 -0.000132352
-0.00317384 -0.000132352 0.00657882

0.000596432 0.000389923 2.42292e-05
0.000389923 -0.00109085 5.96822e-05
2.42292e-05 5.96822e-05 -0.000772175

0.000932606 0.000599649 -0.0021468
0.000599649 0.000909625 -0.00130282
-0.0021468 -0.00130282 0.0171644

0.000705081 0.00144343 -0.0048913
0.00144343 -1.26294e-05 -0.000851149
-0.0048913 -0.000851149 0.0124701

0.00222039 0.000971077 -0.00327779
0.000971077 -0.000533716 -0.000139321
-0.00327779 -0.000139321 0.00671782

0.000466859 0.000182566 -0.000113093
0.000182566 -0.000472253 0.000193033
-0.000113093 0.000193033 -0.000501402

-0.00123211 0.000464728 -0.00237238
0.000464728 -1.80544e-05 -0.00138443
-0.00237238 -0.00138443 0.0164832

-0.000210831 0.00148522 -0.00558057
0.00148522 -0.00023381 -0.000929516
-0.00558057 -0.000929516 0.0118976

0.00261558 0.000390796 -0.00400703
0.000390796 0.000173762 -0.000114714
-0.00400703 -0.000114714 0.00680957

0.000769387 -0.000174856 -0.000504117
-0.000174856 -0.000339695 0.000135695
-0.000504117 0.000135695 -0.00048467

0.00906632 9.01213e-05 -0.000164657
9.01213e-05 0.0065048 -8.25252e-05
-0.000164657 -8.25252e-05 0.0224621

0.00574443 0.000239538 -0.00702398
0.000239538 0.00395661 -7.80222e-05
-0.00702398 -7.80222e-05 0.0162074

0.000452718 0.000416671 0.000167575
0.000416671 -0.00523546 1.09527e-05
0.000167575 1.09527e-05 -0.00101466

-0.000108314 0.000255496 0.00109149
0.000255496 -0.00208438 -1.85734e-05
0.00109149 -1.85734e-05 -0.00037811

0.00881243 0.000309814 -0.000134437
0.000309814 0.00590471 -0.000288378
-0.000134437 -0.000288378 0.0223523

0.00534303 0.000791061 -0.00698831
0.000791061 0.00356346 -0.00026246
-0.00698831 -0.00026246 0.0160793

-6.27993e-05 0.00119473 0.000173655
0.00119473 -0.00521323 5.62643e-05
0.000173655 5.62643e-05 -0.000961629

-0.000332681 0.000591249 0.00111892
0.000591249 -0.0013727 1.65997e-05
0.00111892 1.65997e-05 -0.00030964

0.00816007 0.000643072 -7.70319e-05
0.000643072 0.00447974 -0.00063105
-7.70319e-05 -0.00063105 0.0219496

0.00435771 0.00159647 -0.00690231
0.00159647 0.00277195 -0.000541407
-0.00690231 -0.000541407 0.0156843

-0.00126247 0.00167158 6.21457e-05
0.00167158 -0.00462731 0.000233325
6.21457e-05 0.000233325 -0.000859906

-0.000560087 0.000266385 0.00110303
0.000266385 -0.000236529 0.000160851
0.00110303 0.000160851 -0.00013336

0.00568157 0.000438454 -0.000114347
0.000438454 0.0019622 -0.00108754
-0.000114347 -0.00108754 0.0206068

0.00318483 0.0023915 -0.00719771
0.0023915 0.00166084 -0.0010026
-0.00719771 -0.0010026 0.0144935

-1.73734e-05 0.000579961 -0.000409836
0.000579961 -0.00237313 0.000454827
-0.000409836 0.000454827 -0.000158013

-9.63899e-05 -0.0003885 0.00108213
-0.0003885 0.000131401 0.000131952
0.00108213 0.000131952 -0.000334557

