# vtk DataFile Version 3.0
time 1
ASCII
DATASET UNSTRUCTURED_GRID
POINTS 125 float
0 0 0 1 0 0 2 0 0 
3 0 0 4 0 0 0 1 0 
1 1 0 2 1 0 3 1 0 
4 1 0 0 2 0 1 2 0 
2 2 0 3 2 0 4 2 0 
0 3 0 1 3 0 2 3 0 
3 3 0 4 3 0 0 4 0 
1 4 0 2 4 0 3 4 0 
4 4 0 0 0 1 1 0 1 
2 0 1 3 0 1 4 0 1 
0 1 1 1 1 1 2 1 1 
3 1 1 4 1 1 0 2 1 
1 2 1 2 2 1 3 2 1 
4 2 1 0 3 1 1 3 1 
2 3 1 3 3 1 4 3 1 
0 4 1 1 4 1 2 4 1 
3 4 1 4 4 1 0 0 2 
1 0 2 2 0 2 3 0 2 
4 0 2 0 1 2 1 1 2 
2 1 2 3 1 2 4 1 2 
0 2 2 1 2 2 2 2 2 
3 2 2 4 2 2 0 3 2 
1 3 2 2 3 2 3 3 2 
4 3 2 0 4 2 1 4 2 
2 4 2 3 4 2 4 4 2 
0 0 3 1 0 3 2 0 3 
3 0 3 4 0 3 0 1 3 
1 1 3 2 1 3 3 1 3 
4 1 3 0 2 3 1 2 3 
2 2 3 3 2 3 4 2 3 
0 3 3 1 3 3 2 3 3 
3 3 3 4 3 3 0 4 3 
1 4 3 2 4 3 3 4 3 
4 4 3 0 0 4 1 0 4 
2 0 4 3 0 4 4 0 4 
0 1 4 1 1 4 2 1 4 
3 1 4 4 1 4 0 2 4 
1 2 4 2 2 4 3 2 4 
4 2 4 0 3 4 1 3 4 
2 3 4 3 3 4 4 3 4 
0 4 4 1 4 4 2 4 4 
3 4 4 4 4 4 

CELLS 64 576
8 0 1 6 5 25 26 31 30 
8 1 2 7 6 26 27 32 31 
8 2 3 8 7 27 28 33 32 
8 3 4 9 8 28 29 34 33 
8 5 6 11 10 30 31 36 35 
8 6 7 12 11 31 32 37 36 
8 7 8 13 12 32 33 38 37 
8 8 9 14 13 33 34 39 38 
8 10 11 16 15 35 36 41 40 
8 11 12 17 16 36 37 42 41 
8 12 13 18 17 37 38 43 42 
8 13 14 19 18 38 39 44 43 
8 15 16 21 20 40 41 46 45 
8 16 17 22 21 41 42 47 46 
8 17 18 23 22 42 43 48 47 
8 18 19 24 23 43 44 49 48 
8 25 26 31 30 50 51 56 55 
8 26 27 32 31 51 52 57 56 
8 27 28 33 32 52 53 58 57 
8 28 29 34 33 53 54 59 58 
8 30 31 36 35 55 56 61 60 
8 31 32 37 36 56 57 62 61 
8 32 33 38 37 57 58 63 62 
8 33 34 39 38 58 59 64 63 
8 35 36 41 40 60 61 66 65 
8 36 37 42 41 61 62 67 66 
8 37 38 43 42 62 63 68 67 
8 38 39 44 43 63 64 69 68 
8 40 41 46 45 65 66 71 70 
8 41 42 47 46 66 67 72 71 
8 42 43 48 47 67 68 73 72 
8 43 44 49 48 68 69 74 73 
8 50 51 56 55 75 76 81 80 
8 51 52 57 56 76 77 82 81 
8 52 53 58 57 77 78 83 82 
8 53 54 59 58 78 79 84 83 
8 55 56 61 60 80 81 86 85 
8 56 57 62 61 81 82 87 86 
8 57 58 63 62 82 83 88 87 
8 58 59 64 63 83 84 89 88 
8 60 61 66 65 85 86 91 90 
8 61 62 67 66 86 87 92 91 
8 62 63 68 67 87 88 93 92 
8 63 64 69 68 88 89 94 93 
8 65 66 71 70 90 91 96 95 
8 66 67 72 71 91 92 97 96 
8 67 68 73 72 92 93 98 97 
8 68 69 74 73 93 94 99 98 
8 75 76 81 80 100 101 106 105 
8 76 77 82 81 101 102 107 106 
8 77 78 83 82 102 103 108 107 
8 78 79 84 83 103 104 109 108 
8 80 81 86 85 105 106 111 110 
8 81 82 87 86 106 107 112 111 
8 82 83 88 87 107 108 113 112 
8 83 84 89 88 108 109 114 113 
8 85 86 91 90 110 111 116 115 
8 86 87 92 91 111 112 117 116 
8 87 88 93 92 112 113 118 117 
8 88 89 94 93 113 114 119 118 
8 90 91 96 95 115 116 121 120 
8 91 92 97 96 116 117 122 121 
8 92 93 98 97 117 118 123 122 
8 93 94 99 98 118 119 124 123 

CELL_TYPES 64
12
12
12
12
12
12
12
12
12
12
12
12
12
12
12
12
12
12
12
12
12
12
12
12
12
12
12
12
12
12
12
12
12
12
12
12
12
12
12
12
12
12
12
12
12
12
12
12
12
12
12
12
12
12
12
12
12
12
12
12
12
12
12
12

POINT_DATA 125
VECTORS displacement float
0 0 0
-0.015117 0 0
-0.0260494 0 0
-0.0315436 0 0
-0.0328487 0 0
0 -0.00690983 0
-0.0155369 -0.0061625 0
-0.026785 -0.00427501 0
-0.0324581 -0.00192159 0
-0.0338668 0.000356037 0
0 -0.0131376 0
-0.0169478 -0.0117613 0
-0.0291948 -0.00825628 0
-0.035387 -0.00375887 0
-0.0370648 0.000832486 0
0 -0.0182047 0
-0.0196625 -0.0164548 0
-0.033679 -0.01177 0
-0.0406649 -0.00550796 0
-0.0426834 0.00128393 0
0 -0.0223666 0
-0.0235296 -0.0204244 0
-0.0401176 -0.014998 0
-0.0482329 -0.00723016 0
-0.0505899 0.00144166 0
0 0 0.0294609
-0.0149487 0 0.0255658
-0.0250203 0 0.0164458
-0.0294369 0 0.00662864
-0.0301731 0 -0.00110188
0 -0.00774449 0.0294037
-0.0153552 -0.00685141 0.0255442
-0.0257397 -0.004662 0.0165025
-0.0303441 -0.00208598 0.00673197
-0.0311918 0.000275655 -0.000984778
0 -0.0149237 0.0296113
-0.0167548 -0.0132295 0.0257592
-0.0281465 -0.00905633 0.0167644
-0.0333104 -0.00406683 0.00704266
-0.034449 0.000743972 -0.00060878
0 -0.0210425 0.0311366
-0.0196389 -0.0187187 0.0270462
-0.0328456 -0.0129813 0.0175269
-0.0388264 -0.00589856 0.00755574
-0.0402923 0.00132306 5.58795e-05
0 -0.0262183 0.0360373
-0.024329 -0.023566 0.0308275
-0.040133 -0.0165295 0.0195043
-0.0470061 -0.00768154 0.0082412
-0.0487101 0.00179436 0.00051952
0 0 0.0660276
-0.0143422 0 0.0547896
-0.02056 0 0.0319542
-0.0215593 0 0.0117645
-0.020442 0 -0.00402579
0 -0.0101036 0.0659674
-0.0146874 -0.00869173 0.0547844
-0.0212102 -0.00561486 0.032076
-0.0224229 -0.00249503 0.01196
-0.0214469 6.0109e-05 -0.00382342
0 -0.0204618 0.0662493
-0.0159395 -0.0175062 0.0550879
-0.0235193 -0.0110957 0.0325963
-0.0254198 -0.00480042 0.0125628
-0.024819 0.000521369 -0.00320418
0 -0.0308194 0.0693849
-0.0190303 -0.0259911 0.0573012
-0.0286346 -0.0161881 0.0340051
-0.031496 -0.00677197 0.0134754
-0.0312254 0.00135877 -0.00223759
0 -0.0410728 0.0810812
-0.0263874 -0.0336991 0.065819
-0.038602 -0.0208292 0.0371591
-0.0411278 -0.00848496 0.0145181
-0.0406377 0.0021637 -0.00154244
0 0 0.125419
-0.00795027 0 0.0942761
-0.00900069 0 0.0433636
-0.00355887 0 0.0131779
-0.00207536 0 -0.00722609
0 -0.0137478 0.12551
-0.00818902 -0.0111343 0.094458
-0.00955309 -0.00644226 0.04361
-0.00433231 -0.00298012 0.0134278
-0.00302393 -0.000263835 -0.0070177
0 -0.0297749 0.126065
-0.00901145 -0.0236912 0.0953562
-0.0115661 -0.0129973 0.0444574
-0.00720531 -0.00559337 0.0142306
-0.00643792 0.000234814 -0.00636516
0 -0.0500189 0.129786
-0.0113671 -0.039049 0.0981784
-0.0164896 -0.0191766 0.0464967
-0.0137711 -0.00737002 0.0153778
-0.0132996 0.00133335 -0.00546473
0 -0.0697712 0.146229
-0.023136 -0.0576316 0.112306
-0.0299553 -0.0240872 0.0489815
-0.0247074 -0.00891414 0.0160989
-0.0231992 0.0022305 -0.00499051
0 0 0.2
0.0200735 0 0.2
0.0237126 0 0.0409922
0.0222319 0 0.01494
0.0215004 0 -0.00884667
0 -0.0158855 0.2
0.0200481 -0.013192 0.2
0.0232749 -0.00685547 0.0414221
0.0215866 -0.00349477 0.0151992
0.0206658 -0.000612876 -0.0087455
0 -0.0353774 0.2
0.0200439 -0.0288077 0.2
0.0216279 -0.0139797 0.0428805
0.0190702 -0.00645538 0.0159561
0.0174045 -0.00019017 -0.00825903
0 -0.0628104 0.2
0.0199426 -0.0500819 0.2
0.0177457 -0.0203199 0.0454725
0.0127149 -0.00770955 0.0170075
0.0103408 0.00123576 -0.00747971
0 -0.091324 0.2
0.00659301 -0.0830854 0.2
0.00425948 -0.0224293 0.0474152
0.00164744 -0.00757611 0.016574
0.000356936 0.00243152 -0.00721283

CELL_DATA 64
SCALARS part_id int
LOOKUP_TABLE default
0
0
0
0
0
0
0
0
0
0
0
0
0
0
0
0
0
0
0
0
0
0
0
0
0
0
0
0
0
0
0
0
0
0
0
0
0
0
0
0
0
0
0
0
0
0
0
0
0
0
0
0
0
0
0
0
0
0
0
0
0
0
0
0
TENSORS stress float
-0.00402571 3.42347e-05 -0.000317626
3.42347e-05 -0.00114744 -7.18296e-05
-0.000317626 -7.18296e-05 0.0109932

-0.00296699 8.89551e-05 -0.000787502
8.89551e-05 -0.000854765 -5.46663e-05
-0.000787502 -5.46663e-05 0.00999608

-0.00144882 0.00010679 -0.000855293
0.00010679 -0.000466787 -2.71725e-05
-0.000855293 -2.71725e-05 0.00725982

-0.000314884 6.5388e-05 -0.000484981
6.5388e-05 -0.000132251 -3.53284e-06
-0.000484981 -3.53284e-06 0.00226473

-0.00437614 7.82663e-05 -0.000312205
7.82663e-05 -0.00101088 -0.000194783
-0.000312205 -0.000194783 0.010879

-0.00325159 0.000200907 -0.000773438
0.000200907 -0.000728466 -0.000150324
-0.000773438 -0.000150324 0.00994462

-0.0016199 0.00023601 -0.000844223
0.00023601 -0.000359159 -7.53244e-05
-0.000844223 -7.53244e-05 0.00731667

-0.000356155 0.00013993 -0.000483632
0.00013993 4.3565e-05 -2.93484e-07
-0.000483632 -2.93484e-07 0.00249028

-0.00503078 5.77606e-05 -0.000319187
5.77606e-05 -0.000730668 -0.00024408
-0.000319187 -0.00024408 0.0107641

-0.00375531 0.000149708 -0.000797249
0.000149708 -0.000474324 -0.000192271
-0.000797249 -0.000192271 0.00994526

-0.00190112 0.000173001 -0.000875047
0.000173001 -0.00016806 -9.97064e-05
-0.000875047 -9.97064e-05 0.0074756

-0.000420873 9.18996e-05 -0.000506976
9.18996e-05 0.000233334 2.98504e-05
-0.000506976 2.98504e-05 0.00290211

-0.00575017 -5.96709e-06 -0.000386717
-5.96709e-06 -0.000431661 -0.000149636
-0.000386717 -0.000149636 0.0109013

-0.00430133 6.71156e-06 -0.000956339
6.71156e-06 -0.000207867 -0.000126536
-0.000956339 -0.000126536 0.0101833

-0.00219405 1.46077e-05 -0.00105941
1.46077e-05 2.12416e-05 -7.00827e-05
-0.00105941 -7.00827e-05 0.00780612

-0.000504614 1.20678e-06 -0.000632869
1.20678e-06 0.000286434 4.92599e-05
-0.000632869 4.92599e-05 0.00333593

-0.00250869 5.90423e-05 -0.00111267
5.90423e-05 -0.000491529 -0.000175886
-0.00111267 -0.000175886 0.0125909

-0.00115242 0.000148253 -0.00251723
0.000148253 -0.000407944 -0.000132267
-0.00251723 -0.000132267 0.0107297

-3.13583e-05 0.000166379 -0.00225757
0.000166379 -0.00046837 -6.33643e-05
-0.00225757 -6.33643e-05 0.00690886

0.000233223 9.50471e-05 -0.000976646
9.50471e-05 -0.000579124 -5.46037e-06
-0.000976646 -5.46037e-06 0.00091245

-0.00291058 0.000161803 -0.00109337
0.000161803 -0.000587904 -0.000526443
-0.00109337 -0.000526443 0.0123942

-0.00150729 0.000396027 -0.0024656
0.000396027 -0.000435055 -0.000390545
-0.0024656 -0.000390545 0.0106266

-0.000264308 0.000406479 -0.00221885
0.000406479 -0.000390769 -0.000175167
-0.00221885 -0.000175167 0.00695314

0.000169677 0.000207268 -0.000973976
0.000207268 -0.000330246 1.34388e-05
-0.000973976 1.34388e-05 0.0011186

-0.00370701 0.000209753 -0.00111136
0.000209753 -0.000612839 -0.000750574
-0.00111136 -0.000750574 0.0121117

-0.00216363 0.000466283 -0.00248912
0.000466283 -0.000359862 -0.000555151
-0.00248912 -0.000555151 0.0105003

-0.000648398 0.000400358 -0.00228652
0.000400358 -0.0002085 -0.000236842
-0.00228652 -0.000236842 0.00706633

6.89361e-05 0.000136209 -0.00105037
0.000136209 -3.46484e-05 8.42497e-05
-0.00105037 8.42497e-05 0.00143474

-0.00475283 0.000157906 -0.00131034
0.000157906 -0.000492483 -0.000522918
-0.00131034 -0.000522918 0.012061

-0.00279955 0.000241961 -0.00296883
0.000241961 -0.000112196 -0.000387769
-0.00296883 -0.000387769 0.0105533

-0.000785244 0.000152031 -0.00277966
0.000152031 7.61685e-05 -0.000186293
-0.00277966 -0.000186293 0.00727509

6.62201e-05 -1.58002e-05 -0.00135806
-1.58002e-05 0.000110666 0.000102438
-0.00135806 0.000102438 0.00172858

0.00182951 9.61987e-05 -0.00199185
9.61987e-05 0.00193434 -0.000178481
-0.00199185 -0.000178481 0.0160423

0.00184713 0.000240542 -0.00441728
0.000240542 0.000557646 -0.000121894
-0.00441728 -0.000121894 0.0114838

0.00293865 0.000256207 -0.00275915
0.000256207 -0.000600529 -4.56437e-05
-0.00275915 -4.56437e-05 0.00538613

0.000583792 0.000147684 2.78843e-05
0.000147684 -0.00139712 -4.30746e-06
2.78843e-05 -4.30746e-06 -0.000897705

0.00143837 0.000305862 -0.0019565
0.000305862 0.00146969 -0.000594261
-0.0019565 -0.000594261 0.0158505

0.00142551 0.000736319 -0.00434448
0.000736319 0.000271585 -0.000391641
-0.00434448 -0.000391641 0.0113636

0.00261009 0.000688838 -0.00270891
0.000688838 -0.000573168 -0.000119057
-0.00270891 -0.000119057 0.00542306

0.000485208 0.000333007 3.45489e-05
0.000333007 -0.000984396 4.3419e-05
3.45489e-05 4.3419e-05 -0.000738742

0.000491148 0.000531043 -0.0019456
0.000531043 0.000590995 -0.00110083
-0.0019456 -0.00110083 0.0153609

0.000510107 0.00121768 -0.0042737
0.00121768 -0.000170019 -0.000692629
-0.0042737 -0.000692629 0.0110662

0.00198134 0.000827787 -0.00278348
0.000827787 -0.00035489 -0.000113434
-0.00278348 -0.000113434 0.0055377

0.000374689 0.000184946 -6.96578e-05
0.000184946 -0.00044677 0.000153137
-6.96578e-05 0.000153137 -0.000514372

-0.00142902 0.000398041 -0.00215434
0.000398041 -0.000108254 -0.00108139
-0.00215434 -0.00108139 0.0147656

-0.000355525 0.00118668 -0.0049137
0.00118668 -0.000301905 -0.000697967
-0.0049137 -0.000697967 0.0106554

0.00220525 0.000326724 -0.00339296
0.000326724 0.000204827 -7.74016e-05
-0.00339296 -7.74016e-05 0.00563517

0.000585679 -0.000110146 -0.000381204
-0.000110146 -0.000293465 0.000110318
-0.000381204 0.000110318 -0.000485236

0.00843941 8.26034e-05 -7.90933e-05
8.26034e-05 0.00589971 -7.20834e-05
-7.90933e-05 -7.20834e-05 0.0199569

0.00518769 0.00021711 -0.00618916
0.00021711 0.00330968 -5.72163e-05
-0.00618916 -5.72163e-05 0.013943

0.000291927 0.000347089 0.000322146
0.000347089 -0.00425172 4.27879e-06
0.000322146 4.27879e-06 -0.00104461

-9.89251e-05 0.000207273 0.00089955
0.000207273 -0.00178067 -1.49025e-05
0.00089955 -1.49025e-05 -0.000319741

0.00820033 0.000284031 -5.52667e-05
0.000284031 0.00534401 -0.000251503
-5.52667e-05 -0.000251503 0.0198423

0.00483709 0.000713571 -0.00615542
0.000713571 0.00295041 -0.000191279
-0.00615542 -0.000191279 0.0138261

-0.000115442 0.000993494 0.000326787
0.000993494 -0.00422079 3.45612e-05
0.000326787 3.45612e-05 -0.000997951

-0.000272339 0.000487413 0.000917665
0.000487413 -0.00119778 1.34407e-05
0.000917665 1.34407e-05 -0.000262848

0.00756801 0.000582246 -1.48529e-05
0.000582246 0.00402598 -0.000547471
-1.48529e-05 -0.000547471 0.0194491

0.00397583 0.00143025 -0.00607475
0.00143025 0.00224271 -0.000388957
-0.00607475 -0.000388957 0.0134758

-0.00108559 0.00138341 0.000242012
0.00138341 -0.0037253 0.000181383
0.000242012 0.000181383 -0.000908734

-0.000453807 0.000250344 0.000893931
0.000250344 -0.000253459 0.000131563
0.000893931 0.000131563 -0.000116851

0.00521413 0.000389284 -7.80988e-05
0.000389284 0.0017378 -0.000930544
-7.80988e-05 -0.000930544 0.0182418

0.00285907 0.00207968 -0.00636411
0.00207968 0.00125239 -0.000697679
-0.00636411 -0.000697679 0.0123922

-0.000143492 0.000476427 -0.000181868
0.000476427 -0.0018838 0.000378228
-0.000181868 0.000378228 -0.000292559

-0.000111492 -0.000274263 0.000869622
-0.000274263 9.31694e-05 0.000111252
0.000869622 0.000111252 -0.000271852

