# vtk DataFile Version 3.0
time 0.06
ASCII
DATASET UNSTRUCTURED_GRID
POINTS 27 float
0 0 0 0.5 0 0 1 0 0 
0 0.5 0 0.5 0.5 0 1 0.5 0 
0 1 0 0.5 1 0 1 1 0 
0 0 0.5 0.5 0 0.5 1 0 0.5 
0 0.5 0.5 0.5 0.5 0.5 1 0.5 0.5 
0 1 0.5 0.5 1 0.5 1 1 0.5 
0 0 1 0.5 0 1 1 0 1 
0 0.5 1 0.5 0.5 1 1 0.5 1 
0 1 1 0.5 1 1 1 1 1 

CELLS 8 72
8 0 1 4 3 9 10 13 12 
8 1 2 5 4 10 11 14 13 
8 3 4 7 6 12 13 16 15 
8 4 5 8 7 13 14 17 16 
8 9 10 13 12 18 19 22 21 
8 10 11 14 13 19 20 23 22 
8 12 13 16 15 21 22 25 24 
8 13 14 17 16 22 23 26 25 

CELL_TYPES 8
12
12
12
12
12
12
12
12

POINT_DATA 27
VECTORS displacement float
0 0 0
-0.00442983 0 0
-0.00885965 0 0
0 -0.00442983 0
-0.00442983 -0.00442983 0
-0.00885965 -0.00442983 0
0 -0.00885965 0
-0.00442983 -0.00885965 0
-0.00885965 -0.00885965 0
0 0 0.015
-0.00442983 0 0.015
-0.00885965 0 0.015
0 -0.00442983 0.015
-0.00442983 -0.00442983 0.015
-0.00885965 -0.00442983 0.015
0 -0.00885965 0.015
-0.00442983 -0.00885965 0.015
-0.00885965 -0.00885965 0.015
0 0 0.03
-0.00442983 0 0.03
-0.00885965 0 0.03
0 -0.00442983 0.03
-0.00442983 -0.00442983 0.03
-0.00885965 -0.00442983 0.03
0 -0.00885965 0.03
-0.00442983 -0.00885965 0.03
-0.00885965 -0.00885965 0.03

CELL_DATA 8
SCALARS part_id int
LOOKUP_TABLE default
0
0
0
0
0
0
0
0
TENSORS stress float
4.28867e-10 2.96157e-12 4.22908e-11
2.96157e-12 4.28867e-10 4.22908e-11
4.22908e-11 4.22908e-11 0.0183112

3.12955e-10 4.89507e-12 1.01399e-10
4.89507e-12 3.64373e-10 3.98262e-11
1.01399e-10 3.98262e-11 0.0183112

3.64373e-10 4.89502e-12 3.98262e-11
4.89502e-12 3.12955e-10 1.01399e-10
3.98262e-11 1.01399e-10 0.0183112

2.75154e-10 1.1903e-11 9.24344e-11
1.1903e-11 2.75154e-10 9.24344e-11
9.24344e-11 9.24344e-11 0.0183112

-4.3194e-10 -2.96159e-12 4.22908e-11
-2.96159e-12 -4.3194e-10 4.22908e-11
4.22908e-11 4.22908e-11 0.0183112

-3.16027e-10 -4.89508e-12 1.01399e-10
-4.89508e-12 -3.67446e-10 3.98262e-11
1.01399e-10 3.98262e-11 0.0183112

-3.67446e-10 -4.89505e-12 3.98262e-11
-4.89505e-12 -3.16028e-10 1.01399e-10
3.98262e-11 1.01399e-10 0.0183112

-2.78227e-10 -1.1903e-11 9.24344e-11
-1.1903e-11 -2.78227e-10 9.24344e-11
9.24344e-11 9.24344e-11 0.0183112

SCALARS damage float
LOOKUP_TABLE default
0.386659
0.386659
0.386659
0.386659
0.386659
0.386659
0.386659
0.386659
