# vtk DataFile Version 3.0
time 0.13
ASCII
DATASET UNSTRUCTURED_GRID
POINTS 27 float
0 0 0 0.5 0 0 1 0 0 
0 0.5 0 0.5 0.5 0 1 0.5 0 
0 1 0 0.5 1 0 1 1 0 
0 0 0.5 0.5 0 0.5 1 0 0.5 
0 0.5 0.5 0.5 0.5 0.5 1 0.5 0.5 
0 1 0.5 0.5 1 0.5 1 1 0.5 
0 0 1 0.5 0 1 1 0 1 
0 0.5 1 0.5 0.5 1 1 0.5 1 
0 1 1 0.5 1 1 1 1 1 

CELLS 8 72
8 0 1 4 3 9 10 13 12 
8 1 2 5 4 10 11 14 13 
8 3 4 7 6 12 13 16 15 
8 4 5 8 7 13 14 17 16 
8 9 10 13 12 18 19 22 21 
8 10 11 14 13 19 20 23 22 
8 12 13 16 15 21 22 25 24 
8 13 14 17 16 22 23 26 25 

CELL_TYPES 8
12
12
12
12
12
12
12
12

POINT_DATA 27
VECTORS displacement float
0 0 0
-0.00942776 0 0
-0.0188555 0 0
0 -0.00942776 0
-0.00942776 -0.00942776 0
-0.0188555 -0.00942776 0
0 -0.0188555 0
-0.00942776 -0.0188555 0
-0.0188555 -0.0188555 0
0 0 0.0325
-0.00942776 0 0.0325
-0.0188555 0 0.0325
0 -0.00942776 0.0325
-0.00942776 -0.00942776 0.0325
-0.0188555 -0.00942776 0.0325
0 -0.0188555 0.0325
-0.00942776 -0.0188555 0.0325
-0.0188555 -0.0188555 0.0325
0 0 0.065
-0.00942776 0 0.065
-0.0188555 0 0.065
0 -0.00942776 0.065
-0.00942776 -0.00942776 0.065
-0.0188555 -0.00942776 0.065
0 -0.0188555 0.065
-0.00942776 -0.0188555 0.065
-0.0188555 -0.0188555 0.065

CELL_DATA 8
SCALARS part_id int
LOOKUP_TABLE default
0
0
0
0
0
0
0
0
TENSORS stress float
2.53052e-10 1.96157e-12 2.8939e-11
1.96157e-12 2.53052e-10 2.8939e-11
2.8939e-11 2.8939e-11 0.031088

1.75799e-10 3.27528e-12 7.17474e-11
3.27528e-12 2.10507e-10 2.72648e-11
7.17474e-11 2.72648e-11 0.031088

2.10507e-10 3.27528e-12 2.72648e-11
3.27528e-12 1.75799e-10 7.17474e-11
2.72648e-11 7.17474e-11 0.031088

1.50873e-10 7.70339e-12 6.54832e-11
7.70339e-12 1.50873e-10 6.54832e-11
6.54832e-11 6.54832e-11 0.031088

-2.54291e-10 -1.96156e-12 2.8939e-11
-1.96156e-12 -2.54291e-10 2.8939e-11
2.8939e-11 2.8939e-11 0.031088

-1.77037e-10 -3.27524e-12 7.17474e-11
-3.27524e-12 -2.11745e-10 2.72648e-11
7.17474e-11 2.72648e-11 0.031088

-2.11745e-10 -3.27525e-12 2.72648e-11
-3.27525e-12 -1.77037e-10 7.17474e-11
2.72648e-11 7.17474e-11 0.031088

-1.52111e-10 -7.70336e-12 6.54832e-11
-7.70336e-12 -1.52111e-10 6.54832e-11
6.54832e-11 6.54832e-11 0.031088

SCALARS damage float
LOOKUP_TABLE default
0.517037
0.517037
0.517037
0.517037
0.517037
0.517037
0.517037
0.517037
