# vtk DataFile Version 3.0
time 0.48
ASCII
DATASET UNSTRUCTURED_GRID
POINTS 27 float
0 0 0 0.5 0 0 1 0 0 
0 0.5 0 0.5 0.5 0 1 0.5 0 
0 1 0 0.5 1 0 1 1 0 
0 0 0.5 0.5 0 0.5 1 0 0.5 
0 0.5 0.5 0.5 0.5 0.5 1 0.5 0.5 
0 1 0.5 0.5 1 0.5 1 1 0.5 
0 0 1 0.5 0 1 1 0 1 
0 0.5 1 0.5 0.5 1 1 0.5 1 
0 1 1 0.5 1 1 1 1 1 

CELLS 8 72
8 0 1 4 3 9 10 13 12 
8 1 2 5 4 10 11 14 13 
8 3 4 7 6 12 13 16 15 
8 4 5 8 7 13 14 17 16 
8 9 10 13 12 18 19 22 21 
8 10 11 14 13 19 20 23 22 
8 12 13 16 15 21 22 25 24 
8 13 14 17 16 22 23 26 25 

CELL_TYPES 8
12
12
12
12
12
12
12
12

POINT_DATA 27
VECTORS displacement float
0 0 0
-0.0320338 0 0
-0.0640677 0 0
0 -0.0320338 0
-0.0320338 -0.0320338 0
-0.0640677 -0.0320338 0
0 -0.0640677 0
-0.0320338 -0.0640677 0
-0.0640677 -0.0640677 0
0 0 0.12
-0.0320338 0 0.12
-0.0640677 0 0.12
0 -0.0320338 0.12
-0.0320338 -0.0320338 0.12
-0.0640677 -0.0320338 0.12
0 -0.0640677 0.12
-0.0320338 -0.0640677 0.12
-0.0640677 -0.0640677 0.12
0 0 0.24
-0.0320338 0 0.24
-0.0640677 0 0.24
0 -0.0320338 0.24
-0.0320338 -0.0320338 0.24
-0.0640677 -0.0320338 0.24
0 -0.0640677 0.24
-0.0320338 -0.0640677 0.24
-0.0640677 -0.0640677 0.24

CELL_DATA 8
SCALARS part_id int
LOOKUP_TABLE default
0
0
0
0
0
0
0
0
TENSORS stress float
4.60923e-11 3.69976e-13 6.25783e-12
3.69976e-13 4.60923e-11 6.25781e-12
6.25783e-12 6.25781e-12 0.089175

3.14156e-11 6.44e-13 1.75761e-11
6.44e-13 3.82281e-11 5.8985e-12
1.75761e-11 5.8985e-12 0.089175

3.82281e-11 6.44008e-13 5.8985e-12
6.44008e-13 3.14156e-11 1.7576e-11
5.8985e-12 1.7576e-11 0.089175

2.6822e-11 1.30999e-12 1.60956e-11
1.30999e-12 2.68221e-11 1.60956e-11
1.60956e-11 1.60956e-11 0.089175

-4.62538e-11 -3.69998e-13 6.25782e-12
-3.69998e-13 -4.62539e-11 6.25782e-12
6.25782e-12 6.25782e-12 0.089175

-3.15773e-11 -6.43993e-13 1.75761e-11
-6.43993e-13 -3.83897e-11 5.8985e-12
1.75761e-11 5.8985e-12 0.089175

-3.83897e-11 -6.43999e-13 5.89851e-12
-6.43999e-13 -3.15772e-11 1.75761e-11
5.89851e-12 1.75761e-11 0.089175

-2.69838e-11 -1.31001e-12 1.60957e-11
-1.31001e-12 -2.69838e-11 1.60956e-11
1.60957e-11 1.60956e-11 0.089175

SCALARS damage float
LOOKUP_TABLE default
0.619363
0.619363
0.619363
0.619363
0.619363
0.619363
0.619363
0.619363
