# vtk DataFile Version 3.0
time 0.2
ASCII
DATASET UNSTRUCTURED_GRID
POINTS 27 float
0 0 0 0.5 0 0 1 0 0 
0 0.5 0 0.5 0.5 0 1 0.5 0 
0 1 0 0.5 1 0 1 1 0 
0 0 0.5 0.5 0 0.5 1 0 0.5 
0 0.5 0.5 0.5 0.5 0.5 1 0.5 0.5 
0 1 0.5 0.5 1 0.5 1 1 0.5 
0 0 1 0.5 0 1 1 0 1 
0 0.5 1 0.5 0.5 1 1 0.5 1 
0 1 1 0.5 1 1 1 1 1 

CELLS 8 72
8 0 1 4 3 9 10 13 12 
8 1 2 5 4 10 11 14 13 
8 3 4 7 6 12 13 16 15 
8 4 5 8 7 13 14 17 16 
8 9 10 13 12 18 19 22 21 
8 10 11 14 13 19 20 23 22 
8 12 13 16 15 21 22 25 24 
8 13 14 17 16 22 23 26 25 

CELL_TYPES 8
12
12
12
12
12
12
12
12

POINT_DATA 27
VECTORS displacement float
0 0 0
-0.0142535 0 0
-0.0285071 0 0
0 -0.0142535 0
-0.0142535 -0.0142535 0
-0.0285071 -0.0142535 0
0 -0.0285071 0
-0.0142535 -0.0285071 0
-0.0285071 -0.0285071 0
0 0 0.05
-0.0142535 0 0.05
-0.0285071 0 0.05
0 -0.0142535 0.05
-0.0142535 -0.0142535 0.05
-0.0285071 -0.0142535 0.05
0 -0.0285071 0.05
-0.0142535 -0.0285071 0.05
-0.0285071 -0.0285071 0.05
0 0 0.1
-0.0142535 0 0.1
-0.0285071 0 0.1
0 -0.0142535 0.1
-0.0142535 -0.0142535 0.1
-0.0285071 -0.0142535 0.1
0 -0.0285071 0.1
-0.0142535 -0.0285071 0.1
-0.0285071 -0.0285071 0.1

CELL_DATA 8
SCALARS part_id int
LOOKUP_TABLE default
0
0
0
0
0
0
0
0
TENSORS stress float
1.55099e-10 1.23242e-12 1.87958e-11
1.23242e-12 1.55099e-10 1.87958e-11
1.87958e-11 1.87958e-11 0.0428585

1.06254e-10 2.07729e-12 4.80425e-11
2.07729e-12 1.28473e-10 1.77165e-11
4.80425e-11 1.77165e-11 0.0428585

1.28473e-10 2.07727e-12 1.77165e-11
2.07727e-12 1.06254e-10 4.80426e-11
1.77165e-11 4.80426e-11 0.0428585

9.06615e-11 4.73323e-12 4.39012e-11
4.73323e-12 9.06615e-11 4.39013e-11
4.39012e-11 4.39013e-11 0.0428585

-1.55764e-10 -1.23242e-12 1.87957e-11
-1.23242e-12 -1.55764e-10 1.87957e-11
1.87957e-11 1.87957e-11 0.0428585

-1.0692e-10 -2.07728e-12 4.80425e-11
-2.07728e-12 -1.29138e-10 1.77165e-11
4.80425e-11 1.77165e-11 0.0428585

-1.29138e-10 -2.07726e-12 1.77165e-11
-2.07726e-12 -1.0692e-10 4.80426e-11
1.77165e-11 4.80426e-11 0.0428585

-9.13272e-11 -4.7333e-12 4.39013e-11
-4.7333e-12 -9.13272e-11 4.39013e-11
4.39013e-11 4.39013e-11 0.0428585

SCALARS damage float
LOOKUP_TABLE default
0.565418
0.565418
0.565418
0.565418
0.565418
0.565418
0.565418
0.565418
