# vtk DataFile Version 3.0
time 0.42
ASCII
DATASET UNSTRUCTURED_GRID
POINTS 27 float
0 0 0 0.5 0 0 1 0 0 
0 0.5 0 0.5 0.5 0 1 0.5 0 
0 1 0 0.5 1 0 1 1 0 
0 0 0.5 0.5 0 0.5 1 0 0.5 
0 0.5 0.5 0.5 0.5 0.5 1 0.5 0.5 
0 1 0.5 0.5 1 0.5 1 1 0.5 
0 0 1 0.5 0 1 1 0 1 
0 0.5 1 0.5 0.5 1 1 0.5 1 
0 1 1 0.5 1 1 1 1 1 

CELLS 8 72
8 0 1 4 3 9 10 13 12 
8 1 2 5 4 10 11 14 13 
8 3 4 7 6 12 13 16 15 
8 4 5 8 7 13 14 17 16 
8 9 10 13 12 18 19 22 21 
8 10 11 14 13 19 20 23 22 
8 12 13 16 15 21 22 25 24 
8 13 14 17 16 22 23 26 25 

CELL_TYPES 8
12
12
12
12
12
12
12
12

POINT_DATA 27
VECTORS displacement float
0 0 0
-0.0284124 0 0
-0.0568249 0 0
0 -0.0284124 0
-0.0284124 -0.0284124 0
-0.0568249 -0.0284124 0
0 -0.0568249 0
-0.0284124 -0.0568249 0
-0.0568249 -0.0568249 0
0 0 0.105
-0.0284124 0 0.105
-0.0568249 0 0.105
0 -0.0284124 0.105
-0.0284124 -0.0284124 0.105
-0.0568249 -0.0284124 0.105
0 -0.0568249 0.105
-0.0284124 -0.0568249 0.105
-0.0568249 -0.0568249 0.105
0 0 0.21
-0.0284124 0 0.21
-0.0568249 0 0.21
0 -0.0284124 0.21
-0.0284124 -0.0284124 0.21
-0.0568249 -0.0284124 0.21
0 -0.0568249 0.21
-0.0284124 -0.0568249 0.21
-0.0568249 -0.0568249 0.21

CELL_DATA 8
SCALARS part_id int
LOOKUP_TABLE default
0
0
0
0
0
0
0
0
TENSORS stress float
5.6462e-11 4.53789e-13 7.5162e-12
4.53789e-13 5.6462e-11 7.51621e-12
7.5162e-12 7.51621e-12 0.0792747

3.84462e-11 7.8504e-13 2.07433e-11
7.8504e-13 4.67839e-11 7.08521e-12
2.07433e-11 7.08521e-12 0.0792747

4.67839e-11 7.85026e-13 7.08519e-12
7.85026e-13 3.84462e-11 2.07433e-11
7.08519e-12 2.07433e-11 0.0792747

3.27898e-11 1.6333e-12 1.89896e-11
1.6333e-12 3.27899e-11 1.89896e-11
1.89896e-11 1.89896e-11 0.0792747

-5.6666e-11 -4.53765e-13 7.51619e-12
-4.53765e-13 -5.6666e-11 7.5162e-12
7.51619e-12 7.5162e-12 0.0792747

-3.86501e-11 -7.8502e-13 2.07433e-11
-7.8502e-13 -4.69879e-11 7.0852e-12
2.07433e-11 7.0852e-12 0.0792747

-4.69879e-11 -7.85002e-13 7.0852e-12
-7.85002e-13 -3.86502e-11 2.07433e-11
7.0852e-12 2.07433e-11 0.0792747

-3.2994e-11 -1.63331e-12 1.89896e-11
-1.63331e-12 -3.2994e-11 1.89895e-11
1.89896e-11 1.89895e-11 0.0792747

SCALARS damage float
LOOKUP_TABLE default
0.613835
0.613835
0.613835
0.613835
0.613835
0.613835
0.613835
0.613835
