# vtk DataFile Version 3.0
time 0.24
ASCII
DATASET UNSTRUCTURED_GRID
POINTS 27 float
0 0 0 0.5 0 0 1 0 0 
0 0.5 0 0.5 0.5 0 1 0.5 0 
0 1 0 0.5 1 0 1 1 0 
0 0 0.5 0.5 0 0.5 1 0 0.5 
0 0.5 0.5 0.5 0.5 0.5 1 0.5 0.5 
0 1 0.5 0.5 1 0.5 1 1 0.5 
0 0 1 0.5 0 1 1 0 1 
0 0.5 1 0.5 0.5 1 1 0.5 1 
0 1 1 0.5 1 1 1 1 1 

CELLS 8 72
8 0 1 4 3 9 10 13 12 
8 1 2 5 4 10 11 14 13 
8 3 4 7 6 12 13 16 15 
8 4 5 8 7 13 14 17 16 
8 9 10 13 12 18 19 22 21 
8 10 11 14 13 19 20 23 22 
8 12 13 16 15 21 22 25 24 
8 13 14 17 16 22 23 26 25 

CELL_TYPES 8
12
12
12
12
12
12
12
12

POINT_DATA 27
VECTORS displacement float
0 0 0
-0.0169379 0 0
-0.0338759 0 0
0 -0.0169379 0
-0.0169379 -0.0169379 0
-0.0338759 -0.0169379 0
0 -0.0338759 0
-0.0169379 -0.0338759 0
-0.0338759 -0.0338759 0
0 0 0.06
-0.0169379 0 0.06
-0.0338759 0 0.06
0 -0.0169379 0.06
-0.0169379 -0.0169379 0.06
-0.0338759 -0.0169379 0.06
0 -0.0338759 0.06
-0.0169379 -0.0338759 0.06
-0.0338759 -0.0338759 0.06
0 0 0.12
-0.0169379 0 0.12
-0.0338759 0 0.12
0 -0.0169379 0.12
-0.0169379 -0.0169379 0.12
-0.0338759 -0.0169379 0.12
0 -0.0338759 0.12
-0.0169379 -0.0338759 0.12
-0.0338759 -0.0338759 0.12

CELL_DATA 8
SCALARS part_id int
LOOKUP_TABLE default
0
0
0
0
0
0
0
0
TENSORS stress float
1.22985e-10 9.8318e-13 1.52422e-11
9.8318e-13 1.22985e-10 1.52422e-11
1.52422e-11 1.52422e-11 0.0495117

8.39617e-11 1.66574e-12 3.95766e-11
1.66574e-12 1.01794e-10 1.43684e-11
3.95766e-11 1.43684e-11 0.0495117

1.01794e-10 1.66573e-12 1.43684e-11
1.66573e-12 8.39616e-11 3.95766e-11
1.43684e-11 3.95766e-11 0.0495117

7.15561e-11 3.72964e-12 3.61815e-11
3.72964e-12 7.15561e-11 3.61815e-11
3.61815e-11 3.61815e-11 0.0495117

-1.23489e-10 -9.8318e-13 1.52422e-11
-9.8318e-13 -1.23489e-10 1.52422e-11
1.52422e-11 1.52422e-11 0.0495117

-8.44661e-11 -1.66573e-12 3.95765e-11
-1.66573e-12 -1.02298e-10 1.43684e-11
3.95765e-11 1.43684e-11 0.0495117

-1.02298e-10 -1.66572e-12 1.43684e-11
-1.66572e-12 -8.44661e-11 3.95766e-11
1.43684e-11 3.95766e-11 0.0495117

-7.20605e-11 -3.72964e-12 3.61815e-11
-3.72964e-12 -7.20605e-11 3.61815e-11
3.61815e-11 3.61815e-11 0.0495117

SCALARS damage float
LOOKUP_TABLE default
0.580768
0.580768
0.580768
0.580768
0.580768
0.580768
0.580768
0.580768
