# vtk DataFile Version 3.0
time 0.17
ASCII
DATASET UNSTRUCTURED_GRID
POINTS 27 float
0 0 0 0.5 0 0 1 0 0 
0 0.5 0 0.5 0.5 0 1 0.5 0 
0 1 0 0.5 1 0 1 1 0 
0 0 0.5 0.5 0 0.5 1 0 0.5 
0 0.5 0.5 0.5 0.5 0.5 1 0.5 0.5 
0 1 0.5 0.5 1 0.5 1 1 0.5 
0 0 1 0.5 0 1 1 0 1 
0 0.5 1 0.5 0.5 1 1 0.5 1 
0 1 1 0.5 1 1 1 1 1 

CELLS 8 72
8 0 1 4 3 9 10 13 12 
8 1 2 5 4 10 11 14 13 
8 3 4 7 6 12 13 16 15 
8 4 5 8 7 13 14 17 16 
8 9 10 13 12 18 19 22 21 
8 10 11 14 13 19 20 23 22 
8 12 13 16 15 21 22 25 24 
8 13 14 17 16 22 23 26 25 

CELL_TYPES 8
12
12
12
12
12
12
12
12

POINT_DATA 27
VECTORS displacement float
0 0 0
-0.0122057 0 0
-0.0244114 0 0
0 -0.0122057 0
-0.0122057 -0.0122057 0
-0.0244114 -0.0122057 0
0 -0.0244114 0
-0.0122057 -0.0244114 0
-0.0244114 -0.0244114 0
0 0 0.0425
-0.0122057 0 0.0425
-0.0244114 0 0.0425
0 -0.0122057 0.0425
-0.0122057 -0.0122057 0.0425
-0.0244114 -0.0122057 0.0425
0 -0.0244114 0.0425
-0.0122057 -0.0244114 0.0425
-0.0244114 -0.0244114 0.0425
0 0 0.085
-0.0122057 0 0.085
-0.0244114 0 0.085
0 -0.0122057 0.085
-0.0122057 -0.0122057 0.085
-0.0244114 -0.0122057 0.085
0 -0.0244114 0.085
-0.0122057 -0.0244114 0.085
-0.0244114 -0.0244114 0.085

CELL_DATA 8
SCALARS part_id int
LOOKUP_TABLE default
0
0
0
0
0
0
0
0
TENSORS stress float
1.88703e-10 1.48834e-12 2.23981e-11
1.48834e-12 1.88703e-10 2.23981e-11
2.23981e-11 2.23981e-11 0.0378449

1.29831e-10 2.49864e-12 5.65375e-11
2.49864e-12 1.56493e-10 2.1109e-11
5.65375e-11 2.1109e-11 0.0378449

1.56493e-10 2.49863e-12 2.1109e-11
2.49863e-12 1.29831e-10 5.65375e-11
2.1109e-11 5.65375e-11 0.0378449

1.10964e-10 5.77034e-12 5.16414e-11
5.77034e-12 1.10964e-10 5.16414e-11
5.16414e-11 5.16414e-11 0.0378449

-1.89549e-10 -1.48833e-12 2.23981e-11
-1.48833e-12 -1.89549e-10 2.23981e-11
2.23981e-11 2.23981e-11 0.0378449

-1.30677e-10 -2.49863e-12 5.65375e-11
-2.49863e-12 -1.57339e-10 2.1109e-11
5.65375e-11 2.1109e-11 0.0378449

-1.57339e-10 -2.49863e-12 2.1109e-11
-2.49863e-12 -1.30678e-10 5.65375e-11
2.1109e-11 5.65375e-11 0.0378449

-1.11811e-10 -5.77037e-12 5.16414e-11
-5.77037e-12 -1.11811e-10 5.16414e-11
5.16414e-11 5.16414e-11 0.0378449

SCALARS damage float
LOOKUP_TABLE default
0.549298
0.549298
0.549298
0.549298
0.549298
0.549298
0.549298
0.549298
