# vtk DataFile Version 3.0
time 0.38
ASCII
DATASET UNSTRUCTURED_GRID
POINTS 27 float
0 0 0 0.5 0 0 1 0 0 
0 0.5 0 0.5 0.5 0 1 0.5 0 
0 1 0 0.5 1 0 1 1 0 
0 0 0.5 0.5 0 0.5 1 0 0.5 
0 0.5 0.5 0.5 0.5 0.5 1 0.5 0.5 
0 1 0.5 0.5 1 0.5 1 1 0.5 
0 0 1 0.5 0 1 1 0 1 
0 0.5 1 0.5 0.5 1 1 0.5 1 
0 1 1 0.5 1 1 1 1 1 

CELLS 8 72
8 0 1 4 3 9 10 13 12 
8 1 2 5 4 10 11 14 13 
8 3 4 7 6 12 13 16 15 
8 4 5 8 7 13 14 17 16 
8 9 10 13 12 18 19 22 21 
8 10 11 14 13 19 20 23 22 
8 12 13 16 15 21 22 25 24 
8 13 14 17 16 22 23 26 25 

CELL_TYPES 8
12
12
12
12
12
12
12
12

POINT_DATA 27
VECTORS displacement float
0 0 0
-0.0259438 0 0
-0.0518877 0 0
0 -0.0259438 0
-0.0259438 -0.0259438 0
-0.0518877 -0.0259438 0
0 -0.0518877 0
-0.0259438 -0.0518877 0
-0.0518877 -0.0518877 0
0 0 0.095
-0.0259438 0 0.095
-0.0518877 0 0.095
0 -0.0259438 0.095
-0.0259438 -0.0259438 0.095
-0.0518877 -0.0259438 0.095
0 -0.0518877 0.095
-0.0259438 -0.0518877 0.095
-0.0518877 -0.0518877 0.095
0 0 0.19
-0.0259438 0 0.19
-0.0518877 0 0.19
0 -0.0259438 0.19
-0.0259438 -0.0259438 0.19
-0.0518877 -0.0259438 0.19
0 -0.0518877 0.19
-0.0259438 -0.0518877 0.19
-0.0518877 -0.0518877 0.19

CELL_DATA 8
SCALARS part_id int
LOOKUP_TABLE default
0
0
0
0
0
0
0
0
TENSORS stress float
6.54129e-11 5.25913e-13 8.58844e-12
5.25913e-13 6.54129e-11 8.58843e-12
8.58844e-12 8.58843e-12 0.0726733

4.45253e-11 9.05893e-13 2.34102e-11
9.05893e-13 5.41706e-11 8.09624e-12
2.34102e-11 8.09624e-12 0.0726733

5.41707e-11 9.05884e-13 8.09629e-12
9.05884e-13 4.45254e-11 2.34102e-11
8.09629e-12 2.34102e-11 0.0726733

3.79523e-11 1.91436e-12 2.14257e-11
1.91436e-12 3.79524e-11 2.14256e-11
2.14257e-11 2.14256e-11 0.0726733

-6.56547e-11 -5.25918e-13 8.58842e-12
-5.25918e-13 -6.56547e-11 8.58841e-12
8.58842e-12 8.58841e-12 0.0726733

-4.47671e-11 -9.05889e-13 2.34102e-11
-9.05889e-13 -5.44124e-11 8.09625e-12
2.34102e-11 8.09625e-12 0.0726733

-5.44124e-11 -9.05881e-13 8.09626e-12
-9.05881e-13 -4.47671e-11 2.34102e-11
8.09626e-12 2.34102e-11 0.0726733

-3.81941e-11 -1.91435e-12 2.14256e-11
-1.91435e-12 -3.81941e-11 2.14257e-11
2.14256e-11 2.14257e-11 0.0726733

SCALARS damage float
LOOKUP_TABLE default
0.609185
0.609185
0.609185
0.609185
0.609185
0.609185
0.609185
0.609185
