# vtk DataFile Version 3.0
time 0.37
ASCII
DATASET UNSTRUCTURED_GRID
POINTS 27 float
0 0 0 0.5 0 0 1 0 0 
0 0.5 0 0.5 0.5 0 1 0.5 0 
0 1 0 0.5 1 0 1 1 0 
0 0 0.5 0.5 0 0.5 1 0 0.5 
0 0.5 0.5 0.5 0.5 0.5 1 0.5 0.5 
0 1 0.5 0.5 1 0.5 1 1 0.5 
0 0 1 0.5 0 1 1 0 1 
0 0.5 1 0.5 0.5 1 1 0.5 1 
0 1 1 0.5 1 1 1 1 1 

CELLS 8 72
8 0 1 4 3 9 10 13 12 
8 1 2 5 4 10 11 14 13 
8 3 4 7 6 12 13 16 15 
8 4 5 8 7 13 14 17 16 
8 9 10 13 12 18 19 22 21 
8 10 11 14 13 19 20 23 22 
8 12 13 16 15 21 22 25 24 
8 13 14 17 16 22 23 26 25 

CELL_TYPES 8
12
12
12
12
12
12
12
12

POINT_DATA 27
VECTORS displacement float
0 0 0
-0.0253197 0 0
-0.0506394 0 0
0 -0.0253197 0
-0.0253197 -0.0253197 0
-0.0506394 -0.0253197 0
0 -0.0506394 0
-0.0253197 -0.0506394 0
-0.0506394 -0.0506394 0
0 0 0.0925
-0.0253197 0 0.0925
-0.0506394 0 0.0925
0 -0.0253197 0.0925
-0.0253197 -0.0253197 0.0925
-0.0506394 -0.0253197 0.0925
0 -0.0506394 0.0925
-0.0253197 -0.0506394 0.0925
-0.0506394 -0.0506394 0.0925
0 0 0.185
-0.0253197 0 0.185
-0.0506394 0 0.185
0 -0.0253197 0.185
-0.0253197 -0.0253197 0.185
-0.0506394 -0.0253197 0.185
0 -0.0506394 0.185
-0.0253197 -0.0506394 0.185
-0.0506394 -0.0506394 0.185

CELL_DATA 8
SCALARS part_id int
LOOKUP_TABLE default
0
0
0
0
0
0
0
0
TENSORS stress float
6.79842e-11 5.46587e-13 8.89429e-12
5.46587e-13 6.79842e-11 8.89428e-12
8.89429e-12 8.89428e-12 0.0710224

4.62739e-11 9.4046e-13 2.41666e-11
9.4046e-13 5.62931e-11 8.38464e-12
2.41666e-11 8.38464e-12 0.0710224

5.62931e-11 9.40463e-13 8.38463e-12
9.40463e-13 4.62739e-11 2.41666e-11
8.38463e-12 2.41666e-11 0.0710224

3.94379e-11 1.99532e-12 2.21164e-11
1.99532e-12 3.94379e-11 2.21164e-11
2.21164e-11 2.21164e-11 0.0710224

-6.8237e-11 -5.46581e-13 8.89427e-12
-5.46581e-13 -6.8237e-11 8.89431e-12
8.89427e-12 8.89431e-12 0.0710224

-4.65265e-11 -9.40454e-13 2.41666e-11
-9.40454e-13 -5.65458e-11 8.38465e-12
2.41666e-11 8.38465e-12 0.0710224

-5.65459e-11 -9.40446e-13 8.38463e-12
-9.40446e-13 -4.65267e-11 2.41666e-11
8.38463e-12 2.41666e-11 0.0710224

-3.96905e-11 -1.99531e-12 2.21164e-11
-1.99531e-12 -3.96905e-11 2.21165e-11
2.21164e-11 2.21165e-11 0.0710224

SCALARS damage float
LOOKUP_TABLE default
0.607866
0.607866
0.607866
0.607866
0.607866
0.607866
0.607866
0.607866
