# vtk DataFile Version 3.0
time 0.15
ASCII
DATASET UNSTRUCTURED_GRID
POINTS 27 float
0 0 0 0.5 0 0 1 0 0 
0 0.5 0 0.5 0.5 0 1 0.5 0 
0 1 0 0.5 1 0 1 1 0 
0 0 0.5 0.5 0 0.5 1 0 0.5 
0 0.5 0.5 0.5 0.5 0.5 1 0.5 0.5 
0 1 0.5 0.5 1 0.5 1 1 0.5 
0 0 1 0.5 0 1 1 0 1 
0 0.5 1 0.5 0.5 1 1 0.5 1 
0 1 1 0.5 1 1 1 1 1 

CELLS 8 72
8 0 1 4 3 9 10 13 12 
8 1 2 5 4 10 11 14 13 
8 3 4 7 6 12 13 16 15 
8 4 5 8 7 13 14 17 16 
8 9 10 13 12 18 19 22 21 
8 10 11 14 13 19 20 23 22 
8 12 13 16 15 21 22 25 24 
8 13 14 17 16 22 23 26 25 

CELL_TYPES 8
12
12
12
12
12
12
12
12

POINT_DATA 27
VECTORS displacement float
0 0 0
-0.0108236 0 0
-0.0216473 0 0
0 -0.0108236 0
-0.0108236 -0.0108236 0
-0.0216473 -0.0108236 0
0 -0.0216473 0
-0.0108236 -0.0216473 0
-0.0216473 -0.0216473 0
0 0 0.0375
-0.0108236 0 0.0375
-0.0216473 0 0.0375
0 -0.0108236 0.0375
-0.0108236 -0.0108236 0.0375
-0.0216473 -0.0108236 0.0375
0 -0.0216473 0.0375
-0.0108236 -0.0216473 0.0375
-0.0216473 -0.0216473 0.0375
0 0 0.075
-0.0108236 0 0.075
-0.0216473 0 0.075
0 -0.0108236 0.075
-0.0108236 -0.0108236 0.075
-0.0216473 -0.0108236 0.075
0 -0.0216473 0.075
-0.0108236 -0.0216473 0.075
-0.0216473 -0.0216473 0.075

CELL_DATA 8
SCALARS part_id int
LOOKUP_TABLE default
0
0
0
0
0
0
0
0
TENSORS stress float
2.17562e-10 1.70362e-12 2.5393e-11
1.70362e-12 2.17562e-10 2.5393e-11
2.5393e-11 2.5393e-11 0.0344816

1.50302e-10 2.85234e-12 6.35367e-11
2.85234e-12 1.80651e-10 2.39282e-11
6.35367e-11 2.39282e-11 0.0344816

1.80651e-10 2.85236e-12 2.39282e-11
2.85236e-12 1.50302e-10 6.35367e-11
2.39282e-11 6.35367e-11 0.0344816

1.28679e-10 6.64734e-12 5.80137e-11
6.64734e-12 1.28679e-10 5.80137e-11
5.80137e-11 5.80137e-11 0.0344816

-2.18576e-10 -1.70364e-12 2.5393e-11
-1.70364e-12 -2.18576e-10 2.5393e-11
2.5393e-11 2.5393e-11 0.0344816

-1.51316e-10 -2.85233e-12 6.35367e-11
-2.85233e-12 -1.81665e-10 2.39282e-11
6.35367e-11 2.39282e-11 0.0344816

-1.81665e-10 -2.85235e-12 2.39282e-11
-2.85235e-12 -1.51316e-10 6.35367e-11
2.39282e-11 6.35367e-11 0.0344816

-1.29692e-10 -6.64734e-12 5.80138e-11
-6.64734e-12 -1.29693e-10 5.80138e-11
5.80138e-11 5.80138e-11 0.0344816

SCALARS damage float
LOOKUP_TABLE default
0.535156
0.535156
0.535156
0.535156
0.535156
0.535156
0.535156
0.535156
