# vtk DataFile Version 3.0
time 0.09
ASCII
DATASET UNSTRUCTURED_GRID
POINTS 27 float
0 0 0 0.5 0 0 1 0 0 
0 0.5 0 0.5 0.5 0 1 0.5 0 
0 1 0 0.5 1 0 1 1 0 
0 0 0.5 0.5 0 0.5 1 0 0.5 
0 0.5 0.5 0.5 0.5 0.5 1 0.5 0.5 
0 1 0.5 0.5 1 0.5 1 1 0.5 
0 0 1 0.5 0 1 1 0 1 
0 0.5 1 0.5 0.5 1 1 0.5 1 
0 1 1 0.5 1 1 1 1 1 

CELLS 8 72
8 0 1 4 3 9 10 13 12 
8 1 2 5 4 10 11 14 13 
8 3 4 7 6 12 13 16 15 
8 4 5 8 7 13 14 17 16 
8 9 10 13 12 18 19 22 21 
8 10 11 14 13 19 20 23 22 
8 12 13 16 15 21 22 25 24 
8 13 14 17 16 22 23 26 25 

CELL_TYPES 8
12
12
12
12
12
12
12
12

POINT_DATA 27
VECTORS displacement float
0 0 0
-0.00659361 0 0
-0.0131872 0 0
0 -0.00659361 0
-0.00659361 -0.00659361 0
-0.0131872 -0.00659361 0
0 -0.0131872 0
-0.00659361 -0.0131872 0
-0.0131872 -0.0131872 0
0 0 0.0225
-0.00659361 0 0.0225
-0.0131872 0 0.0225
0 -0.00659361 0.0225
-0.00659361 -0.00659361 0.0225
-0.0131872 -0.00659361 0.0225
0 -0.0131872 0.0225
-0.00659361 -0.0131872 0.0225
-0.0131872 -0.0131872 0.0225
0 0 0.045
-0.00659361 0 0.045
-0.0131872 0 0.045
0 -0.00659361 0.045
-0.00659361 -0.00659361 0.045
-0.0131872 -0.00659361 0.045
0 -0.0131872 0.045
-0.00659361 -0.0131872 0.045
-0.0131872 -0.0131872 0.045

CELL_DATA 8
SCALARS part_id int
LOOKUP_TABLE default
0
0
0
0
0
0
0
0
TENSORS stress float
3.47106e-10 2.58697e-12 3.73593e-11
2.58697e-12 3.47106e-10 3.73592e-11
3.73593e-11 3.73592e-11 0.0240852

2.45801e-10 4.29533e-12 9.0845e-11
4.29533e-12 2.90876e-10 3.51833e-11
9.0845e-11 3.51833e-11 0.0240852

2.90876e-10 4.29531e-12 3.51833e-11
4.29531e-12 2.45801e-10 9.0845e-11
3.51833e-11 9.0845e-11 0.0240852

2.12851e-10 1.02937e-11 8.28364e-11
1.02937e-11 2.12851e-10 8.28364e-11
8.28364e-11 8.28364e-11 0.0240852

-3.49094e-10 -2.58696e-12 3.73593e-11
-2.58696e-12 -3.49094e-10 3.73593e-11
3.73593e-11 3.73593e-11 0.0240852

-2.47789e-10 -4.29534e-12 9.0845e-11
-4.29534e-12 -2.92864e-10 3.51833e-11
9.0845e-11 3.51833e-11 0.0240852

-2.92864e-10 -4.29533e-12 3.51833e-11
-4.29533e-12 -2.47789e-10 9.0845e-11
3.51833e-11 9.0845e-11 0.0240852

-2.14839e-10 -1.02937e-11 8.28364e-11
-1.02937e-11 -2.14839e-10 8.28365e-11
8.28364e-11 8.28365e-11 0.0240852

SCALARS damage float
LOOKUP_TABLE default
0.460989
0.460989
0.460989
0.460989
0.460989
0.460989
0.460989
0.460989
