# vtk DataFile Version 3.0
time 0.17
ASCII
DATASET UNSTRUCTURED_GRID
POINTS 27 float
0 0 0 0.5 0 0 1 0 0 
0 0.5 0 0.5 0.5 0 1 0.5 0 
0 1 0 0.5 1 0 1 1 0 
0 0 0.5 0.5 0 0.5 1 0 0.5 
0 0.5 0.5 0.5 0.5 0.5 1 0.5 0.5 
0 1 0.5 0.5 1 0.5 1 1 0.5 
0 0 1 0.5 0 1 1 0 1 
0 0.5 1 0.5 0.5 1 1 0.5 1 
0 1 1 0.5 1 1 1 1 1 

CELLS 8 72
8 0 1 4 3 9 10 13 12 
8 1 2 5 4 10 11 14 13 
8 3 4 7 6 12 13 16 15 
8 4 5 8 7 13 14 17 16 
8 9 10 13 12 18 19 22 21 
8 10 11 14 13 19 20 23 22 
8 12 13 16 15 21 22 25 24 
8 13 14 17 16 22 23 26 25 

CELL_TYPES 8
12
12
12
12
12
12
12
12

POINT_DATA 27
VECTORS displacement float
0 0 0
-0.0122057 0 0
-0.0244114 0 0
0 -0.0122057 0
-0.0122057 -0.0122057 0
-0.0244114 -0.0122057 0
0 -0.0244114 0
-0.0122057 -0.0244114 0
-0.0244114 -0.0244114 0
0 0 0.0425
-0.0122057 0 0.0425
-0.0244114 0 0.0425
0 -0.0122057 0.0425
-0.0122057 -0.0122057 0.0425
-0.0244114 -0.0122057 0.0425
0 -0.0244114 0.0425
-0.0122057 -0.0244114 0.0425
-0.0244114 -0.0244114 0.0425
0 0 0.085
-0.0122057 0 0.085
-0.0244114 0 0.085
0 -0.0122057 0.085
-0.0122057 -0.0122057 0.085
-0.0244114 -0.0122057 0.085
0 -0.0244114 0.085
-0.0122057 -0.0244114 0.085
-0.0244114 -0.0244114 0.085

CELL_DATA 8
SCALARS part_id int
LOOKUP_TABLE default
0
0
0
0
0
0
0
0
TENSORS stress float
3.38165e-10 2.69613e-12 4.03724e-11
2.69613e-12 3.38165e-10 4.03724e-11
4.03724e-11 4.03724e-11 0.0555373

2.31945e-10 4.52672e-12 1.01784e-10
4.52672e-12 2.79829e-10 3.80373e-11
1.01784e-10 3.80373e-11 0.0555373

2.79829e-10 4.5267e-12 3.80373e-11
4.5267e-12 2.31945e-10 1.01784e-10
3.80373e-11 1.01784e-10 0.0555373

1.97779e-10 1.04548e-11 9.29277e-11
1.04548e-11 1.97779e-10 9.29277e-11
9.29277e-11 9.29277e-11 0.0555373

-3.39601e-10 -2.69614e-12 4.03724e-11
-2.69614e-12 -3.39601e-10 4.03724e-11
4.03724e-11 4.03724e-11 0.0555373

-2.33382e-10 -4.52667e-12 1.01784e-10
-4.52667e-12 -2.81266e-10 3.80374e-11
1.01784e-10 3.80374e-11 0.0555373

-2.81266e-10 -4.52666e-12 3.80373e-11
-4.52666e-12 -2.33382e-10 1.01784e-10
3.80373e-11 1.01784e-10 0.0555373

-1.99216e-10 -1.04549e-11 9.29277e-11
-1.04549e-11 -1.99216e-10 9.29278e-11
9.29277e-11 9.29278e-11 0.0555373

SCALARS damage float
LOOKUP_TABLE default
0.338596
0.338596
0.338596
0.338596
0.338596
0.338596
0.338596
0.338596
