# vtk DataFile Version 3.0
time 0.08
ASCII
DATASET UNSTRUCTURED_GRID
POINTS 27 float
0 0 0 0.5 0 0 1 0 0 
0 0.5 0 0.5 0.5 0 1 0.5 0 
0 1 0 0.5 1 0 1 1 0 
0 0 0.5 0.5 0 0.5 1 0 0.5 
0 0.5 0.5 0.5 0.5 0.5 1 0.5 0.5 
0 1 0.5 0.5 1 0.5 1 1 0.5 
0 0 1 0.5 0 1 1 0 1 
0 0.5 1 0.5 0.5 1 1 0.5 1 
0 1 1 0.5 1 1 1 1 1 

CELLS 8 72
8 0 1 4 3 9 10 13 12 
8 1 2 5 4 10 11 14 13 
8 3 4 7 6 12 13 16 15 
8 4 5 8 7 13 14 17 16 
8 9 10 13 12 18 19 22 21 
8 10 11 14 13 19 20 23 22 
8 12 13 16 15 21 22 25 24 
8 13 14 17 16 22 23 26 25 

CELL_TYPES 8
12
12
12
12
12
12
12
12

POINT_DATA 27
VECTORS displacement float
0 0 0
-0.00587604 0 0
-0.0117521 0 0
0 -0.00587604 0
-0.00587604 -0.00587604 0
-0.0117521 -0.00587604 0
0 -0.0117521 0
-0.00587604 -0.0117521 0
-0.0117521 -0.0117521 0
0 0 0.02
-0.00587604 0 0.02
-0.0117521 0 0.02
0 -0.00587604 0.02
-0.00587604 -0.00587604 0.02
-0.0117521 -0.00587604 0.02
0 -0.0117521 0.02
-0.00587604 -0.0117521 0.02
-0.0117521 -0.0117521 0.02
0 0 0.04
-0.00587604 0 0.04
-0.0117521 0 0.04
0 -0.00587604 0.04
-0.00587604 -0.00587604 0.04
-0.0117521 -0.00587604 0.04
0 -0.0117521 0.04
-0.00587604 -0.0117521 0.04
-0.0117521 -0.0117521 0.04

CELL_DATA 8
SCALARS part_id int
LOOKUP_TABLE default
0
0
0
0
0
0
0
0
TENSORS stress float
3.31572e-10 2.3843e-12 3.4857e-11
2.3843e-12 3.31572e-10 3.48569e-11
3.4857e-11 3.48569e-11 0.0316345

2.36988e-10 3.95133e-12 8.47507e-11
3.95133e-12 2.79672e-10 3.28579e-11
8.47507e-11 3.28579e-11 0.0316345

2.79672e-10 3.95133e-12 3.28579e-11
3.95133e-12 2.36988e-10 8.47508e-11
3.28579e-11 8.47508e-11 0.0316345

2.06564e-10 9.51524e-12 7.73868e-11
9.51524e-12 2.06564e-10 7.73868e-11
7.73868e-11 7.73868e-11 0.0316345

-3.33698e-10 -2.38431e-12 3.4857e-11
-2.38431e-12 -3.33698e-10 3.4857e-11
3.4857e-11 3.4857e-11 0.0316345

-2.39114e-10 -3.95133e-12 8.47508e-11
-3.95133e-12 -2.81798e-10 3.28579e-11
8.47508e-11 3.28579e-11 0.0316345

-2.81798e-10 -3.95132e-12 3.28579e-11
-3.95132e-12 -2.39114e-10 8.47507e-11
3.28579e-11 8.47507e-11 0.0316345

-2.08689e-10 -9.51523e-12 7.73868e-11
-9.51523e-12 -2.08689e-10 7.73868e-11
7.73868e-11 7.73868e-11 0.0316345

SCALARS damage float
LOOKUP_TABLE default
0.204114
0.204114
0.204114
0.204114
0.204114
0.204114
0.204114
0.204114
