# vtk DataFile Version 3.0
time 0.28
ASCII
DATASET UNSTRUCTURED_GRID
POINTS 27 float
0 0 0 0.5 0 0 1 0 0 
0 0.5 0 0.5 0.5 0 1 0.5 0 
0 1 0 0.5 1 0 1 1 0 
0 0 0.5 0.5 0 0.5 1 0 0.5 
0 0.5 0.5 0.5 0.5 0.5 1 0.5 0.5 
0 1 0.5 0.5 1 0.5 1 1 0.5 
0 0 1 0.5 0 1 1 0 1 
0 0.5 1 0.5 0.5 1 1 0.5 1 
0 1 1 0.5 1 1 1 1 1 

CELLS 8 72
8 0 1 4 3 9 10 13 12 
8 1 2 5 4 10 11 14 13 
8 3 4 7 6 12 13 16 15 
8 4 5 8 7 13 14 17 16 
8 9 10 13 12 18 19 22 21 
8 10 11 14 13 19 20 23 22 
8 12 13 16 15 21 22 25 24 
8 13 14 17 16 22 23 26 25 

CELL_TYPES 8
12
12
12
12
12
12
12
12

POINT_DATA 27
VECTORS displacement float
0 0 0
-0.0195715 0 0
-0.0391429 0 0
0 -0.0195715 0
-0.0195715 -0.0195715 0
-0.0391429 -0.0195715 0
0 -0.0391429 0
-0.0195715 -0.0391429 0
-0.0391429 -0.0391429 0
0 0 0.07
-0.0195715 0 0.07
-0.0391429 0 0.07
0 -0.0195715 0.07
-0.0195715 -0.0195715 0.07
-0.0391429 -0.0195715 0.07
0 -0.0391429 0.07
-0.0195715 -0.0391429 0.07
-0.0391429 -0.0391429 0.07
0 0 0.14
-0.0195715 0 0.14
-0.0391429 0 0.14
0 -0.0195715 0.14
-0.0195715 -0.0195715 0.14
-0.0391429 -0.0195715 0.14
0 -0.0391429 0.14
-0.0195715 -0.0391429 0.14
-0.0391429 -0.0391429 0.14

CELL_DATA 8
SCALARS part_id int
LOOKUP_TABLE default
0
0
0
0
0
0
0
0
TENSORS stress float
2.67377e-10 2.19931e-12 3.41624e-11
2.19931e-12 2.67377e-10 3.41624e-11
3.41624e-11 3.41624e-11 0.078041

1.8095e-10 3.74497e-12 8.97705e-11
3.74497e-12 2.2011e-10 3.21792e-11
8.97705e-11 3.21792e-11 0.078041

2.2011e-10 3.74491e-12 3.21792e-11
3.74491e-12 1.8095e-10 8.97705e-11
3.21792e-11 8.97705e-11 0.078041

1.53294e-10 8.24776e-12 8.20002e-11
8.24776e-12 1.53294e-10 8.20002e-11
8.20002e-11 8.20002e-11 0.078041

-2.68279e-10 -2.19927e-12 3.41624e-11
-2.19927e-12 -2.68279e-10 3.41624e-11
3.41624e-11 3.41624e-11 0.078041

-1.81852e-10 -3.7449e-12 8.97705e-11
-3.7449e-12 -2.21012e-10 3.21792e-11
8.97705e-11 3.21792e-11 0.078041

-2.21012e-10 -3.7449e-12 3.21792e-11
-3.7449e-12 -1.81852e-10 8.97705e-11
3.21792e-11 8.97705e-11 0.078041

-1.54197e-10 -8.2478e-12 8.20001e-11
-8.2478e-12 -1.54197e-10 8.20002e-11
8.20001e-11 8.20002e-11 0.078041

SCALARS damage float
LOOKUP_TABLE default
0.432557
0.432557
0.432557
0.432557
0.432557
0.432557
0.432557
0.432557
