# vtk DataFile Version 3.0
time 0.36
ASCII
DATASET UNSTRUCTURED_GRID
POINTS 27 float
0 0 0 0.5 0 0 1 0 0 
0 0.5 0 0.5 0.5 0 1 0.5 0 
0 1 0 0.5 1 0 1 1 0 
0 0 0.5 0.5 0 0.5 1 0 0.5 
0 0.5 0.5 0.5 0.5 0.5 1 0.5 0.5 
0 1 0.5 0.5 1 0.5 1 1 0.5 
0 0 1 0.5 0 1 1 0 1 
0 0.5 1 0.5 0.5 1 1 0.5 1 
0 1 1 0.5 1 1 1 1 1 

CELLS 8 72
8 0 1 4 3 9 10 13 12 
8 1 2 5 4 10 11 14 13 
8 3 4 7 6 12 13 16 15 
8 4 5 8 7 13 14 17 16 
8 9 10 13 12 18 19 22 21 
8 10 11 14 13 19 20 23 22 
8 12 13 16 15 21 22 25 24 
8 13 14 17 16 22 23 26 25 

CELL_TYPES 8
12
12
12
12
12
12
12
12

POINT_DATA 27
VECTORS displacement float
0 0 0
-0.0246927 0 0
-0.0493854 0 0
0 -0.0246927 0
-0.0246927 -0.0246927 0
-0.0493854 -0.0246927 0
0 -0.0493854 0
-0.0246927 -0.0493854 0
-0.0493854 -0.0493854 0
0 0 0.09
-0.0246927 0 0.09
-0.0493854 0 0.09
0 -0.0246927 0.09
-0.0246927 -0.0246927 0.09
-0.0493854 -0.0246927 0.09
0 -0.0493854 0.09
-0.0246927 -0.0493854 0.09
-0.0493854 -0.0493854 0.09
0 0 0.18
-0.0246927 0 0.18
-0.0493854 0 0.18
0 -0.0246927 0.18
-0.0246927 -0.0246927 0.18
-0.0493854 -0.0246927 0.18
0 -0.0493854 0.18
-0.0246927 -0.0493854 0.18
-0.0493854 -0.0493854 0.18

CELL_DATA 8
SCALARS part_id int
LOOKUP_TABLE default
0
0
0
0
0
0
0
0
TENSORS stress float
2.13854e-10 1.7673e-12 2.82986e-11
1.7673e-12 2.13854e-10 2.82986e-11
2.82986e-11 2.82986e-11 0.0925672

1.44334e-10 3.03731e-12 7.64564e-11
3.03731e-12 1.76044e-10 2.6657e-11
7.64564e-11 2.6657e-11 0.0925672

1.76044e-10 3.03734e-12 2.6657e-11
3.03734e-12 1.44334e-10 7.64565e-11
2.6657e-11 7.64565e-11 0.0925672

1.22228e-10 6.47495e-12 6.98869e-11
6.47495e-12 1.22228e-10 6.98869e-11
6.98869e-11 6.98869e-11 0.0925672

-2.1452e-10 -1.76731e-12 2.82986e-11
-1.76731e-12 -2.1452e-10 2.82986e-11
2.82986e-11 2.82986e-11 0.0925672

-1.45e-10 -3.03731e-12 7.64565e-11
-3.03731e-12 -1.76711e-10 2.6657e-11
7.64565e-11 2.6657e-11 0.0925672

-1.76711e-10 -3.03731e-12 2.6657e-11
-3.03731e-12 -1.45e-10 7.64565e-11
2.6657e-11 7.64565e-11 0.0925672

-1.22894e-10 -6.47492e-12 6.9887e-11
-6.47492e-12 -1.22894e-10 6.9887e-11
6.9887e-11 6.9887e-11 0.0925672

SCALARS damage float
LOOKUP_TABLE default
0.47489
0.47489
0.47489
0.47489
0.47489
0.47489
0.47489
0.47489
