# vtk DataFile Version 3.0
time 0.26
ASCII
DATASET UNSTRUCTURED_GRID
POINTS 27 float
0 0 0 0.5 0 0 1 0 0 
0 0.5 0 0.5 0.5 0 1 0.5 0 
0 1 0 0.5 1 0 1 1 0 
0 0 0.5 0.5 0 0.5 1 0 0.5 
0 0.5 0.5 0.5 0.5 0.5 1 0.5 0.5 
0 1 0.5 0.5 1 0.5 1 1 0.5 
0 0 1 0.5 0 1 1 0 1 
0 0.5 1 0.5 0.5 1 1 0.5 1 
0 1 1 0.5 1 1 1 1 1 

CELLS 8 72
8 0 1 4 3 9 10 13 12 
8 1 2 5 4 10 11 14 13 
8 3 4 7 6 12 13 16 15 
8 4 5 8 7 13 14 17 16 
8 9 10 13 12 18 19 22 21 
8 10 11 14 13 19 20 23 22 
8 12 13 16 15 21 22 25 24 
8 13 14 17 16 22 23 26 25 

CELL_TYPES 8
12
12
12
12
12
12
12
12

POINT_DATA 27
VECTORS displacement float
0 0 0
-0.0182609 0 0
-0.0365219 0 0
0 -0.0182609 0
-0.0182609 -0.0182609 0
-0.0365219 -0.0182609 0
0 -0.0365219 0
-0.0182609 -0.0365219 0
-0.0365219 -0.0365219 0
0 0 0.065
-0.0182609 0 0.065
-0.0365219 0 0.065
0 -0.0182609 0.065
-0.0182609 -0.0182609 0.065
-0.0365219 -0.0182609 0.065
0 -0.0365219 0.065
-0.0182609 -0.0365219 0.065
-0.0365219 -0.0365219 0.065
0 0 0.13
-0.0182609 0 0.13
-0.0365219 0 0.13
0 -0.0182609 0.13
-0.0182609 -0.0182609 0.13
-0.0365219 -0.0182609 0.13
0 -0.0365219 0.13
-0.0182609 -0.0365219 0.13
-0.0365219 -0.0365219 0.13

CELL_DATA 8
SCALARS part_id int
LOOKUP_TABLE default
0
0
0
0
0
0
0
0
TENSORS stress float
2.81558e-10 2.30968e-12 3.5617e-11
2.30968e-12 2.81558e-10 3.5617e-11
3.5617e-11 3.5617e-11 0.0742378

1.90794e-10 3.92335e-12 9.29134e-11
3.92335e-12 2.3186e-10 3.35495e-11
9.29134e-11 3.35495e-11 0.0742378

2.3186e-10 3.92334e-12 3.35495e-11
3.92334e-12 1.90794e-10 9.29135e-11
3.35495e-11 9.29135e-11 0.0742378

1.61712e-10 8.71348e-12 8.48587e-11
8.71348e-12 1.61712e-10 8.48587e-11
8.48587e-11 8.48587e-11 0.0742378

-2.82536e-10 -2.30967e-12 3.5617e-11
-2.30967e-12 -2.82536e-10 3.5617e-11
3.5617e-11 3.5617e-11 0.0742378

-1.91772e-10 -3.92332e-12 9.29135e-11
-3.92332e-12 -2.32838e-10 3.35495e-11
9.29135e-11 3.35495e-11 0.0742378

-2.32838e-10 -3.92329e-12 3.35495e-11
-3.92329e-12 -1.91772e-10 9.29135e-11
3.35495e-11 9.29135e-11 0.0742378

-1.62689e-10 -8.71352e-12 8.48588e-11
-8.71352e-12 -1.62689e-10 8.48587e-11
8.48588e-11 8.48587e-11 0.0742378

SCALARS damage float
LOOKUP_TABLE default
0.419208
0.419208
0.419208
0.419208
0.419208
0.419208
0.419208
0.419208
