# vtk DataFile Version 3.0
time 0.15
ASCII
DATASET UNSTRUCTURED_GRID
POINTS 27 float
0 0 0 0.5 0 0 1 0 0 
0 0.5 0 0.5 0.5 0 1 0.5 0 
0 1 0 0.5 1 0 1 1 0 
0 0 0.5 0.5 0 0.5 1 0 0.5 
0 0.5 0.5 0.5 0.5 0.5 1 0.5 0.5 
0 1 0.5 0.5 1 0.5 1 1 0.5 
0 0 1 0.5 0 1 1 0 1 
0 0.5 1 0.5 0.5 1 1 0.5 1 
0 1 1 0.5 1 1 1 1 1 

CELLS 8 72
8 0 1 4 3 9 10 13 12 
8 1 2 5 4 10 11 14 13 
8 3 4 7 6 12 13 16 15 
8 4 5 8 7 13 14 17 16 
8 9 10 13 12 18 19 22 21 
8 10 11 14 13 19 20 23 22 
8 12 13 16 15 21 22 25 24 
8 13 14 17 16 22 23 26 25 

CELL_TYPES 8
12
12
12
12
12
12
12
12

POINT_DATA 27
VECTORS displacement float
0 0 0
-0.0108236 0 0
-0.0216473 0 0
0 -0.0108236 0
-0.0108236 -0.0108236 0
-0.0216473 -0.0108236 0
0 -0.0216473 0
-0.0108236 -0.0216473 0
-0.0216473 -0.0216473 0
0 0 0.0375
-0.0108236 0 0.0375
-0.0216473 0 0.0375
0 -0.0108236 0.0375
-0.0108236 -0.0108236 0.0375
-0.0216473 -0.0108236 0.0375
0 -0.0216473 0.0375
-0.0108236 -0.0216473 0.0375
-0.0216473 -0.0216473 0.0375
0 0 0.075
-0.0108236 0 0.075
-0.0216473 0 0.075
0 -0.0108236 0.075
-0.0108236 -0.0108236 0.075
-0.0216473 -0.0108236 0.075
0 -0.0216473 0.075
-0.0108236 -0.0216473 0.075
-0.0216473 -0.0216473 0.075

CELL_DATA 8
SCALARS part_id int
LOOKUP_TABLE default
0
0
0
0
0
0
0
0
TENSORS stress float
3.45708e-10 2.72196e-12 4.05301e-11
2.72196e-12 3.45708e-10 4.05301e-11
4.05301e-11 4.05301e-11 0.0508431

2.38334e-10 4.55741e-12 1.01384e-10
4.55741e-12 2.86736e-10 3.81897e-11
1.01384e-10 3.81897e-11 0.0508431

2.86736e-10 4.55739e-12 3.81897e-11
4.55739e-12 2.38334e-10 1.01384e-10
3.81897e-11 1.01384e-10 0.0508431

2.03789e-10 1.06214e-11 9.25621e-11
1.06214e-11 2.03789e-10 9.25622e-11
9.25621e-11 9.25622e-11 0.0508431

-3.47278e-10 -2.72196e-12 4.05301e-11
-2.72196e-12 -3.47278e-10 4.05301e-11
4.05301e-11 4.05301e-11 0.0508431

-2.39904e-10 -4.55743e-12 1.01384e-10
-4.55743e-12 -2.88307e-10 3.81897e-11
1.01384e-10 3.81897e-11 0.0508431

-2.88307e-10 -4.55738e-12 3.81897e-11
-4.55738e-12 -2.39904e-10 1.01384e-10
3.81897e-11 1.01384e-10 0.0508431

-2.05359e-10 -1.06213e-11 9.25621e-11
-1.06213e-11 -2.05359e-10 9.25622e-11
9.25621e-11 9.25622e-11 0.0508431

SCALARS damage float
LOOKUP_TABLE default
0.314588
0.314588
0.314588
0.314588
0.314588
0.314588
0.314588
0.314588
