# vtk DataFile Version 3.0
time 0.01
ASCII
DATASET UNSTRUCTURED_GRID
POINTS 27 float
0 0 0 0.5 0 0 1 0 0 
0 0.5 0 0.5 0.5 0 1 0.5 0 
0 1 0 0.5 1 0 1 1 0 
0 0 0.5 0.5 0 0.5 1 0 0.5 
0 0.5 0.5 0.5 0.5 0.5 1 0.5 0.5 
0 1 0.5 0.5 1 0.5 1 1 0.5 
0 0 1 0.5 0 1 1 0 1 
0 0.5 1 0.5 0.5 1 1 0.5 1 
0 1 1 0.5 1 1 1 1 1 

CELLS 8 72
8 0 1 4 3 9 10 13 12 
8 1 2 5 4 10 11 14 13 
8 3 4 7 6 12 13 16 15 
8 4 5 8 7 13 14 17 16 
8 9 10 13 12 18 19 22 21 
8 10 11 14 13 19 20 23 22 
8 12 13 16 15 21 22 25 24 
8 13 14 17 16 22 23 26 25 

CELL_TYPES 8
12
12
12
12
12
12
12
12

POINT_DATA 27
VECTORS displacement float
0 0 0
-0.000748019 0 0
-0.00149604 0 0
0 -0.000748019 0
-0.000748019 -0.000748019 0
-0.00149604 -0.000748019 0
0 -0.00149604 0
-0.000748019 -0.00149604 0
-0.00149604 -0.00149604 0
0 0 0.0025
-0.000748019 0 0.0025
-0.00149604 0 0.0025
0 -0.000748019 0.0025
-0.000748019 -0.000748019 0.0025
-0.00149604 -0.000748019 0.0025
0 -0.00149604 0.0025
-0.000748019 -0.00149604 0.0025
-0.00149604 -0.00149604 0.0025
0 0 0.005
-0.000748019 0 0.005
-0.00149604 0 0.005
0 -0.000748019 0.005
-0.000748019 -0.000748019 0.005
-0.00149604 -0.000748019 0.005
0 -0.00149604 0.005
-0.000748019 -0.00149604 0.005
-0.00149604 -0.00149604 0.005

CELL_DATA 8
SCALARS part_id int
LOOKUP_TABLE default
0
0
0
0
0
0
0
0
TENSORS stress float
1.7145e-10 5.86137e-13 8.38315e-12
5.86137e-13 1.7145e-10 8.38312e-12
8.38315e-12 8.38312e-12 0.00483644

1.48133e-10 9.61079e-13 1.97529e-11
9.61079e-13 1.58631e-10 7.90331e-12
1.97529e-11 7.90331e-12 0.00483644

1.58631e-10 9.60953e-13 7.90322e-12
9.60953e-13 1.48133e-10 1.97529e-11
7.90322e-12 1.97529e-11 0.00483644

1.40614e-10 2.39468e-12 1.80335e-11
2.39468e-12 1.40615e-10 1.80334e-11
1.80335e-11 1.80334e-11 0.00483644

-1.74026e-10 -5.86397e-13 8.38291e-12
-5.86397e-13 -1.74026e-10 8.38309e-12
8.38291e-12 8.38309e-12 0.00483644

-1.50707e-10 -9.60656e-13 1.97532e-11
-9.60656e-13 -1.61206e-10 7.90291e-12
1.97532e-11 7.90291e-12 0.00483644

-1.61206e-10 -9.60827e-13 7.90296e-12
-9.60827e-13 -1.50708e-10 1.9753e-11
7.90296e-12 1.9753e-11 0.00483644

-1.43186e-10 -2.39475e-12 1.80338e-11
-2.39475e-12 -1.43185e-10 1.80339e-11
1.80338e-11 1.80339e-11 0.00483644

SCALARS damage float
LOOKUP_TABLE default
0.0318874
0.0318874
0.0318874
0.0318874
0.0318874
0.0318874
0.0318874
0.0318874
