# vtk DataFile Version 3.0
time 0.29
ASCII
DATASET UNSTRUCTURED_GRID
POINTS 27 float
0 0 0 0.5 0 0 1 0 0 
0 0.5 0 0.5 0.5 0 1 0.5 0 
0 1 0 0.5 1 0 1 1 0 
0 0 0.5 0.5 0 0.5 1 0 0.5 
0 0.5 0.5 0.5 0.5 0.5 1 0.5 0.5 
0 1 0.5 0.5 1 0.5 1 1 0.5 
0 0 1 0.5 0 1 1 0 1 
0 0.5 1 0.5 0.5 1 1 0.5 1 
0 1 1 0.5 1 1 1 1 1 

CELLS 8 72
8 0 1 4 3 9 10 13 12 
8 1 2 5 4 10 11 14 13 
8 3 4 7 6 12 13 16 15 
8 4 5 8 7 13 14 17 16 
8 9 10 13 12 18 19 22 21 
8 10 11 14 13 19 20 23 22 
8 12 13 16 15 21 22 25 24 
8 13 14 17 16 22 23 26 25 

CELL_TYPES 8
12
12
12
12
12
12
12
12

POINT_DATA 27
VECTORS displacement float
0 0 0
-0.0202221 0 0
-0.0404442 0 0
0 -0.0202221 0
-0.0202221 -0.0202221 0
-0.0404442 -0.0202221 0
0 -0.0404442 0
-0.0202221 -0.0404442 0
-0.0404442 -0.0404442 0
0 0 0.0725
-0.0202221 0 0.0725
-0.0404442 0 0.0725
0 -0.0202221 0.0725
-0.0202221 -0.0202221 0.0725
-0.0404442 -0.0202221 0.0725
0 -0.0404442 0.0725
-0.0202221 -0.0404442 0.0725
-0.0404442 -0.0404442 0.0725
0 0 0.145
-0.0202221 0 0.145
-0.0404442 0 0.145
0 -0.0202221 0.145
-0.0202221 -0.0202221 0.145
-0.0404442 -0.0202221 0.145
0 -0.0404442 0.145
-0.0202221 -0.0404442 0.145
-0.0404442 -0.0404442 0.145

CELL_DATA 8
SCALARS part_id int
LOOKUP_TABLE default
0
0
0
0
0
0
0
0
TENSORS stress float
2.60334e-10 2.14365e-12 3.34213e-11
2.14365e-12 2.60334e-10 3.34213e-11
3.34213e-11 3.34213e-11 0.0799109

1.76089e-10 3.65453e-12 8.81394e-11
3.65453e-12 2.1429e-10 3.14811e-11
8.81394e-11 3.14811e-11 0.0799109

2.1429e-10 3.65451e-12 3.14811e-11
3.65451e-12 1.76089e-10 8.81394e-11
3.14811e-11 8.81394e-11 0.0799109

1.49152e-10 8.01522e-12 8.05166e-11
8.01522e-12 1.49152e-10 8.05166e-11
8.05166e-11 8.05166e-11 0.0799109

-2.61202e-10 -2.14362e-12 3.34213e-11
-2.14362e-12 -2.61201e-10 3.34213e-11
3.34213e-11 3.34213e-11 0.0799109

-1.76957e-10 -3.6545e-12 8.81394e-11
-3.6545e-12 -2.15158e-10 3.14812e-11
8.81394e-11 3.14812e-11 0.0799109

-2.15157e-10 -3.65453e-12 3.14812e-11
-3.65453e-12 -1.76957e-10 8.81395e-11
3.14812e-11 8.81395e-11 0.0799109

-1.50019e-10 -8.01525e-12 8.05166e-11
-8.01525e-12 -1.50019e-10 8.05166e-11
8.05166e-11 8.05166e-11 0.0799109

SCALARS damage float
LOOKUP_TABLE default
0.438756
0.438756
0.438756
0.438756
0.438756
0.438756
0.438756
0.438756
