# vtk DataFile Version 3.0
time 0.31
ASCII
DATASET UNSTRUCTURED_GRID
POINTS 27 float
0 0 0 0.5 0 0 1 0 0 
0 0.5 0 0.5 0.5 0 1 0.5 0 
0 1 0 0.5 1 0 1 1 0 
0 0 0.5 0.5 0 0.5 1 0 0.5 
0 0.5 0.5 0.5 0.5 0.5 1 0.5 0.5 
0 1 0.5 0.5 1 0.5 1 1 0.5 
0 0 1 0.5 0 1 1 0 1 
0 0.5 1 0.5 0.5 1 1 0.5 1 
0 1 1 0.5 1 1 1 1 1 

CELLS 8 72
8 0 1 4 3 9 10 13 12 
8 1 2 5 4 10 11 14 13 
8 3 4 7 6 12 13 16 15 
8 4 5 8 7 13 14 17 16 
8 9 10 13 12 18 19 22 21 
8 10 11 14 13 19 20 23 22 
8 12 13 16 15 21 22 25 24 
8 13 14 17 16 22 23 26 25 

CELL_TYPES 8
12
12
12
12
12
12
12
12

POINT_DATA 27
VECTORS displacement float
0 0 0
-0.0215142 0 0
-0.0430285 0 0
0 -0.0215142 0
-0.0215142 -0.0215142 0
-0.0430285 -0.0215142 0
0 -0.0430285 0
-0.0215142 -0.0430285 0
-0.0430285 -0.0430285 0
0 0 0.0775
-0.0215142 0 0.0775
-0.0430285 0 0.0775
0 -0.0215142 0.0775
-0.0215142 -0.0215142 0.0775
-0.0430285 -0.0215142 0.0775
0 -0.0430285 0.0775
-0.0215142 -0.0430285 0.0775
-0.0430285 -0.0430285 0.0775
0 0 0.155
-0.0215142 0 0.155
-0.0430285 0 0.155
0 -0.0215142 0.155
-0.0215142 -0.0215142 0.155
-0.0430285 -0.0215142 0.155
0 -0.0430285 0.155
-0.0215142 -0.0430285 0.155
-0.0430285 -0.0430285 0.155

CELL_DATA 8
SCALARS part_id int
LOOKUP_TABLE default
0
0
0
0
0
0
0
0
TENSORS stress float
2.4647e-10 2.03278e-12 3.1932e-11
2.03278e-12 2.4647e-10 3.19321e-11
3.1932e-11 3.19321e-11 0.0835968

1.66566e-10 3.47372e-12 8.48108e-11
3.47372e-12 2.02857e-10 3.00785e-11
8.48108e-11 3.00785e-11 0.0835968

2.02857e-10 3.47371e-12 3.00785e-11
3.47371e-12 1.66566e-10 8.48108e-11
3.00785e-11 8.48108e-11 0.0835968

1.41056e-10 7.55619e-12 7.74887e-11
7.55619e-12 1.41056e-10 7.74888e-11
7.74887e-11 7.74888e-11 0.0835968

-2.47272e-10 -2.0328e-12 3.1932e-11
-2.0328e-12 -2.47272e-10 3.1932e-11
3.1932e-11 3.1932e-11 0.0835968

-1.67369e-10 -3.47372e-12 8.48108e-11
-3.47372e-12 -2.0366e-10 3.00785e-11
8.48108e-11 3.00785e-11 0.0835968

-2.0366e-10 -3.47373e-12 3.00785e-11
-3.47373e-12 -1.67369e-10 8.48108e-11
3.00785e-11 8.48108e-11 0.0835968

-1.41858e-10 -7.55614e-12 7.74887e-11
-7.55614e-12 -1.41858e-10 7.74888e-11
7.74887e-11 7.74888e-11 0.0835968

SCALARS damage float
LOOKUP_TABLE default
0.450298
0.450298
0.450298
0.450298
0.450298
0.450298
0.450298
0.450298
