# vtk DataFile Version 3.0
time 0.47
ASCII
DATASET UNSTRUCTURED_GRID
POINTS 27 float
0 0 0 0.5 0 0 1 0 0 
0 0.5 0 0.5 0.5 0 1 0.5 0 
0 1 0 0.5 1 0 1 1 0 
0 0 0.5 0.5 0 0.5 1 0 0.5 
0 0.5 0.5 0.5 0.5 0.5 1 0.5 0.5 
0 1 0.5 0.5 1 0.5 1 1 0.5 
0 0 1 0.5 0 1 1 0 1 
0 0.5 1 0.5 0.5 1 1 0.5 1 
0 1 1 0.5 1 1 1 1 1 

CELLS 8 72
8 0 1 4 3 9 10 13 12 
8 1 2 5 4 10 11 14 13 
8 3 4 7 6 12 13 16 15 
8 4 5 8 7 13 14 17 16 
8 9 10 13 12 18 19 22 21 
8 10 11 14 13 19 20 23 22 
8 12 13 16 15 21 22 25 24 
8 13 14 17 16 22 23 26 25 

CELL_TYPES 8
12
12
12
12
12
12
12
12

POINT_DATA 27
VECTORS displacement float
0 0 0
-0.0314369 0 0
-0.0628738 0 0
0 -0.0314369 0
-0.0314369 -0.0314369 0
-0.0628738 -0.0314369 0
0 -0.0628738 0
-0.0314369 -0.0628738 0
-0.0628738 -0.0628738 0
0 0 0.1175
-0.0314369 0 0.1175
-0.0628738 0 0.1175
0 -0.0314369 0.1175
-0.0314369 -0.0314369 0.1175
-0.0628738 -0.0314369 0.1175
0 -0.0628738 0.1175
-0.0314369 -0.0628738 0.1175
-0.0628738 -0.0628738 0.1175
0 0 0.235
-0.0314369 0 0.235
-0.0628738 0 0.235
0 -0.0314369 0.235
-0.0314369 -0.0314369 0.235
-0.0628738 -0.0314369 0.235
0 -0.0628738 0.235
-0.0314369 -0.0628738 0.235
-0.0628738 -0.0628738 0.235

CELL_DATA 8
SCALARS part_id int
LOOKUP_TABLE default
0
0
0
0
0
0
0
0
TENSORS stress float
1.55564e-10 1.28468e-12 2.1455e-11
1.28468e-12 1.55564e-10 2.1455e-11
2.1455e-11 2.1455e-11 0.111593

1.04954e-10 2.23355e-12 5.99928e-11
2.23355e-12 1.28248e-10 2.0212e-11
5.99928e-11 2.0212e-11 0.111593

1.28248e-10 2.23353e-12 2.0212e-11
2.23353e-12 1.04954e-10 5.99928e-11
2.0212e-11 5.99928e-11 0.111593

8.89991e-11 4.56418e-12 5.48914e-11
4.56418e-12 8.89991e-11 5.48914e-11
5.48914e-11 5.48914e-11 0.111593

-1.56022e-10 -1.28466e-12 2.1455e-11
-1.28466e-12 -1.56022e-10 2.14551e-11
2.1455e-11 2.14551e-11 0.111593

-1.05413e-10 -2.23356e-12 5.99928e-11
-2.23356e-12 -1.28706e-10 2.0212e-11
5.99928e-11 2.0212e-11 0.111593

-1.28706e-10 -2.23354e-12 2.0212e-11
-2.23354e-12 -1.05413e-10 5.99928e-11
2.0212e-11 5.99928e-11 0.111593

-8.94575e-11 -4.56422e-12 5.48915e-11
-4.56422e-12 -8.94574e-11 5.48915e-11
5.48915e-11 5.48915e-11 0.111593

SCALARS damage float
LOOKUP_TABLE default
0.513642
0.513642
0.513642
0.513642
0.513642
0.513642
0.513642
0.513642
