# vtk DataFile Version 3.0
time 0.22
ASCII
DATASET UNSTRUCTURED_GRID
POINTS 27 float
0 0 0 0.5 0 0 1 0 0 
0 0.5 0 0.5 0.5 0 1 0.5 0 
0 1 0 0.5 1 0 1 1 0 
0 0 0.5 0.5 0 0.5 1 0 0.5 
0 0.5 0.5 0.5 0.5 0.5 1 0.5 0.5 
0 1 0.5 0.5 1 0.5 1 1 0.5 
0 0 1 0.5 0 1 1 0 1 
0 0.5 1 0.5 0.5 1 1 0.5 1 
0 1 1 0.5 1 1 1 1 1 

CELLS 8 72
8 0 1 4 3 9 10 13 12 
8 1 2 5 4 10 11 14 13 
8 3 4 7 6 12 13 16 15 
8 4 5 8 7 13 14 17 16 
8 9 10 13 12 18 19 22 21 
8 10 11 14 13 19 20 23 22 
8 12 13 16 15 21 22 25 24 
8 13 14 17 16 22 23 26 25 

CELL_TYPES 8
12
12
12
12
12
12
12
12

POINT_DATA 27
VECTORS displacement float
0 0 0
-0.0156022 0 0
-0.0312044 0 0
0 -0.0156022 0
-0.0156022 -0.0156022 0
-0.0312044 -0.0156022 0
0 -0.0312044 0
-0.0156022 -0.0312044 0
-0.0312044 -0.0312044 0
0 0 0.055
-0.0156022 0 0.055
-0.0312044 0 0.055
0 -0.0156022 0.055
-0.0156022 -0.0156022 0.055
-0.0312044 -0.0156022 0.055
0 -0.0312044 0.055
-0.0156022 -0.0312044 0.055
-0.0312044 -0.0312044 0.055
0 0 0.11
-0.0156022 0 0.11
-0.0312044 0 0.11
0 -0.0156022 0.11
-0.0156022 -0.0156022 0.11
-0.0312044 -0.0156022 0.11
0 -0.0312044 0.11
-0.0156022 -0.0312044 0.11
-0.0312044 -0.0312044 0.11

CELL_DATA 8
SCALARS part_id int
LOOKUP_TABLE default
0
0
0
0
0
0
0
0
TENSORS stress float
3.09294e-10 2.51558e-12 3.82592e-11
2.51558e-12 3.09294e-10 3.82592e-11
3.82592e-11 3.82592e-11 0.0663115

2.10387e-10 4.25164e-12 9.83281e-11
4.25164e-12 2.55035e-10 3.60404e-11
9.83281e-11 3.60404e-11 0.0663115

2.55035e-10 4.25168e-12 3.60404e-11
4.25168e-12 2.10387e-10 9.83281e-11
3.60404e-11 9.83281e-11 0.0663115

1.78624e-10 9.60559e-12 8.97835e-11
9.60559e-12 1.78624e-10 8.97835e-11
8.97835e-11 8.97835e-11 0.0663115

-3.10449e-10 -2.51558e-12 3.82592e-11
-2.51558e-12 -3.10449e-10 3.82592e-11
3.82592e-11 3.82592e-11 0.0663115

-2.11542e-10 -4.25168e-12 9.8328e-11
-4.25168e-12 -2.56191e-10 3.60404e-11
9.8328e-11 3.60404e-11 0.0663115

-2.56191e-10 -4.25164e-12 3.60404e-11
-4.25164e-12 -2.11542e-10 9.83279e-11
3.60404e-11 9.83279e-11 0.0663115

-1.7978e-10 -9.60562e-12 8.97835e-11
-9.60562e-12 -1.7978e-10 8.97835e-11
8.97835e-11 8.97835e-11 0.0663115

SCALARS damage float
LOOKUP_TABLE default
0.388087
0.388087
0.388087
0.388087
0.388087
0.388087
0.388087
0.388087
