# vtk DataFile Version 3.0
time 0.12
ASCII
DATASET UNSTRUCTURED_GRID
POINTS 27 float
0 0 0 0.5 0 0 1 0 0 
0 0.5 0 0.5 0.5 0 1 0.5 0 
0 1 0 0.5 1 0 1 1 0 
0 0 0.5 0.5 0 0.5 1 0 0.5 
0 0.5 0.5 0.5 0.5 0.5 1 0.5 0.5 
0 1 0.5 0.5 1 0.5 1 1 0.5 
0 0 1 0.5 0 1 1 0 1 
0 0.5 1 0.5 0.5 1 1 0.5 1 
0 1 1 0.5 1 1 1 1 1 

CELLS 8 72
8 0 1 4 3 9 10 13 12 
8 1 2 5 4 10 11 14 13 
8 3 4 7 6 12 13 16 15 
8 4 5 8 7 13 14 17 16 
8 9 10 13 12 18 19 22 21 
8 10 11 14 13 19 20 23 22 
8 12 13 16 15 21 22 25 24 
8 13 14 17 16 22 23 26 25 

CELL_TYPES 8
12
12
12
12
12
12
12
12

POINT_DATA 27
VECTORS displacement float
0 0 0
-0.00872457 0 0
-0.0174491 0 0
0 -0.00872457 0
-0.00872457 -0.00872457 0
-0.0174491 -0.00872457 0
0 -0.0174491 0
-0.00872457 -0.0174491 0
-0.0174491 -0.0174491 0
0 0 0.03
-0.00872457 0 0.03
-0.0174491 0 0.03
0 -0.00872457 0.03
-0.00872457 -0.00872457 0.03
-0.0174491 -0.00872457 0.03
0 -0.0174491 0.03
-0.00872457 -0.0174491 0.03
-0.0174491 -0.0174491 0.03
0 0 0.06
-0.00872457 0 0.06
-0.0174491 0 0.06
0 -0.00872457 0.06
-0.00872457 -0.00872457 0.06
-0.0174491 -0.00872457 0.06
0 -0.0174491 0.06
-0.00872457 -0.0174491 0.06
-0.0174491 -0.0174491 0.06

CELL_DATA 8
SCALARS part_id int
LOOKUP_TABLE default
0
0
0
0
0
0
0
0
TENSORS stress float
3.49429e-10 2.67851e-12 3.95665e-11
2.67851e-12 3.49429e-10 3.95665e-11
3.95665e-11 3.95665e-11 0.0432311

2.43525e-10 4.46543e-12 9.77976e-11
4.46543e-12 2.91283e-10 3.72883e-11
9.77976e-11 3.72883e-11 0.0432311

2.91284e-10 4.46538e-12 3.72884e-11
4.46538e-12 2.43525e-10 9.77976e-11
3.72884e-11 9.77976e-11 0.0432311

2.09453e-10 1.05518e-11 8.92923e-11
1.05518e-11 2.09453e-10 8.92923e-11
8.92923e-11 8.92923e-11 0.0432311

-3.51223e-10 -2.67852e-12 3.95665e-11
-2.67852e-12 -3.51223e-10 3.95665e-11
3.95665e-11 3.95665e-11 0.0432311

-2.45319e-10 -4.46539e-12 9.77976e-11
-4.46539e-12 -2.93078e-10 3.72884e-11
9.77976e-11 3.72884e-11 0.0432311

-2.93078e-10 -4.46544e-12 3.72883e-11
-4.46544e-12 -2.45319e-10 9.77976e-11
3.72883e-11 9.77976e-11 0.0432311

-2.11247e-10 -1.05517e-11 8.92923e-11
-1.05517e-11 -2.11247e-10 8.92923e-11
8.92923e-11 8.92923e-11 0.0432311

SCALARS damage float
LOOKUP_TABLE default
0.272897
0.272897
0.272897
0.272897
0.272897
0.272897
0.272897
0.272897
