# vtk DataFile Version 3.0
time 0.23
ASCII
DATASET UNSTRUCTURED_GRID
POINTS 27 float
0 0 0 0.5 0 0 1 0 0 
0 0.5 0 0.5 0.5 0 1 0.5 0 
0 1 0 0.5 1 0 1 1 0 
0 0 0.5 0.5 0 0.5 1 0 0.5 
0 0.5 0.5 0.5 0.5 0.5 1 0.5 0.5 
0 1 0.5 0.5 1 0.5 1 1 0.5 
0 0 1 0.5 0 1 1 0 1 
0 0.5 1 0.5 0.5 1 1 0.5 1 
0 1 1 0.5 1 1 1 1 1 

CELLS 8 72
8 0 1 4 3 9 10 13 12 
8 1 2 5 4 10 11 14 13 
8 3 4 7 6 12 13 16 15 
8 4 5 8 7 13 14 17 16 
8 9 10 13 12 18 19 22 21 
8 10 11 14 13 19 20 23 22 
8 12 13 16 15 21 22 25 24 
8 13 14 17 16 22 23 26 25 

CELL_TYPES 8
12
12
12
12
12
12
12
12

POINT_DATA 27
VECTORS displacement float
0 0 0
-0.0162717 0 0
-0.0325434 0 0
0 -0.0162717 0
-0.0162717 -0.0162717 0
-0.0325434 -0.0162717 0
0 -0.0325434 0
-0.0162717 -0.0325434 0
-0.0325434 -0.0325434 0
0 0 0.0575
-0.0162717 0 0.0575
-0.0325434 0 0.0575
0 -0.0162717 0.0575
-0.0162717 -0.0162717 0.0575
-0.0325434 -0.0162717 0.0575
0 -0.0325434 0.0575
-0.0162717 -0.0325434 0.0575
-0.0325434 -0.0325434 0.0575
0 0 0.115
-0.0162717 0 0.115
-0.0325434 0 0.115
0 -0.0162717 0.115
-0.0162717 -0.0162717 0.115
-0.0325434 -0.0162717 0.115
0 -0.0325434 0.115
-0.0162717 -0.0325434 0.115
-0.0325434 -0.0325434 0.115

CELL_DATA 8
SCALARS part_id int
LOOKUP_TABLE default
0
0
0
0
0
0
0
0
TENSORS stress float
3.0255e-10 2.4672e-12 3.7649e-11
2.4672e-12 3.0255e-10 3.7649e-11
3.7649e-11 3.7649e-11 0.0683399

2.05567e-10 4.17519e-12 9.71254e-11
4.17519e-12 2.49368e-10 3.54649e-11
9.71254e-11 3.54649e-11 0.0683399

2.49368e-10 4.17516e-12 3.54649e-11
4.17516e-12 2.05567e-10 9.71254e-11
3.54649e-11 9.71254e-11 0.0683399

1.74437e-10 9.39217e-12 8.86895e-11
9.39217e-12 1.74437e-10 8.86896e-11
8.86895e-11 8.86896e-11 0.0683399

-3.03657e-10 -2.46717e-12 3.7649e-11
-2.46717e-12 -3.03657e-10 3.7649e-11
3.7649e-11 3.7649e-11 0.0683399

-2.06674e-10 -4.17515e-12 9.71255e-11
-4.17515e-12 -2.50475e-10 3.54649e-11
9.71255e-11 3.54649e-11 0.0683399

-2.50475e-10 -4.17519e-12 3.54649e-11
-4.17519e-12 -2.06674e-10 9.71254e-11
3.54649e-11 9.71254e-11 0.0683399

-1.75544e-10 -9.39221e-12 8.86896e-11
-9.39221e-12 -1.75544e-10 8.86896e-11
8.86896e-11 8.86896e-11 0.0683399

SCALARS damage float
LOOKUP_TABLE default
0.396482
0.396482
0.396482
0.396482
0.396482
0.396482
0.396482
0.396482
