# vtk DataFile Version 3.0
time 0.14
ASCII
DATASET UNSTRUCTURED_GRID
POINTS 27 float
0 0 0 0.5 0 0 1 0 0 
0 0.5 0 0.5 0.5 0 1 0.5 0 
0 1 0 0.5 1 0 1 1 0 
0 0 0.5 0.5 0 0.5 1 0 0.5 
0 0.5 0.5 0.5 0.5 0.5 1 0.5 0.5 
0 1 0.5 0.5 1 0.5 1 1 0.5 
0 0 1 0.5 0 1 1 0 1 
0 0.5 1 0.5 0.5 1 1 0.5 1 
0 1 1 0.5 1 1 1 1 1 

CELLS 8 72
8 0 1 4 3 9 10 13 12 
8 1 2 5 4 10 11 14 13 
8 3 4 7 6 12 13 16 15 
8 4 5 8 7 13 14 17 16 
8 9 10 13 12 18 19 22 21 
8 10 11 14 13 19 20 23 22 
8 12 13 16 15 21 22 25 24 
8 13 14 17 16 22 23 26 25 

CELL_TYPES 8
12
12
12
12
12
12
12
12

POINT_DATA 27
VECTORS displacement float
0 0 0
-0.0101274 0 0
-0.0202549 0 0
0 -0.0101274 0
-0.0101274 -0.0101274 0
-0.0202549 -0.0101274 0
0 -0.0202549 0
-0.0101274 -0.0202549 0
-0.0202549 -0.0202549 0
0 0 0.035
-0.0101274 0 0.035
-0.0202549 0 0.035
0 -0.0101274 0.035
-0.0101274 -0.0101274 0.035
-0.0202549 -0.0101274 0.035
0 -0.0202549 0.035
-0.0101274 -0.0202549 0.035
-0.0202549 -0.0202549 0.035
0 0 0.07
-0.0101274 0 0.07
-0.0202549 0 0.07
0 -0.0101274 0.07
-0.0101274 -0.0101274 0.07
-0.0202549 -0.0101274 0.07
0 -0.0202549 0.07
-0.0101274 -0.0202549 0.07
-0.0202549 -0.0202549 0.07

CELL_DATA 8
SCALARS part_id int
LOOKUP_TABLE default
0
0
0
0
0
0
0
0
TENSORS stress float
3.48128e-10 2.72004e-12 4.0392e-11
2.72004e-12 3.48128e-10 4.0392e-11
4.0392e-11 4.0392e-11 0.0483896

2.40751e-10 4.54776e-12 1.0064e-10
4.54776e-12 2.89159e-10 3.80618e-11
1.0064e-10 3.80618e-11 0.0483896

2.89159e-10 4.54775e-12 3.80618e-11
4.54775e-12 2.40751e-10 1.0064e-10
3.80618e-11 1.0064e-10 0.0483896

2.06204e-10 1.06475e-11 9.18837e-11
1.06475e-11 2.06204e-10 9.18838e-11
9.18837e-11 9.18838e-11 0.0483896

-3.49769e-10 -2.72004e-12 4.03921e-11
-2.72004e-12 -3.49769e-10 4.0392e-11
4.03921e-11 4.0392e-11 0.0483896

-2.42393e-10 -4.54773e-12 1.0064e-10
-4.54773e-12 -2.90801e-10 3.80618e-11
1.0064e-10 3.80618e-11 0.0483896

-2.90801e-10 -4.54776e-12 3.80618e-11
-4.54776e-12 -2.42393e-10 1.0064e-10
3.80618e-11 1.0064e-10 0.0483896

-2.07846e-10 -1.06474e-11 9.18837e-11
-1.06474e-11 -2.07846e-10 9.18837e-11
9.18837e-11 9.18837e-11 0.0483896

SCALARS damage float
LOOKUP_TABLE default
0.301503
0.301503
0.301503
0.301503
0.301503
0.301503
0.301503
0.301503
