# vtk DataFile Version 3.0
time 0.44
ASCII
DATASET UNSTRUCTURED_GRID
POINTS 27 float
0 0 0 0.5 0 0 1 0 0 
0 0.5 0 0.5 0.5 0 1 0.5 0 
0 1 0 0.5 1 0 1 1 0 
0 0 0.5 0.5 0 0.5 1 0 0.5 
0 0.5 0.5 0.5 0.5 0.5 1 0.5 0.5 
0 1 0.5 0.5 1 0.5 1 1 0.5 
0 0 1 0.5 0 1 1 0 1 
0 0.5 1 0.5 0.5 1 1 0.5 1 
0 1 1 0.5 1 1 1 1 1 

CELLS 8 72
8 0 1 4 3 9 10 13 12 
8 1 2 5 4 10 11 14 13 
8 3 4 7 6 12 13 16 15 
8 4 5 8 7 13 14 17 16 
8 9 10 13 12 18 19 22 21 
8 10 11 14 13 19 20 23 22 
8 12 13 16 15 21 22 25 24 
8 13 14 17 16 22 23 26 25 

CELL_TYPES 8
12
12
12
12
12
12
12
12

POINT_DATA 27
VECTORS displacement float
0 0 0
-0.0296303 0 0
-0.0592605 0 0
0 -0.0296303 0
-0.0296303 -0.0296303 0
-0.0592605 -0.0296303 0
0 -0.0592605 0
-0.0296303 -0.0592605 0
-0.0592605 -0.0592605 0
0 0 0.11
-0.0296303 0 0.11
-0.0592605 0 0.11
0 -0.0296303 0.11
-0.0296303 -0.0296303 0.11
-0.0592605 -0.0296303 0.11
0 -0.0592605 0.11
-0.0296303 -0.0592605 0.11
-0.0592605 -0.0592605 0.11
0 0 0.22
-0.0296303 0 0.22
-0.0592605 0 0.22
0 -0.0296303 0.22
-0.0296303 -0.0296303 0.22
-0.0592605 -0.0296303 0.22
0 -0.0592605 0.22
-0.0296303 -0.0592605 0.22
-0.0592605 -0.0592605 0.22

CELL_DATA 8
SCALARS part_id int
LOOKUP_TABLE default
0
0
0
0
0
0
0
0
TENSORS stress float
1.69581e-10 1.40121e-12 2.31369e-11
1.40121e-12 1.69581e-10 2.31369e-11
2.31369e-11 2.31369e-11 0.106465

1.14397e-10 2.42881e-12 6.41205e-11
2.42881e-12 1.39737e-10 2.17961e-11
6.41205e-11 2.17961e-11 0.106465

1.39738e-10 2.4288e-12 2.17961e-11
2.4288e-12 1.14397e-10 6.41205e-11
2.17961e-11 6.41205e-11 0.106465

9.69605e-11 5.01938e-12 5.86532e-11
5.01938e-12 9.69606e-11 5.86532e-11
5.86532e-11 5.86532e-11 0.106465

-1.70086e-10 -1.40121e-12 2.31369e-11
-1.40121e-12 -1.70086e-10 2.31369e-11
2.31369e-11 2.31369e-11 0.106465

-1.14902e-10 -2.4288e-12 6.41205e-11
-2.4288e-12 -1.40243e-10 2.17961e-11
6.41205e-11 2.17961e-11 0.106465

-1.40243e-10 -2.4288e-12 2.17961e-11
-2.4288e-12 -1.14902e-10 6.41205e-11
2.17961e-11 6.41205e-11 0.106465

-9.74661e-11 -5.01935e-12 5.86532e-11
-5.01935e-12 -9.74661e-11 5.86532e-11
5.86532e-11 5.86532e-11 0.106465

SCALARS damage float
LOOKUP_TABLE default
0.504702
0.504702
0.504702
0.504702
0.504702
0.504702
0.504702
0.504702
