# vtk DataFile Version 3.0
time 0.24
ASCII
DATASET UNSTRUCTURED_GRID
POINTS 27 float
0 0 0 0.5 0 0 1 0 0 
0 0.5 0 0.5 0.5 0 1 0.5 0 
0 1 0 0.5 1 0 1 1 0 
0 0 0.5 0.5 0 0.5 1 0 0.5 
0 0.5 0.5 0.5 0.5 0.5 1 0.5 0.5 
0 1 0.5 0.5 1 0.5 1 1 0.5 
0 0 1 0.5 0 1 1 0 1 
0 0.5 1 0.5 0.5 1 1 0.5 1 
0 1 1 0.5 1 1 1 1 1 

CELLS 8 72
8 0 1 4 3 9 10 13 12 
8 1 2 5 4 10 11 14 13 
8 3 4 7 6 12 13 16 15 
8 4 5 8 7 13 14 17 16 
8 9 10 13 12 18 19 22 21 
8 10 11 14 13 19 20 23 22 
8 12 13 16 15 21 22 25 24 
8 13 14 17 16 22 23 26 25 

CELL_TYPES 8
12
12
12
12
12
12
12
12

POINT_DATA 27
VECTORS displacement float
0 0 0
-0.0169379 0 0
-0.0338759 0 0
0 -0.0169379 0
-0.0169379 -0.0169379 0
-0.0338759 -0.0169379 0
0 -0.0338759 0
-0.0169379 -0.0338759 0
-0.0338759 -0.0338759 0
0 0 0.06
-0.0169379 0 0.06
-0.0338759 0 0.06
0 -0.0169379 0.06
-0.0169379 -0.0169379 0.06
-0.0338759 -0.0169379 0.06
0 -0.0338759 0.06
-0.0169379 -0.0338759 0.06
-0.0338759 -0.0338759 0.06
0 0 0.12
-0.0169379 0 0.12
-0.0338759 0 0.12
0 -0.0169379 0.12
-0.0169379 -0.0169379 0.12
-0.0338759 -0.0169379 0.12
0 -0.0338759 0.12
-0.0169379 -0.0338759 0.12
-0.0338759 -0.0338759 0.12

CELL_DATA 8
SCALARS part_id int
LOOKUP_TABLE default
0
0
0
0
0
0
0
0
TENSORS stress float
2.95645e-10 2.41639e-12 3.70001e-11
2.41639e-12 2.95645e-10 3.70001e-11
3.70001e-11 3.70001e-11 0.0703351

2.00674e-10 4.09436e-12 9.58095e-11
4.09436e-12 2.4359e-10 3.48531e-11
9.58095e-11 3.48531e-11 0.0703351

2.4359e-10 4.09434e-12 3.48531e-11
4.09434e-12 2.00674e-10 9.58095e-11
3.48531e-11 9.58095e-11 0.0703351

1.70207e-10 9.17092e-12 8.74927e-11
9.17092e-12 1.70207e-10 8.74927e-11
8.74927e-11 8.74927e-11 0.0703351

-2.96707e-10 -2.41633e-12 3.70001e-11
-2.41633e-12 -2.96707e-10 3.70001e-11
3.70001e-11 3.70001e-11 0.0703351

-2.01736e-10 -4.09431e-12 9.58096e-11
-4.09431e-12 -2.44652e-10 3.48531e-11
9.58096e-11 3.48531e-11 0.0703351

-2.44652e-10 -4.09435e-12 3.48531e-11
-4.09435e-12 -2.01736e-10 9.58096e-11
3.48531e-11 9.58096e-11 0.0703351

-1.71269e-10 -9.17093e-12 8.74928e-11
-9.17093e-12 -1.71269e-10 8.74928e-11
8.74928e-11 8.74928e-11 0.0703351

SCALARS damage float
LOOKUP_TABLE default
0.404449
0.404449
0.404449
0.404449
0.404449
0.404449
0.404449
0.404449
