# vtk DataFile Version 3.0
time 0.03
ASCII
DATASET UNSTRUCTURED_GRID
POINTS 27 float
0 0 0 0.5 0 0 1 0 0 
0 0.5 0 0.5 0.5 0 1 0.5 0 
0 1 0 0.5 1 0 1 1 0 
0 0 0.5 0.5 0 0.5 1 0 0.5 
0 0.5 0.5 0.5 0.5 0.5 1 0.5 0.5 
0 1 0.5 0.5 1 0.5 1 1 0.5 
0 0 1 0.5 0 1 1 0 1 
0 0.5 1 0.5 0.5 1 1 0.5 1 
0 1 1 0.5 1 1 1 1 1 

CELLS 8 72
8 0 1 4 3 9 10 13 12 
8 1 2 5 4 10 11 14 13 
8 3 4 7 6 12 13 16 15 
8 4 5 8 7 13 14 17 16 
8 9 10 13 12 18 19 22 21 
8 10 11 14 13 19 20 23 22 
8 12 13 16 15 21 22 25 24 
8 13 14 17 16 22 23 26 25 

CELL_TYPES 8
12
12
12
12
12
12
12
12

POINT_DATA 27
VECTORS displacement float
0 0 0
-0.00223229 0 0
-0.00446457 0 0
0 -0.00223229 0
-0.00223229 -0.00223229 0
-0.00446457 -0.00223229 0
0 -0.00446457 0
-0.00223229 -0.00446457 0
-0.00446457 -0.00446457 0
0 0 0.0075
-0.00223229 0 0.0075
-0.00446457 0 0.0075
0 -0.00223229 0.0075
-0.00223229 -0.00223229 0.0075
-0.00446457 -0.00223229 0.0075
0 -0.00446457 0.0075
-0.00223229 -0.00446457 0.0075
-0.00446457 -0.00446457 0.0075
0 0 0.015
-0.00223229 0 0.015
-0.00446457 0 0.015
0 -0.00223229 0.015
-0.00223229 -0.00223229 0.015
-0.00446457 -0.00223229 0.015
0 -0.00446457 0.015
-0.00223229 -0.00446457 0.015
-0.00446457 -0.00446457 0.015

CELL_DATA 8
SCALARS part_id int
LOOKUP_TABLE default
0
0
0
0
0
0
0
0
TENSORS stress float
2.42235e-10 1.34728e-12 1.94047e-11
1.34728e-12 2.42235e-10 1.94048e-11
1.94047e-11 1.94048e-11 0.0136235

1.88652e-10 2.21533e-12 4.61513e-11
2.21533e-12 2.12811e-10 1.82952e-11
4.61513e-11 1.82952e-11 0.0136235

2.12812e-10 2.21531e-12 1.82953e-11
2.21531e-12 1.88653e-10 4.61514e-11
1.82953e-11 4.61514e-11 0.0136235

1.71397e-10 5.46663e-12 4.21389e-11
5.46663e-12 1.71397e-10 4.21388e-11
4.21389e-11 4.21388e-11 0.0136235

-2.4474e-10 -1.34717e-12 1.94047e-11
-1.34717e-12 -2.4474e-10 1.94048e-11
1.94047e-11 1.94048e-11 0.0136235

-1.91158e-10 -2.21525e-12 4.61514e-11
-2.21525e-12 -2.15316e-10 1.82952e-11
4.61514e-11 1.82952e-11 0.0136235

-2.15316e-10 -2.21536e-12 1.82952e-11
-2.21536e-12 -1.91158e-10 4.61513e-11
1.82952e-11 4.61513e-11 0.0136235

-1.73902e-10 -5.4665e-12 4.21388e-11
-5.4665e-12 -1.73902e-10 4.21389e-11
4.21388e-11 4.21389e-11 0.0136235

SCALARS damage float
LOOKUP_TABLE default
0.0894896
0.0894896
0.0894896
0.0894896
0.0894896
0.0894896
0.0894896
0.0894896
