# vtk DataFile Version 3.0
time 0.5
ASCII
DATASET UNSTRUCTURED_GRID
POINTS 27 float
0 0 0 0.5 0 0 1 0 0 
0 0.5 0 0.5 0.5 0 1 0.5 0 
0 1 0 0.5 1 0 1 1 0 
0 0 0.5 0.5 0 0.5 1 0 0.5 
0 0.5 0.5 0.5 0.5 0.5 1 0.5 0.5 
0 1 0.5 0.5 1 0.5 1 1 0.5 
0 0 1 0.5 0 1 1 0 1 
0 0.5 1 0.5 0.5 1 1 0.5 1 
0 1 1 0.5 1 1 1 1 1 

CELLS 8 72
8 0 1 4 3 9 10 13 12 
8 1 2 5 4 10 11 14 13 
8 3 4 7 6 12 13 16 15 
8 4 5 8 7 13 14 17 16 
8 9 10 13 12 18 19 22 21 
8 10 11 14 13 19 20 23 22 
8 12 13 16 15 21 22 25 24 
8 13 14 17 16 22 23 26 25 

CELL_TYPES 8
12
12
12
12
12
12
12
12

POINT_DATA 27
VECTORS displacement float
0 0 0
-0.0332199 0 0
-0.0664399 0 0
0 -0.0332199 0
-0.0332199 -0.0332199 0
-0.0664399 -0.0332199 0
0 -0.0664399 0
-0.0332199 -0.0664399 0
-0.0664399 -0.0664399 0
0 0 0.125
-0.0332199 0 0.125
-0.0664399 0 0.125
0 -0.0332199 0.125
-0.0332199 -0.0332199 0.125
-0.0664399 -0.0332199 0.125
0 -0.0664399 0.125
-0.0332199 -0.0664399 0.125
-0.0664399 -0.0664399 0.125
0 0 0.25
-0.0332199 0 0.25
-0.0664399 0 0.25
0 -0.0332199 0.25
-0.0332199 -0.0332199 0.25
-0.0664399 -0.0332199 0.25
0 -0.0664399 0.25
-0.0332199 -0.0664399 0.25
-0.0664399 -0.0664399 0.25

CELL_DATA 8
SCALARS part_id int
LOOKUP_TABLE default
0
0
0
0
0
0
0
0
TENSORS stress float
1.42851e-10 1.17887e-12 1.99107e-11
1.17887e-12 1.42851e-10 1.99108e-11
1.99107e-11 1.99108e-11 0.116694

9.64003e-11 2.05563e-12 5.61562e-11
2.05563e-12 1.17826e-10 1.87573e-11
5.61562e-11 1.87573e-11 0.116694

1.17826e-10 2.05563e-12 1.87573e-11
2.05563e-12 9.64003e-11 5.61562e-11
1.87573e-11 5.61562e-11 0.116694

8.1787e-11 4.15458e-12 5.13935e-11
4.15458e-12 8.1787e-11 5.13935e-11
5.13935e-11 5.13935e-11 0.116694

-1.43268e-10 -1.17887e-12 1.99107e-11
-1.17887e-12 -1.43268e-10 1.99107e-11
1.99107e-11 1.99107e-11 0.116694

-9.68174e-11 -2.05568e-12 5.61562e-11
-2.05568e-12 -1.18243e-10 1.87573e-11
5.61562e-11 1.87573e-11 0.116694

-1.18243e-10 -2.05566e-12 1.87573e-11
-2.05566e-12 -9.68174e-11 5.61562e-11
1.87573e-11 5.61562e-11 0.116694

-8.22042e-11 -4.15456e-12 5.13935e-11
-4.15456e-12 -8.22041e-11 5.13935e-11
5.13935e-11 5.13935e-11 0.116694

SCALARS damage float
LOOKUP_TABLE default
0.521633
0.521633
0.521633
0.521633
0.521633
0.521633
0.521633
0.521633
