# vtk DataFile Version 3.0
time 1
ASCII
DATASET UNSTRUCTURED_GRID
POINTS 27 float
0 0 0 1 0 0 2 0 0 
0 1 0 1 1 0 2 1 0 
0 2 0 1 2 0 2 2 0 
0 0 1 1 0 1 2 0 1 
0 1 1 1 1 1 2 1 1 
0 2 1 1 2 1 2 2 1 
0 0 2 1 0 2 2 0 2 
0 1 2 1 1 2 2 1 2 
0 2 2 1 2 2 2 2 2 

CELLS 8 72
8 0 1 4 3 9 10 13 12 
8 1 2 5 4 10 11 14 13 
8 3 4 7 6 12 13 16 15 
8 4 5 8 7 13 14 17 16 
8 9 10 13 12 18 19 22 21 
8 10 11 14 13 19 20 23 22 
8 12 13 16 15 21 22 25 24 
8 13 14 17 16 22 23 26 25 

CELL_TYPES 8
12
12
12
12
12
12
12
12

POINT_DATA 27
VECTORS displacement float
0 0 0
-0.0146152 0 0
-0.0292305 0 0
0 -0.0146152 0
-0.0146152 -0.0146152 0
-0.0292304 -0.0146152 0
0 -0.0292305 0
-0.0146152 -0.0292304 0
-0.0292304 -0.0292304 0
0 0 0.0500014
-0.0146151 0 0.0500014
-0.0292301 0 0.0500013
0 -0.0146151 0.0500014
-0.0146151 -0.0146151 0.0500014
-0.0292301 -0.0146151 0.0500013
0 -0.0292301 0.0500013
-0.0146151 -0.0292301 0.0500013
-0.0292301 -0.0292301 0.0500012
0 0 0.1
-0.0146149 0 0.1
-0.0292298 0 0.1
0 -0.0146149 0.1
-0.0146149 -0.0146149 0.1
-0.0292298 -0.0146149 0.1
0 -0.0292298 0.1
-0.0146149 -0.0292298 0.1
-0.0292298 -0.0292298 0.1

CELL_DATA 8
SCALARS part_id int
LOOKUP_TABLE default
0
0
0
0
0
0
0
0
TENSORS stress float
2.01885e-07 6.08223e-10 8.8936e-09
6.08223e-10 2.01885e-07 8.89341e-09
8.8936e-09 8.89341e-09 0.0154515

1.78325e-07 9.97065e-10 2.11579e-08
9.97065e-10 1.88629e-07 8.36913e-09
2.11579e-08 8.36913e-09 0.0154515

1.88629e-07 9.96836e-10 8.36886e-09
9.96836e-10 1.78324e-07 2.11581e-08
8.36886e-09 2.11581e-08 0.0154515

1.7063e-07 2.49402e-09 1.92635e-08
2.49402e-09 1.70632e-07 1.92633e-08
1.92635e-08 1.92633e-08 0.0154515

-2.02592e-07 -6.08823e-10 8.89345e-09
-6.08823e-10 -2.02592e-07 8.89363e-09
8.89345e-09 8.89363e-09 0.015451

-1.79027e-07 -9.96355e-10 2.11591e-08
-9.96355e-10 -1.89335e-07 8.36827e-09
2.11591e-08 8.36827e-09 0.015451

-1.89335e-07 -9.96585e-10 8.36855e-09
-9.96585e-10 -1.79028e-07 2.11589e-08
8.36855e-09 2.11589e-08 0.015451

-1.71327e-07 -2.49432e-09 1.92647e-08
-2.49432e-09 -1.71325e-07 1.92649e-08
1.92647e-08 1.92649e-08 0.0154511

