# vtk DataFile Version 3.0
time 1
ASCII
DATASET UNSTRUCTURED_GRID
POINTS 125 float
0 0 0 1 0 0 2 0 0 
3 0 0 4 0 0 0 1 0 
1 1 0 2 1 0 3 1 0 
4 1 0 0 2 0 1 2 0 
2 2 0 3 2 0 4 2 0 
0 3 0 1 3 0 2 3 0 
3 3 0 4 3 0 0 4 0 
1 4 0 2 4 0 3 4 0 
4 4 0 0 0 1 1 0 1 
2 0 1 3 0 1 4 0 1 
0 1 1 1 1 1 2 1 1 
3 1 1 4 1 1 0 2 1 
1 2 1 2 2 1 3 2 1 
4 2 1 0 3 1 1 3 1 
2 3 1 3 3 1 4 3 1 
0 4 1 1 4 1 2 4 1 
3 4 1 4 4 1 0 0 2 
1 0 2 2 0 2 3 0 2 
4 0 2 0 1 2 1 1 2 
2 1 2 3 1 2 4 1 2 
0 2 2 1 2 2 2 2 2 
3 2 2 4 2 2 0 3 2 
1 3 2 2 3 2 3 3 2 
4 3 2 0 4 2 1 4 2 
2 4 2 3 4 2 4 4 2 
0 0 3 1 0 3 2 0 3 
3 0 3 4 0 3 0 1 3 
1 1 3 2 1 3 3 1 3 
4 1 3 0 2 3 1 2 3 
2 2 3 3 2 3 4 2 3 
0 3 3 1 3 3 2 3 3 
3 3 3 4 3 3 0 4 3 
1 4 3 2 4 3 3 4 3 
4 4 3 0 0 4 1 0 4 
2 0 4 3 0 4 4 0 4 
0 1 4 1 1 4 2 1 4 
3 1 4 4 1 4 0 2 4 
1 2 4 2 2 4 3 2 4 
4 2 4 0 3 4 1 3 4 
2 3 4 3 3 4 4 3 4 
0 4 4 1 4 4 2 4 4 
3 4 4 4 4 4 

CELLS 64 576
8 0 1 6 5 25 26 31 30 
8 1 2 7 6 26 27 32 31 
8 2 3 8 7 27 28 33 32 
8 3 4 9 8 28 29 34 33 
8 5 6 11 10 30 31 36 35 
8 6 7 12 11 31 32 37 36 
8 7 8 13 12 32 33 38 37 
8 8 9 14 13 33 34 39 38 
8 10 11 16 15 35 36 41 40 
8 11 12 17 16 36 37 42 41 
8 12 13 18 17 37 38 43 42 
8 13 14 19 18 38 39 44 43 
8 15 16 21 20 40 41 46 45 
8 16 17 22 21 41 42 47 46 
8 17 18 23 22 42 43 48 47 
8 18 19 24 23 43 44 49 48 
8 25 26 31 30 50 51 56 55 
8 26 27 32 31 51 52 57 56 
8 27 28 33 32 52 53 58 57 
8 28 29 34 33 53 54 59 58 
8 30 31 36 35 55 56 61 60 
8 31 32 37 36 56 57 62 61 
8 32 33 38 37 57 58 63 62 
8 33 34 39 38 58 59 64 63 
8 35 36 41 40 60 61 66 65 
8 36 37 42 41 61 62 67 66 
8 37 38 43 42 62 63 68 67 
8 38 39 44 43 63 64 69 68 
8 40 41 46 45 65 66 71 70 
8 41 42 47 46 66 67 72 71 
8 42 43 48 47 67 68 73 72 
8 43 44 49 48 68 69 74 73 
8 50 51 56 55 75 76 81 80 
8 51 52 57 56 76 77 82 81 
8 52 53 58 57 77 78 83 82 
8 53 54 59 58 78 79 84 83 
8 55 56 61 60 80 81 86 85 
8 56 57 62 61 81 82 87 86 
8 57 58 63 62 82 83 88 87 
8 58 59 64 63 83 84 89 88 
8 60 61 66 65 85 86 91 90 
8 61 62 67 66 86 87 92 91 
8 62 63 68 67 87 88 93 92 
8 63 64 69 68 88 89 94 93 
8 65 66 71 70 90 91 96 95 
8 66 67 72 71 91 92 97 96 
8 67 68 73 72 92 93 98 97 
8 68 69 74 73 93 94 99 98 
8 75 76 81 80 100 101 106 105 
8 76 77 82 81 101 102 107 106 
8 77 78 83 82 102 103 108 107 
8 78 79 84 83 103 104 109 108 
8 80 81 86 85 105 106 111 110 
8 81 82 87 86 106 107 112 111 
8 82 83 88 87 107 108 113 112 
8 83 84 89 88 108 109 114 113 
8 85 86 91 90 110 111 116 115 
8 86 87 92 91 111 112 117 116 
8 87 88 93 92 112 113 118 117 
8 88 89 94 93 113 114 119 118 
8 90 91 96 95 115 116 121 120 
8 91 92 97 96 116 117 122 121 
8 92 93 98 97 117 118 123 122 
8 93 94 99 98 118 119 124 123 

CELL_TYPES 64
12
12
12
12
12
12
12
12
12
12
12
12
12
12
12
12
12
12
12
12
12
12
12
12
12
12
12
12
12
12
12
12
12
12
12
12
12
12
12
12
12
12
12
12
12
12
12
12
12
12
12
12
12
12
12
12
12
12
12
12
12
12
12
12

POINT_DATA 125
VECTORS displacement float
0 0 0
-0.0216474 0 0
-0.0432949 0 0
-0.0649423 0 0
-0.0865898 0 0
0 -0.0216474 0
-0.0216474 -0.0216474 0
-0.0432949 -0.0216474 0
-0.0649423 -0.0216474 0
-0.0865898 -0.0216474 0
0 -0.0432949 0
-0.0216474 -0.0432949 0
-0.0432949 -0.0432948 0
-0.0649423 -0.0432948 0
-0.0865897 -0.0432948 0
0 -0.0649423 0
-0.0216474 -0.0649423 0
-0.0432948 -0.0649423 0
-0.0649423 -0.0649423 0
-0.0865897 -0.0649423 0
0 -0.0865898 0
-0.0216474 -0.0865898 0
-0.0432948 -0.0865897 0
-0.0649423 -0.0865897 0
-0.0865896 -0.0865896 0
0 0 0.0750017
-0.0216474 0 0.0750018
-0.0432948 0 0.0750018
-0.0649423 0 0.0750017
-0.0865897 0 0.0750015
0 -0.0216474 0.0750018
-0.0216474 -0.0216474 0.0750018
-0.0432948 -0.0216474 0.0750018
-0.0649423 -0.0216474 0.0750017
-0.0865897 -0.0216474 0.0750016
0 -0.0432948 0.0750018
-0.0216474 -0.0432948 0.0750018
-0.0432948 -0.0432948 0.0750018
-0.0649422 -0.0432948 0.0750017
-0.0865896 -0.0432948 0.0750016
0 -0.0649423 0.0750017
-0.0216474 -0.0649423 0.0750017
-0.0432948 -0.0649422 0.0750017
-0.0649422 -0.0649422 0.0750016
-0.0865896 -0.0649422 0.0750015
0 -0.0865897 0.0750015
-0.0216474 -0.0865897 0.0750016
-0.0432948 -0.0865896 0.0750016
-0.0649422 -0.0865896 0.0750015
-0.0865896 -0.0865896 0.0750014
0 0 0.150003
-0.0216473 0 0.150003
-0.0432946 0 0.150003
-0.064942 0 0.150003
-0.0865894 0 0.150003
0 -0.0216473 0.150003
-0.0216473 -0.0216473 0.150003
-0.0432946 -0.0216473 0.150003
-0.064942 -0.0216473 0.150003
-0.0865894 -0.0216473 0.150003
0 -0.0432946 0.150003
-0.0216473 -0.0432946 0.150003
-0.0432946 -0.0432946 0.150003
-0.064942 -0.0432946 0.150003
-0.0865894 -0.0432946 0.150003
0 -0.064942 0.150003
-0.0216473 -0.064942 0.150003
-0.0432946 -0.064942 0.150003
-0.0649419 -0.0649419 0.150003
-0.0865894 -0.0649419 0.150003
0 -0.0865894 0.150003
-0.0216473 -0.0865894 0.150003
-0.0432946 -0.0865894 0.150003
-0.0649419 -0.0865894 0.150003
-0.0865894 -0.0865894 0.150003
0 0 0.225005
-0.0216472 0 0.225005
-0.0432943 0 0.225005
-0.0649414 0 0.225005
-0.0865885 0 0.225005
0 -0.0216472 0.225005
-0.0216472 -0.0216472 0.225005
-0.0432943 -0.0216472 0.225005
-0.0649414 -0.0216472 0.225005
-0.0865885 -0.0216472 0.225005
0 -0.0432943 0.225005
-0.0216472 -0.0432943 0.225005
-0.0432943 -0.0432943 0.225005
-0.0649414 -0.0432943 0.225005
-0.0865886 -0.0432943 0.225005
0 -0.0649414 0.225005
-0.0216472 -0.0649414 0.225005
-0.0432943 -0.0649414 0.225005
-0.0649415 -0.0649415 0.225005
-0.0865886 -0.0649415 0.225005
0 -0.0865885 0.225005
-0.0216472 -0.0865885 0.225005
-0.0432943 -0.0865886 0.225005
-0.0649415 -0.0865886 0.225005
-0.0865886 -0.0865886 0.225004
0 0 0.3
-0.0216471 0 0.3
-0.0432942 0 0.3
-0.0649411 0 0.3
-0.0865878 0 0.3
0 -0.0216471 0.3
-0.0216471 -0.0216471 0.3
-0.0432942 -0.0216471 0.3
-0.0649411 -0.0216471 0.3
-0.0865878 -0.0216471 0.3
0 -0.0432942 0.3
-0.0216471 -0.0432942 0.3
-0.0432942 -0.0432942 0.3
-0.0649411 -0.0432942 0.3
-0.0865879 -0.0432942 0.3
0 -0.0649411 0.3
-0.0216471 -0.0649411 0.3
-0.0432942 -0.0649411 0.3
-0.0649412 -0.0649412 0.3
-0.086588 -0.0649412 0.3
0 -0.0865878 0.3
-0.0216471 -0.0865878 0.3
-0.0432942 -0.0865879 0.3
-0.0649412 -0.086588 0.3
-0.0865881 -0.0865881 0.3

CELL_DATA 64
SCALARS part_id int
LOOKUP_TABLE default
0
0
0
0
0
0
0
0
0
0
0
0
0
0
0
0
0
0
0
0
0
0
0
0
0
0
0
0
0
0
0
0
0
0
0
0
0
0
0
0
0
0
0
0
0
0
0
0
0
0
0
0
0
0
0
0
0
0
0
0
0
0
0
0
TENSORS stress float
1.55673e-07 2.24576e-10 1.99302e-09
2.24576e-10 1.55737e-07 1.99996e-09
1.99302e-09 1.99996e-09 0.0170391

1.47881e-07 6.43618e-10 5.01774e-09
6.43618e-10 1.53647e-07 1.89213e-09
5.01774e-09 1.89213e-09 0.0170391

1.36439e-07 8.72623e-10 4.07765e-09
8.72623e-10 1.47942e-07 1.79221e-09
4.07765e-09 1.79221e-09 0.0170391

1.31656e-07 5.22872e-10 7.50104e-10
5.22872e-10 1.38276e-07 1.88413e-09
7.50104e-10 1.88413e-09 0.0170391

1.53621e-07 6.45366e-10 1.90114e-09
6.45366e-10 1.47931e-07 5.04105e-09
1.90114e-09 5.04105e-09 0.0170391

1.46316e-07 1.89623e-09 4.7688e-09
1.89623e-09 1.46332e-07 4.80977e-09
4.7688e-09 4.80977e-09 0.0170391

1.3558e-07 2.68242e-09 3.74164e-09
2.68242e-09 1.41776e-07 4.49928e-09
3.74164e-09 4.49928e-09 0.0170391

1.31164e-07 1.71336e-09 6.04313e-10
1.71336e-09 1.33702e-07 4.59057e-09
6.04313e-10 4.59057e-09 0.0170391

1.47953e-07 8.6681e-10 1.79321e-09
8.6681e-10 1.36476e-07 4.08307e-09
1.79321e-09 4.08307e-09 0.0170391

1.4177e-07 2.68777e-09 4.47413e-09
2.68777e-09 1.35558e-07 3.7394e-09
4.47413e-09 3.7394e-09 0.0170391

1.32955e-07 4.15141e-09 3.42348e-09
4.15141e-09 1.32926e-07 3.44204e-09
3.42348e-09 3.44204e-09 0.0170391

1.29915e-07 2.96981e-09 4.97918e-10
2.96981e-09 1.28439e-07 3.65056e-09
4.97918e-10 3.65056e-09 0.0170391

1.38284e-07 5.17049e-10 1.85085e-09
5.17049e-10 1.31708e-07 7.74581e-10
1.85085e-09 7.74581e-10 0.0170391

1.33665e-07 1.7096e-09 4.56243e-09
1.7096e-09 1.31141e-07 5.85507e-10
4.56243e-09 5.85507e-10 0.0170391

1.28388e-07 2.97206e-09 3.62761e-09
2.97206e-09 1.29823e-07 4.42918e-10
3.62761e-09 4.42918e-10 0.0170391

1.2974e-07 2.4713e-09 7.61092e-10
2.4713e-09 1.29726e-07 7.25414e-10
7.61092e-10 7.25414e-10 0.0170391

1.71799e-07 1.05397e-10 5.40802e-09
1.05397e-10 1.71819e-07 5.41555e-09
5.40802e-09 5.41555e-09 0.0170391

1.66224e-07 3.0338e-10 1.54036e-08
3.0338e-10 1.7094e-07 5.17419e-09
1.54036e-08 5.17419e-09 0.0170391

1.52202e-07 4.15867e-10 1.87678e-08
4.15867e-10 1.6682e-07 4.86818e-09
1.87678e-08 4.86818e-09 0.0170391

1.31988e-07 2.46211e-10 5.47163e-09
2.46211e-10 1.52056e-07 5.08539e-09
5.47163e-09 5.08539e-09 0.0170391

1.70905e-07 3.00383e-10 5.16671e-09
3.00383e-10 1.66242e-07 1.54591e-08
5.16671e-09 1.54591e-08 0.0170391

1.65641e-07 9.38381e-10 1.46558e-08
9.38381e-10 1.65669e-07 1.47056e-08
1.46558e-08 1.47056e-08 0.0170391

1.51938e-07 1.43224e-09 1.76411e-08
1.43224e-09 1.62183e-07 1.37048e-08
1.76411e-08 1.37048e-08 0.0170391

1.32e-07 9.60426e-10 4.74084e-09
9.60426e-10 1.48245e-07 1.39795e-08
4.74084e-09 1.39795e-08 0.0170391

1.66754e-07 4.20066e-10 4.84244e-09
4.20066e-10 1.52157e-07 1.87991e-08
4.84244e-09 1.87991e-08 0.0170391

1.62153e-07 1.43277e-09 1.36687e-08
1.43277e-09 1.51955e-07 1.76705e-08
1.36687e-08 1.76705e-08 0.0170391

1.49955e-07 2.68081e-09 1.61505e-08
2.68081e-09 1.4999e-07 1.61828e-08
1.61505e-08 1.61828e-08 0.0170391

1.31231e-07 2.26577e-09 3.85778e-09
2.26577e-09 1.38939e-07 1.62449e-08
3.85778e-09 1.62449e-08 0.0170391

1.51965e-07 2.51275e-10 4.99506e-09
2.51275e-10 1.3188e-07 5.49334e-09
4.99506e-09 5.49334e-09 0.0170391

1.48246e-07 9.68178e-10 1.39407e-08
9.68178e-10 1.32002e-07 4.6989e-09
1.39407e-08 4.6989e-09 0.0170391

1.39046e-07 2.26988e-09 1.62258e-08
2.26988e-09 1.31344e-07 3.81097e-09
1.62258e-08 3.81097e-09 0.0170391

1.26455e-07 3.03269e-09 4.13995e-09
3.03269e-09 1.26457e-07 4.10522e-09
4.13995e-09 4.10522e-09 0.0170391

1.96182e-07 -9.02699e-11 6.33231e-09
-9.02699e-11 1.96156e-07 6.3341e-09
6.33231e-09 6.3341e-09 0.0170391

1.98339e-07 -2.48727e-10 2.05233e-08
-2.48727e-10 1.97007e-07 6.04657e-09
2.05233e-08 6.04657e-09 0.0170391

1.98479e-07 -3.30449e-10 3.7283e-08
-3.30449e-10 1.99088e-07 5.65736e-09
3.7283e-08 5.65736e-09 0.0170391

1.83651e-07 -2.07906e-10 3.82931e-08
-2.07906e-10 1.94276e-07 5.86404e-09
3.82931e-08 5.86404e-09 0.0170391

1.97008e-07 -2.5267e-10 6.01904e-09
-2.5267e-10 1.98329e-07 2.05126e-08
6.01904e-09 2.05126e-08 0.0170391

1.98975e-07 -7.11941e-10 1.95259e-08
-7.11941e-10 1.98983e-07 1.94889e-08
1.95259e-08 1.94889e-08 0.0170391

1.98932e-07 -9.47773e-10 3.56697e-08
-9.47773e-10 2.00769e-07 1.80392e-08
3.56697e-08 1.80392e-08 0.0170391

1.84087e-07 -5.98916e-10 3.69172e-08
-5.98916e-10 1.95446e-07 1.84281e-08
3.69172e-08 1.84281e-08 0.0170391

1.99141e-07 -3.29814e-10 5.61564e-09
-3.29814e-10 1.98532e-07 3.73535e-08
5.61564e-09 3.73535e-08 0.0170391

2.00771e-07 -9.60842e-10 1.8027e-08
-9.60842e-10 1.9896e-07 3.56978e-08
1.8027e-08 3.56978e-08 0.0170391

2.00262e-07 -1.2038e-09 3.26161e-08
-1.2038e-09 2.00286e-07 3.25825e-08
3.26161e-08 3.25825e-08 0.0170391

1.85485e-07 -5.97702e-10 3.37617e-08
-5.97702e-10 1.94383e-07 3.17001e-08
3.37617e-08 3.17001e-08 0.0170391

1.9449e-07 -1.93572e-10 5.85509e-09
-1.93572e-10 1.83815e-07 3.83315e-08
5.85509e-09 3.83315e-08 0.0170391

1.95593e-07 -5.96203e-10 1.83871e-08
-5.96203e-10 1.84219e-07 3.69812e-08
1.83871e-08 3.69812e-08 0.0170391

1.94356e-07 -6.1159e-10 3.17231e-08
-6.1159e-10 1.85458e-07 3.37963e-08
3.17231e-08 3.37963e-08 0.0170391

1.80951e-07 1.9191e-10 3.10986e-08
1.9191e-10 1.80952e-07 3.10674e-08
3.10986e-08 3.10674e-08 0.0170391

-5.25868e-07 -2.38147e-10 2.91347e-09
-2.38147e-10 -5.25921e-07 2.91688e-09
2.91347e-09 2.91688e-09 0.0170384

-5.14659e-07 -6.93973e-10 1.01333e-08
-6.93973e-10 -5.23803e-07 2.76285e-09
1.01333e-08 2.76285e-09 0.0170384

-4.89247e-07 -9.5577e-10 2.25922e-08
-9.5577e-10 -5.16018e-07 2.58218e-09
2.25922e-08 2.58218e-09 0.0170384

-4.49467e-07 -5.6622e-10 3.35782e-08
-5.6622e-10 -4.86784e-07 2.66163e-09
3.35782e-08 2.66163e-09 0.0170384

-5.23752e-07 -6.92283e-10 2.74487e-09
-6.92283e-10 -5.14719e-07 1.00945e-08
2.74487e-09 1.00945e-08 0.0170384

-5.13137e-07 -2.12255e-09 9.63589e-09
-2.12255e-09 -5.13186e-07 9.5931e-09
9.63589e-09 9.5931e-09 0.0170384

-4.88601e-07 -3.16699e-09 2.17745e-08
-3.16699e-09 -5.069e-07 8.8345e-09
2.17745e-08 8.8345e-09 0.0170384

-4.49426e-07 -2.07075e-09 3.27846e-08
-2.07075e-09 -4.79563e-07 9.04428e-09
3.27846e-08 9.04428e-09 0.0170384

-5.16055e-07 -9.52493e-10 2.56331e-09
-9.52493e-10 -4.8936e-07 2.26379e-08
2.56331e-09 2.26379e-08 0.0170384

-5.06887e-07 -3.14917e-09 8.8313e-09
-3.14917e-09 -4.8865e-07 2.17691e-08
8.8313e-09 2.17691e-08 0.0170384

-4.85336e-07 -5.62879e-09 1.98921e-08
-5.62879e-09 -4.85352e-07 1.9843e-08
1.98921e-08 1.9843e-08 0.0170384

-4.48775e-07 -4.635e-09 3.04022e-08
-4.635e-09 -4.63919e-07 1.91089e-08
3.04022e-08 1.91089e-08 0.0170384

-4.86964e-07 -5.7148e-10 2.71184e-09
-5.7148e-10 -4.49625e-07 3.36127e-08
2.71184e-09 3.36127e-08 0.0170384

-4.79698e-07 -2.07271e-09 9.00909e-09
-2.07271e-09 -4.49545e-07 3.28688e-08
9.00909e-09 3.28688e-08 0.0170384

-4.63947e-07 -4.62586e-09 1.91246e-08
-4.62586e-09 -4.48784e-07 3.04319e-08
1.91246e-08 3.04319e-08 0.0170384

-4.39316e-07 -5.7002e-09 2.77218e-08
-5.7002e-09 -4.39299e-07 2.76885e-08
2.77218e-08 2.76885e-08 0.0170384

