# vtk DataFile Version 3.0
time 0.09
ASCII
DATASET UNSTRUCTURED_GRID
POINTS 8 float
0 0 0 1 0 0 1 1 0 
0 1 0 0 0 1 1 0 1 
1 1 1 0 1 1 

CELLS 1 9
8 0 1 2 3 4 5 6 7 

CELL_TYPES 1
12

POINT_DATA 8
VECTORS displacement float
0 0 0
-0.0131872 0 0
-0.0131872 -0.0131872 0
0 -0.0131872 0
0 0 0.045
-0.0131872 0 0.045
-0.0131872 -0.0131872 0.045
0 -0.0131872 0.045

CELL_DATA 1
SCALARS part_id int
LOOKUP_TABLE default
0
TENSORS stress float
-2.07474e-13 2.15909e-18 7.81187e-18
2.15909e-18 -2.0748e-13 2.01117e-17
7.81187e-18 2.01117e-17 0.0248523

SCALARS damage float
LOOKUP_TABLE default
0.443822
