# vtk DataFile Version 3.0
time 0.48
ASCII
DATASET UNSTRUCTURED_GRID
POINTS 8 float
0 0 0 1 0 0 1 1 0 
0 1 0 0 0 1 1 0 1 
1 1 1 0 1 1 

CELLS 1 9
8 0 1 2 3 4 5 6 7 

CELL_TYPES 1
12

POINT_DATA 8
VECTORS displacement float
0 0 0
-0.0640677 0 0
-0.0640677 -0.0640677 0
0 -0.0640677 0
0 0 0.24
-0.0640677 0 0.24
-0.0640677 -0.0640677 0.24
0 -0.0640677 0.24

CELL_DATA 1
SCALARS part_id int
LOOKUP_TABLE default
0
TENSORS stress float
-7.66589e-15 2.64393e-18 2.16012e-17
2.64393e-18 -7.69071e-15 2.73192e-18
2.16012e-17 2.73192e-18 0.119715

SCALARS damage float
LOOKUP_TABLE default
0.489005
