# vtk DataFile Version 3.0
time 0.39
ASCII
DATASET UNSTRUCTURED_GRID
POINTS 8 float
0 0 0 1 0 0 1 1 0 
0 1 0 0 0 1 1 0 1 
1 1 1 0 1 1 

CELLS 1 9
8 0 1 2 3 4 5 6 7 

CELL_TYPES 1
12

POINT_DATA 8
VECTORS displacement float
0 0 0
-0.0531303 0 0
-0.0531303 -0.0531303 0
0 -0.0531303 0
0 0 0.195
-0.0531303 0 0.195
-0.0531303 -0.0531303 0.195
0 -0.0531303 0.195

CELL_DATA 1
SCALARS part_id int
LOOKUP_TABLE default
0
TENSORS stress float
-1.12864e-14 -1.90723e-17 -2.48344e-18
-1.90723e-17 -1.12762e-14 2.60454e-17
-2.48344e-18 2.60454e-17 0.0979525

SCALARS damage float
LOOKUP_TABLE default
0.48659
