# vtk DataFile Version 3.0
time 0.33
ASCII
DATASET UNSTRUCTURED_GRID
POINTS 8 float
0 0 0 1 0 0 1 1 0 
0 1 0 0 0 1 1 0 1 
1 1 1 0 1 1 

CELLS 1 9
8 0 1 2 3 4 5 6 7 

CELL_TYPES 1
12

POINT_DATA 8
VECTORS displacement float
0 0 0
-0.0455889 0 0
-0.0455889 -0.0455889 0
0 -0.0455889 0
0 0 0.165
-0.0455889 0 0.165
-0.0455889 -0.0455889 0.165
0 -0.0455889 0.165

CELL_DATA 1
SCALARS part_id int
LOOKUP_TABLE default
0
TENSORS stress float
-1.52342e-14 6.18961e-19 2.70103e-17
6.18961e-19 -1.52342e-14 2.53787e-17
2.70103e-17 2.53787e-17 0.0834293

SCALARS damage float
LOOKUP_TABLE default
0.484251
