# vtk DataFile Version 3.0
time 0.25
ASCII
DATASET UNSTRUCTURED_GRID
POINTS 8 float
0 0 0 1 0 0 1 1 0 
0 1 0 0 0 1 1 0 1 
1 1 1 0 1 1 

CELLS 1 9
8 0 1 2 3 4 5 6 7 

CELL_TYPES 1
12

POINT_DATA 8
VECTORS displacement float
0 0 0
-0.035202 0 0
-0.035202 -0.035202 0
0 -0.035202 0
0 0 0.125
-0.035202 0 0.125
-0.035202 -0.035202 0.125
0 -0.035202 0.125

CELL_DATA 1
SCALARS part_id int
LOOKUP_TABLE default
0
TENSORS stress float
-2.56817e-14 1.5041e-17 9.88873e-18
1.5041e-17 -2.57185e-14 1.36463e-17
9.88873e-18 1.36463e-17 0.0640154

SCALARS damage float
LOOKUP_TABLE default
0.479392
