# vtk DataFile Version 3.0
time 0.21
ASCII
DATASET UNSTRUCTURED_GRID
POINTS 8 float
0 0 0 1 0 0 1 1 0 
0 1 0 0 0 1 1 0 1 
1 1 1 0 1 1 

CELLS 1 9
8 0 1 2 3 4 5 6 7 

CELL_TYPES 1
12

POINT_DATA 8
VECTORS displacement float
0 0 0
-0.029859 0 0
-0.029859 -0.029859 0
0 -0.029859 0
0 0 0.105
-0.029859 0 0.105
-0.029859 -0.029859 0.105
0 -0.029859 0.105

CELL_DATA 1
SCALARS part_id int
LOOKUP_TABLE default
0
TENSORS stress float
-3.59898e-14 3.46667e-33 3.66189e-17
3.46667e-33 -3.59465e-14 1.6403e-17
3.66189e-17 1.6403e-17 0.0542755

SCALARS damage float
LOOKUP_TABLE default
0.475577
