# vtk DataFile Version 3.0
time 0.01
ASCII
DATASET UNSTRUCTURED_GRID
POINTS 8 float
0 0 0 1 0 0 1 1 0 
0 1 0 0 0 1 1 0 1 
1 1 1 0 1 1 

CELLS 1 9
8 0 1 2 3 4 5 6 7 

CELL_TYPES 1
12

POINT_DATA 8
VECTORS displacement float
0 0 0
-0.00149604 0 0
-0.00149604 -0.00149604 0
0 -0.00149604 0
0 0 0.005
-0.00149604 0 0.005
-0.00149604 -0.00149604 0.005
0 -0.00149604 0.005

CELL_DATA 1
SCALARS part_id int
LOOKUP_TABLE default
0
TENSORS stress float
-4.72558e-12 2.71346e-18 -3.55045e-18
2.71346e-18 -4.7256e-12 1.96711e-17
-3.55045e-18 1.96711e-17 0.00407767

SCALARS damage float
LOOKUP_TABLE default
0.18377
