# vtk DataFile Version 3.0
time 0.4
ASCII
DATASET UNSTRUCTURED_GRID
POINTS 8 float
0 0 0 1 0 0 1 1 0 
0 1 0 0 0 1 1 0 1 
1 1 1 0 1 1 

CELLS 1 9
8 0 1 2 3 4 5 6 7 

CELL_TYPES 1
12

POINT_DATA 8
VECTORS displacement float
0 0 0
-0.0543674 0 0
-0.0543674 -0.0543674 0
0 -0.0543674 0
0 0 0.2
-0.0543674 0 0.2
-0.0543674 -0.0543674 0.2
0 -0.0543674 0.2

CELL_DATA 1
SCALARS part_id int
LOOKUP_TABLE default
0
TENSORS stress float
-1.06461e-14 8.14534e-18 6.31667e-18
8.14534e-18 -1.06514e-14 1.94431e-17
6.31667e-18 1.94431e-17 0.100371

SCALARS damage float
LOOKUP_TABLE default
0.486912
