# vtk DataFile Version 3.0
time 0.32
ASCII
DATASET UNSTRUCTURED_GRID
POINTS 8 float
0 0 0 1 0 0 1 1 0 
0 1 0 0 0 1 1 0 1 
1 1 1 0 1 1 

CELLS 1 9
8 0 1 2 3 4 5 6 7 

CELL_TYPES 1
12

POINT_DATA 8
VECTORS displacement float
0 0 0
-0.0443117 0 0
-0.0443117 -0.0443117 0
0 -0.0443117 0
0 0 0.16
-0.0443117 0 0.16
-0.0443117 -0.0443117 0.16
0 -0.0443117 0.16

CELL_DATA 1
SCALARS part_id int
LOOKUP_TABLE default
0
TENSORS stress float
-1.61392e-14 4.97096e-18 1.15017e-17
4.97096e-18 -1.61491e-14 1.0739e-17
1.15017e-17 1.0739e-17 0.0810063

SCALARS damage float
LOOKUP_TABLE default
0.483777
