# vtk DataFile Version 3.0
time 0.23
ASCII
DATASET UNSTRUCTURED_GRID
POINTS 8 float
0 0 0 1 0 0 1 1 0 
0 1 0 0 0 1 1 0 1 
1 1 1 0 1 1 

CELLS 1 9
8 0 1 2 3 4 5 6 7 

CELL_TYPES 1
12

POINT_DATA 8
VECTORS displacement float
0 0 0
-0.0325434 0 0
-0.0325434 -0.0325434 0
0 -0.0325434 0
0 0 0.115
-0.0325434 0 0.115
-0.0325434 -0.0325434 0.115
0 -0.0325434 0.115

CELL_DATA 1
SCALARS part_id int
LOOKUP_TABLE default
0
TENSORS stress float
-3.0104e-14 3.55389e-18 1.99209e-17
3.55389e-18 -3.00802e-14 1.29338e-17
1.99209e-17 1.29338e-17 0.0591487

SCALARS damage float
LOOKUP_TABLE default
0.477651
