# vtk DataFile Version 3.0
time 0.42
ASCII
DATASET UNSTRUCTURED_GRID
POINTS 8 float
0 0 0 1 0 0 1 1 0 
0 1 0 0 0 1 1 0 1 
1 1 1 0 1 1 

CELLS 1 9
8 0 1 2 3 4 5 6 7 

CELL_TYPES 1
12

POINT_DATA 8
VECTORS displacement float
0 0 0
-0.0568249 0 0
-0.0568249 -0.0568249 0
0 -0.0568249 0
0 0 0.21
-0.0568249 0 0.21
-0.0568249 -0.0568249 0.21
0 -0.0568249 0.21

CELL_DATA 1
SCALARS part_id int
LOOKUP_TABLE default
0
TENSORS stress float
-9.75176e-15 -2.99616e-18 2.01798e-17
-2.99616e-18 -9.75176e-15 1.87044e-17
2.01798e-17 1.87044e-17 0.105208

SCALARS damage float
LOOKUP_TABLE default
0.48751
