# vtk DataFile Version 3.0
time 0.37
ASCII
DATASET UNSTRUCTURED_GRID
POINTS 27 float
0 0 0 0.5 0 0 1 0 0 
0 0.5 0 0.5 0.5 0 1 0.5 0 
0 1 0 0.5 1 0 1 1 0 
0 0 0.5 0.5 0 0.5 1 0 0.5 
0 0.5 0.5 0.5 0.5 0.5 1 0.5 0.5 
0 1 0.5 0.5 1 0.5 1 1 0.5 
0 0 1 0.5 0 1 1 0 1 
0 0.5 1 0.5 0.5 1 1 0.5 1 
0 1 1 0.5 1 1 1 1 1 

CELLS 8 72
8 0 1 4 3 9 10 13 12 
8 1 2 5 4 10 11 14 13 
8 3 4 7 6 12 13 16 15 
8 4 5 8 7 13 14 17 16 
8 9 10 13 12 18 19 22 21 
8 10 11 14 13 19 20 23 22 
8 12 13 16 15 21 22 25 24 
8 13 14 17 16 22 23 26 25 

CELL_TYPES 8
12
12
12
12
12
12
12
12

POINT_DATA 27
VECTORS displacement float
0 0 0
-0.0253197 0 0
-0.0506394 0 0
0 -0.0253197 0
-0.0253197 -0.0253197 0
-0.0506394 -0.0253197 0
0 -0.0506394 0
-0.0253197 -0.0506394 0
-0.0506394 -0.0506394 0
0 0 0.0925
-0.0253197 0 0.0925
-0.0506394 0 0.0925
0 -0.0253197 0.0925
-0.0253197 -0.0253197 0.0925
-0.0506394 -0.0253197 0.0925
0 -0.0506394 0.0925
-0.0253197 -0.0506394 0.0925
-0.0506394 -0.0506394 0.0925
0 0 0.185
-0.0253197 0 0.185
-0.0506394 0 0.185
0 -0.0253197 0.185
-0.0253197 -0.0253197 0.185
-0.0506394 -0.0253197 0.185
0 -0.0506394 0.185
-0.0253197 -0.0506394 0.185
-0.0506394 -0.0506394 0.185

CELL_DATA 8
SCALARS part_id int
LOOKUP_TABLE default
0
0
0
0
0
0
0
0
TENSORS stress float
2.07763e-10 1.71724e-12 2.76029e-11
1.71724e-12 2.07763e-10 2.76029e-11
2.76029e-11 2.76029e-11 0.094329

1.40202e-10 2.95452e-12 7.48239e-11
2.95452e-12 1.71045e-10 2.60019e-11
7.48239e-11 2.60019e-11 0.094329

1.71046e-10 2.9545e-12 2.60019e-11
2.9545e-12 1.40202e-10 7.48239e-11
2.60019e-11 7.48239e-11 0.094329

1.18736e-10 6.27346e-12 6.8401e-11
6.27346e-12 1.18736e-10 6.8401e-11
6.8401e-11 6.8401e-11 0.094329

-2.08406e-10 -1.71722e-12 2.76029e-11
-1.71722e-12 -2.08406e-10 2.76029e-11
2.76029e-11 2.76029e-11 0.094329

-1.40845e-10 -2.9545e-12 7.4824e-11
-2.9545e-12 -1.71688e-10 2.60019e-11
7.4824e-11 2.60019e-11 0.094329

-1.71688e-10 -2.95451e-12 2.60019e-11
-2.95451e-12 -1.40845e-10 7.4824e-11
2.60019e-11 7.4824e-11 0.094329

-1.19379e-10 -6.27345e-12 6.8401e-11
-6.27345e-12 -1.19379e-10 6.8401e-11
6.8401e-11 6.8401e-11 0.094329

SCALARS damage float
LOOKUP_TABLE default
0.479185
0.479185
0.479185
0.479185
0.479185
0.479185
0.479185
0.479185
