# vtk DataFile Version 3.0
time 0.05
ASCII
DATASET UNSTRUCTURED_GRID
POINTS 27 float
0 0 0 0.5 0 0 1 0 0 
0 0.5 0 0.5 0.5 0 1 0.5 0 
0 1 0 0.5 1 0 1 1 0 
0 0 0.5 0.5 0 0.5 1 0 0.5 
0 0.5 0.5 0.5 0.5 0.5 1 0.5 0.5 
0 1 0.5 0.5 1 0.5 1 1 0.5 
0 0 1 0.5 0 1 1 0 1 
0 0.5 1 0.5 0.5 1 1 0.5 1 
0 1 1 0.5 1 1 1 1 1 

CELLS 8 72
8 0 1 4 3 9 10 13 12 
8 1 2 5 4 10 11 14 13 
8 3 4 7 6 12 13 16 15 
8 4 5 8 7 13 14 17 16 
8 9 10 13 12 18 19 22 21 
8 10 11 14 13 19 20 23 22 
8 12 13 16 15 21 22 25 24 
8 13 14 17 16 22 23 26 25 

CELL_TYPES 8
12
12
12
12
12
12
12
12

POINT_DATA 27
VECTORS displacement float
0 0 0
-0.00370111 0 0
-0.00740222 0 0
0 -0.00370111 0
-0.00370111 -0.00370111 0
-0.00740222 -0.00370111 0
0 -0.00740222 0
-0.00370111 -0.00740222 0
-0.00740222 -0.00740222 0
0 0 0.0125
-0.00370111 0 0.0125
-0.00740222 0 0.0125
0 -0.00370111 0.0125
-0.00370111 -0.00370111 0.0125
-0.00740222 -0.00370111 0.0125
0 -0.00740222 0.0125
-0.00370111 -0.00740222 0.0125
-0.00740222 -0.00740222 0.0125
0 0 0.025
-0.00370111 0 0.025
-0.00740222 0 0.025
0 -0.00370111 0.025
-0.00370111 -0.00370111 0.025
-0.00740222 -0.00370111 0.025
0 -0.00740222 0.025
-0.00370111 -0.00740222 0.025
-0.00740222 -0.00740222 0.025

CELL_DATA 8
SCALARS part_id int
LOOKUP_TABLE default
0
0
0
0
0
0
0
0
TENSORS stress float
2.90207e-10 1.88316e-12 2.72972e-11
1.88316e-12 2.90207e-10 2.72972e-11
2.72972e-11 2.72972e-11 0.0214156

2.15363e-10 3.10632e-12 6.55145e-11
3.10632e-12 2.49134e-10 2.57352e-11
6.55145e-11 2.57352e-11 0.0214156

2.49134e-10 3.10636e-12 2.57352e-11
3.10636e-12 2.15363e-10 6.55145e-11
2.57352e-11 6.55145e-11 0.0214156

1.91278e-10 7.58997e-12 5.98223e-11
7.58997e-12 1.91278e-10 5.98222e-11
5.98223e-11 5.98222e-11 0.0214156

-2.92578e-10 -1.88312e-12 2.72972e-11
-1.88312e-12 -2.92578e-10 2.72972e-11
2.72972e-11 2.72972e-11 0.0214156

-2.17734e-10 -3.1063e-12 6.55146e-11
-3.1063e-12 -2.51505e-10 2.57352e-11
6.55146e-11 2.57352e-11 0.0214156

-2.51505e-10 -3.10629e-12 2.57352e-11
-3.10629e-12 -2.17734e-10 6.55145e-11
2.57352e-11 6.55145e-11 0.0214156

-1.93649e-10 -7.58997e-12 5.98222e-11
-7.58997e-12 -1.93649e-10 5.98222e-11
5.98222e-11 5.98222e-11 0.0214156

SCALARS damage float
LOOKUP_TABLE default
0.139867
0.139867
0.139867
0.139867
0.139867
0.139867
0.139867
0.139867
