# vtk DataFile Version 3.0
time 0.02
ASCII
DATASET UNSTRUCTURED_GRID
POINTS 27 float
0 0 0 0.5 0 0 1 0 0 
0 0.5 0 0.5 0.5 0 1 0.5 0 
0 1 0 0.5 1 0 1 1 0 
0 0 0.5 0.5 0 0.5 1 0 0.5 
0 0.5 0.5 0.5 0.5 0.5 1 0.5 0.5 
0 1 0.5 0.5 1 0.5 1 1 0.5 
0 0 1 0.5 0 1 1 0 1 
0 0.5 1 0.5 0.5 1 1 0.5 1 
0 1 1 0.5 1 1 1 1 1 

CELLS 8 72
8 0 1 4 3 9 10 13 12 
8 1 2 5 4 10 11 14 13 
8 3 4 7 6 12 13 16 15 
8 4 5 8 7 13 14 17 16 
8 9 10 13 12 18 19 22 21 
8 10 11 14 13 19 20 23 22 
8 12 13 16 15 21 22 25 24 
8 13 14 17 16 22 23 26 25 

CELL_TYPES 8
12
12
12
12
12
12
12
12

POINT_DATA 27
VECTORS displacement float
0 0 0
-0.0014921 0 0
-0.0029842 0 0
0 -0.0014921 0
-0.0014921 -0.0014921 0
-0.0029842 -0.0014921 0
0 -0.0029842 0
-0.0014921 -0.0029842 0
-0.0029842 -0.0029842 0
0 0 0.005
-0.0014921 0 0.005
-0.0029842 0 0.005
0 -0.0014921 0.005
-0.0014921 -0.0014921 0.005
-0.0029842 -0.0014921 0.005
0 -0.0029842 0.005
-0.0014921 -0.0029842 0.005
-0.0029842 -0.0029842 0.005
0 0 0.01
-0.0014921 0 0.01
-0.0029842 0 0.01
0 -0.0014921 0.01
-0.0014921 -0.0014921 0.01
-0.0029842 -0.0014921 0.01
0 -0.0029842 0.01
-0.0014921 -0.0029842 0.01
-0.0029842 -0.0029842 0.01

CELL_DATA 8
SCALARS part_id int
LOOKUP_TABLE default
0
0
0
0
0
0
0
0
TENSORS stress float
2.10124e-10 9.99099e-13 1.4341e-11
9.99099e-13 2.10124e-10 1.4341e-11
1.4341e-11 1.4341e-11 0.00936755

1.70383e-10 1.64025e-12 3.39485e-11
1.64025e-12 1.8829e-10 1.35211e-11
3.39485e-11 1.35211e-11 0.00936755

1.88289e-10 1.64032e-12 1.35211e-11
1.64032e-12 1.70382e-10 3.39485e-11
1.35211e-11 3.39485e-11 0.00936755

1.57576e-10 4.06766e-12 3.09953e-11
4.06766e-12 1.57576e-10 3.09953e-11
3.09953e-11 3.09953e-11 0.00936755

-2.12675e-10 -9.99075e-13 1.4341e-11
-9.99075e-13 -2.12675e-10 1.4341e-11
1.4341e-11 1.4341e-11 0.00936755

-1.72934e-10 -1.64025e-12 3.39484e-11
-1.64025e-12 -1.90841e-10 1.35211e-11
3.39484e-11 1.35211e-11 0.00936755

-1.90841e-10 -1.64024e-12 1.35211e-11
-1.64024e-12 -1.72934e-10 3.39485e-11
1.35211e-11 3.39485e-11 0.00936755

-1.60128e-10 -4.06768e-12 3.09952e-11
-4.06768e-12 -1.60128e-10 3.09953e-11
3.09952e-11 3.09953e-11 0.00936755

SCALARS damage float
LOOKUP_TABLE default
0.0616637
0.0616637
0.0616637
0.0616637
0.0616637
0.0616637
0.0616637
0.0616637
