# vtk DataFile Version 3.0
time 0.32
ASCII
DATASET UNSTRUCTURED_GRID
POINTS 27 float
0 0 0 0.5 0 0 1 0 0 
0 0.5 0 0.5 0.5 0 1 0.5 0 
0 1 0 0.5 1 0 1 1 0 
0 0 0.5 0.5 0 0.5 1 0 0.5 
0 0.5 0.5 0.5 0.5 0.5 1 0.5 0.5 
0 1 0.5 0.5 1 0.5 1 1 0.5 
0 0 1 0.5 0 1 1 0 1 
0 0.5 1 0.5 0.5 1 1 0.5 1 
0 1 1 0.5 1 1 1 1 1 

CELLS 8 72
8 0 1 4 3 9 10 13 12 
8 1 2 5 4 10 11 14 13 
8 3 4 7 6 12 13 16 15 
8 4 5 8 7 13 14 17 16 
8 9 10 13 12 18 19 22 21 
8 10 11 14 13 19 20 23 22 
8 12 13 16 15 21 22 25 24 
8 13 14 17 16 22 23 26 25 

CELL_TYPES 8
12
12
12
12
12
12
12
12

POINT_DATA 27
VECTORS displacement float
0 0 0
-0.0221558 0 0
-0.0443117 0 0
0 -0.0221558 0
-0.0221558 -0.0221558 0
-0.0443117 -0.0221558 0
0 -0.0443117 0
-0.0221558 -0.0443117 0
-0.0443117 -0.0443117 0
0 0 0.08
-0.0221558 0 0.08
-0.0443117 0 0.08
0 -0.0221558 0.08
-0.0221558 -0.0221558 0.08
-0.0443117 -0.0221558 0.08
0 -0.0443117 0.08
-0.0221558 -0.0443117 0.08
-0.0443117 -0.0443117 0.08
0 0 0.16
-0.0221558 0 0.16
-0.0443116 0 0.16
0 -0.0221558 0.16
-0.0221558 -0.0221558 0.16
-0.0443116 -0.0221558 0.16
0 -0.0443116 0.16
-0.0221558 -0.0443116 0.16
-0.0443116 -0.0443116 0.16

CELL_DATA 8
SCALARS part_id int
LOOKUP_TABLE default
0
0
0
0
0
0
0
0
TENSORS stress float
2.39686e-10 1.97803e-12 3.11903e-11
1.97803e-12 2.39687e-10 3.11903e-11
3.11903e-11 3.11903e-11 0.0854161

1.61925e-10 3.38413e-12 8.31305e-11
3.38413e-12 1.97273e-10 2.938e-11
8.31305e-11 2.938e-11 0.0854161

1.97273e-10 3.38412e-12 2.938e-11
3.38412e-12 1.61925e-10 8.31305e-11
2.938e-11 8.31305e-11 0.0854161

1.37118e-10 7.33122e-12 7.59601e-11
7.33122e-12 1.37118e-10 7.59601e-11
7.59601e-11 7.59601e-11 0.0854161

-2.40459e-10 -1.97803e-12 3.11903e-11
-1.97803e-12 -2.40459e-10 3.11903e-11
3.11903e-11 3.11903e-11 0.0854161

-1.62697e-10 -3.38408e-12 8.31305e-11
-3.38408e-12 -1.98045e-10 2.938e-11
8.31305e-11 2.938e-11 0.0854161

-1.98045e-10 -3.38409e-12 2.938e-11
-3.38409e-12 -1.62697e-10 8.31306e-11
2.938e-11 8.31306e-11 0.0854161

-1.3789e-10 -7.33123e-12 7.59601e-11
-7.33123e-12 -1.3789e-10 7.59602e-11
7.59601e-11 7.59602e-11 0.0854161

SCALARS damage float
LOOKUP_TABLE default
0.455674
0.455674
0.455674
0.455674
0.455674
0.455674
0.455674
0.455674
