# vtk DataFile Version 3.0
time 0.07
ASCII
DATASET UNSTRUCTURED_GRID
POINTS 27 float
0 0 0 0.5 0 0 1 0 0 
0 0.5 0 0.5 0.5 0 1 0.5 0 
0 1 0 0.5 1 0 1 1 0 
0 0 0.5 0.5 0 0.5 1 0 0.5 
0 0.5 0.5 0.5 0.5 0.5 1 0.5 0.5 
0 1 0.5 0.5 1 0.5 1 1 0.5 
0 0 1 0.5 0 1 1 0 1 
0 0.5 1 0.5 0.5 1 1 0.5 1 
0 1 1 0.5 1 1 1 1 1 

CELLS 8 72
8 0 1 4 3 9 10 13 12 
8 1 2 5 4 10 11 14 13 
8 3 4 7 6 12 13 16 15 
8 4 5 8 7 13 14 17 16 
8 9 10 13 12 18 19 22 21 
8 10 11 14 13 19 20 23 22 
8 12 13 16 15 21 22 25 24 
8 13 14 17 16 22 23 26 25 

CELL_TYPES 8
12
12
12
12
12
12
12
12

POINT_DATA 27
VECTORS displacement float
0 0 0
-0.00515479 0 0
-0.0103096 0 0
0 -0.00515479 0
-0.00515479 -0.00515479 0
-0.0103096 -0.00515479 0
0 -0.0103096 0
-0.00515479 -0.0103096 0
-0.0103096 -0.0103096 0
0 0 0.0175
-0.00515479 0 0.0175
-0.0103096 0 0.0175
0 -0.00515479 0.0175
-0.00515479 -0.00515479 0.0175
-0.0103096 -0.00515479 0.0175
0 -0.0103096 0.0175
-0.00515479 -0.0103096 0.0175
-0.0103096 -0.0103096 0.0175
0 0 0.035
-0.00515479 0 0.035
-0.0103096 0 0.035
0 -0.00515479 0.035
-0.00515479 -0.00515479 0.035
-0.0103096 -0.00515479 0.035
0 -0.0103096 0.035
-0.00515479 -0.0103096 0.035
-0.0103096 -0.0103096 0.035

CELL_DATA 8
SCALARS part_id int
LOOKUP_TABLE default
0
0
0
0
0
0
0
0
TENSORS stress float
3.21121e-10 2.25041e-12 3.28102e-11
2.25041e-12 3.21121e-10 3.28102e-11
3.28102e-11 3.28102e-11 0.0283985

2.31784e-10 3.72373e-12 7.94358e-11
3.72373e-12 2.72103e-10 3.09301e-11
7.94358e-11 3.09301e-11 0.0283985

2.72103e-10 3.72369e-12 3.09301e-11
3.72369e-12 2.31785e-10 7.94358e-11
3.09301e-11 7.94358e-11 0.0283985

2.03046e-10 9.01039e-12 7.25345e-11
9.01039e-12 2.03046e-10 7.25345e-11
7.25345e-11 7.25345e-11 0.0283985

-3.23331e-10 -2.25042e-12 3.28101e-11
-2.25042e-12 -3.23331e-10 3.28102e-11
3.28101e-11 3.28102e-11 0.0283985

-2.33995e-10 -3.72371e-12 7.94358e-11
-3.72371e-12 -2.74313e-10 3.09302e-11
7.94358e-11 3.09302e-11 0.0283985

-2.74313e-10 -3.7237e-12 3.09301e-11
-3.7237e-12 -2.33995e-10 7.94358e-11
3.09301e-11 7.94358e-11 0.0283985

-2.05256e-10 -9.01044e-12 7.25345e-11
-9.01044e-12 -2.05256e-10 7.25345e-11
7.25345e-11 7.25345e-11 0.0283985

SCALARS damage float
LOOKUP_TABLE default
0.184059
0.184059
0.184059
0.184059
0.184059
0.184059
0.184059
0.184059
