# vtk DataFile Version 3.0
time 0.4
ASCII
DATASET UNSTRUCTURED_GRID
POINTS 27 float
0 0 0 0.5 0 0 1 0 0 
0 0.5 0 0.5 0.5 0 1 0.5 0 
0 1 0 0.5 1 0 1 1 0 
0 0 0.5 0.5 0 0.5 1 0 0.5 
0 0.5 0.5 0.5 0.5 0.5 1 0.5 0.5 
0 1 0.5 0.5 1 0.5 1 1 0.5 
0 0 1 0.5 0 1 1 0 1 
0 0.5 1 0.5 0.5 1 1 0.5 1 
0 1 1 0.5 1 1 1 1 1 

CELLS 8 72
8 0 1 4 3 9 10 13 12 
8 1 2 5 4 10 11 14 13 
8 3 4 7 6 12 13 16 15 
8 4 5 8 7 13 14 17 16 
8 9 10 13 12 18 19 22 21 
8 10 11 14 13 19 20 23 22 
8 12 13 16 15 21 22 25 24 
8 13 14 17 16 22 23 26 25 

CELL_TYPES 8
12
12
12
12
12
12
12
12

POINT_DATA 27
VECTORS displacement float
0 0 0
-0.0271837 0 0
-0.0543674 0 0
0 -0.0271837 0
-0.0271837 -0.0271837 0
-0.0543674 -0.0271837 0
0 -0.0543674 0
-0.0271837 -0.0543674 0
-0.0543674 -0.0543674 0
0 0 0.1
-0.0271837 0 0.1
-0.0543674 0 0.1
0 -0.0271837 0.1
-0.0271837 -0.0271837 0.1
-0.0543674 -0.0271837 0.1
0 -0.0543674 0.1
-0.0271837 -0.0543674 0.1
-0.0543674 -0.0543674 0.1
0 0 0.2
-0.0271837 0 0.2
-0.0543674 0 0.2
0 -0.0271837 0.2
-0.0271837 -0.0271837 0.2
-0.0543674 -0.0271837 0.2
0 -0.0543674 0.2
-0.0271837 -0.0543674 0.2
-0.0543674 -0.0543674 0.2

CELL_DATA 8
SCALARS part_id int
LOOKUP_TABLE default
0
0
0
0
0
0
0
0
TENSORS stress float
1.9044e-10 1.57421e-12 2.55983e-11
1.57421e-12 1.9044e-10 2.55983e-11
2.55983e-11 2.55983e-11 0.0995668

1.28476e-10 2.71724e-12 7.00665e-11
2.71724e-12 1.56837e-10 2.41142e-11
7.00665e-11 2.41142e-11 0.0995668

1.56837e-10 2.71727e-12 2.41141e-11
2.71727e-12 1.28476e-10 7.00665e-11
2.41141e-11 7.00665e-11 0.0995668

1.08836e-10 5.70234e-12 6.40695e-11
5.70234e-12 1.08836e-10 6.40694e-11
6.40695e-11 6.40694e-11 0.0995668

-1.91018e-10 -1.57422e-12 2.55983e-11
-1.57422e-12 -1.91018e-10 2.55983e-11
2.55983e-11 2.55983e-11 0.0995668

-1.29055e-10 -2.71729e-12 7.00665e-11
-2.71729e-12 -1.57415e-10 2.41142e-11
7.00665e-11 2.41142e-11 0.0995668

-1.57415e-10 -2.71726e-12 2.41141e-11
-2.71726e-12 -1.29055e-10 7.00665e-11
2.41141e-11 7.00665e-11 0.0995668

-1.09415e-10 -5.70229e-12 6.40695e-11
-5.70229e-12 -1.09415e-10 6.40694e-11
6.40695e-11 6.40694e-11 0.0995668

SCALARS damage float
LOOKUP_TABLE default
0.491024
0.491024
0.491024
0.491024
0.491024
0.491024
0.491024
0.491024
