# vtk DataFile Version 3.0
time 0.2
ASCII
DATASET UNSTRUCTURED_GRID
POINTS 27 float
0 0 0 0.5 0 0 1 0 0 
0 0.5 0 0.5 0.5 0 1 0.5 0 
0 1 0 0.5 1 0 1 1 0 
0 0 0.5 0.5 0 0.5 1 0 0.5 
0 0.5 0.5 0.5 0.5 0.5 1 0.5 0.5 
0 1 0.5 0.5 1 0.5 1 1 0.5 
0 0 1 0.5 0 1 1 0 1 
0 0.5 1 0.5 0.5 1 1 0.5 1 
0 1 1 0.5 1 1 1 1 1 

CELLS 8 72
8 0 1 4 3 9 10 13 12 
8 1 2 5 4 10 11 14 13 
8 3 4 7 6 12 13 16 15 
8 4 5 8 7 13 14 17 16 
8 9 10 13 12 18 19 22 21 
8 10 11 14 13 19 20 23 22 
8 12 13 16 15 21 22 25 24 
8 13 14 17 16 22 23 26 25 

CELL_TYPES 8
12
12
12
12
12
12
12
12

POINT_DATA 27
VECTORS displacement float
0 0 0
-0.0142535 0 0
-0.0285071 0 0
0 -0.0142535 0
-0.0142535 -0.0142535 0
-0.0285071 -0.0142535 0
0 -0.0285071 0
-0.0142535 -0.0285071 0
-0.0285071 -0.0285071 0
0 0 0.05
-0.0142535 0 0.05
-0.0285071 0 0.05
0 -0.0142535 0.05
-0.0142535 -0.0142535 0.05
-0.0285071 -0.0142535 0.05
0 -0.0285071 0.05
-0.0142535 -0.0285071 0.05
-0.0285071 -0.0285071 0.05
0 0 0.1
-0.0142535 0 0.1
-0.0285071 0 0.1
0 -0.0142535 0.1
-0.0142535 -0.0142535 0.1
-0.0285071 -0.0142535 0.1
0 -0.0285071 0.1
-0.0142535 -0.0285071 0.1
-0.0285071 -0.0285071 0.1

CELL_DATA 8
SCALARS part_id int
LOOKUP_TABLE default
0
0
0
0
0
0
0
0
TENSORS stress float
3.22049e-10 2.60257e-12 3.93265e-11
2.60257e-12 3.22049e-10 3.93265e-11
3.93265e-11 3.93265e-11 0.0621408

2.19661e-10 4.38722e-12 1.00304e-10
4.38722e-12 2.65845e-10 3.70476e-11
1.00304e-10 3.70476e-11 0.0621408

2.65845e-10 4.38721e-12 3.70476e-11
4.38721e-12 2.19661e-10 1.00304e-10
3.70476e-11 1.00304e-10 0.0621408

1.86753e-10 9.99866e-12 9.15809e-11
9.99866e-12 1.86753e-10 9.15809e-11
9.15809e-11 9.15809e-11 0.0621408

-3.23308e-10 -2.60257e-12 3.93264e-11
-2.60257e-12 -3.23308e-10 3.93264e-11
3.93264e-11 3.93264e-11 0.0621408

-2.2092e-10 -4.38719e-12 1.00304e-10
-4.38719e-12 -2.67105e-10 3.70477e-11
1.00304e-10 3.70477e-11 0.0621408

-2.67105e-10 -4.38719e-12 3.70476e-11
-4.38719e-12 -2.2092e-10 1.00304e-10
3.70476e-11 1.00304e-10 0.0621408

-1.88013e-10 -9.99874e-12 9.15809e-11
-9.99874e-12 -1.88013e-10 9.1581e-11
9.15809e-11 9.1581e-11 0.0621408

SCALARS damage float
LOOKUP_TABLE default
0.369896
0.369896
0.369896
0.369896
0.369896
0.369896
0.369896
0.369896
