# vtk DataFile Version 3.0
time 1
ASCII
DATASET UNSTRUCTURED_GRID
POINTS 27 float
0 0 0 1 0 0 2 0 0 
0 1 0 1 1 0 2 1 0 
0 2 0 1 2 0 2 2 0 
0 0 1 1 0 1 2 0 1 
0 1 1 1 1 1 2 1 1 
0 2 1 1 2 1 2 2 1 
0 0 2 1 0 2 2 0 2 
0 1 2 1 1 2 2 1 2 
0 2 2 1 2 2 2 2 2 

CELLS 8 72
8 0 1 4 3 9 10 13 12 
8 1 2 5 4 10 11 14 13 
8 3 4 7 6 12 13 16 15 
8 4 5 8 7 13 14 17 16 
8 9 10 13 12 18 19 22 21 
8 10 11 14 13 19 20 23 22 
8 12 13 16 15 21 22 25 24 
8 13 14 17 16 22 23 26 25 

CELL_TYPES 8
12
12
12
12
12
12
12
12

POINT_DATA 27
VECTORS displacement float
0 0 0
-0.0664419 0 0
-0.132885 0 0
0 -0.0664419 0
-0.0664418 -0.0664418 0
-0.132885 -0.0664417 0
0 -0.132885 0
-0.0664417 -0.132885 0
-0.132884 -0.132884 0
0 0 0.250057
-0.0664404 0 0.250058
-0.132881 0 0.250057
0 -0.0664404 0.250058
-0.0664404 -0.0664404 0.250058
-0.132881 -0.0664404 0.250057
0 -0.132881 0.250057
-0.0664404 -0.132881 0.250057
-0.132881 -0.132881 0.250056
0 0 0.5
-0.0664389 0 0.5
-0.132877 0 0.5
0 -0.0664389 0.5
-0.066439 -0.066439 0.5
-0.132877 -0.0664391 0.5
0 -0.132877 0.5
-0.0664391 -0.132877 0.5
-0.132878 -0.132878 0.5

CELL_DATA 8
SCALARS part_id int
LOOKUP_TABLE default
0
0
0
0
0
0
0
0
TENSORS stress float
2.3647e-06 2.13071e-09 3.85118e-08
2.13071e-09 2.3647e-06 3.85092e-08
3.85118e-08 3.85092e-08 0.0259261

2.28029e-06 3.50781e-09 1.01979e-07
3.50781e-09 2.31813e-06 3.63271e-08
1.01979e-07 3.63271e-08 0.025926

2.31813e-06 3.50518e-09 3.63233e-08
3.50518e-09 2.28027e-06 1.01982e-07
3.63233e-08 1.01982e-07 0.025926

2.25423e-06 8.6469e-09 9.32321e-08
8.6469e-09 2.25425e-06 9.32291e-08
9.32321e-08 9.32291e-08 0.025926

-2.562e-06 -2.13783e-09 3.85141e-08
-2.13783e-09 -2.562e-06 3.85168e-08
3.85141e-08 3.85168e-08 0.0259185

-2.47751e-06 -3.5003e-09 1.02007e-07
-3.5003e-09 -2.5154e-06 3.63192e-08
1.02007e-07 3.63192e-08 0.0259186

-2.5154e-06 -3.50293e-09 3.63231e-08
-3.50293e-09 -2.47753e-06 1.02004e-07
3.63231e-08 1.02004e-07 0.0259186

-2.45137e-06 -8.65144e-09 9.32594e-08
-8.65144e-09 -2.45136e-06 9.32625e-08
9.32594e-08 9.32625e-08 0.0259186

