# vtk DataFile Version 3.0
P-01 multi-segment shunt mesh
ASCII
DATASET UNSTRUCTURED_GRID
POINTS 672 float
-1.000000 0.000000 0.000000
-1.146447 0.353553 0.000000
-1.500000 0.500000 0.000000
-1.853553 0.353553 0.000000
-2.000000 0.000000 0.000000
-1.853553 -0.353553 0.000000
-1.500000 -0.500000 0.000000
-1.146447 -0.353553 0.000000
-1.000000 0.000000 0.500000
-1.146447 0.353553 0.500000
-1.500000 0.500000 0.500000
-1.853553 0.353553 0.500000
-2.000000 0.000000 0.500000
-1.853553 -0.353553 0.500000
-1.500000 -0.500000 0.500000
-1.146447 -0.353553 0.500000
-1.000000 0.000000 1.000000
-1.146447 0.353553 1.000000
-1.500000 0.500000 1.000000
-1.853553 0.353553 1.000000
-2.000000 0.000000 1.000000
-1.853553 -0.353553 1.000000
-1.500000 -0.500000 1.000000
-1.146447 -0.353553 1.000000
-1.000000 0.000000 1.500000
-1.146447 0.353553 1.500000
-1.500000 0.500000 1.500000
-1.853553 0.353553 1.500000
-2.000000 0.000000 1.500000
-1.853553 -0.353553 1.500000
-1.500000 -0.500000 1.500000
-1.146447 -0.353553 1.500000
-1.000000 0.000000 2.000000
-1.146447 0.353553 2.000000
-1.500000 0.500000 2.000000
-1.853553 0.353553 2.000000
-2.000000 0.000000 2.000000
-1.853553 -0.353553 2.000000
-1.500000 -0.500000 2.000000
-1.146447 -0.353553 2.000000
-1.000000 0.000000 2.500000
-1.146447 0.353553 2.500000
-1.500000 0.500000 2.500000
-1.853553 0.353553 2.500000
-2.000000 0.000000 2.500000
-1.853553 -0.353553 2.500000
-1.500000 -0.500000 2.500000
-1.146447 -0.353553 2.500000
-1.000000 0.000000 3.000000
-1.146447 0.353553 3.000000
-1.500000 0.500000 3.000000
-1.853553 0.353553 3.000000
-2.000000 0.000000 3.000000
-1.853553 -0.353553 3.000000
-1.500000 -0.500000 3.000000
-1.146447 -0.353553 3.000000
-1.000000 0.000000 3.500000
-1.146447 0.353553 3.500000
-1.500000 0.500000 3.500000
-1.853553 0.353553 3.500000
-2.000000 0.000000 3.500000
-1.853553 -0.353553 3.500000
-1.500000 -0.500000 3.500000
-1.146447 -0.353553 3.500000
-1.000000 0.000000 4.000000
-1.146447 0.353553 4.000000
-1.500000 0.500000 4.000000
-1.853553 0.353553 4.000000
-2.000000 0.000000 4.000000
-1.853553 -0.353553 4.000000
-1.500000 -0.500000 4.000000
-1.146447 -0.353553 4.000000
-1.000000 0.000000 4.500000
-1.146447 0.353553 4.500000
-1.500000 0.500000 4.500000
-1.853553 0.353553 4.500000
-2.000000 0.000000 4.500000
-1.853553 -0.353553 4.500000
-1.500000 -0.500000 4.500000
-1.146447 -0.353553 4.500000
-1.000000 0.000000 5.000000
-1.146447 0.353553 5.000000
-1.500000 0.500000 5.000000
-1.853553 0.353553 5.000000
-2.000000 0.000000 5.000000
-1.853553 -0.353553 5.000000
-1.500000 -0.500000 5.000000
-1.146447 -0.353553 5.000000
-1.000000 0.000000 5.500000
-1.146447 0.353553 5.500000
-1.500000 0.500000 5.500000
-1.853553 0.353553 5.500000
-2.000000 0.000000 5.500000
-1.853553 -0.353553 5.500000
-1.500000 -0.500000 5.500000
-1.146447 -0.353553 5.500000
-1.000000 0.000000 6.000000
-1.146447 0.353553 6.000000
-1.500000 0.500000 6.000000
-1.853553 0.353553 6.000000
-2.000000 0.000000 6.000000
-1.853553 -0.353553 6.000000
-1.500000 -0.500000 6.000000
-1.146447 -0.353553 6.000000
-1.000000 0.000000 6.500000
-1.146447 0.353553 6.500000
-1.500000 0.500000 6.500000
-1.853553 0.353553 6.500000
-2.000000 0.000000 6.500000
-1.853553 -0.353553 6.500000
-1.500000 -0.500000 6.500000
-1.146447 -0.353553 6.500000
-1.000000 0.000000 7.000000
-1.146447 0.353553 7.000000
-1.500000 0.500000 7.000000
-1.853553 0.353553 7.000000
-2.000000 0.000000 7.000000
-1.853553 -0.353553 7.000000
-1.500000 -0.500000 7.000000
-1.146447 -0.353553 7.000000
-1.000000 0.000000 7.500000
-1.146447 0.353553 7.500000
-1.500000 0.500000 7.500000
-1.853553 0.353553 7.500000
-2.000000 0.000000 7.500000
-1.853553 -0.353553 7.500000
-1.500000 -0.500000 7.500000
-1.146447 -0.353553 7.500000
-1.000000 0.000000 8.000000
-1.146447 0.353553 8.000000
-1.500000 0.500000 8.000000
-1.853553 0.353553 8.000000
-2.000000 0.000000 8.000000
-1.853553 -0.353553 8.000000
-1.500000 -0.500000 8.000000
-1.146447 -0.353553 8.000000
-1.000000 0.000000 8.500000
-1.146447 0.353553 8.500000
-1.500000 0.500000 8.500000
-1.853553 0.353553 8.500000
-2.000000 0.000000 8.500000
-1.853553 -0.353553 8.500000
-1.500000 -0.500000 8.500000
-1.146447 -0.353553 8.500000
-1.000000 0.000000 9.000000
-1.146447 0.353553 9.000000
-1.500000 0.500000 9.000000
-1.853553 0.353553 9.000000
-2.000000 0.000000 9.000000
-1.853553 -0.353553 9.000000
-1.500000 -0.500000 9.000000
-1.146447 -0.353553 9.000000
-1.000000 0.000000 9.500000
-1.146447 0.353553 9.500000
-1.500000 0.500000 9.500000
-1.853553 0.353553 9.500000
-2.000000 0.000000 9.500000
-1.853553 -0.353553 9.500000
-1.500000 -0.500000 9.500000
-1.146447 -0.353553 9.500000
-1.000000 0.000000 10.000000
-1.146447 0.353553 10.000000
-1.500000 0.500000 10.000000
-1.853553 0.353553 10.000000
-2.000000 0.000000 10.000000
-1.853553 -0.353553 10.000000
-1.500000 -0.500000 10.000000
-1.146447 -0.353553 10.000000
1.000000 0.000000 0.000000
0.853553 0.353553 0.000000
0.500000 0.500000 0.000000
0.146447 0.353553 0.000000
0.000000 0.000000 0.000000
0.146447 -0.353553 0.000000
0.500000 -0.500000 0.000000
0.853553 -0.353553 0.000000
1.000000 0.000000 0.500000
0.853553 0.353553 0.500000
0.500000 0.500000 0.500000
0.146447 0.353553 0.500000
0.000000 0.000000 0.500000
0.146447 -0.353553 0.500000
0.500000 -0.500000 0.500000
0.853553 -0.353553 0.500000
1.000000 0.000000 1.000000
0.853553 0.353553 1.000000
0.500000 0.500000 1.000000
0.146447 0.353553 1.000000
0.000000 0.000000 1.000000
0.146447 -0.353553 1.000000
0.500000 -0.500000 1.000000
0.853553 -0.353553 1.000000
1.000000 0.000000 1.500000
0.853553 0.353553 1.500000
0.500000 0.500000 1.500000
0.146447 0.353553 1.500000
0.000000 0.000000 1.500000
0.146447 -0.353553 1.500000
0.500000 -0.500000 1.500000
0.853553 -0.353553 1.500000
1.000000 0.000000 2.000000
0.853553 0.353553 2.000000
0.500000 0.500000 2.000000
0.146447 0.353553 2.000000
0.000000 0.000000 2.000000
0.146447 -0.353553 2.000000
0.500000 -0.500000 2.000000
0.853553 -0.353553 2.000000
1.000000 0.000000 2.500000
0.853553 0.353553 2.500000
0.500000 0.500000 2.500000
0.146447 0.353553 2.500000
0.000000 0.000000 2.500000
0.146447 -0.353553 2.500000
0.500000 -0.500000 2.500000
0.853553 -0.353553 2.500000
1.000000 0.000000 3.000000
0.853553 0.353553 3.000000
0.500000 0.500000 3.000000
0.146447 0.353553 3.000000
0.000000 0.000000 3.000000
0.146447 -0.353553 3.000000
0.500000 -0.500000 3.000000
0.853553 -0.353553 3.000000
1.000000 0.000000 3.500000
0.853553 0.353553 3.500000
0.500000 0.500000 3.500000
0.146447 0.353553 3.500000
0.000000 0.000000 3.500000
0.146447 -0.353553 3.500000
0.500000 -0.500000 3.500000
0.853553 -0.353553 3.500000
1.000000 0.000000 4.000000
0.853553 0.353553 4.000000
0.500000 0.500000 4.000000
0.146447 0.353553 4.000000
0.000000 0.000000 4.000000
0.146447 -0.353553 4.000000
0.500000 -0.500000 4.000000
0.853553 -0.353553 4.000000
1.000000 0.000000 4.500000
0.853553 0.353553 4.500000
0.500000 0.500000 4.500000
0.146447 0.353553 4.500000
0.000000 0.000000 4.500000
0.146447 -0.353553 4.500000
0.500000 -0.500000 4.500000
0.853553 -0.353553 4.500000
1.000000 0.000000 5.000000
0.853553 0.353553 5.000000
0.500000 0.500000 5.000000
0.146447 0.353553 5.000000
0.000000 0.000000 5.000000
0.146447 -0.353553 5.000000
0.500000 -0.500000 5.000000
0.853553 -0.353553 5.000000
1.000000 0.000000 5.500000
0.853553 0.353553 5.500000
0.500000 0.500000 5.500000
0.146447 0.353553 5.500000
0.000000 0.000000 5.500000
0.146447 -0.353553 5.500000
0.500000 -0.500000 5.500000
0.853553 -0.353553 5.500000
1.000000 0.000000 6.000000
0.853553 0.353553 6.000000
0.500000 0.500000 6.000000
0.146447 0.353553 6.000000
0.000000 0.000000 6.000000
0.146447 -0.353553 6.000000
0.500000 -0.500000 6.000000
0.853553 -0.353553 6.000000
1.000000 0.000000 6.500000
0.853553 0.353553 6.500000
0.500000 0.500000 6.500000
0.146447 0.353553 6.500000
0.000000 0.000000 6.500000
0.146447 -0.353553 6.500000
0.500000 -0.500000 6.500000
0.853553 -0.353553 6.500000
1.000000 0.000000 7.000000
0.853553 0.353553 7.000000
0.500000 0.500000 7.000000
0.146447 0.353553 7.000000
0.000000 0.000000 7.000000
0.146447 -0.353553 7.000000
0.500000 -0.500000 7.000000
0.853553 -0.353553 7.000000
1.000000 0.000000 7.500000
0.853553 0.353553 7.500000
0.500000 0.500000 7.500000
0.146447 0.353553 7.500000
0.000000 0.000000 7.500000
0.146447 -0.353553 7.500000
0.500000 -0.500000 7.500000
0.853553 -0.353553 7.500000
1.000000 0.000000 8.000000
0.853553 0.353553 8.000000
0.500000 0.500000 8.000000
0.146447 0.353553 8.000000
0.000000 0.000000 8.000000
0.146447 -0.353553 8.000000
0.500000 -0.500000 8.000000
0.853553 -0.353553 8.000000
1.000000 0.000000 8.500000
0.853553 0.353553 8.500000
0.500000 0.500000 8.500000
0.146447 0.353553 8.500000
0.000000 0.000000 8.500000
0.146447 -0.353553 8.500000
0.500000 -0.500000 8.500000
0.853553 -0.353553 8.500000
1.000000 0.000000 9.000000
0.853553 0.353553 9.000000
0.500000 0.500000 9.000000
0.146447 0.353553 9.000000
0.000000 0.000000 9.000000
0.146447 -0.353553 9.000000
0.500000 -0.500000 9.000000
0.853553 -0.353553 9.000000
1.000000 0.000000 9.500000
0.853553 0.353553 9.500000
0.500000 0.500000 9.500000
0.146447 0.353553 9.500000
0.000000 0.000000 9.500000
0.146447 -0.353553 9.500000
0.500000 -0.500000 9.500000
0.853553 -0.353553 9.500000
1.000000 0.000000 10.000000
0.853553 0.353553 10.000000
0.500000 0.500000 10.000000
0.146447 0.353553 10.000000
0.000000 0.000000 10.000000
0.146447 -0.353553 10.000000
0.500000 -0.500000 10.000000
0.853553 -0.353553 10.000000
0.500000 -1.500000 0.000000
0.353553 -1.146447 0.000000
0.000000 -1.000000 0.000000
-0.353553 -1.146447 0.000000
-0.500000 -1.500000 0.000000
-0.353553 -1.853553 0.000000
-0.000000 -2.000000 0.000000
0.353553 -1.853553 0.000000
0.500000 -1.500000 0.500000
0.353553 -1.146447 0.500000
0.000000 -1.000000 0.500000
-0.353553 -1.146447 0.500000
-0.500000 -1.500000 0.500000
-0.353553 -1.853553 0.500000
-0.000000 -2.000000 0.500000
0.353553 -1.853553 0.500000
0.500000 -1.500000 1.000000
0.353553 -1.146447 1.000000
0.000000 -1.000000 1.000000
-0.353553 -1.146447 1.000000
-0.500000 -1.500000 1.000000
-0.353553 -1.853553 1.000000
-0.000000 -2.000000 1.000000
0.353553 -1.853553 1.000000
0.500000 -1.500000 1.500000
0.353553 -1.146447 1.500000
0.000000 -1.000000 1.500000
-0.353553 -1.146447 1.500000
-0.500000 -1.500000 1.500000
-0.353553 -1.853553 1.500000
-0.000000 -2.000000 1.500000
0.353553 -1.853553 1.500000
0.500000 -1.500000 2.000000
0.353553 -1.146447 2.000000
0.000000 -1.000000 2.000000
-0.353553 -1.146447 2.000000
-0.500000 -1.500000 2.000000
-0.353553 -1.853553 2.000000
-0.000000 -2.000000 2.000000
0.353553 -1.853553 2.000000
0.500000 -1.500000 2.500000
0.353553 -1.146447 2.500000
0.000000 -1.000000 2.500000
-0.353553 -1.146447 2.500000
-0.500000 -1.500000 2.500000
-0.353553 -1.853553 2.500000
-0.000000 -2.000000 2.500000
0.353553 -1.853553 2.500000
0.500000 -1.500000 3.000000
0.353553 -1.146447 3.000000
0.000000 -1.000000 3.000000
-0.353553 -1.146447 3.000000
-0.500000 -1.500000 3.000000
-0.353553 -1.853553 3.000000
-0.000000 -2.000000 3.000000
0.353553 -1.853553 3.000000
0.500000 -1.500000 3.500000
0.353553 -1.146447 3.500000
0.000000 -1.000000 3.500000
-0.353553 -1.146447 3.500000
-0.500000 -1.500000 3.500000
-0.353553 -1.853553 3.500000
-0.000000 -2.000000 3.500000
0.353553 -1.853553 3.500000
0.500000 -1.500000 4.000000
0.353553 -1.146447 4.000000
0.000000 -1.000000 4.000000
-0.353553 -1.146447 4.000000
-0.500000 -1.500000 4.000000
-0.353553 -1.853553 4.000000
-0.000000 -2.000000 4.000000
0.353553 -1.853553 4.000000
0.500000 -1.500000 4.500000
0.353553 -1.146447 4.500000
0.000000 -1.000000 4.500000
-0.353553 -1.146447 4.500000
-0.500000 -1.500000 4.500000
-0.353553 -1.853553 4.500000
-0.000000 -2.000000 4.500000
0.353553 -1.853553 4.500000
0.500000 -1.500000 5.000000
0.353553 -1.146447 5.000000
0.000000 -1.000000 5.000000
-0.353553 -1.146447 5.000000
-0.500000 -1.500000 5.000000
-0.353553 -1.853553 5.000000
-0.000000 -2.000000 5.000000
0.353553 -1.853553 5.000000
0.500000 -1.500000 5.500000
0.353553 -1.146447 5.500000
0.000000 -1.000000 5.500000
-0.353553 -1.146447 5.500000
-0.500000 -1.500000 5.500000
-0.353553 -1.853553 5.500000
-0.000000 -2.000000 5.500000
0.353553 -1.853553 5.500000
0.500000 -1.500000 6.000000
0.353553 -1.146447 6.000000
0.000000 -1.000000 6.000000
-0.353553 -1.146447 6.000000
-0.500000 -1.500000 6.000000
-0.353553 -1.853553 6.000000
-0.000000 -2.000000 6.000000
0.353553 -1.853553 6.000000
0.500000 -1.500000 6.500000
0.353553 -1.146447 6.500000
0.000000 -1.000000 6.500000
-0.353553 -1.146447 6.500000
-0.500000 -1.500000 6.500000
-0.353553 -1.853553 6.500000
-0.000000 -2.000000 6.500000
0.353553 -1.853553 6.500000
0.500000 -1.500000 7.000000
0.353553 -1.146447 7.000000
0.000000 -1.000000 7.000000
-0.353553 -1.146447 7.000000
-0.500000 -1.500000 7.000000
-0.353553 -1.853553 7.000000
-0.000000 -2.000000 7.000000
0.353553 -1.853553 7.000000
0.500000 -1.500000 7.500000
0.353553 -1.146447 7.500000
0.000000 -1.000000 7.500000
-0.353553 -1.146447 7.500000
-0.500000 -1.500000 7.500000
-0.353553 -1.853553 7.500000
-0.000000 -2.000000 7.500000
0.353553 -1.853553 7.500000
0.500000 -1.500000 8.000000
0.353553 -1.146447 8.000000
0.000000 -1.000000 8.000000
-0.353553 -1.146447 8.000000
-0.500000 -1.500000 8.000000
-0.353553 -1.853553 8.000000
-0.000000 -2.000000 8.000000
0.353553 -1.853553 8.000000
0.500000 -1.500000 8.500000
0.353553 -1.146447 8.500000
0.000000 -1.000000 8.500000
-0.353553 -1.146447 8.500000
-0.500000 -1.500000 8.500000
-0.353553 -1.853553 8.500000
-0.000000 -2.000000 8.500000
0.353553 -1.853553 8.500000
0.500000 -1.500000 9.000000
0.353553 -1.146447 9.000000
0.000000 -1.000000 9.000000
-0.353553 -1.146447 9.000000
-0.500000 -1.500000 9.000000
-0.353553 -1.853553 9.000000
-0.000000 -2.000000 9.000000
0.353553 -1.853553 9.000000
0.500000 -1.500000 9.500000
0.353553 -1.146447 9.500000
0.000000 -1.000000 9.500000
-0.353553 -1.146447 9.500000
-0.500000 -1.500000 9.500000
-0.353553 -1.853553 9.500000
-0.000000 -2.000000 9.500000
0.353553 -1.853553 9.500000
0.500000 -1.500000 10.000000
0.353553 -1.146447 10.000000
0.000000 -1.000000 10.000000
-0.353553 -1.146447 10.000000
-0.500000 -1.500000 10.000000
-0.353553 -1.853553 10.000000
-0.000000 -2.000000 10.000000
0.353553 -1.853553 10.000000
0.500000 0.500000 0.000000
0.353553 0.853553 0.000000
0.000000 1.000000 0.000000
-0.353553 0.853553 0.000000
-0.500000 0.500000 0.000000
-0.353553 0.146447 0.000000
-0.000000 0.000000 0.000000
0.353553 0.146447 0.000000
0.500000 0.500000 0.500000
0.353553 0.853553 0.500000
0.000000 1.000000 0.500000
-0.353553 0.853553 0.500000
-0.500000 0.500000 0.500000
-0.353553 0.146447 0.500000
-0.000000 0.000000 0.500000
0.353553 0.146447 0.500000
0.500000 0.500000 1.000000
0.353553 0.853553 1.000000
0.000000 1.000000 1.000000
-0.353553 0.853553 1.000000
-0.500000 0.500000 1.000000
-0.353553 0.146447 1.000000
-0.000000 0.000000 1.000000
0.353553 0.146447 1.000000
0.500000 0.500000 1.500000
0.353553 0.853553 1.500000
0.000000 1.000000 1.500000
-0.353553 0.853553 1.500000
-0.500000 0.500000 1.500000
-0.353553 0.146447 1.500000
-0.000000 0.000000 1.500000
0.353553 0.146447 1.500000
0.500000 0.500000 2.000000
0.353553 0.853553 2.000000
0.000000 1.000000 2.000000
-0.353553 0.853553 2.000000
-0.500000 0.500000 2.000000
-0.353553 0.146447 2.000000
-0.000000 0.000000 2.000000
0.353553 0.146447 2.000000
0.500000 0.500000 2.500000
0.353553 0.853553 2.500000
0.000000 1.000000 2.500000
-0.353553 0.853553 2.500000
-0.500000 0.500000 2.500000
-0.353553 0.146447 2.500000
-0.000000 0.000000 2.500000
0.353553 0.146447 2.500000
0.500000 0.500000 3.000000
0.353553 0.853553 3.000000
0.000000 1.000000 3.000000
-0.353553 0.853553 3.000000
-0.500000 0.500000 3.000000
-0.353553 0.146447 3.000000
-0.000000 0.000000 3.000000
0.353553 0.146447 3.000000
0.500000 0.500000 3.500000
0.353553 0.853553 3.500000
0.000000 1.000000 3.500000
-0.353553 0.853553 3.500000
-0.500000 0.500000 3.500000
-0.353553 0.146447 3.500000
-0.000000 0.000000 3.500000
0.353553 0.146447 3.500000
0.500000 0.500000 4.000000
0.353553 0.853553 4.000000
0.000000 1.000000 4.000000
-0.353553 0.853553 4.000000
-0.500000 0.500000 4.000000
-0.353553 0.146447 4.000000
-0.000000 0.000000 4.000000
0.353553 0.146447 4.000000
0.500000 0.500000 4.500000
0.353553 0.853553 4.500000
0.000000 1.000000 4.500000
-0.353553 0.853553 4.500000
-0.500000 0.500000 4.500000
-0.353553 0.146447 4.500000
-0.000000 0.000000 4.500000
0.353553 0.146447 4.500000
0.500000 0.500000 5.000000
0.353553 0.853553 5.000000
0.000000 1.000000 5.000000
-0.353553 0.853553 5.000000
-0.500000 0.500000 5.000000
-0.353553 0.146447 5.000000
-0.000000 0.000000 5.000000
0.353553 0.146447 5.000000
0.500000 0.500000 5.500000
0.353553 0.853553 5.500000
0.000000 1.000000 5.500000
-0.353553 0.853553 5.500000
-0.500000 0.500000 5.500000
-0.353553 0.146447 5.500000
-0.000000 0.000000 5.500000
0.353553 0.146447 5.500000
0.500000 0.500000 6.000000
0.353553 0.853553 6.000000
0.000000 1.000000 6.000000
-0.353553 0.853553 6.000000
-0.500000 0.500000 6.000000
-0.353553 0.146447 6.000000
-0.000000 0.000000 6.000000
0.353553 0.146447 6.000000
0.500000 0.500000 6.500000
0.353553 0.853553 6.500000
0.000000 1.000000 6.500000
-0.353553 0.853553 6.500000
-0.500000 0.500000 6.500000
-0.353553 0.146447 6.500000
-0.000000 0.000000 6.500000
0.353553 0.146447 6.500000
0.500000 0.500000 7.000000
0.353553 0.853553 7.000000
0.000000 1.000000 7.000000
-0.353553 0.853553 7.000000
-0.500000 0.500000 7.000000
-0.353553 0.146447 7.000000
-0.000000 0.000000 7.000000
0.353553 0.146447 7.000000
0.500000 0.500000 7.500000
0.353553 0.853553 7.500000
0.000000 1.000000 7.500000
-0.353553 0.853553 7.500000
-0.500000 0.500000 7.500000
-0.353553 0.146447 7.500000
-0.000000 0.000000 7.500000
0.353553 0.146447 7.500000
0.500000 0.500000 8.000000
0.353553 0.853553 8.000000
0.000000 1.000000 8.000000
-0.353553 0.853553 8.000000
-0.500000 0.500000 8.000000
-0.353553 0.146447 8.000000
-0.000000 0.000000 8.000000
0.353553 0.146447 8.000000
0.500000 0.500000 8.500000
0.353553 0.853553 8.500000
0.000000 1.000000 8.500000
-0.353553 0.853553 8.500000
-0.500000 0.500000 8.500000
-0.353553 0.146447 8.500000
-0.000000 0.000000 8.500000
0.353553 0.146447 8.500000
0.500000 0.500000 9.000000
0.353553 0.853553 9.000000
0.000000 1.000000 9.000000
-0.353553 0.853553 9.000000
-0.500000 0.500000 9.000000
-0.353553 0.146447 9.000000
-0.000000 0.000000 9.000000
0.353553 0.146447 9.000000
0.500000 0.500000 9.500000
0.353553 0.853553 9.500000
0.000000 1.000000 9.500000
-0.353553 0.853553 9.500000
-0.500000 0.500000 9.500000
-0.353553 0.146447 9.500000
-0.000000 0.000000 9.500000
0.353553 0.146447 9.500000
0.500000 0.500000 10.000000
0.353553 0.853553 10.000000
0.000000 1.000000 10.000000
-0.353553 0.853553 10.000000
-0.500000 0.500000 10.000000
-0.353553 0.146447 10.000000
-0.000000 0.000000 10.000000
0.353553 0.146447 10.000000
CELLS 1280 5120
3 0 1 9
3 0 9 8
3 1 2 10
3 1 10 9
3 2 3 11
3 2 11 10
3 3 4 12
3 3 12 11
3 4 5 13
3 4 13 12
3 5 6 14
3 5 14 13
3 6 7 15
3 6 15 14
3 7 0 8
3 7 8 15
3 8 9 17
3 8 17 16
3 9 10 18
3 9 18 17
3 10 11 19
3 10 19 18
3 11 12 20
3 11 20 19
3 12 13 21
3 12 21 20
3 13 14 22
3 13 22 21
3 14 15 23
3 14 23 22
3 15 8 16
3 15 16 23
3 16 17 25
3 16 25 24
3 17 18 26
3 17 26 25
3 18 19 27
3 18 27 26
3 19 20 28
3 19 28 27
3 20 21 29
3 20 29 28
3 21 22 30
3 21 30 29
3 22 23 31
3 22 31 30
3 23 16 24
3 23 24 31
3 24 25 33
3 24 33 32
3 25 26 34
3 25 34 33
3 26 27 35
3 26 35 34
3 27 28 36
3 27 36 35
3 28 29 37
3 28 37 36
3 29 30 38
3 29 38 37
3 30 31 39
3 30 39 38
3 31 24 32
3 31 32 39
3 32 33 41
3 32 41 40
3 33 34 42
3 33 42 41
3 34 35 43
3 34 43 42
3 35 36 44
3 35 44 43
3 36 37 45
3 36 45 44
3 37 38 46
3 37 46 45
3 38 39 47
3 38 47 46
3 39 32 40
3 39 40 47
3 40 41 49
3 40 49 48
3 41 42 50
3 41 50 49
3 42 43 51
3 42 51 50
3 43 44 52
3 43 52 51
3 44 45 53
3 44 53 52
3 45 46 54
3 45 54 53
3 46 47 55
3 46 55 54
3 47 40 48
3 47 48 55
3 48 49 57
3 48 57 56
3 49 50 58
3 49 58 57
3 50 51 59
3 50 59 58
3 51 52 60
3 51 60 59
3 52 53 61
3 52 61 60
3 53 54 62
3 53 62 61
3 54 55 63
3 54 63 62
3 55 48 56
3 55 56 63
3 56 57 65
3 56 65 64
3 57 58 66
3 57 66 65
3 58 59 67
3 58 67 66
3 59 60 68
3 59 68 67
3 60 61 69
3 60 69 68
3 61 62 70
3 61 70 69
3 62 63 71
3 62 71 70
3 63 56 64
3 63 64 71
3 64 65 73
3 64 73 72
3 65 66 74
3 65 74 73
3 66 67 75
3 66 75 74
3 67 68 76
3 67 76 75
3 68 69 77
3 68 77 76
3 69 70 78
3 69 78 77
3 70 71 79
3 70 79 78
3 71 64 72
3 71 72 79
3 72 73 81
3 72 81 80
3 73 74 82
3 73 82 81
3 74 75 83
3 74 83 82
3 75 76 84
3 75 84 83
3 76 77 85
3 76 85 84
3 77 78 86
3 77 86 85
3 78 79 87
3 78 87 86
3 79 72 80
3 79 80 87
3 80 81 89
3 80 89 88
3 81 82 90
3 81 90 89
3 82 83 91
3 82 91 90
3 83 84 92
3 83 92 91
3 84 85 93
3 84 93 92
3 85 86 94
3 85 94 93
3 86 87 95
3 86 95 94
3 87 80 88
3 87 88 95
3 88 89 97
3 88 97 96
3 89 90 98
3 89 98 97
3 90 91 99
3 90 99 98
3 91 92 100
3 91 100 99
3 92 93 101
3 92 101 100
3 93 94 102
3 93 102 101
3 94 95 103
3 94 103 102
3 95 88 96
3 95 96 103
3 96 97 105
3 96 105 104
3 97 98 106
3 97 106 105
3 98 99 107
3 98 107 106
3 99 100 108
3 99 108 107
3 100 101 109
3 100 109 108
3 101 102 110
3 101 110 109
3 102 103 111
3 102 111 110
3 103 96 104
3 103 104 111
3 104 105 113
3 104 113 112
3 105 106 114
3 105 114 113
3 106 107 115
3 106 115 114
3 107 108 116
3 107 116 115
3 108 109 117
3 108 117 116
3 109 110 118
3 109 118 117
3 110 111 119
3 110 119 118
3 111 104 112
3 111 112 119
3 112 113 121
3 112 121 120
3 113 114 122
3 113 122 121
3 114 115 123
3 114 123 122
3 115 116 124
3 115 124 123
3 116 117 125
3 116 125 124
3 117 118 126
3 117 126 125
3 118 119 127
3 118 127 126
3 119 112 120
3 119 120 127
3 120 121 129
3 120 129 128
3 121 122 130
3 121 130 129
3 122 123 131
3 122 131 130
3 123 124 132
3 123 132 131
3 124 125 133
3 124 133 132
3 125 126 134
3 125 134 133
3 126 127 135
3 126 135 134
3 127 120 128
3 127 128 135
3 128 129 137
3 128 137 136
3 129 130 138
3 129 138 137
3 130 131 139
3 130 139 138
3 131 132 140
3 131 140 139
3 132 133 141
3 132 141 140
3 133 134 142
3 133 142 141
3 134 135 143
3 134 143 142
3 135 128 136
3 135 136 143
3 136 137 145
3 136 145 144
3 137 138 146
3 137 146 145
3 138 139 147
3 138 147 146
3 139 140 148
3 139 148 147
3 140 141 149
3 140 149 148
3 141 142 150
3 141 150 149
3 142 143 151
3 142 151 150
3 143 136 144
3 143 144 151
3 144 145 153
3 144 153 152
3 145 146 154
3 145 154 153
3 146 147 155
3 146 155 154
3 147 148 156
3 147 156 155
3 148 149 157
3 148 157 156
3 149 150 158
3 149 158 157
3 150 151 159
3 150 159 158
3 151 144 152
3 151 152 159
3 152 153 161
3 152 161 160
3 153 154 162
3 153 162 161
3 154 155 163
3 154 163 162
3 155 156 164
3 155 164 163
3 156 157 165
3 156 165 164
3 157 158 166
3 157 166 165
3 158 159 167
3 158 167 166
3 159 152 160
3 159 160 167
3 168 169 177
3 168 177 176
3 169 170 178
3 169 178 177
3 170 171 179
3 170 179 178
3 171 172 180
3 171 180 179
3 172 173 181
3 172 181 180
3 173 174 182
3 173 182 181
3 174 175 183
3 174 183 182
3 175 168 176
3 175 176 183
3 176 177 185
3 176 185 184
3 177 178 186
3 177 186 185
3 178 179 187
3 178 187 186
3 179 180 188
3 179 188 187
3 180 181 189
3 180 189 188
3 181 182 190
3 181 190 189
3 182 183 191
3 182 191 190
3 183 176 184
3 183 184 191
3 184 185 193
3 184 193 192
3 185 186 194
3 185 194 193
3 186 187 195
3 186 195 194
3 187 188 196
3 187 196 195
3 188 189 197
3 188 197 196
3 189 190 198
3 189 198 197
3 190 191 199
3 190 199 198
3 191 184 192
3 191 192 199
3 192 193 201
3 192 201 200
3 193 194 202
3 193 202 201
3 194 195 203
3 194 203 202
3 195 196 204
3 195 204 203
3 196 197 205
3 196 205 204
3 197 198 206
3 197 206 205
3 198 199 207
3 198 207 206
3 199 192 200
3 199 200 207
3 200 201 209
3 200 209 208
3 201 202 210
3 201 210 209
3 202 203 211
3 202 211 210
3 203 204 212
3 203 212 211
3 204 205 213
3 204 213 212
3 205 206 214
3 205 214 213
3 206 207 215
3 206 215 214
3 207 200 208
3 207 208 215
3 208 209 217
3 208 217 216
3 209 210 218
3 209 218 217
3 210 211 219
3 210 219 218
3 211 212 220
3 211 220 219
3 212 213 221
3 212 221 220
3 213 214 222
3 213 222 221
3 214 215 223
3 214 223 222
3 215 208 216
3 215 216 223
3 216 217 225
3 216 225 224
3 217 218 226
3 217 226 225
3 218 219 227
3 218 227 226
3 219 220 228
3 219 228 227
3 220 221 229
3 220 229 228
3 221 222 230
3 221 230 229
3 222 223 231
3 222 231 230
3 223 216 224
3 223 224 231
3 224 225 233
3 224 233 232
3 225 226 234
3 225 234 233
3 226 227 235
3 226 235 234
3 227 228 236
3 227 236 235
3 228 229 237
3 228 237 236
3 229 230 238
3 229 238 237
3 230 231 239
3 230 239 238
3 231 224 232
3 231 232 239
3 232 233 241
3 232 241 240
3 233 234 242
3 233 242 241
3 234 235 243
3 234 243 242
3 235 236 244
3 235 244 243
3 236 237 245
3 236 245 244
3 237 238 246
3 237 246 245
3 238 239 247
3 238 247 246
3 239 232 240
3 239 240 247
3 240 241 249
3 240 249 248
3 241 242 250
3 241 250 249
3 242 243 251
3 242 251 250
3 243 244 252
3 243 252 251
3 244 245 253
3 244 253 252
3 245 246 254
3 245 254 253
3 246 247 255
3 246 255 254
3 247 240 248
3 247 248 255
3 248 249 257
3 248 257 256
3 249 250 258
3 249 258 257
3 250 251 259
3 250 259 258
3 251 252 260
3 251 260 259
3 252 253 261
3 252 261 260
3 253 254 262
3 253 262 261
3 254 255 263
3 254 263 262
3 255 248 256
3 255 256 263
3 256 257 265
3 256 265 264
3 257 258 266
3 257 266 265
3 258 259 267
3 258 267 266
3 259 260 268
3 259 268 267
3 260 261 269
3 260 269 268
3 261 262 270
3 261 270 269
3 262 263 271
3 262 271 270
3 263 256 264
3 263 264 271
3 264 265 273
3 264 273 272
3 265 266 274
3 265 274 273
3 266 267 275
3 266 275 274
3 267 268 276
3 267 276 275
3 268 269 277
3 268 277 276
3 269 270 278
3 269 278 277
3 270 271 279
3 270 279 278
3 271 264 272
3 271 272 279
3 272 273 281
3 272 281 280
3 273 274 282
3 273 282 281
3 274 275 283
3 274 283 282
3 275 276 284
3 275 284 283
3 276 277 285
3 276 285 284
3 277 278 286
3 277 286 285
3 278 279 287
3 278 287 286
3 279 272 280
3 279 280 287
3 280 281 289
3 280 289 288
3 281 282 290
3 281 290 289
3 282 283 291
3 282 291 290
3 283 284 292
3 283 292 291
3 284 285 293
3 284 293 292
3 285 286 294
3 285 294 293
3 286 287 295
3 286 295 294
3 287 280 288
3 287 288 295
3 288 289 297
3 288 297 296
3 289 290 298
3 289 298 297
3 290 291 299
3 290 299 298
3 291 292 300
3 291 300 299
3 292 293 301
3 292 301 300
3 293 294 302
3 293 302 301
3 294 295 303
3 294 303 302
3 295 288 296
3 295 296 303
3 296 297 305
3 296 305 304
3 297 298 306
3 297 306 305
3 298 299 307
3 298 307 306
3 299 300 308
3 299 308 307
3 300 301 309
3 300 309 308
3 301 302 310
3 301 310 309
3 302 303 311
3 302 311 310
3 303 296 304
3 303 304 311
3 304 305 313
3 304 313 312
3 305 306 314
3 305 314 313
3 306 307 315
3 306 315 314
3 307 308 316
3 307 316 315
3 308 309 317
3 308 317 316
3 309 310 318
3 309 318 317
3 310 311 319
3 310 319 318
3 311 304 312
3 311 312 319
3 312 313 321
3 312 321 320
3 313 314 322
3 313 322 321
3 314 315 323
3 314 323 322
3 315 316 324
3 315 324 323
3 316 317 325
3 316 325 324
3 317 318 326
3 317 326 325
3 318 319 327
3 318 327 326
3 319 312 320
3 319 320 327
3 320 321 329
3 320 329 328
3 321 322 330
3 321 330 329
3 322 323 331
3 322 331 330
3 323 324 332
3 323 332 331
3 324 325 333
3 324 333 332
3 325 326 334
3 325 334 333
3 326 327 335
3 326 335 334
3 327 320 328
3 327 328 335
3 336 337 345
3 336 345 344
3 337 338 346
3 337 346 345
3 338 339 347
3 338 347 346
3 339 340 348
3 339 348 347
3 340 341 349
3 340 349 348
3 341 342 350
3 341 350 349
3 342 343 351
3 342 351 350
3 343 336 344
3 343 344 351
3 344 345 353
3 344 353 352
3 345 346 354
3 345 354 353
3 346 347 355
3 346 355 354
3 347 348 356
3 347 356 355
3 348 349 357
3 348 357 356
3 349 350 358
3 349 358 357
3 350 351 359
3 350 359 358
3 351 344 352
3 351 352 359
3 352 353 361
3 352 361 360
3 353 354 362
3 353 362 361
3 354 355 363
3 354 363 362
3 355 356 364
3 355 364 363
3 356 357 365
3 356 365 364
3 357 358 366
3 357 366 365
3 358 359 367
3 358 367 366
3 359 352 360
3 359 360 367
3 360 361 369
3 360 369 368
3 361 362 370
3 361 370 369
3 362 363 371
3 362 371 370
3 363 364 372
3 363 372 371
3 364 365 373
3 364 373 372
3 365 366 374
3 365 374 373
3 366 367 375
3 366 375 374
3 367 360 368
3 367 368 375
3 368 369 377
3 368 377 376
3 369 370 378
3 369 378 377
3 370 371 379
3 370 379 378
3 371 372 380
3 371 380 379
3 372 373 381
3 372 381 380
3 373 374 382
3 373 382 381
3 374 375 383
3 374 383 382
3 375 368 376
3 375 376 383
3 376 377 385
3 376 385 384
3 377 378 386
3 377 386 385
3 378 379 387
3 378 387 386
3 379 380 388
3 379 388 387
3 380 381 389
3 380 389 388
3 381 382 390
3 381 390 389
3 382 383 391
3 382 391 390
3 383 376 384
3 383 384 391
3 384 385 393
3 384 393 392
3 385 386 394
3 385 394 393
3 386 387 395
3 386 395 394
3 387 388 396
3 387 396 395
3 388 389 397
3 388 397 396
3 389 390 398
3 389 398 397
3 390 391 399
3 390 399 398
3 391 384 392
3 391 392 399
3 392 393 401
3 392 401 400
3 393 394 402
3 393 402 401
3 394 395 403
3 394 403 402
3 395 396 404
3 395 404 403
3 396 397 405
3 396 405 404
3 397 398 406
3 397 406 405
3 398 399 407
3 398 407 406
3 399 392 400
3 399 400 407
3 400 401 409
3 400 409 408
3 401 402 410
3 401 410 409
3 402 403 411
3 402 411 410
3 403 404 412
3 403 412 411
3 404 405 413
3 404 413 412
3 405 406 414
3 405 414 413
3 406 407 415
3 406 415 414
3 407 400 408
3 407 408 415
3 408 409 417
3 408 417 416
3 409 410 418
3 409 418 417
3 410 411 419
3 410 419 418
3 411 412 420
3 411 420 419
3 412 413 421
3 412 421 420
3 413 414 422
3 413 422 421
3 414 415 423
3 414 423 422
3 415 408 416
3 415 416 423
3 416 417 425
3 416 425 424
3 417 418 426
3 417 426 425
3 418 419 427
3 418 427 426
3 419 420 428
3 419 428 427
3 420 421 429
3 420 429 428
3 421 422 430
3 421 430 429
3 422 423 431
3 422 431 430
3 423 416 424
3 423 424 431
3 424 425 433
3 424 433 432
3 425 426 434
3 425 434 433
3 426 427 435
3 426 435 434
3 427 428 436
3 427 436 435
3 428 429 437
3 428 437 436
3 429 430 438
3 429 438 437
3 430 431 439
3 430 439 438
3 431 424 432
3 431 432 439
3 432 433 441
3 432 441 440
3 433 434 442
3 433 442 441
3 434 435 443
3 434 443 442
3 435 436 444
3 435 444 443
3 436 437 445
3 436 445 444
3 437 438 446
3 437 446 445
3 438 439 447
3 438 447 446
3 439 432 440
3 439 440 447
3 440 441 449
3 440 449 448
3 441 442 450
3 441 450 449
3 442 443 451
3 442 451 450
3 443 444 452
3 443 452 451
3 444 445 453
3 444 453 452
3 445 446 454
3 445 454 453
3 446 447 455
3 446 455 454
3 447 440 448
3 447 448 455
3 448 449 457
3 448 457 456
3 449 450 458
3 449 458 457
3 450 451 459
3 450 459 458
3 451 452 460
3 451 460 459
3 452 453 461
3 452 461 460
3 453 454 462
3 453 462 461
3 454 455 463
3 454 463 462
3 455 448 456
3 455 456 463
3 456 457 465
3 456 465 464
3 457 458 466
3 457 466 465
3 458 459 467
3 458 467 466
3 459 460 468
3 459 468 467
3 460 461 469
3 460 469 468
3 461 462 470
3 461 470 469
3 462 463 471
3 462 471 470
3 463 456 464
3 463 464 471
3 464 465 473
3 464 473 472
3 465 466 474
3 465 474 473
3 466 467 475
3 466 475 474
3 467 468 476
3 467 476 475
3 468 469 477
3 468 477 476
3 469 470 478
3 469 478 477
3 470 471 479
3 470 479 478
3 471 464 472
3 471 472 479
3 472 473 481
3 472 481 480
3 473 474 482
3 473 482 481
3 474 475 483
3 474 483 482
3 475 476 484
3 475 484 483
3 476 477 485
3 476 485 484
3 477 478 486
3 477 486 485
3 478 479 487
3 478 487 486
3 479 472 480
3 479 480 487
3 480 481 489
3 480 489 488
3 481 482 490
3 481 490 489
3 482 483 491
3 482 491 490
3 483 484 492
3 483 492 491
3 484 485 493
3 484 493 492
3 485 486 494
3 485 494 493
3 486 487 495
3 486 495 494
3 487 480 488
3 487 488 495
3 488 489 497
3 488 497 496
3 489 490 498
3 489 498 497
3 490 491 499
3 490 499 498
3 491 492 500
3 491 500 499
3 492 493 501
3 492 501 500
3 493 494 502
3 493 502 501
3 494 495 503
3 494 503 502
3 495 488 496
3 495 496 503
3 504 505 513
3 504 513 512
3 505 506 514
3 505 514 513
3 506 507 515
3 506 515 514
3 507 508 516
3 507 516 515
3 508 509 517
3 508 517 516
3 509 510 518
3 509 518 517
3 510 511 519
3 510 519 518
3 511 504 512
3 511 512 519
3 512 513 521
3 512 521 520
3 513 514 522
3 513 522 521
3 514 515 523
3 514 523 522
3 515 516 524
3 515 524 523
3 516 517 525
3 516 525 524
3 517 518 526
3 517 526 525
3 518 519 527
3 518 527 526
3 519 512 520
3 519 520 527
3 520 521 529
3 520 529 528
3 521 522 530
3 521 530 529
3 522 523 531
3 522 531 530
3 523 524 532
3 523 532 531
3 524 525 533
3 524 533 532
3 525 526 534
3 525 534 533
3 526 527 535
3 526 535 534
3 527 520 528
3 527 528 535
3 528 529 537
3 528 537 536
3 529 530 538
3 529 538 537
3 530 531 539
3 530 539 538
3 531 532 540
3 531 540 539
3 532 533 541
3 532 541 540
3 533 534 542
3 533 542 541
3 534 535 543
3 534 543 542
3 535 528 536
3 535 536 543
3 536 537 545
3 536 545 544
3 537 538 546
3 537 546 545
3 538 539 547
3 538 547 546
3 539 540 548
3 539 548 547
3 540 541 549
3 540 549 548
3 541 542 550
3 541 550 549
3 542 543 551
3 542 551 550
3 543 536 544
3 543 544 551
3 544 545 553
3 544 553 552
3 545 546 554
3 545 554 553
3 546 547 555
3 546 555 554
3 547 548 556
3 547 556 555
3 548 549 557
3 548 557 556
3 549 550 558
3 549 558 557
3 550 551 559
3 550 559 558
3 551 544 552
3 551 552 559
3 552 553 561
3 552 561 560
3 553 554 562
3 553 562 561
3 554 555 563
3 554 563 562
3 555 556 564
3 555 564 563
3 556 557 565
3 556 565 564
3 557 558 566
3 557 566 565
3 558 559 567
3 558 567 566
3 559 552 560
3 559 560 567
3 560 561 569
3 560 569 568
3 561 562 570
3 561 570 569
3 562 563 571
3 562 571 570
3 563 564 572
3 563 572 571
3 564 565 573
3 564 573 572
3 565 566 574
3 565 574 573
3 566 567 575
3 566 575 574
3 567 560 568
3 567 568 575
3 568 569 577
3 568 577 576
3 569 570 578
3 569 578 577
3 570 571 579
3 570 579 578
3 571 572 580
3 571 580 579
3 572 573 581
3 572 581 580
3 573 574 582
3 573 582 581
3 574 575 583
3 574 583 582
3 575 568 576
3 575 576 583
3 576 577 585
3 576 585 584
3 577 578 586
3 577 586 585
3 578 579 587
3 578 587 586
3 579 580 588
3 579 588 587
3 580 581 589
3 580 589 588
3 581 582 590
3 581 590 589
3 582 583 591
3 582 591 590
3 583 576 584
3 583 584 591
3 584 585 593
3 584 593 592
3 585 586 594
3 585 594 593
3 586 587 595
3 586 595 594
3 587 588 596
3 587 596 595
3 588 589 597
3 588 597 596
3 589 590 598
3 589 598 597
3 590 591 599
3 590 599 598
3 591 584 592
3 591 592 599
3 592 593 601
3 592 601 600
3 593 594 602
3 593 602 601
3 594 595 603
3 594 603 602
3 595 596 604
3 595 604 603
3 596 597 605
3 596 605 604
3 597 598 606
3 597 606 605
3 598 599 607
3 598 607 606
3 599 592 600
3 599 600 607
3 600 601 609
3 600 609 608
3 601 602 610
3 601 610 609
3 602 603 611
3 602 611 610
3 603 604 612
3 603 612 611
3 604 605 613
3 604 613 612
3 605 606 614
3 605 614 613
3 606 607 615
3 606 615 614
3 607 600 608
3 607 608 615
3 608 609 617
3 608 617 616
3 609 610 618
3 609 618 617
3 610 611 619
3 610 619 618
3 611 612 620
3 611 620 619
3 612 613 621
3 612 621 620
3 613 614 622
3 613 622 621
3 614 615 623
3 614 623 622
3 615 608 616
3 615 616 623
3 616 617 625
3 616 625 624
3 617 618 626
3 617 626 625
3 618 619 627
3 618 627 626
3 619 620 628
3 619 628 627
3 620 621 629
3 620 629 628
3 621 622 630
3 621 630 629
3 622 623 631
3 622 631 630
3 623 616 624
3 623 624 631
3 624 625 633
3 624 633 632
3 625 626 634
3 625 634 633
3 626 627 635
3 626 635 634
3 627 628 636
3 627 636 635
3 628 629 637
3 628 637 636
3 629 630 638
3 629 638 637
3 630 631 639
3 630 639 638
3 631 624 632
3 631 632 639
3 632 633 641
3 632 641 640
3 633 634 642
3 633 642 641
3 634 635 643
3 634 643 642
3 635 636 644
3 635 644 643
3 636 637 645
3 636 645 644
3 637 638 646
3 637 646 645
3 638 639 647
3 638 647 646
3 639 632 640
3 639 640 647
3 640 641 649
3 640 649 648
3 641 642 650
3 641 650 649
3 642 643 651
3 642 651 650
3 643 644 652
3 643 652 651
3 644 645 653
3 644 653 652
3 645 646 654
3 645 654 653
3 646 647 655
3 646 655 654
3 647 640 648
3 647 648 655
3 648 649 657
3 648 657 656
3 649 650 658
3 649 658 657
3 650 651 659
3 650 659 658
3 651 652 660
3 651 660 659
3 652 653 661
3 652 661 660
3 653 654 662
3 653 662 661
3 654 655 663
3 654 663 662
3 655 648 656
3 655 656 663
3 656 657 665
3 656 665 664
3 657 658 666
3 657 666 665
3 658 659 667
3 658 667 666
3 659 660 668
3 659 668 667
3 660 661 669
3 660 669 668
3 661 662 670
3 661 670 669
3 662 663 671
3 662 671 670
3 663 656 664
3 663 664 671
CELL_TYPES 1280
5
5
5
5
5
5
5
5
5
5
5
5
5
5
5
5
5
5
5
5
5
5
5
5
5
5
5
5
5
5
5
5
5
5
5
5
5
5
5
5
5
5
5
5
5
5
5
5
5
5
5
5
5
5
5
5
5
5
5
5
5
5
5
5
5
5
5
5
5
5
5
5
5
5
5
5
5
5
5
5
5
5
5
5
5
5
5
5
5
5
5
5
5
5
5
5
5
5
5
5
5
5
5
5
5
5
5
5
5
5
5
5
5
5
5
5
5
5
5
5
5
5
5
5
5
5
5
5
5
5
5
5
5
5
5
5
5
5
5
5
5
5
5
5
5
5
5
5
5
5
5
5
5
5
5
5
5
5
5
5
5
5
5
5
5
5
5
5
5
5
5
5
5
5
5
5
5
5
5
5
5
5
5
5
5
5
5
5
5
5
5
5
5
5
5
5
5
5
5
5
5
5
5
5
5
5
5
5
5
5
5
5
5
5
5
5
5
5
5
5
5
5
5
5
5
5
5
5
5
5
5
5
5
5
5
5
5
5
5
5
5
5
5
5
5
5
5
5
5
5
5
5
5
5
5
5
5
5
5
5
5
5
5
5
5
5
5
5
5
5
5
5
5
5
5
5
5
5
5
5
5
5
5
5
5
5
5
5
5
5
5
5
5
5
5
5
5
5
5
5
5
5
5
5
5
5
5
5
5
5
5
5
5
5
5
5
5
5
5
5
5
5
5
5
5
5
5
5
5
5
5
5
5
5
5
5
5
5
5
5
5
5
5
5
5
5
5
5
5
5
5
5
5
5
5
5
5
5
5
5
5
5
5
5
5
5
5
5
5
5
5
5
5
5
5
5
5
5
5
5
5
5
5
5
5
5
5
5
5
5
5
5
5
5
5
5
5
5
5
5
5
5
5
5
5
5
5
5
5
5
5
5
5
5
5
5
5
5
5
5
5
5
5
5
5
5
5
5
5
5
5
5
5
5
5
5
5
5
5
5
5
5
5
5
5
5
5
5
5
5
5
5
5
5
5
5
5
5
5
5
5
5
5
5
5
5
5
5
5
5
5
5
5
5
5
5
5
5
5
5
5
5
5
5
5
5
5
5
5
5
5
5
5
5
5
5
5
5
5
5
5
5
5
5
5
5
5
5
5
5
5
5
5
5
5
5
5
5
5
5
5
5
5
5
5
5
5
5
5
5
5
5
5
5
5
5
5
5
5
5
5
5
5
5
5
5
5
5
5
5
5
5
5
5
5
5
5
5
5
5
5
5
5
5
5
5
5
5
5
5
5
5
5
5
5
5
5
5
5
5
5
5
5
5
5
5
5
5
5
5
5
5
5
5
5
5
5
5
5
5
5
5
5
5
5
5
5
5
5
5
5
5
5
5
5
5
5
5
5
5
5
5
5
5
5
5
5
5
5
5
5
5
5
5
5
5
5
5
5
5
5
5
5
5
5
5
5
5
5
5
5
5
5
5
5
5
5
5
5
5
5
5
5
5
5
5
5
5
5
5
5
5
5
5
5
5
5
5
5
5
5
5
5
5
5
5
5
5
5
5
5
5
5
5
5
5
5
5
5
5
5
5
5
5
5
5
5
5
5
5
5
5
5
5
5
5
5
5
5
5
5
5
5
5
5
5
5
5
5
5
5
5
5
5
5
5
5
5
5
5
5
5
5
5
5
5
5
5
5
5
5
5
5
5
5
5
5
5
5
5
5
5
5
5
5
5
5
5
5
5
5
5
5
5
5
5
5
5
5
5
5
5
5
5
5
5
5
5
5
5
5
5
5
5
5
5
5
5
5
5
5
5
5
5
5
5
5
5
5
5
5
5
5
5
5
5
5
5
5
5
5
5
5
5
5
5
5
5
5
5
5
5
5
5
5
5
5
5
5
5
5
5
5
5
5
5
5
5
5
5
5
5
5
5
5
5
5
5
5
5
5
5
5
5
5
5
5
5
5
5
5
5
5
5
5
5
5
5
5
5
5
5
5
5
5
5
5
5
5
5
5
5
5
5
5
5
5
5
5
5
5
5
5
5
5
5
5
5
5
5
5
5
5
5
5
5
5
5
5
5
5
5
5
5
5
5
5
5
5
5
5
5
5
5
5
5
5
5
5
5
5
5
5
5
5
5
5
5
5
5
5
5
5
5
5
5
5
5
5
5
5
5
5
5
5
5
5
5
5
5
5
5
5
5
5
5
5
5
5
5
5
5
5
5
5
5
5
5
5
5
5
5
5
5
5
5
5
5
5
5
5
5
5
5
5
5
5
5
5
5
5
5
5
5
5
5
5
5
5
5
5
5
5
5
5
5
5
5
5
5
5
5
5
5
5
5
5
5
5
5
5
5
5
5
5
5
5
5
5
5
5
5
5
5
5
5
5
5
5
5
5
5
5
5
5
5
5
5
5
5
5
5
5
5
5
5
5
5
5
5
5
5
5
5
5
5
5
5
5
5
5
5
5
5
5
5
5
5
5
5
5
5
5
5
5
5
5
5
5
5
5
5
5
5
5
5
5
5
5
5
5
5
5
5
5
5
5
5
5
5
5
5
5
5
5
5
5
5
5
5
5
5
5
5
5
5
5
5
5
5
5
5
5
5
5
5
5
5
5
5
5
5
5
5
5
5
5
5
5
5
5
5
5
5
5
5
5
5
5
5
5
5
5
5
5
5
5
5
5
5
5
5
5
5
5
5
5
5
5
5
5
5
5
5
5
5
5
5
5
5
5
5
5
5
5
5
5
5
5
5
5
5
5
5
5
5
5
5
5
5
5
5
5
5
5
5
5
5
5
5
5
5
5
5
5
5
5
5
5
5
5
5
5
5
5
5
5
5
5
5
5
5
5
5
5
5
5
5
5
5
5
5
5
5
5
5
5
5
5
5
