# vtk DataFile Version 3.0
P-01 multi-segment shunt mesh
ASCII
DATASET UNSTRUCTURED_GRID
POINTS 168 float
1.000000 0.000000 0.000000
0.707107 0.707107 0.000000
0.000000 1.000000 0.000000
-0.707107 0.707107 0.000000
-1.000000 0.000000 0.000000
-0.707107 -0.707107 0.000000
-0.000000 -1.000000 0.000000
0.707107 -0.707107 0.000000
1.000000 0.000000 0.500000
0.707107 0.707107 0.500000
0.000000 1.000000 0.500000
-0.707107 0.707107 0.500000
-1.000000 0.000000 0.500000
-0.707107 -0.707107 0.500000
-0.000000 -1.000000 0.500000
0.707107 -0.707107 0.500000
1.000000 0.000000 1.000000
0.707107 0.707107 1.000000
0.000000 1.000000 1.000000
-0.707107 0.707107 1.000000
-1.000000 0.000000 1.000000
-0.707107 -0.707107 1.000000
-0.000000 -1.000000 1.000000
0.707107 -0.707107 1.000000
1.000000 0.000000 1.500000
0.707107 0.707107 1.500000
0.000000 1.000000 1.500000
-0.707107 0.707107 1.500000
-1.000000 0.000000 1.500000
-0.707107 -0.707107 1.500000
-0.000000 -1.000000 1.500000
0.707107 -0.707107 1.500000
1.000000 0.000000 2.000000
0.707107 0.707107 2.000000
0.000000 1.000000 2.000000
-0.707107 0.707107 2.000000
-1.000000 0.000000 2.000000
-0.707107 -0.707107 2.000000
-0.000000 -1.000000 2.000000
0.707107 -0.707107 2.000000
1.000000 0.000000 2.500000
0.707107 0.707107 2.500000
0.000000 1.000000 2.500000
-0.707107 0.707107 2.500000
-1.000000 0.000000 2.500000
-0.707107 -0.707107 2.500000
-0.000000 -1.000000 2.500000
0.707107 -0.707107 2.500000
1.000000 0.000000 3.000000
0.707107 0.707107 3.000000
0.000000 1.000000 3.000000
-0.707107 0.707107 3.000000
-1.000000 0.000000 3.000000
-0.707107 -0.707107 3.000000
-0.000000 -1.000000 3.000000
0.707107 -0.707107 3.000000
1.000000 0.000000 3.500000
0.707107 0.707107 3.500000
0.000000 1.000000 3.500000
-0.707107 0.707107 3.500000
-1.000000 0.000000 3.500000
-0.707107 -0.707107 3.500000
-0.000000 -1.000000 3.500000
0.707107 -0.707107 3.500000
1.000000 0.000000 4.000000
0.707107 0.707107 4.000000
0.000000 1.000000 4.000000
-0.707107 0.707107 4.000000
-1.000000 0.000000 4.000000
-0.707107 -0.707107 4.000000
-0.000000 -1.000000 4.000000
0.707107 -0.707107 4.000000
1.000000 0.000000 4.500000
0.707107 0.707107 4.500000
0.000000 1.000000 4.500000
-0.707107 0.707107 4.500000
-1.000000 0.000000 4.500000
-0.707107 -0.707107 4.500000
-0.000000 -1.000000 4.500000
0.707107 -0.707107 4.500000
1.000000 0.000000 5.000000
0.707107 0.707107 5.000000
0.000000 1.000000 5.000000
-0.707107 0.707107 5.000000
-1.000000 0.000000 5.000000
-0.707107 -0.707107 5.000000
-0.000000 -1.000000 5.000000
0.707107 -0.707107 5.000000
1.000000 0.000000 5.500000
0.707107 0.707107 5.500000
0.000000 1.000000 5.500000
-0.707107 0.707107 5.500000
-1.000000 0.000000 5.500000
-0.707107 -0.707107 5.500000
-0.000000 -1.000000 5.500000
0.707107 -0.707107 5.500000
1.000000 0.000000 6.000000
0.707107 0.707107 6.000000
0.000000 1.000000 6.000000
-0.707107 0.707107 6.000000
-1.000000 0.000000 6.000000
-0.707107 -0.707107 6.000000
-0.000000 -1.000000 6.000000
0.707107 -0.707107 6.000000
1.000000 0.000000 6.500000
0.707107 0.707107 6.500000
0.000000 1.000000 6.500000
-0.707107 0.707107 6.500000
-1.000000 0.000000 6.500000
-0.707107 -0.707107 6.500000
-0.000000 -1.000000 6.500000
0.707107 -0.707107 6.500000
1.000000 0.000000 7.000000
0.707107 0.707107 7.000000
0.000000 1.000000 7.000000
-0.707107 0.707107 7.000000
-1.000000 0.000000 7.000000
-0.707107 -0.707107 7.000000
-0.000000 -1.000000 7.000000
0.707107 -0.707107 7.000000
1.000000 0.000000 7.500000
0.707107 0.707107 7.500000
0.000000 1.000000 7.500000
-0.707107 0.707107 7.500000
-1.000000 0.000000 7.500000
-0.707107 -0.707107 7.500000
-0.000000 -1.000000 7.500000
0.707107 -0.707107 7.500000
1.000000 0.000000 8.000000
0.707107 0.707107 8.000000
0.000000 1.000000 8.000000
-0.707107 0.707107 8.000000
-1.000000 0.000000 8.000000
-0.707107 -0.707107 8.000000
-0.000000 -1.000000 8.000000
0.707107 -0.707107 8.000000
1.000000 0.000000 8.500000
0.707107 0.707107 8.500000
0.000000 1.000000 8.500000
-0.707107 0.707107 8.500000
-1.000000 0.000000 8.500000
-0.707107 -0.707107 8.500000
-0.000000 -1.000000 8.500000
0.707107 -0.707107 8.500000
1.000000 0.000000 9.000000
0.707107 0.707107 9.000000
0.000000 1.000000 9.000000
-0.707107 0.707107 9.000000
-1.000000 0.000000 9.000000
-0.707107 -0.707107 9.000000
-0.000000 -1.000000 9.000000
0.707107 -0.707107 9.000000
1.000000 0.000000 9.500000
0.707107 0.707107 9.500000
0.000000 1.000000 9.500000
-0.707107 0.707107 9.500000
-1.000000 0.000000 9.500000
-0.707107 -0.707107 9.500000
-0.000000 -1.000000 9.500000
0.707107 -0.707107 9.500000
1.000000 0.000000 10.000000
0.707107 0.707107 10.000000
0.000000 1.000000 10.000000
-0.707107 0.707107 10.000000
-1.000000 0.000000 10.000000
-0.707107 -0.707107 10.000000
-0.000000 -1.000000 10.000000
0.707107 -0.707107 10.000000
CELLS 320 1280
3 0 1 9
3 0 9 8
3 1 2 10
3 1 10 9
3 2 3 11
3 2 11 10
3 3 4 12
3 3 12 11
3 4 5 13
3 4 13 12
3 5 6 14
3 5 14 13
3 6 7 15
3 6 15 14
3 7 0 8
3 7 8 15
3 8 9 17
3 8 17 16
3 9 10 18
3 9 18 17
3 10 11 19
3 10 19 18
3 11 12 20
3 11 20 19
3 12 13 21
3 12 21 20
3 13 14 22
3 13 22 21
3 14 15 23
3 14 23 22
3 15 8 16
3 15 16 23
3 16 17 25
3 16 25 24
3 17 18 26
3 17 26 25
3 18 19 27
3 18 27 26
3 19 20 28
3 19 28 27
3 20 21 29
3 20 29 28
3 21 22 30
3 21 30 29
3 22 23 31
3 22 31 30
3 23 16 24
3 23 24 31
3 24 25 33
3 24 33 32
3 25 26 34
3 25 34 33
3 26 27 35
3 26 35 34
3 27 28 36
3 27 36 35
3 28 29 37
3 28 37 36
3 29 30 38
3 29 38 37
3 30 31 39
3 30 39 38
3 31 24 32
3 31 32 39
3 32 33 41
3 32 41 40
3 33 34 42
3 33 42 41
3 34 35 43
3 34 43 42
3 35 36 44
3 35 44 43
3 36 37 45
3 36 45 44
3 37 38 46
3 37 46 45
3 38 39 47
3 38 47 46
3 39 32 40
3 39 40 47
3 40 41 49
3 40 49 48
3 41 42 50
3 41 50 49
3 42 43 51
3 42 51 50
3 43 44 52
3 43 52 51
3 44 45 53
3 44 53 52
3 45 46 54
3 45 54 53
3 46 47 55
3 46 55 54
3 47 40 48
3 47 48 55
3 48 49 57
3 48 57 56
3 49 50 58
3 49 58 57
3 50 51 59
3 50 59 58
3 51 52 60
3 51 60 59
3 52 53 61
3 52 61 60
3 53 54 62
3 53 62 61
3 54 55 63
3 54 63 62
3 55 48 56
3 55 56 63
3 56 57 65
3 56 65 64
3 57 58 66
3 57 66 65
3 58 59 67
3 58 67 66
3 59 60 68
3 59 68 67
3 60 61 69
3 60 69 68
3 61 62 70
3 61 70 69
3 62 63 71
3 62 71 70
3 63 56 64
3 63 64 71
3 64 65 73
3 64 73 72
3 65 66 74
3 65 74 73
3 66 67 75
3 66 75 74
3 67 68 76
3 67 76 75
3 68 69 77
3 68 77 76
3 69 70 78
3 69 78 77
3 70 71 79
3 70 79 78
3 71 64 72
3 71 72 79
3 72 73 81
3 72 81 80
3 73 74 82
3 73 82 81
3 74 75 83
3 74 83 82
3 75 76 84
3 75 84 83
3 76 77 85
3 76 85 84
3 77 78 86
3 77 86 85
3 78 79 87
3 78 87 86
3 79 72 80
3 79 80 87
3 80 81 89
3 80 89 88
3 81 82 90
3 81 90 89
3 82 83 91
3 82 91 90
3 83 84 92
3 83 92 91
3 84 85 93
3 84 93 92
3 85 86 94
3 85 94 93
3 86 87 95
3 86 95 94
3 87 80 88
3 87 88 95
3 88 89 97
3 88 97 96
3 89 90 98
3 89 98 97
3 90 91 99
3 90 99 98
3 91 92 100
3 91 100 99
3 92 93 101
3 92 101 100
3 93 94 102
3 93 102 101
3 94 95 103
3 94 103 102
3 95 88 96
3 95 96 103
3 96 97 105
3 96 105 104
3 97 98 106
3 97 106 105
3 98 99 107
3 98 107 106
3 99 100 108
3 99 108 107
3 100 101 109
3 100 109 108
3 101 102 110
3 101 110 109
3 102 103 111
3 102 111 110
3 103 96 104
3 103 104 111
3 104 105 113
3 104 113 112
3 105 106 114
3 105 114 113
3 106 107 115
3 106 115 114
3 107 108 116
3 107 116 115
3 108 109 117
3 108 117 116
3 109 110 118
3 109 118 117
3 110 111 119
3 110 119 118
3 111 104 112
3 111 112 119
3 112 113 121
3 112 121 120
3 113 114 122
3 113 122 121
3 114 115 123
3 114 123 122
3 115 116 124
3 115 124 123
3 116 117 125
3 116 125 124
3 117 118 126
3 117 126 125
3 118 119 127
3 118 127 126
3 119 112 120
3 119 120 127
3 120 121 129
3 120 129 128
3 121 122 130
3 121 130 129
3 122 123 131
3 122 131 130
3 123 124 132
3 123 132 131
3 124 125 133
3 124 133 132
3 125 126 134
3 125 134 133
3 126 127 135
3 126 135 134
3 127 120 128
3 127 128 135
3 128 129 137
3 128 137 136
3 129 130 138
3 129 138 137
3 130 131 139
3 130 139 138
3 131 132 140
3 131 140 139
3 132 133 141
3 132 141 140
3 133 134 142
3 133 142 141
3 134 135 143
3 134 143 142
3 135 128 136
3 135 136 143
3 136 137 145
3 136 145 144
3 137 138 146
3 137 146 145
3 138 139 147
3 138 147 146
3 139 140 148
3 139 148 147
3 140 141 149
3 140 149 148
3 141 142 150
3 141 150 149
3 142 143 151
3 142 151 150
3 143 136 144
3 143 144 151
3 144 145 153
3 144 153 152
3 145 146 154
3 145 154 153
3 146 147 155
3 146 155 154
3 147 148 156
3 147 156 155
3 148 149 157
3 148 157 156
3 149 150 158
3 149 158 157
3 150 151 159
3 150 159 158
3 151 144 152
3 151 152 159
3 152 153 161
3 152 161 160
3 153 154 162
3 153 162 161
3 154 155 163
3 154 163 162
3 155 156 164
3 155 164 163
3 156 157 165
3 156 165 164
3 157 158 166
3 157 166 165
3 158 159 167
3 158 167 166
3 159 152 160
3 159 160 167
CELL_TYPES 320
5
5
5
5
5
5
5
5
5
5
5
5
5
5
5
5
5
5
5
5
5
5
5
5
5
5
5
5
5
5
5
5
5
5
5
5
5
5
5
5
5
5
5
5
5
5
5
5
5
5
5
5
5
5
5
5
5
5
5
5
5
5
5
5
5
5
5
5
5
5
5
5
5
5
5
5
5
5
5
5
5
5
5
5
5
5
5
5
5
5
5
5
5
5
5
5
5
5
5
5
5
5
5
5
5
5
5
5
5
5
5
5
5
5
5
5
5
5
5
5
5
5
5
5
5
5
5
5
5
5
5
5
5
5
5
5
5
5
5
5
5
5
5
5
5
5
5
5
5
5
5
5
5
5
5
5
5
5
5
5
5
5
5
5
5
5
5
5
5
5
5
5
5
5
5
5
5
5
5
5
5
5
5
5
5
5
5
5
5
5
5
5
5
5
5
5
5
5
5
5
5
5
5
5
5
5
5
5
5
5
5
5
5
5
5
5
5
5
5
5
5
5
5
5
5
5
5
5
5
5
5
5
5
5
5
5
5
5
5
5
5
5
5
5
5
5
5
5
5
5
5
5
5
5
5
5
5
5
5
5
5
5
5
5
5
5
5
5
5
5
5
5
5
5
5
5
5
5
5
5
5
5
5
5
5
5
5
5
5
5
5
5
5
5
5
5
5
5
5
5
5
5
5
5
5
5
5
5
5
5
5
5
5
5
5
5
5
5
5
5
