# vtk DataFile Version 3.0
time 0.15
ASCII
DATASET UNSTRUCTURED_GRID
POINTS 8 float
0 0 0 1 0 0 1 1 0 
0 1 0 0 0 1 1 0 1 
1 1 1 0 1 1 

CELLS 1 9
8 0 1 2 3 4 5 6 7 

CELL_TYPES 1
12

POINT_DATA 8
VECTORS displacement float
0 0 0
-0.0216473 0 0
-0.0216473 -0.0216473 0
0 -0.0216473 0
0 0 0.075
-0.0216473 0 0.075
-0.0216473 -0.0216473 0.075
0 -0.0216473 0.075

CELL_DATA 1
SCALARS part_id int
LOOKUP_TABLE default
0
TENSORS stress float
-1.09847e-13 6.13267e-19 4.54848e-18
6.13267e-19 -1.09847e-13 3.48156e-18
4.54848e-18 3.48156e-18 0.0119516

SCALARS damage float
LOOKUP_TABLE default
0.838881
