# vtk DataFile Version 3.0
time 0.28
ASCII
DATASET UNSTRUCTURED_GRID
POINTS 8 float
0 0 0 1 0 0 1 1 0 
0 1 0 0 0 1 1 0 1 
1 1 1 0 1 1 

CELLS 1 9
8 0 1 2 3 4 5 6 7 

CELL_TYPES 1
12

POINT_DATA 8
VECTORS displacement float
0 0 0
-0.0391429 0 0
-0.0391429 -0.0391429 0
0 -0.0391429 0
0 0 0.14
-0.0391429 0 0.14
-0.0391429 -0.0391429 0.14
0 -0.0391429 0.14

CELL_DATA 1
SCALARS part_id int
LOOKUP_TABLE default
0
TENSORS stress float
-2.59851e-14 -2.35338e-18 5.92126e-18
-2.35338e-18 -2.59784e-14 1.7193e-19
5.92126e-18 1.7193e-19 0.0183232

SCALARS damage float
LOOKUP_TABLE default
0.866771
