# vtk DataFile Version 3.0
time 0.02
ASCII
DATASET UNSTRUCTURED_GRID
POINTS 8 float
0 0 0 1 0 0 1 1 0 
0 1 0 0 0 1 1 0 1 
1 1 1 0 1 1 

CELLS 1 9
8 0 1 2 3 4 5 6 7 

CELL_TYPES 1
12

POINT_DATA 8
VECTORS displacement float
0 0 0
-0.0029842 0 0
-0.0029842 -0.0029842 0
0 -0.0029842 0
0 0 0.01
-0.0029842 0 0.01
-0.0029842 -0.0029842 0.01
0 -0.0029842 0.01

CELL_DATA 1
SCALARS part_id int
LOOKUP_TABLE default
0
TENSORS stress float
-4.07739e-12 -4.54324e-18 -3.4518e-18
-4.54324e-18 -4.07744e-12 -2.28007e-18
-3.4518e-18 -2.28007e-18 0.00488958

SCALARS damage float
LOOKUP_TABLE default
0.510217
