# vtk DataFile Version 3.0
time 0.2
ASCII
DATASET UNSTRUCTURED_GRID
POINTS 8 float
0 0 0 1 0 0 1 1 0 
0 1 0 0 0 1 1 0 1 
1 1 1 0 1 1 

CELLS 1 9
8 0 1 2 3 4 5 6 7 

CELL_TYPES 1
12

POINT_DATA 8
VECTORS displacement float
0 0 0
-0.0285071 0 0
-0.0285071 -0.0285071 0
0 -0.0285071 0
0 0 0.1
-0.0285071 0 0.1
-0.0285071 -0.0285071 0.1
0 -0.0285071 0.1

CELL_DATA 1
SCALARS part_id int
LOOKUP_TABLE default
0
TENSORS stress float
-5.7068e-14 -2.82784e-18 5.68079e-19
-2.82784e-18 -5.70739e-14 4.64792e-18
5.68079e-19 4.64792e-18 0.014409

SCALARS damage float
LOOKUP_TABLE default
0.853894
