# vtk DataFile Version 3.0
time 0.11
ASCII
DATASET UNSTRUCTURED_GRID
POINTS 8 float
0 0 0 1 0 0 1 1 0 
0 1 0 0 0 1 1 0 1 
1 1 1 0 1 1 

CELLS 1 9
8 0 1 2 3 4 5 6 7 

CELL_TYPES 1
12

POINT_DATA 8
VECTORS displacement float
0 0 0
-0.0160357 0 0
-0.0160357 -0.0160357 0
0 -0.0160357 0
0 0 0.055
-0.0160357 0 0.055
-0.0160357 -0.0160357 0.055
0 -0.0160357 0.055

CELL_DATA 1
SCALARS part_id int
LOOKUP_TABLE default
0
TENSORS stress float
-2.18842e-13 2.70442e-18 2.9627e-18
2.70442e-18 -2.18847e-13 -2.35167e-19
2.9627e-18 -2.35167e-19 0.00997754

SCALARS damage float
LOOKUP_TABLE default
0.817055
