# vtk DataFile Version 3.0
time 0.48
ASCII
DATASET UNSTRUCTURED_GRID
POINTS 8 float
0 0 0 1 0 0 1 1 0 
0 1 0 0 0 1 1 0 1 
1 1 1 0 1 1 

CELLS 1 9
8 0 1 2 3 4 5 6 7 

CELL_TYPES 1
12

POINT_DATA 8
VECTORS displacement float
0 0 0
-0.0640677 0 0
-0.0640677 -0.0640677 0
0 -0.0640677 0
0 0 0.24
-0.0640677 0 0.24
-0.0640677 -0.0640677 0.24
0 -0.0640677 0.24

CELL_DATA 1
SCALARS part_id int
LOOKUP_TABLE default
0
TENSORS stress float
-6.94409e-15 2.20376e-18 3.87776e-18
2.20376e-18 -6.94295e-15 8.21348e-18
3.87776e-18 8.21348e-18 0.0280644

SCALARS damage float
LOOKUP_TABLE default
0.880209
