# vtk DataFile Version 3.0
time 1
ASCII
DATASET UNSTRUCTURED_GRID
POINTS 8 float
0 0 0 1 0 0 1 1 0 
0 1 0 0 0 1 1 0 1 
1 1 1 0 1 1 

CELLS 1 9
8 0 1 2 3 4 5 6 7 

CELL_TYPES 1
12

POINT_DATA 8
VECTORS displacement float
0 0 0
-0.119825 0 0
-0.119825 -0.119825 0
0 -0.119825 0
0 0 0.5
-0.119825 0 0.5
-0.119825 -0.119825 0.5
0 -0.119825 0.5

CELL_DATA 1
SCALARS part_id int
LOOKUP_TABLE default
0
TENSORS stress float
-4.80914e-09 -5.61601e-19 2.49526e-18
-5.61601e-19 -4.80914e-09 7.46063e-18
2.49526e-18 7.46063e-18 0.0387596

