# vtk DataFile Version 3.0
time 1
ASCII
DATASET UNSTRUCTURED_GRID
POINTS 8 float
0 0 0 1 0 0 1 1 0 
0 1 0 0 0 1 1 0 1 
1 1 1 0 1 1 

CELLS 1 9
8 0 1 2 3 4 5 6 7 

CELL_TYPES 1
12

POINT_DATA 8
VECTORS displacement float
0 0 0
-0.0285071 0 0
-0.0285071 -0.0285071 0
0 -0.0285071 0
0 0 0.1
-0.0285071 0 0.1
-0.0285071 -0.0285071 0.1
0 -0.0285071 0.1

CELL_DATA 1
SCALARS part_id int
LOOKUP_TABLE default
0
TENSORS stress float
-9.72964e-10 -4.6126e-18 1.36713e-17
-4.6126e-18 -9.72964e-10 5.83718e-18
1.36713e-17 5.83718e-18 0.0428585

