# vtk DataFile Version 3.0
time 0.27
ASCII
DATASET UNSTRUCTURED_GRID
POINTS 27 float
0 0 0 0.5 0 0 1 0 0 
0 0.5 0 0.5 0.5 0 1 0.5 0 
0 1 0 0.5 1 0 1 1 0 
0 0 0.5 0.5 0 0.5 1 0 0.5 
0 0.5 0.5 0.5 0.5 0.5 1 0.5 0.5 
0 1 0.5 0.5 1 0.5 1 1 0.5 
0 0 1 0.5 0 1 1 0 1 
0 0.5 1 0.5 0.5 1 1 0.5 1 
0 1 1 0.5 1 1 1 1 1 

CELLS 8 72
8 0 1 4 3 9 10 13 12 
8 1 2 5 4 10 11 14 13 
8 3 4 7 6 12 13 16 15 
8 4 5 8 7 13 14 17 16 
8 9 10 13 12 18 19 22 21 
8 10 11 14 13 19 20 23 22 
8 12 13 16 15 21 22 25 24 
8 13 14 17 16 22 23 26 25 

CELL_TYPES 8
12
12
12
12
12
12
12
12

POINT_DATA 27
VECTORS displacement float
0 0 0
-0.0189177 0 0
-0.0378355 0 0
0 -0.0189177 0
-0.0189177 -0.0189177 0
-0.0378355 -0.0189177 0
0 -0.0378355 0
-0.0189177 -0.0378355 0
-0.0378355 -0.0378355 0
0 0 0.0675
-0.0189177 0 0.0675
-0.0378355 0 0.0675
0 -0.0189177 0.0675
-0.0189177 -0.0189177 0.0675
-0.0378355 -0.0189177 0.0675
0 -0.0378355 0.0675
-0.0189177 -0.0378355 0.0675
-0.0378355 -0.0378355 0.0675
0 0 0.135
-0.0189177 0 0.135
-0.0378355 0 0.135
0 -0.0189177 0.135
-0.0189177 -0.0189177 0.135
-0.0378355 -0.0189177 0.135
0 -0.0378355 0.135
-0.0189177 -0.0378355 0.135
-0.0378355 -0.0378355 0.135

CELL_DATA 8
SCALARS part_id int
LOOKUP_TABLE default
0
0
0
0
0
0
0
0
TENSORS stress float
2.74461e-10 2.25473e-12 3.48958e-11
2.25473e-12 2.74461e-10 3.48958e-11
3.48958e-11 3.48958e-11 0.0761506

1.85857e-10 3.83468e-12 9.13659e-11
3.83468e-12 2.25974e-10 3.28701e-11
9.13659e-11 3.28701e-11 0.0761506

2.25974e-10 3.83469e-12 3.28701e-11
3.83469e-12 1.85857e-10 9.13659e-11
3.28701e-11 9.13659e-11 0.0761506

1.57485e-10 8.48095e-12 8.34512e-11
8.48095e-12 1.57485e-10 8.34512e-11
8.34512e-11 8.34512e-11 0.0761506

-2.754e-10 -2.25475e-12 3.48958e-11
-2.25475e-12 -2.754e-10 3.48958e-11
3.48958e-11 3.48958e-11 0.0761506

-1.86796e-10 -3.83471e-12 9.13659e-11
-3.83471e-12 -2.26913e-10 3.28701e-11
9.13659e-11 3.28701e-11 0.0761506

-2.26913e-10 -3.83472e-12 3.28701e-11
-3.83472e-12 -1.86796e-10 9.13659e-11
3.28701e-11 9.13659e-11 0.0761506

-1.58424e-10 -8.48091e-12 8.34512e-11
-8.48091e-12 -1.58424e-10 8.34513e-11
8.34512e-11 8.34513e-11 0.0761506

SCALARS damage float
LOOKUP_TABLE default
0.426048
0.426048
0.426048
0.426048
0.426048
0.426048
0.426048
0.426048
