# vtk DataFile Version 3.0
time 0.34
ASCII
DATASET UNSTRUCTURED_GRID
POINTS 27 float
0 0 0 0.5 0 0 1 0 0 
0 0.5 0 0.5 0.5 0 1 0.5 0 
0 1 0 0.5 1 0 1 1 0 
0 0 0.5 0.5 0 0.5 1 0 0.5 
0 0.5 0.5 0.5 0.5 0.5 1 0.5 0.5 
0 1 0.5 0.5 1 0.5 1 1 0.5 
0 0 1 0.5 0 1 1 0 1 
0 0.5 1 0.5 0.5 1 1 0.5 1 
0 1 1 0.5 1 1 1 1 1 

CELLS 8 72
8 0 1 4 3 9 10 13 12 
8 1 2 5 4 10 11 14 13 
8 3 4 7 6 12 13 16 15 
8 4 5 8 7 13 14 17 16 
8 9 10 13 12 18 19 22 21 
8 10 11 14 13 19 20 23 22 
8 12 13 16 15 21 22 25 24 
8 13 14 17 16 22 23 26 25 

CELL_TYPES 8
12
12
12
12
12
12
12
12

POINT_DATA 27
VECTORS displacement float
0 0 0
-0.0234301 0 0
-0.0468602 0 0
0 -0.0234301 0
-0.0234301 -0.0234301 0
-0.0468602 -0.0234301 0
0 -0.0468602 0
-0.0234301 -0.0468602 0
-0.0468602 -0.0468602 0
0 0 0.085
-0.0234301 0 0.085
-0.0468602 0 0.085
0 -0.0234301 0.085
-0.0234301 -0.0234301 0.085
-0.0468602 -0.0234301 0.085
0 -0.0468602 0.085
-0.0234301 -0.0468602 0.085
-0.0468602 -0.0468602 0.085
0 0 0.17
-0.0234301 0 0.17
-0.0468602 0 0.17
0 -0.0234301 0.17
-0.0234301 -0.0234301 0.17
-0.0468602 -0.0234301 0.17
0 -0.0468602 0.17
-0.0234301 -0.0468602 0.17
-0.0468602 -0.0468602 0.17

CELL_DATA 8
SCALARS part_id int
LOOKUP_TABLE default
0
0
0
0
0
0
0
0
TENSORS stress float
2.2649e-10 1.8708e-12 2.97256e-11
1.8708e-12 2.2649e-10 2.97256e-11
2.97256e-11 2.97256e-11 0.0890145

1.52924e-10 3.20791e-12 7.97733e-11
3.20791e-12 1.86422e-10 2.80007e-11
7.97733e-11 2.80007e-11 0.0890145

1.86422e-10 3.20794e-12 2.80007e-11
3.20794e-12 1.52924e-10 7.97733e-11
2.80007e-11 7.97733e-11 0.0890145

1.29493e-10 6.89353e-12 7.29055e-11
6.89353e-12 1.29493e-10 7.29055e-11
7.29055e-11 7.29055e-11 0.0890145

-2.27207e-10 -1.87078e-12 2.97256e-11
-1.87078e-12 -2.27207e-10 2.97256e-11
2.97256e-11 2.97256e-11 0.0890145

-1.53641e-10 -3.20794e-12 7.97732e-11
-3.20794e-12 -1.87139e-10 2.80007e-11
7.97732e-11 2.80007e-11 0.0890145

-1.87139e-10 -3.20789e-12 2.80007e-11
-3.20789e-12 -1.53641e-10 7.97732e-11
2.80007e-11 7.97732e-11 0.0890145

-1.3021e-10 -6.89359e-12 7.29054e-11
-6.89359e-12 -1.3021e-10 7.29055e-11
7.29054e-11 7.29055e-11 0.0890145

SCALARS damage float
LOOKUP_TABLE default
0.465713
0.465713
0.465713
0.465713
0.465713
0.465713
0.465713
0.465713
