# vtk DataFile Version 3.0
time 0.39
ASCII
DATASET UNSTRUCTURED_GRID
POINTS 27 float
0 0 0 0.5 0 0 1 0 0 
0 0.5 0 0.5 0.5 0 1 0.5 0 
0 1 0 0.5 1 0 1 1 0 
0 0 0.5 0.5 0 0.5 1 0 0.5 
0 0.5 0.5 0.5 0.5 0.5 1 0.5 0.5 
0 1 0.5 0.5 1 0.5 1 1 0.5 
0 0 1 0.5 0 1 1 0 1 
0 0.5 1 0.5 0.5 1 1 0.5 1 
0 1 1 0.5 1 1 1 1 1 

CELLS 8 72
8 0 1 4 3 9 10 13 12 
8 1 2 5 4 10 11 14 13 
8 3 4 7 6 12 13 16 15 
8 4 5 8 7 13 14 17 16 
8 9 10 13 12 18 19 22 21 
8 10 11 14 13 19 20 23 22 
8 12 13 16 15 21 22 25 24 
8 13 14 17 16 22 23 26 25 

CELL_TYPES 8
12
12
12
12
12
12
12
12

POINT_DATA 27
VECTORS displacement float
0 0 0
-0.0265652 0 0
-0.0531303 0 0
0 -0.0265652 0
-0.0265652 -0.0265652 0
-0.0531303 -0.0265652 0
0 -0.0531303 0
-0.0265652 -0.0531303 0
-0.0531303 -0.0531303 0
0 0 0.0975
-0.0265652 0 0.0975
-0.0531303 0 0.0975
0 -0.0265652 0.0975
-0.0265652 -0.0265652 0.0975
-0.0531303 -0.0265652 0.0975
0 -0.0531303 0.0975
-0.0265652 -0.0531303 0.0975
-0.0531303 -0.0531303 0.0975
0 0 0.195
-0.0265652 0 0.195
-0.0531303 0 0.195
0 -0.0265652 0.195
-0.0265652 -0.0265652 0.195
-0.0531303 -0.0265652 0.195
0 -0.0531303 0.195
-0.0265652 -0.0531303 0.195
-0.0531303 -0.0531303 0.195

CELL_DATA 8
SCALARS part_id int
LOOKUP_TABLE default
0
0
0
0
0
0
0
0
TENSORS stress float
1.96054e-10 1.62066e-12 2.6252e-11
1.62066e-12 1.96054e-10 2.62521e-11
2.6252e-11 2.62521e-11 0.0978281

1.32273e-10 2.79443e-12 7.16266e-11
2.79443e-12 1.61441e-10 2.47298e-11
7.16266e-11 2.47298e-11 0.0978281

1.61441e-10 2.79443e-12 2.47298e-11
2.79443e-12 1.32273e-10 7.16266e-11
2.47298e-11 7.16266e-11 0.0978281

1.1204e-10 5.8871e-12 6.549e-11
5.8871e-12 1.1204e-10 6.549e-11
6.549e-11 6.549e-11 0.0978281

-1.96653e-10 -1.62065e-12 2.6252e-11
-1.62065e-12 -1.96653e-10 2.6252e-11
2.6252e-11 2.6252e-11 0.0978281

-1.32871e-10 -2.79442e-12 7.16266e-11
-2.79442e-12 -1.6204e-10 2.47298e-11
7.16266e-11 2.47298e-11 0.0978281

-1.6204e-10 -2.7944e-12 2.47298e-11
-2.7944e-12 -1.32872e-10 7.16266e-11
2.47298e-11 7.16266e-11 0.0978281

-1.12639e-10 -5.88706e-12 6.54901e-11
-5.88706e-12 -1.12639e-10 6.549e-11
6.54901e-11 6.549e-11 0.0978281

SCALARS damage float
LOOKUP_TABLE default
0.487242
0.487242
0.487242
0.487242
0.487242
0.487242
0.487242
0.487242
