# vtk DataFile Version 3.0
time 0.09
ASCII
DATASET UNSTRUCTURED_GRID
POINTS 27 float
0 0 0 0.5 0 0 1 0 0 
0 0.5 0 0.5 0.5 0 1 0.5 0 
0 1 0 0.5 1 0 1 1 0 
0 0 0.5 0.5 0 0.5 1 0 0.5 
0 0.5 0.5 0.5 0.5 0.5 1 0.5 0.5 
0 1 0.5 0.5 1 0.5 1 1 0.5 
0 0 1 0.5 0 1 1 0 1 
0 0.5 1 0.5 0.5 1 1 0.5 1 
0 1 1 0.5 1 1 1 1 1 

CELLS 8 72
8 0 1 4 3 9 10 13 12 
8 1 2 5 4 10 11 14 13 
8 3 4 7 6 12 13 16 15 
8 4 5 8 7 13 14 17 16 
8 9 10 13 12 18 19 22 21 
8 10 11 14 13 19 20 23 22 
8 12 13 16 15 21 22 25 24 
8 13 14 17 16 22 23 26 25 

CELL_TYPES 8
12
12
12
12
12
12
12
12

POINT_DATA 27
VECTORS displacement float
0 0 0
-0.00659361 0 0
-0.0131872 0 0
0 -0.00659361 0
-0.00659361 -0.00659361 0
-0.0131872 -0.00659361 0
0 -0.0131872 0
-0.00659361 -0.0131872 0
-0.0131872 -0.0131872 0
0 0 0.0225
-0.00659361 0 0.0225
-0.0131872 0 0.0225
0 -0.00659361 0.0225
-0.00659361 -0.00659361 0.0225
-0.0131872 -0.00659361 0.0225
0 -0.0131872 0.0225
-0.00659361 -0.0131872 0.0225
-0.0131872 -0.0131872 0.0225
0 0 0.045
-0.00659361 0 0.045
-0.0131872 0 0.045
0 -0.00659361 0.045
-0.00659361 -0.00659361 0.045
-0.0131872 -0.00659361 0.045
0 -0.0131872 0.045
-0.00659361 -0.0131872 0.045
-0.0131872 -0.0131872 0.045

CELL_DATA 8
SCALARS part_id int
LOOKUP_TABLE default
0
0
0
0
0
0
0
0
TENSORS stress float
3.3928e-10 2.49075e-12 3.65095e-11
2.49075e-12 3.3928e-10 3.65094e-11
3.65095e-11 3.65094e-11 0.0347221

2.40552e-10 4.13392e-12 8.9141e-11
4.13392e-12 2.851e-10 3.44136e-11
8.9141e-11 3.44136e-11 0.0347221

2.85099e-10 4.13402e-12 3.44137e-11
4.13402e-12 2.40551e-10 8.9141e-11
3.44137e-11 8.9141e-11 0.0347221

2.08793e-10 9.90767e-12 8.13941e-11
9.90767e-12 2.08793e-10 8.13941e-11
8.13941e-11 8.13941e-11 0.0347221

-3.41321e-10 -2.49076e-12 3.65094e-11
-2.49076e-12 -3.41321e-10 3.65094e-11
3.65094e-11 3.65094e-11 0.0347221

-2.42593e-10 -4.13411e-12 8.9141e-11
-4.13411e-12 -2.87141e-10 3.44136e-11
8.9141e-11 3.44136e-11 0.0347221

-2.87141e-10 -4.13399e-12 3.44136e-11
-4.13399e-12 -2.42593e-10 8.9141e-11
3.44136e-11 8.9141e-11 0.0347221

-2.10834e-10 -9.90761e-12 8.13942e-11
-9.90761e-12 -2.10834e-10 8.13942e-11
8.13942e-11 8.13942e-11 0.0347221

SCALARS damage float
LOOKUP_TABLE default
0.222941
0.222941
0.222941
0.222941
0.222941
0.222941
0.222941
0.222941
