# vtk DataFile Version 3.0
time 0.11
ASCII
DATASET UNSTRUCTURED_GRID
POINTS 27 float
0 0 0 0.5 0 0 1 0 0 
0 0.5 0 0.5 0.5 0 1 0.5 0 
0 1 0 0.5 1 0 1 1 0 
0 0 0.5 0.5 0 0.5 1 0 0.5 
0 0.5 0.5 0.5 0.5 0.5 1 0.5 0.5 
0 1 0.5 0.5 1 0.5 1 1 0.5 
0 0 1 0.5 0 1 1 0 1 
0 0.5 1 0.5 0.5 1 1 0.5 1 
0 1 1 0.5 1 1 1 1 1 

CELLS 8 72
8 0 1 4 3 9 10 13 12 
8 1 2 5 4 10 11 14 13 
8 3 4 7 6 12 13 16 15 
8 4 5 8 7 13 14 17 16 
8 9 10 13 12 18 19 22 21 
8 10 11 14 13 19 20 23 22 
8 12 13 16 15 21 22 25 24 
8 13 14 17 16 22 23 26 25 

CELL_TYPES 8
12
12
12
12
12
12
12
12

POINT_DATA 27
VECTORS displacement float
0 0 0
-0.00801784 0 0
-0.0160357 0 0
0 -0.00801784 0
-0.00801784 -0.00801784 0
-0.0160357 -0.00801784 0
0 -0.0160357 0
-0.00801784 -0.0160357 0
-0.0160357 -0.0160357 0
0 0 0.0275
-0.00801784 0 0.0275
-0.0160357 0 0.0275
0 -0.00801784 0.0275
-0.00801784 -0.00801784 0.0275
-0.0160357 -0.00801784 0.0275
0 -0.0160357 0.0275
-0.00801784 -0.0160357 0.0275
-0.0160357 -0.0160357 0.0275
0 0 0.055
-0.00801784 0 0.055
-0.0160357 0 0.055
0 -0.00801784 0.055
-0.00801784 -0.00801784 0.055
-0.0160357 -0.00801784 0.055
0 -0.0160357 0.055
-0.00801784 -0.0160357 0.055
-0.0160357 -0.0160357 0.055

CELL_DATA 8
SCALARS part_id int
LOOKUP_TABLE default
0
0
0
0
0
0
0
0
TENSORS stress float
3.47906e-10 2.63501e-12 3.88236e-11
2.63501e-12 3.47906e-10 3.88235e-11
3.88236e-11 3.88235e-11 0.0405081

2.43635e-10 4.38643e-12 9.55735e-11
4.38643e-12 2.90667e-10 3.65904e-11
9.55735e-11 3.65904e-11 0.0405081

2.90667e-10 4.38645e-12 3.65904e-11
4.38645e-12 2.43635e-10 9.55736e-11
3.65904e-11 9.55736e-11 0.0405081

2.10091e-10 1.04137e-11 8.72636e-11
1.04137e-11 2.10091e-10 8.72637e-11
8.72636e-11 8.72637e-11 0.0405081

-3.49781e-10 -2.63496e-12 3.88235e-11
-2.63496e-12 -3.49781e-10 3.88235e-11
3.88235e-11 3.88235e-11 0.0405081

-2.4551e-10 -4.3864e-12 9.55735e-11
-4.3864e-12 -2.92541e-10 3.65904e-11
9.55735e-11 3.65904e-11 0.0405081

-2.92541e-10 -4.38647e-12 3.65904e-11
-4.38647e-12 -2.4551e-10 9.55735e-11
3.65904e-11 9.55735e-11 0.0405081

-2.11965e-10 -1.04136e-11 8.72637e-11
-1.04136e-11 -2.11965e-10 8.72637e-11
8.72637e-11 8.72637e-11 0.0405081

SCALARS damage float
LOOKUP_TABLE default
0.257254
0.257254
0.257254
0.257254
0.257254
0.257254
0.257254
0.257254
