# vtk DataFile Version 3.0
time 1
ASCII
DATASET UNSTRUCTURED_GRID
POINTS 125 float
0 0 0 1 0 0 2 0 0 
3 0 0 4 0 0 0 1 0 
1 1 0 2 1 0 3 1 0 
4 1 0 0 2 0 1 2 0 
2 2 0 3 2 0 4 2 0 
0 3 0 1 3 0 2 3 0 
3 3 0 4 3 0 0 4 0 
1 4 0 2 4 0 3 4 0 
4 4 0 0 0 1 1 0 1 
2 0 1 3 0 1 4 0 1 
0 1 1 1 1 1 2 1 1 
3 1 1 4 1 1 0 2 1 
1 2 1 2 2 1 3 2 1 
4 2 1 0 3 1 1 3 1 
2 3 1 3 3 1 4 3 1 
0 4 1 1 4 1 2 4 1 
3 4 1 4 4 1 0 0 2 
1 0 2 2 0 2 3 0 2 
4 0 2 0 1 2 1 1 2 
2 1 2 3 1 2 4 1 2 
0 2 2 1 2 2 2 2 2 
3 2 2 4 2 2 0 3 2 
1 3 2 2 3 2 3 3 2 
4 3 2 0 4 2 1 4 2 
2 4 2 3 4 2 4 4 2 
0 0 3 1 0 3 2 0 3 
3 0 3 4 0 3 0 1 3 
1 1 3 2 1 3 3 1 3 
4 1 3 0 2 3 1 2 3 
2 2 3 3 2 3 4 2 3 
0 3 3 1 3 3 2 3 3 
3 3 3 4 3 3 0 4 3 
1 4 3 2 4 3 3 4 3 
4 4 3 0 0 4 1 0 4 
2 0 4 3 0 4 4 0 4 
0 1 4 1 1 4 2 1 4 
3 1 4 4 1 4 0 2 4 
1 2 4 2 2 4 3 2 4 
4 2 4 0 3 4 1 3 4 
2 3 4 3 3 4 4 3 4 
0 4 4 1 4 4 2 4 4 
3 4 4 4 4 4 

CELLS 64 576
8 0 1 6 5 25 26 31 30 
8 1 2 7 6 26 27 32 31 
8 2 3 8 7 27 28 33 32 
8 3 4 9 8 28 29 34 33 
8 5 6 11 10 30 31 36 35 
8 6 7 12 11 31 32 37 36 
8 7 8 13 12 32 33 38 37 
8 8 9 14 13 33 34 39 38 
8 10 11 16 15 35 36 41 40 
8 11 12 17 16 36 37 42 41 
8 12 13 18 17 37 38 43 42 
8 13 14 19 18 38 39 44 43 
8 15 16 21 20 40 41 46 45 
8 16 17 22 21 41 42 47 46 
8 17 18 23 22 42 43 48 47 
8 18 19 24 23 43 44 49 48 
8 25 26 31 30 50 51 56 55 
8 26 27 32 31 51 52 57 56 
8 27 28 33 32 52 53 58 57 
8 28 29 34 33 53 54 59 58 
8 30 31 36 35 55 56 61 60 
8 31 32 37 36 56 57 62 61 
8 32 33 38 37 57 58 63 62 
8 33 34 39 38 58 59 64 63 
8 35 36 41 40 60 61 66 65 
8 36 37 42 41 61 62 67 66 
8 37 38 43 42 62 63 68 67 
8 38 39 44 43 63 64 69 68 
8 40 41 46 45 65 66 71 70 
8 41 42 47 46 66 67 72 71 
8 42 43 48 47 67 68 73 72 
8 43 44 49 48 68 69 74 73 
8 50 51 56 55 75 76 81 80 
8 51 52 57 56 76 77 82 81 
8 52 53 58 57 77 78 83 82 
8 53 54 59 58 78 79 84 83 
8 55 56 61 60 80 81 86 85 
8 56 57 62 61 81 82 87 86 
8 57 58 63 62 82 83 88 87 
8 58 59 64 63 83 84 89 88 
8 60 61 66 65 85 86 91 90 
8 61 62 67 66 86 87 92 91 
8 62 63 68 67 87 88 93 92 
8 63 64 69 68 88 89 94 93 
8 65 66 71 70 90 91 96 95 
8 66 67 72 71 91 92 97 96 
8 67 68 73 72 92 93 98 97 
8 68 69 74 73 93 94 99 98 
8 75 76 81 80 100 101 106 105 
8 76 77 82 81 101 102 107 106 
8 77 78 83 82 102 103 108 107 
8 78 79 84 83 103 104 109 108 
8 80 81 86 85 105 106 111 110 
8 81 82 87 86 106 107 112 111 
8 82 83 88 87 107 108 113 112 
8 83 84 89 88 108 109 114 113 
8 85 86 91 90 110 111 116 115 
8 86 87 92 91 111 112 117 116 
8 87 88 93 92 112 113 118 117 
8 88 89 94 93 113 114 119 118 
8 90 91 96 95 115 116 121 120 
8 91 92 97 96 116 117 122 121 
8 92 93 98 97 117 118 123 122 
8 93 94 99 98 118 119 124 123 

CELL_TYPES 64
12
12
12
12
12
12
12
12
12
12
12
12
12
12
12
12
12
12
12
12
12
12
12
12
12
12
12
12
12
12
12
12
12
12
12
12
12
12
12
12
12
12
12
12
12
12
12
12
12
12
12
12
12
12
12
12
12
12
12
12
12
12
12
12

POINT_DATA 125
VECTORS displacement float
0 0 0
-0.0352023 0 0
-0.0704047 0 0
-0.105607 0 0
-0.14081 0 0
0 -0.0352023 0
-0.0352023 -0.0352023 0
-0.0704047 -0.0352023 0
-0.105607 -0.0352023 0
-0.14081 -0.0352023 0
0 -0.0704047 0
-0.0352023 -0.0704047 0
-0.0704047 -0.0704047 0
-0.105607 -0.0704047 0
-0.140809 -0.0704047 0
0 -0.105607 0
-0.0352023 -0.105607 0
-0.0704047 -0.105607 0
-0.105607 -0.105607 0
-0.140809 -0.105607 0
0 -0.14081 0
-0.0352023 -0.14081 0
-0.0704047 -0.140809 0
-0.105607 -0.140809 0
-0.140809 -0.140809 0
0 0 0.125005
-0.0352023 0 0.125005
-0.0704046 0 0.125005
-0.105607 0 0.125005
-0.140809 0 0.125005
0 -0.0352023 0.125005
-0.0352023 -0.0352023 0.125005
-0.0704046 -0.0352022 0.125005
-0.105607 -0.0352022 0.125005
-0.140809 -0.0352023 0.125005
0 -0.0704046 0.125005
-0.0352022 -0.0704046 0.125005
-0.0704046 -0.0704046 0.125005
-0.105607 -0.0704045 0.125005
-0.140809 -0.0704046 0.125005
0 -0.105607 0.125005
-0.0352022 -0.105607 0.125005
-0.0704045 -0.105607 0.125005
-0.105607 -0.105607 0.125005
-0.140809 -0.105607 0.125005
0 -0.140809 0.125005
-0.0352023 -0.140809 0.125005
-0.0704046 -0.140809 0.125005
-0.105607 -0.140809 0.125005
-0.140809 -0.140809 0.125005
0 0 0.250011
-0.0352021 0 0.250011
-0.0704042 0 0.250011
-0.105606 0 0.250011
-0.140809 0 0.25001
0 -0.0352021 0.250011
-0.0352021 -0.0352021 0.250011
-0.0704041 -0.0352021 0.250011
-0.105606 -0.0352021 0.250011
-0.140809 -0.0352021 0.25001
0 -0.0704042 0.250011
-0.0352021 -0.0704041 0.250011
-0.0704041 -0.0704041 0.250011
-0.105606 -0.0704041 0.250011
-0.140809 -0.0704041 0.25001
0 -0.105606 0.250011
-0.0352021 -0.105606 0.250011
-0.0704041 -0.105606 0.250011
-0.105606 -0.105606 0.250011
-0.140809 -0.105606 0.25001
0 -0.140809 0.25001
-0.0352021 -0.140809 0.25001
-0.0704041 -0.140809 0.25001
-0.105606 -0.140809 0.25001
-0.140809 -0.140809 0.250009
0 0 0.375015
-0.0352018 0 0.375015
-0.0704036 0 0.375016
-0.105605 0 0.375016
-0.140807 0 0.375015
0 -0.0352018 0.375015
-0.0352018 -0.0352018 0.375016
-0.0704036 -0.0352018 0.375016
-0.105605 -0.0352018 0.375016
-0.140807 -0.0352018 0.375015
0 -0.0704036 0.375016
-0.0352018 -0.0704036 0.375016
-0.0704036 -0.0704036 0.375016
-0.105605 -0.0704036 0.375016
-0.140807 -0.0704036 0.375015
0 -0.105605 0.375016
-0.0352018 -0.105605 0.375016
-0.0704036 -0.105605 0.375016
-0.105605 -0.105605 0.375016
-0.140807 -0.105605 0.375015
0 -0.140807 0.375015
-0.0352018 -0.140807 0.375015
-0.0704036 -0.140807 0.375015
-0.105605 -0.140807 0.375015
-0.140807 -0.140807 0.375014
0 0 0.5
-0.0352017 0 0.5
-0.0704033 0 0.5
-0.105605 0 0.5
-0.140805 0 0.5
0 -0.0352017 0.5
-0.0352017 -0.0352017 0.5
-0.0704033 -0.0352017 0.5
-0.105605 -0.0352018 0.5
-0.140805 -0.0352017 0.5
0 -0.0704033 0.5
-0.0352017 -0.0704033 0.5
-0.0704033 -0.0704033 0.5
-0.105605 -0.0704034 0.5
-0.140806 -0.0704033 0.5
0 -0.105605 0.5
-0.0352017 -0.105605 0.5
-0.0704034 -0.105605 0.5
-0.105605 -0.105605 0.5
-0.140806 -0.105605 0.5
0 -0.140805 0.5
-0.0352017 -0.140805 0.5
-0.0704033 -0.140806 0.5
-0.105605 -0.140806 0.5
-0.140806 -0.140806 0.5

CELL_DATA 64
SCALARS part_id int
LOOKUP_TABLE default
0
0
0
0
0
0
0
0
0
0
0
0
0
0
0
0
0
0
0
0
0
0
0
0
0
0
0
0
0
0
0
0
0
0
0
0
0
0
0
0
0
0
0
0
0
0
0
0
0
0
0
0
0
0
0
0
0
0
0
0
0
0
0
0
TENSORS stress float
3.4504e-07 3.13238e-10 2.92733e-09
3.13238e-10 3.45105e-07 2.93415e-09
2.92733e-09 2.93415e-09 0.019627

3.34001e-07 8.96446e-10 7.46244e-09
8.96446e-10 3.42082e-07 2.785e-09
7.46244e-09 2.785e-09 0.019627

3.17971e-07 1.21603e-09 6.34858e-09
1.21603e-09 3.34231e-07 2.63992e-09
6.34858e-09 2.63992e-09 0.019627

3.11855e-07 7.27508e-10 1.65286e-09
7.27508e-10 3.21432e-07 2.76684e-09
1.65286e-09 2.76684e-09 0.019627

3.42057e-07 8.99965e-10 2.79689e-09
8.99965e-10 3.34049e-07 7.48953e-09
2.79689e-09 7.48953e-09 0.019627

3.31722e-07 2.64161e-09 7.10452e-09
2.64161e-09 3.31738e-07 7.15345e-09
7.10452e-09 7.15345e-09 0.019627

3.16692e-07 3.73671e-09 5.86175e-09
3.73671e-09 3.25505e-07 6.70834e-09
5.86175e-09 6.70834e-09 0.019627

3.11095e-07 2.38337e-09 1.42355e-09
2.38337e-09 3.14935e-07 6.83648e-09
1.42355e-09 6.83648e-09 0.019627

3.3425e-07 1.21051e-09 2.64252e-09
1.21051e-09 3.18004e-07 6.35373e-09
2.64252e-09 6.35373e-09 0.019627

3.25484e-07 3.74686e-09 6.6814e-09
3.74686e-09 3.16655e-07 5.85799e-09
6.6814e-09 5.85799e-09 0.019627

3.1318e-07 5.77365e-09 5.39736e-09
5.77365e-09 3.13152e-07 5.42081e-09
5.39736e-09 5.42081e-09 0.019627

3.09506e-07 4.12971e-09 1.24992e-09
4.12971e-09 3.07586e-07 5.70388e-09
1.24992e-09 5.70388e-09 0.019627

3.21461e-07 7.22133e-10 2.72216e-09
7.22133e-10 3.11922e-07 1.68199e-09
2.72216e-09 1.68199e-09 0.019627

3.14875e-07 2.38217e-09 6.80254e-09
2.38217e-09 3.11065e-07 1.40138e-09
6.80254e-09 1.40138e-09 0.019627

3.07514e-07 4.13296e-09 5.67672e-09
4.13296e-09 3.09386e-07 1.18276e-09
5.67672e-09 1.18276e-09 0.019627

3.10005e-07 3.44997e-09 1.62591e-09
3.44997e-09 3.09992e-07 1.57456e-09
1.62591e-09 1.57456e-09 0.0196269

3.69315e-07 1.47763e-10 7.95355e-09
1.47763e-10 3.69337e-07 7.96159e-09
7.95355e-09 7.96159e-09 0.019627

3.61269e-07 4.28668e-10 2.28549e-08
4.28668e-10 3.67862e-07 7.61309e-09
2.28549e-08 7.61309e-09 0.019627

3.4112e-07 5.88134e-10 2.85332e-08
5.88134e-10 3.61669e-07 7.17131e-09
2.85332e-08 7.17131e-09 0.019627

3.12685e-07 3.49259e-10 9.96482e-09
3.49259e-10 3.41173e-07 7.47481e-09
9.96482e-09 7.47481e-09 0.019627

3.6782e-07 4.26054e-10 7.6025e-09
4.26054e-10 3.61284e-07 2.292e-08
7.6025e-09 2.292e-08 0.019627

3.60229e-07 1.32438e-09 2.17708e-08
1.32438e-09 3.60256e-07 2.1827e-08
2.17708e-08 2.1827e-08 0.019627

3.40572e-07 2.01392e-09 2.68856e-08
2.01392e-09 3.54999e-07 2.03793e-08
2.68856e-08 2.03793e-08 0.019627

3.1257e-07 1.35433e-09 8.83392e-09
1.35433e-09 3.35693e-07 2.07618e-08
8.83392e-09 2.07618e-08 0.019627

3.61588e-07 5.93722e-10 7.13736e-09
5.93722e-10 3.41046e-07 2.85691e-08
7.13736e-09 2.85691e-08 0.019627

3.54953e-07 2.01924e-09 2.03383e-08
2.01924e-09 3.4057e-07 2.692e-08
2.03383e-08 2.692e-08 0.019627

3.37475e-07 3.76527e-09 2.46987e-08
3.76527e-09 3.37516e-07 2.47363e-08
2.46987e-08 2.47363e-08 0.019627

3.11283e-07 3.17449e-09 7.4683e-09
3.17449e-09 3.2233e-07 2.47805e-08
7.4683e-09 2.47805e-08 0.019627

3.41061e-07 3.53272e-10 7.36082e-09
3.53272e-10 3.12555e-07 9.98903e-09
7.36082e-09 9.98903e-09 0.019627

3.3569e-07 1.36296e-09 2.07153e-08
1.36296e-09 3.12575e-07 8.78042e-09
2.07153e-08 8.78042e-09 0.019627

3.22452e-07 3.18162e-09 2.47548e-08
3.18162e-09 3.11403e-07 7.41057e-09
2.47548e-08 7.41057e-09 0.019627

3.04931e-07 4.23781e-09 7.81838e-09
4.23781e-09 3.04933e-07 7.77118e-09
7.81838e-09 7.77118e-09 0.0196269

4.06381e-07 -1.22949e-10 9.33642e-09
-1.22949e-10 4.06356e-07 9.33969e-09
9.33642e-09 9.33969e-09 0.019627

4.09355e-07 -3.43154e-10 3.0414e-08
-3.43154e-10 4.07483e-07 8.91868e-09
3.0414e-08 8.91868e-09 0.019627

4.09224e-07 -4.57843e-10 5.60127e-08
-4.57843e-10 4.1003e-07 8.34796e-09
5.60127e-08 8.34796e-09 0.019627

3.87762e-07 -2.87521e-10 6.02321e-08
-2.87521e-10 4.02738e-07 8.64722e-09
6.02321e-08 8.64722e-09 0.019627

4.07481e-07 -3.4998e-10 8.88474e-09
-3.4998e-10 4.09347e-07 3.03964e-08
8.88474e-09 3.03964e-08 0.019627

4.1019e-07 -9.86179e-10 2.89598e-08
-9.86179e-10 4.10202e-07 2.89088e-08
2.89598e-08 2.89088e-08 0.019627

4.09792e-07 -1.31411e-09 5.36207e-08
-1.31411e-09 4.12327e-07 2.67857e-08
5.36207e-08 2.67857e-08 0.019627

3.8831e-07 -8.24149e-10 5.81035e-08
-8.24149e-10 4.04318e-07 2.73225e-08
5.81035e-08 2.73225e-08 0.019627

4.10069e-07 -4.58281e-10 8.29491e-09
-4.58281e-10 4.09258e-07 5.60976e-08
8.29491e-09 5.60976e-08 0.019627

4.12326e-07 -1.32506e-09 2.67701e-08
-1.32506e-09 4.09811e-07 5.3656e-08
2.67701e-08 5.3656e-08 0.019627

4.11285e-07 -1.65401e-09 4.91175e-08
-1.65401e-09 4.11316e-07 4.9074e-08
4.91175e-08 4.9074e-08 0.019627

3.89959e-07 -8.16227e-10 5.3274e-08
-8.16227e-10 4.02531e-07 4.77305e-08
5.3274e-08 4.77305e-08 0.019627

4.0295e-07 -2.68367e-10 8.63496e-09
-2.68367e-10 3.87924e-07 6.02807e-08
8.63496e-09 6.02807e-08 0.019627

4.04493e-07 -8.20614e-10 2.72712e-08
-8.20614e-10 3.88463e-07 5.81845e-08
2.72712e-08 5.81845e-08 0.019627

4.02496e-07 -8.29651e-10 4.7754e-08
-8.29651e-10 3.8992e-07 5.33154e-08
4.7754e-08 5.33154e-08 0.019627

3.83172e-07 2.75201e-10 4.9131e-08
2.75201e-10 3.83174e-07 4.90957e-08
4.9131e-08 4.90957e-08 0.019627

-1.13319e-06 -3.34699e-10 4.30146e-09
-3.34699e-10 -1.13324e-06 4.3086e-09
4.30146e-09 4.3086e-09 0.0196252

-1.11708e-06 -9.72706e-10 1.50121e-08
-9.72706e-10 -1.12987e-06 4.08686e-09
1.50121e-08 4.08686e-09 0.0196252

-1.08058e-06 -1.34144e-09 3.38269e-08
-1.34144e-09 -1.11829e-06 3.81845e-09
3.38269e-08 3.81845e-09 0.0196252

-1.02466e-06 -8.00146e-10 5.19361e-08
-8.00146e-10 -1.07772e-06 3.93667e-09
5.19361e-08 3.93667e-09 0.0196253

-1.12982e-06 -9.74341e-10 4.05948e-09
-9.74341e-10 -1.11715e-06 1.49661e-08
4.05948e-09 1.49661e-08 0.0196252

-1.11458e-06 -2.97961e-09 1.42868e-08
-2.97961e-09 -1.11463e-06 1.42353e-08
1.42868e-08 1.42353e-08 0.0196252

-1.07937e-06 -4.43681e-09 3.26069e-08
-4.43681e-09 -1.1052e-06 1.31168e-08
3.26069e-08 1.31168e-08 0.0196252

-1.02434e-06 -2.90471e-09 5.0703e-08
-2.90471e-09 -1.0673e-06 1.34091e-08
5.0703e-08 1.34091e-08 0.0196253

-1.11835e-06 -1.33611e-09 3.79301e-09
-1.33611e-09 -1.08072e-06 3.38836e-08
3.79301e-09 3.38836e-08 0.0196252

-1.10517e-06 -4.41838e-09 1.31108e-08
-4.41838e-09 -1.07941e-06 3.26e-08
1.31108e-08 3.26e-08 0.0196252

-1.07429e-06 -7.88586e-09 2.98236e-08
-7.88586e-09 -1.0743e-06 2.97618e-08
2.98236e-08 2.97618e-08 0.0196252

-1.02305e-06 -6.48185e-09 4.70571e-08
-6.48185e-09 -1.04478e-06 2.86616e-08
4.70571e-08 2.86616e-08 0.0196253

-1.07795e-06 -7.99992e-10 3.99859e-09
-7.99992e-10 -1.02487e-06 5.19743e-08
3.99859e-09 5.19743e-08 0.0196253

-1.06747e-06 -2.90543e-09 1.33593e-08
-2.90543e-09 -1.02449e-06 5.08086e-08
1.33593e-08 5.08086e-08 0.0196253

-1.04479e-06 -6.47533e-09 2.86757e-08
-6.47533e-09 -1.02304e-06 4.70966e-08
2.86757e-08 4.70966e-08 0.0196253

-1.01047e-06 -7.97234e-09 4.29439e-08
-7.97234e-09 -1.01044e-06 4.29018e-08
4.29439e-08 4.29018e-08 0.0196253

