# vtk DataFile Version 3.0
time 1
ASCII
DATASET UNSTRUCTURED_GRID
POINTS 27 float
0 0 0 1 0 0 2 0 0 
0 1 0 1 1 0 2 1 0 
0 2 0 1 2 0 2 2 0 
0 0 1 1 0 1 2 0 1 
0 1 1 1 1 1 2 1 1 
0 2 1 1 2 1 2 2 1 
0 0 2 1 0 2 2 0 2 
0 1 2 1 1 2 2 1 2 
0 2 2 1 2 2 2 2 2 

CELLS 8 72
8 0 1 4 3 9 10 13 12 
8 1 2 5 4 10 11 14 13 
8 3 4 7 6 12 13 16 15 
8 4 5 8 7 13 14 17 16 
8 9 10 13 12 18 19 22 21 
8 10 11 14 13 19 20 23 22 
8 12 13 16 15 21 22 25 24 
8 13 14 17 16 22 23 26 25 

CELL_TYPES 8
12
12
12
12
12
12
12
12

POINT_DATA 27
VECTORS displacement float
0 0 0
-0.0285074 0 0
-0.0570151 0 0
0 -0.0285074 0
-0.0285074 -0.0285074 0
-0.0570151 -0.0285074 0
0 -0.0570151 0
-0.0285074 -0.0570151 0
-0.0570149 -0.0570149 0
0 0 0.100007
-0.0285071 0 0.100007
-0.0570141 0 0.100007
0 -0.0285071 0.100007
-0.0285071 -0.0285071 0.100007
-0.0570141 -0.0285071 0.100007
0 -0.0570141 0.100007
-0.0285071 -0.0570141 0.100007
-0.0570141 -0.0570141 0.100007
0 0 0.2
-0.0285067 0 0.2
-0.0570131 0 0.2
0 -0.0285067 0.2
-0.0285067 -0.0285067 0.2
-0.0570132 -0.0285067 0.2
0 -0.0570131 0.2
-0.0285067 -0.0570132 0.2
-0.0570133 -0.0570133 0.2

CELL_DATA 8
SCALARS part_id int
LOOKUP_TABLE default
0
0
0
0
0
0
0
0
TENSORS stress float
5.98091e-07 1.04309e-09 1.62281e-08
1.04309e-09 5.9809e-07 1.62275e-08
1.62281e-08 1.62275e-08 0.0183579

5.57204e-07 1.71368e-09 4.00447e-08
1.71368e-09 5.75384e-07 1.5289e-08
4.00447e-08 1.5289e-08 0.0183579

5.75383e-07 1.71296e-09 1.52881e-08
1.71296e-09 5.57199e-07 4.00454e-08
1.52881e-08 4.00454e-08 0.0183579

5.44157e-07 4.25485e-09 3.6535e-08
4.25485e-09 5.44162e-07 3.65343e-08
3.6535e-08 3.65343e-08 0.0183579

-6.01776e-07 -1.045e-09 1.6228e-08
-1.045e-09 -6.01776e-07 1.62287e-08
1.6228e-08 1.62287e-08 0.0183566

-5.60872e-07 -1.71151e-09 4.00499e-08
-1.71151e-09 -5.79066e-07 1.52866e-08
4.00499e-08 1.52866e-08 0.0183566

-5.79066e-07 -1.71223e-09 1.52875e-08
-1.71223e-09 -5.60877e-07 4.00492e-08
1.52875e-08 4.00492e-08 0.0183566

-5.47808e-07 -4.25589e-09 3.65402e-08
-4.25589e-09 -5.47803e-07 3.65409e-08
3.65402e-08 3.65409e-08 0.0183566

