# vtk DataFile Version 3.0
time 1
ASCII
DATASET UNSTRUCTURED_GRID
POINTS 8 float
0 0 0 1 0 0 1 1 0 
0 1 0 0 0 1 1 0 1 
1 1 1 0 1 1 

CELLS 1 9
8 0 1 2 3 4 5 6 7 

CELL_TYPES 1
12

POINT_DATA 8
VECTORS displacement float
0 0 0
-0.13849 0 0
-0.13849 -0.13849 0
0 -0.13849 0
0 0 0.6
-0.13849 0 0.6
-0.13849 -0.13849 0.6
0 -0.13849 0.6

CELL_DATA 1
SCALARS part_id int
LOOKUP_TABLE default
0
TENSORS stress float
-4.8744e-08 1.00298e-17 1.91091e-17
1.00298e-17 -4.8744e-08 9.33836e-18
1.91091e-17 9.33836e-18 0.210338

