# vtk DataFile Version 3.0
time 0.43
ASCII
DATASET UNSTRUCTURED_GRID
POINTS 27 float
0 0 0 0.5 0 0 1 0 0 
0 0.5 0 0.5 0.5 0 1 0.5 0 
0 1 0 0.5 1 0 1 1 0 
0 0 0.5 0.5 0 0.5 1 0 0.5 
0 0.5 0.5 0.5 0.5 0.5 1 0.5 0.5 
0 1 0.5 0.5 1 0.5 1 1 0.5 
0 0 1 0.5 0 1 1 0 1 
0 0.5 1 0.5 0.5 1 1 0.5 1 
0 1 1 0.5 1 1 1 1 1 

CELLS 8 72
8 0 1 4 3 9 10 13 12 
8 1 2 5 4 10 11 14 13 
8 3 4 7 6 12 13 16 15 
8 4 5 8 7 13 14 17 16 
8 9 10 13 12 18 19 22 21 
8 10 11 14 13 19 20 23 22 
8 12 13 16 15 21 22 25 24 
8 13 14 17 16 22 23 26 25 

CELL_TYPES 8
12
12
12
12
12
12
12
12

POINT_DATA 27
VECTORS displacement float
0 0 0
-0.0290227 0 0
-0.0580454 0 0
0 -0.0290227 0
-0.0290227 -0.0290227 0
-0.0580454 -0.0290227 0
0 -0.0580454 0
-0.0290227 -0.0580454 0
-0.0580454 -0.0580454 0
0 0 0.1075
-0.0290227 0 0.1075
-0.0580454 0 0.1075
0 -0.0290227 0.1075
-0.0290227 -0.0290227 0.1075
-0.0580454 -0.0290227 0.1075
0 -0.0580454 0.1075
-0.0290227 -0.0580454 0.1075
-0.0580454 -0.0580454 0.1075
0 0 0.215
-0.0290227 0 0.215
-0.0580454 0 0.215
0 -0.0290227 0.215
-0.0290227 -0.0290227 0.215
-0.0580454 -0.0290227 0.215
0 -0.0580454 0.215
-0.0290227 -0.0580454 0.215
-0.0580454 -0.0580454 0.215

CELL_DATA 8
SCALARS part_id int
LOOKUP_TABLE default
0
0
0
0
0
0
0
0
TENSORS stress float
1.74559e-10 1.44255e-12 2.37288e-11
1.44255e-12 1.74559e-10 2.37288e-11
2.37288e-11 2.37288e-11 0.104748

1.17753e-10 2.49783e-12 6.55607e-11
2.49783e-12 1.43817e-10 2.23536e-11
6.55607e-11 2.23536e-11 0.104748

1.43817e-10 2.49785e-12 2.23536e-11
2.49785e-12 1.17753e-10 6.55607e-11
2.23536e-11 6.55607e-11 0.104748

9.9791e-11 5.18177e-12 5.99654e-11
5.18177e-12 9.97909e-11 5.99653e-11
5.99654e-11 5.99653e-11 0.104748

-1.75081e-10 -1.44255e-12 2.37288e-11
-1.44255e-12 -1.75081e-10 2.37288e-11
2.37288e-11 2.37288e-11 0.104748

-1.18276e-10 -2.49788e-12 6.55607e-11
-2.49788e-12 -1.4434e-10 2.23536e-11
6.55607e-11 2.23536e-11 0.104748

-1.4434e-10 -2.49788e-12 2.23536e-11
-2.49788e-12 -1.18276e-10 6.55607e-11
2.23536e-11 6.55607e-11 0.104748

-1.00313e-10 -5.18176e-12 5.99654e-11
-5.18176e-12 -1.00313e-10 5.99654e-11
5.99654e-11 5.99654e-11 0.104748

SCALARS damage float
LOOKUP_TABLE default
0.501484
0.501484
0.501484
0.501484
0.501484
0.501484
0.501484
0.501484
