# vtk DataFile Version 3.0
time 1
ASCII
DATASET UNSTRUCTURED_GRID
POINTS 8 float
0 0 0 1 0 0 1 1 0 
0 1 0 0 0 1 1 0 1 
1 1 1 0 1 1 

CELLS 1 9
8 0 1 2 3 4 5 6 7 

CELL_TYPES 1
12

POINT_DATA 8
VECTORS displacement float
0 0 0
-0.0543675 0 0
-0.0543675 -0.0543675 0
0 -0.0543675 0
0 0 0.2
-0.0543675 0 0.2
-0.0543675 -0.0543675 0.2
0 -0.0543675 0.2

CELL_DATA 1
SCALARS part_id int
LOOKUP_TABLE default
0
TENSORS stress float
-2.58184e-08 2.39149e-18 2.18683e-18
2.39149e-18 -2.58184e-08 7.65729e-18
2.18683e-18 7.65729e-18 0.023402

