# vtk DataFile Version 3.0
time 0.04
ASCII
DATASET UNSTRUCTURED_GRID
POINTS 8 float
0 0 0 1 0 0 1 1 0 
0 1 0 0 0 1 1 0 1 
1 1 1 0 1 1 

CELLS 1 9
8 0 1 2 3 4 5 6 7 

CELL_TYPES 1
12

POINT_DATA 8
VECTORS displacement float
0 0 0
-0.00593722 0 0
-0.00593722 -0.00593722 0
0 -0.00593722 0
0 0 0.02
-0.00593722 0 0.02
-0.00593722 -0.00593722 0.02
0 -0.00593722 0.02

CELL_DATA 1
SCALARS part_id int
LOOKUP_TABLE default
0
TENSORS stress float
-1.06555e-12 3.28112e-18 1.15732e-17
3.28112e-18 -1.06555e-12 1.2561e-17
1.15732e-17 1.2561e-17 0.0124247

SCALARS damage float
LOOKUP_TABLE default
0.376711
