# vtk DataFile Version 3.0
time 0.45
ASCII
DATASET UNSTRUCTURED_GRID
POINTS 8 float
0 0 0 1 0 0 1 1 0 
0 1 0 0 0 1 1 0 1 
1 1 1 0 1 1 

CELLS 1 9
8 0 1 2 3 4 5 6 7 

CELL_TYPES 1
12

POINT_DATA 8
VECTORS displacement float
0 0 0
-0.0604703 0 0
-0.0604703 -0.0604703 0
0 -0.0604703 0
0 0 0.225
-0.0604703 0 0.225
-0.0604703 -0.0604703 0.225
0 -0.0604703 0.225

CELL_DATA 1
SCALARS part_id int
LOOKUP_TABLE default
0
TENSORS stress float
-8.647e-15 0 1.0636e-17
0 -8.65943e-15 2.97431e-17
1.0636e-17 2.97431e-17 0.112461

SCALARS damage float
LOOKUP_TABLE default
0.488307
