# vtk DataFile Version 3.0
time 0.37
ASCII
DATASET UNSTRUCTURED_GRID
POINTS 8 float
0 0 0 1 0 0 1 1 0 
0 1 0 0 0 1 1 0 1 
1 1 1 0 1 1 

CELLS 1 9
8 0 1 2 3 4 5 6 7 

CELL_TYPES 1
12

POINT_DATA 8
VECTORS displacement float
0 0 0
-0.0506394 0 0
-0.0506394 -0.0506394 0
0 -0.0506394 0
0 0 0.185
-0.0506394 0 0.185
-0.0506394 -0.0506394 0.185
0 -0.0506394 0.185

CELL_DATA 1
SCALARS part_id int
LOOKUP_TABLE default
0
TENSORS stress float
-1.23041e-14 9.45195e-18 3.9961e-18
9.45195e-18 -1.23505e-14 -6.09803e-19
3.9961e-18 -6.09803e-19 0.0931137

SCALARS damage float
LOOKUP_TABLE default
0.485895
