# vtk DataFile Version 3.0
time 0.06
ASCII
DATASET UNSTRUCTURED_GRID
POINTS 8 float
0 0 0 1 0 0 1 1 0 
0 1 0 0 0 1 1 0 1 
1 1 1 0 1 1 

CELLS 1 9
8 0 1 2 3 4 5 6 7 

CELL_TYPES 1
12

POINT_DATA 8
VECTORS displacement float
0 0 0
-0.00885965 0 0
-0.00885965 -0.00885965 0
0 -0.00885965 0
0 0 0.03
-0.00885965 0 0.03
-0.00885965 -0.00885965 0.03
0 -0.00885965 0.03

CELL_DATA 1
SCALARS part_id int
LOOKUP_TABLE default
0
TENSORS stress float
-4.88085e-13 -2.28909e-18 -4.16297e-18
-2.28909e-18 -4.88098e-13 9.08896e-18
-4.16297e-18 9.08896e-18 0.0174278

SCALARS damage float
LOOKUP_TABLE default
0.41625
