# vtk DataFile Version 3.0
time 0.2
ASCII
DATASET UNSTRUCTURED_GRID
POINTS 8 float
0 0 0 1 0 0 1 1 0 
0 1 0 0 0 1 1 0 1 
1 1 1 0 1 1 

CELLS 1 9
8 0 1 2 3 4 5 6 7 

CELL_TYPES 1
12

POINT_DATA 8
VECTORS displacement float
0 0 0
-0.0285071 0 0
-0.0285071 -0.0285071 0
0 -0.0285071 0
0 0 0.1
-0.0285071 0 0.1
-0.0285071 -0.0285071 0.1
0 -0.0285071 0.1

CELL_DATA 1
SCALARS part_id int
LOOKUP_TABLE default
0
TENSORS stress float
-3.96962e-14 6.56329e-18 -1.30051e-18
6.56329e-18 -3.96962e-14 -2.60102e-18
-1.30051e-18 -2.60102e-18 0.0518361

SCALARS damage float
LOOKUP_TABLE default
0.474386
