# vtk DataFile Version 3.0
time 0.49
ASCII
DATASET UNSTRUCTURED_GRID
POINTS 8 float
0 0 0 1 0 0 1 1 0 
0 1 0 0 0 1 1 0 1 
1 1 1 0 1 1 

CELLS 1 9
8 0 1 2 3 4 5 6 7 

CELL_TYPES 1
12

POINT_DATA 8
VECTORS displacement float
0 0 0
-0.0652564 0 0
-0.0652564 -0.0652564 0
0 -0.0652564 0
0 0 0.245
-0.0652564 0 0.245
-0.0652564 -0.0652564 0.245
0 -0.0652564 0.245

CELL_DATA 1
SCALARS part_id int
LOOKUP_TABLE default
0
TENSORS stress float
-7.45401e-15 -1.75704e-18 1.36513e-18
-1.75704e-18 -7.4642e-15 1.27815e-17
1.36513e-18 1.27815e-17 0.122133

SCALARS damage float
LOOKUP_TABLE default
0.489219
