# vtk DataFile Version 3.0
time 0.44
ASCII
DATASET UNSTRUCTURED_GRID
POINTS 8 float
0 0 0 1 0 0 1 1 0 
0 1 0 0 0 1 1 0 1 
1 1 1 0 1 1 

CELLS 1 9
8 0 1 2 3 4 5 6 7 

CELL_TYPES 1
12

POINT_DATA 8
VECTORS displacement float
0 0 0
-0.0592605 0 0
-0.0592605 -0.0592605 0
0 -0.0592605 0
0 0 0.22
-0.0592605 0 0.22
-0.0592605 -0.0592605 0.22
0 -0.0592605 0.22

CELL_DATA 1
SCALARS part_id int
LOOKUP_TABLE default
0
TENSORS stress float
-8.99232e-15 6.24988e-18 1.48595e-17
6.24988e-18 -8.99809e-15 4.6409e-18
1.48595e-17 4.6409e-18 0.110044

SCALARS damage float
LOOKUP_TABLE default
0.488053
