# vtk DataFile Version 3.0
time 0.43
ASCII
DATASET UNSTRUCTURED_GRID
POINTS 8 float
0 0 0 1 0 0 1 1 0 
0 1 0 0 0 1 1 0 1 
1 1 1 0 1 1 

CELLS 1 9
8 0 1 2 3 4 5 6 7 

CELL_TYPES 1
12

POINT_DATA 8
VECTORS displacement float
0 0 0
-0.0580454 0 0
-0.0580454 -0.0580454 0
0 -0.0580454 0
0 0 0.215
-0.0580454 0 0.215
-0.0580454 -0.0580454 0.215
0 -0.0580454 0.215

CELL_DATA 1
SCALARS part_id int
LOOKUP_TABLE default
0
TENSORS stress float
-9.40216e-15 2.68747e-18 9.05138e-18
2.68747e-18 -9.41726e-15 1.13213e-17
9.05138e-18 1.13213e-17 0.107626

SCALARS damage float
LOOKUP_TABLE default
0.487788
