# vtk DataFile Version 3.0
time 0.22
ASCII
DATASET UNSTRUCTURED_GRID
POINTS 8 float
0 0 0 1 0 0 1 1 0 
0 1 0 0 0 1 1 0 1 
1 1 1 0 1 1 

CELLS 1 9
8 0 1 2 3 4 5 6 7 

CELL_TYPES 1
12

POINT_DATA 8
VECTORS displacement float
0 0 0
-0.0312044 0 0
-0.0312044 -0.0312044 0
0 -0.0312044 0
0 0 0.11
-0.0312044 0 0.11
-0.0312044 -0.0312044 0.11
0 -0.0312044 0.11

CELL_DATA 1
SCALARS part_id int
LOOKUP_TABLE default
0
TENSORS stress float
-3.27983e-14 -6.81874e-18 1.09748e-17
-6.81874e-18 -3.27556e-14 1.61799e-17
1.09748e-17 1.61799e-17 0.056713

SCALARS damage float
LOOKUP_TABLE default
0.476661
