# vtk DataFile Version 3.0
time 0.26
ASCII
DATASET UNSTRUCTURED_GRID
POINTS 8 float
0 0 0 1 0 0 1 1 0 
0 1 0 0 0 1 1 0 1 
1 1 1 0 1 1 

CELLS 1 9
8 0 1 2 3 4 5 6 7 

CELL_TYPES 1
12

POINT_DATA 8
VECTORS displacement float
0 0 0
-0.0365219 0 0
-0.0365219 -0.0365219 0
0 -0.0365219 0
0 0 0.13
-0.0365219 0 0.13
-0.0365219 -0.0365219 0.13
0 -0.0365219 0.13

CELL_DATA 1
SCALARS part_id int
LOOKUP_TABLE default
0
TENSORS stress float
-2.66644e-14 -7.62985e-18 1.64495e-17
-7.62985e-18 -2.66979e-14 1.01482e-17
1.64495e-17 1.01482e-17 0.0468063

SCALARS damage float
LOOKUP_TABLE default
0.633815
