# vtk DataFile Version 3.0
time 0.41
ASCII
DATASET UNSTRUCTURED_GRID
POINTS 8 float
0 0 0 1 0 0 1 1 0 
0 1 0 0 0 1 1 0 1 
1 1 1 0 1 1 

CELLS 1 9
8 0 1 2 3 4 5 6 7 

CELL_TYPES 1
12

POINT_DATA 8
VECTORS displacement float
0 0 0
-0.0555989 0 0
-0.0555989 -0.0555989 0
0 -0.0555989 0
0 0 0.205
-0.0555989 0 0.205
-0.0555989 -0.0555989 0.205
0 -0.0555989 0.205

CELL_DATA 1
SCALARS part_id int
LOOKUP_TABLE default
0
TENSORS stress float
-1.02033e-14 9.4154e-18 -7.07461e-18
9.4154e-18 -1.01924e-14 -3.08813e-18
-7.07461e-18 -3.08813e-18 0.0715368

SCALARS damage float
LOOKUP_TABLE default
0.643128
