# vtk DataFile Version 3.0
time 0.24
ASCII
DATASET UNSTRUCTURED_GRID
POINTS 8 float
0 0 0 1 0 0 1 1 0 
0 1 0 0 0 1 1 0 1 
1 1 1 0 1 1 

CELLS 1 9
8 0 1 2 3 4 5 6 7 

CELL_TYPES 1
12

POINT_DATA 8
VECTORS displacement float
0 0 0
-0.0338759 0 0
-0.0338759 -0.0338759 0
0 -0.0338759 0
0 0 0.12
-0.0338759 0 0.12
-0.0338759 -0.0338759 0.12
0 -0.0338759 0.12

CELL_DATA 1
SCALARS part_id int
LOOKUP_TABLE default
0
TENSORS stress float
-3.16715e-14 5.45034e-18 7.23986e-18
5.45034e-18 -3.16905e-14 7.7071e-18
7.23986e-18 7.7071e-18 0.043497

SCALARS damage float
LOOKUP_TABLE default
0.631696
