# vtk DataFile Version 3.0
time 0.2
ASCII
DATASET UNSTRUCTURED_GRID
POINTS 8 float
0 0 0 1 0 0 1 1 0 
0 1 0 0 0 1 1 0 1 
1 1 1 0 1 1 

CELLS 1 9
8 0 1 2 3 4 5 6 7 

CELL_TYPES 1
12

POINT_DATA 8
VECTORS displacement float
0 0 0
-0.0285071 0 0
-0.0285071 -0.0285071 0
0 -0.0285071 0
0 0 0.1
-0.0285071 0 0.1
-0.0285071 -0.0285071 0.1
0 -0.0285071 0.1

CELL_DATA 1
SCALARS part_id int
LOOKUP_TABLE default
0
TENSORS stress float
-4.68064e-14 -3.73419e-18 3.83176e-18
-3.73419e-18 -4.68064e-14 1.03061e-17
3.83176e-18 1.03061e-17 0.0368653

SCALARS damage float
LOOKUP_TABLE default
0.626189
