# vtk DataFile Version 3.0
time 0.3
ASCII
DATASET UNSTRUCTURED_GRID
POINTS 8 float
0 0 0 1 0 0 1 1 0 
0 1 0 0 0 1 1 0 1 
1 1 1 0 1 1 

CELLS 1 9
8 0 1 2 3 4 5 6 7 

CELL_TYPES 1
12

POINT_DATA 8
VECTORS displacement float
0 0 0
-0.0417394 0 0
-0.0417394 -0.0417394 0
0 -0.0417394 0
0 0 0.15
-0.0417394 0 0.15
-0.0417394 -0.0417394 0.15
0 -0.0417394 0.15

CELL_DATA 1
SCALARS part_id int
LOOKUP_TABLE default
0
TENSORS stress float
-1.97567e-14 6.58955e-18 2.14836e-17
6.58955e-18 -1.97536e-14 1.86718e-17
2.14836e-17 1.86718e-17 0.0534141

SCALARS damage float
LOOKUP_TABLE default
0.637207
