# vtk DataFile Version 3.0
time 0.15
ASCII
DATASET UNSTRUCTURED_GRID
POINTS 8 float
0 0 0 1 0 0 1 1 0 
0 1 0 0 0 1 1 0 1 
1 1 1 0 1 1 

CELLS 1 9
8 0 1 2 3 4 5 6 7 

CELL_TYPES 1
12

POINT_DATA 8
VECTORS displacement float
0 0 0
-0.0216473 0 0
-0.0216473 -0.0216473 0
0 -0.0216473 0
0 0 0.075
-0.0216473 0 0.075
-0.0216473 -0.0216473 0.075
0 -0.0216473 0.075

CELL_DATA 1
SCALARS part_id int
LOOKUP_TABLE default
0
TENSORS stress float
-8.70804e-14 9.76497e-18 -9.38841e-19
9.76497e-18 -8.70486e-14 1.07296e-17
-9.38841e-19 1.07296e-17 0.0285456

SCALARS damage float
LOOKUP_TABLE default
0.61518
