# vtk DataFile Version 3.0
time 0.38
ASCII
DATASET UNSTRUCTURED_GRID
POINTS 8 float
0 0 0 1 0 0 1 1 0 
0 1 0 0 0 1 1 0 1 
1 1 1 0 1 1 

CELLS 1 9
8 0 1 2 3 4 5 6 7 

CELL_TYPES 1
12

POINT_DATA 8
VECTORS displacement float
0 0 0
-0.0518877 0 0
-0.0518877 -0.0518877 0
0 -0.0518877 0
0 0 0.19
-0.0518877 0 0.19
-0.0518877 -0.0518877 0.19
0 -0.0518877 0.19

CELL_DATA 1
SCALARS part_id int
LOOKUP_TABLE default
0
TENSORS stress float
-1.2021e-14 5.71843e-18 1.99371e-18
5.71843e-18 -1.20244e-14 1.61233e-18
1.99371e-18 1.61233e-18 0.0665989

SCALARS damage float
LOOKUP_TABLE default
0.641852
