# vtk DataFile Version 3.0
time 0.28
ASCII
DATASET UNSTRUCTURED_GRID
POINTS 8 float
0 0 0 1 0 0 1 1 0 
0 1 0 0 0 1 1 0 1 
1 1 1 0 1 1 

CELLS 1 9
8 0 1 2 3 4 5 6 7 

CELL_TYPES 1
12

POINT_DATA 8
VECTORS displacement float
0 0 0
-0.0391429 0 0
-0.0391429 -0.0391429 0
0 -0.0391429 0
0 0 0.14
-0.0391429 0 0.14
-0.0391429 -0.0391429 0.14
0 -0.0391429 0.14

CELL_DATA 1
SCALARS part_id int
LOOKUP_TABLE default
0
TENSORS stress float
-2.27765e-14 4.43878e-18 3.55479e-18
4.43878e-18 -2.27654e-14 -3.21624e-18
3.55479e-18 -3.21624e-18 0.0501119

SCALARS damage float
LOOKUP_TABLE default
0.635632
