# vtk DataFile Version 3.0
time 0.35
ASCII
DATASET UNSTRUCTURED_GRID
POINTS 8 float
0 0 0 1 0 0 1 1 0 
0 1 0 0 0 1 1 0 1 
1 1 1 0 1 1 

CELLS 1 9
8 0 1 2 3 4 5 6 7 

CELL_TYPES 1
12

POINT_DATA 8
VECTORS displacement float
0 0 0
-0.0481257 0 0
-0.0481257 -0.0481257 0
0 -0.0481257 0
0 0 0.175
-0.0481257 0 0.175
-0.0481257 -0.0481257 0.175
0 -0.0481257 0.175

CELL_DATA 1
SCALARS part_id int
LOOKUP_TABLE default
0
TENSORS stress float
-1.42859e-14 -2.78903e-18 9.40148e-18
-2.78903e-18 -1.429e-14 2.26246e-17
9.40148e-18 2.26246e-17 0.0616583

SCALARS damage float
LOOKUP_TABLE default
0.640358
