# vtk DataFile Version 3.0
time 0.16
ASCII
DATASET UNSTRUCTURED_GRID
POINTS 8 float
0 0 0 1 0 0 1 1 0 
0 1 0 0 0 1 1 0 1 
1 1 1 0 1 1 

CELLS 1 9
8 0 1 2 3 4 5 6 7 

CELL_TYPES 1
12

POINT_DATA 8
VECTORS displacement float
0 0 0
-0.0230328 0 0
-0.0230328 -0.0230328 0
0 -0.0230328 0
0 0 0.08
-0.0230328 0 0.08
-0.0230328 -0.0230328 0.08
0 -0.0230328 0.08

CELL_DATA 1
SCALARS part_id int
LOOKUP_TABLE default
0
TENSORS stress float
-7.57216e-14 -5.79837e-18 5.74218e-18
-5.79837e-18 -7.57216e-14 1.89503e-18
5.74218e-18 1.89503e-18 0.0302125

SCALARS damage float
LOOKUP_TABLE default
0.617932
