# vtk DataFile Version 3.0
time 0.06
ASCII
DATASET UNSTRUCTURED_GRID
POINTS 8 float
0 0 0 1 0 0 1 1 0 
0 1 0 0 0 1 1 0 1 
1 1 1 0 1 1 

CELLS 1 9
8 0 1 2 3 4 5 6 7 

CELL_TYPES 1
12

POINT_DATA 8
VECTORS displacement float
0 0 0
-0.00885965 0 0
-0.00885965 -0.00885965 0
0 -0.00885965 0
0 0 0.03
-0.00885965 0 0.03
-0.00885965 -0.00885965 0.03
0 -0.00885965 0.03

CELL_DATA 1
SCALARS part_id int
LOOKUP_TABLE default
0
TENSORS stress float
-6.24338e-13 -1.5312e-17 -1.37703e-18
-1.5312e-17 -6.24357e-13 1.37472e-17
-1.37703e-18 1.37472e-17 0.0134511

SCALARS damage float
LOOKUP_TABLE default
0.54945
