# vtk DataFile Version 3.0
time 0.02
ASCII
DATASET UNSTRUCTURED_GRID
POINTS 8 float
0 0 0 1 0 0 1 1 0 
0 1 0 0 0 1 1 0 1 
1 1 1 0 1 1 

CELLS 1 9
8 0 1 2 3 4 5 6 7 

CELL_TYPES 1
12

POINT_DATA 8
VECTORS displacement float
0 0 0
-0.0029842 0 0
-0.0029842 -0.0029842 0
0 -0.0029842 0
0 0 0.01
-0.0029842 0 0.01
-0.0029842 -0.0029842 0.01
0 -0.0029842 0.01

CELL_DATA 1
SCALARS part_id int
LOOKUP_TABLE default
0
TENSORS stress float
-3.46e-12 1.244e-18 2.03732e-17
1.244e-18 -3.46004e-12 -2.49339e-18
2.03732e-17 -2.49339e-18 0.00624786

SCALARS damage float
LOOKUP_TABLE default
0.374159
