# vtk DataFile Version 3.0
time 0.49
ASCII
DATASET UNSTRUCTURED_GRID
POINTS 8 float
0 0 0 1 0 0 1 1 0 
0 1 0 0 0 1 1 0 1 
1 1 1 0 1 1 

CELLS 1 9
8 0 1 2 3 4 5 6 7 

CELL_TYPES 1
12

POINT_DATA 8
VECTORS displacement float
0 0 0
-0.0652564 0 0
-0.0652564 -0.0652564 0
0 -0.0652564 0
0 0 0.245
-0.0652564 0 0.245
-0.0652564 -0.0652564 0.245
0 -0.0652564 0.245

CELL_DATA 1
SCALARS part_id int
LOOKUP_TABLE default
0
TENSORS stress float
-7.0762e-15 -1.29976e-17 1.60944e-17
-1.29976e-17 -7.09217e-15 2.40118e-17
1.60944e-17 2.40118e-17 0.0847003

SCALARS damage float
LOOKUP_TABLE default
0.645769
