# vtk DataFile Version 3.0
time 0.34
ASCII
DATASET UNSTRUCTURED_GRID
POINTS 8 float
0 0 0 1 0 0 1 1 0 
0 1 0 0 0 1 1 0 1 
1 1 1 0 1 1 

CELLS 1 9
8 0 1 2 3 4 5 6 7 

CELL_TYPES 1
12

POINT_DATA 8
VECTORS displacement float
0 0 0
-0.0468602 0 0
-0.0468602 -0.0468602 0
0 -0.0468602 0
0 0 0.17
-0.0468602 0 0.17
-0.0468602 -0.0468602 0.17
0 -0.0468602 0.17

CELL_DATA 1
SCALARS part_id int
LOOKUP_TABLE default
0
TENSORS stress float
-1.5239e-14 -6.46513e-19 4.89392e-18
-6.46513e-19 -1.52062e-14 5.38879e-18
4.89392e-18 5.38879e-18 0.0600105

SCALARS damage float
LOOKUP_TABLE default
0.639802
