# vtk DataFile Version 3.0
time 0.29
ASCII
DATASET UNSTRUCTURED_GRID
POINTS 8 float
0 0 0 1 0 0 1 1 0 
0 1 0 0 0 1 1 0 1 
1 1 1 0 1 1 

CELLS 1 9
8 0 1 2 3 4 5 6 7 

CELL_TYPES 1
12

POINT_DATA 8
VECTORS displacement float
0 0 0
-0.0404442 0 0
-0.0404442 -0.0404442 0
0 -0.0404442 0
0 0 0.145
-0.0404442 0 0.145
-0.0404442 -0.0404442 0.145
0 -0.0404442 0.145

CELL_DATA 1
SCALARS part_id int
LOOKUP_TABLE default
0
TENSORS stress float
-2.1225e-14 6.62325e-18 1.48845e-17
6.62325e-18 -2.12364e-14 1.49532e-18
1.48845e-17 1.49532e-18 0.0517634

SCALARS damage float
LOOKUP_TABLE default
0.636446
