# vtk DataFile Version 3.0
time 0.1
ASCII
DATASET UNSTRUCTURED_GRID
POINTS 27 float
0 0 0 0.5 0 0 1 0 0 
0 0.5 0 0.5 0.5 0 1 0.5 0 
0 1 0 0.5 1 0 1 1 0 
0 0 0.5 0.5 0 0.5 1 0 0.5 
0 0.5 0.5 0.5 0.5 0.5 1 0.5 0.5 
0 1 0.5 0.5 1 0.5 1 1 0.5 
0 0 1 0.5 0 1 1 0 1 
0 0.5 1 0.5 0.5 1 1 0.5 1 
0 1 1 0.5 1 1 1 1 1 

CELLS 8 72
8 0 1 4 3 9 10 13 12 
8 1 2 5 4 10 11 14 13 
8 3 4 7 6 12 13 16 15 
8 4 5 8 7 13 14 17 16 
8 9 10 13 12 18 19 22 21 
8 10 11 14 13 19 20 23 22 
8 12 13 16 15 21 22 25 24 
8 13 14 17 16 22 23 26 25 

CELL_TYPES 8
12
12
12
12
12
12
12
12

POINT_DATA 27
VECTORS displacement float
0 0 0
-0.00730753 0 0
-0.0146151 0 0
0 -0.00730753 0
-0.00730753 -0.00730753 0
-0.0146151 -0.00730753 0
0 -0.0146151 0
-0.00730753 -0.0146151 0
-0.0146151 -0.0146151 0
0 0 0.025
-0.00730753 0 0.025
-0.0146151 0 0.025
0 -0.00730753 0.025
-0.00730753 -0.00730753 0.025
-0.0146151 -0.00730753 0.025
0 -0.0146151 0.025
-0.00730753 -0.0146151 0.025
-0.0146151 -0.0146151 0.025
0 0 0.05
-0.00730753 0 0.05
-0.0146151 0 0.05
0 -0.00730753 0.05
-0.00730753 -0.00730753 0.05
-0.0146151 -0.00730753 0.05
0 -0.0146151 0.05
-0.00730753 -0.0146151 0.05
-0.0146151 -0.0146151 0.05

CELL_DATA 8
SCALARS part_id int
LOOKUP_TABLE default
0
0
0
0
0
0
0
0
TENSORS stress float
3.20817e-10 2.42396e-12 3.51866e-11
2.42396e-12 3.20817e-10 3.51866e-11
3.51866e-11 3.51866e-11 0.0258799

2.25772e-10 4.0304e-12 8.59835e-11
4.0304e-12 2.68159e-10 3.31403e-11
8.59835e-11 3.31403e-11 0.0258799

2.68159e-10 4.03043e-12 3.31403e-11
4.03043e-12 2.25772e-10 8.59834e-11
3.31403e-11 8.59834e-11 0.0258799

1.94916e-10 9.61312e-12 7.84207e-11
9.61312e-12 1.94917e-10 7.84207e-11
7.84207e-11 7.84207e-11 0.0258799

-3.22565e-10 -2.42394e-12 3.51865e-11
-2.42394e-12 -3.22565e-10 3.51866e-11
3.51865e-11 3.51866e-11 0.0258799

-2.27519e-10 -4.03043e-12 8.59835e-11
-4.03043e-12 -2.69906e-10 3.31403e-11
8.59835e-11 3.31403e-11 0.0258799

-2.69907e-10 -4.0304e-12 3.31403e-11
-4.0304e-12 -2.27519e-10 8.59835e-11
3.31403e-11 8.59835e-11 0.0258799

-1.96664e-10 -9.61315e-12 7.84207e-11
-9.61315e-12 -1.96664e-10 7.84207e-11
7.84207e-11 7.84207e-11 0.0258799

SCALARS damage float
LOOKUP_TABLE default
0.478376
0.478376
0.478376
0.478376
0.478376
0.478376
0.478376
0.478376
