# vtk DataFile Version 3.0
time 0.31
ASCII
DATASET UNSTRUCTURED_GRID
POINTS 27 float
0 0 0 0.5 0 0 1 0 0 
0 0.5 0 0.5 0.5 0 1 0.5 0 
0 1 0 0.5 1 0 1 1 0 
0 0 0.5 0.5 0 0.5 1 0 0.5 
0 0.5 0.5 0.5 0.5 0.5 1 0.5 0.5 
0 1 0.5 0.5 1 0.5 1 1 0.5 
0 0 1 0.5 0 1 1 0 1 
0 0.5 1 0.5 0.5 1 1 0.5 1 
0 1 1 0.5 1 1 1 1 1 

CELLS 8 72
8 0 1 4 3 9 10 13 12 
8 1 2 5 4 10 11 14 13 
8 3 4 7 6 12 13 16 15 
8 4 5 8 7 13 14 17 16 
8 9 10 13 12 18 19 22 21 
8 10 11 14 13 19 20 23 22 
8 12 13 16 15 21 22 25 24 
8 13 14 17 16 22 23 26 25 

CELL_TYPES 8
12
12
12
12
12
12
12
12

POINT_DATA 27
VECTORS displacement float
0 0 0
-0.0215142 0 0
-0.0430285 0 0
0 -0.0215142 0
-0.0215142 -0.0215142 0
-0.0430285 -0.0215142 0
0 -0.0430285 0
-0.0215142 -0.0430285 0
-0.0430285 -0.0430285 0
0 0 0.0775
-0.0215142 0 0.0775
-0.0430285 0 0.0775
0 -0.0215142 0.0775
-0.0215142 -0.0215142 0.0775
-0.0430285 -0.0215142 0.0775
0 -0.0430285 0.0775
-0.0215142 -0.0430285 0.0775
-0.0430285 -0.0430285 0.0775
0 0 0.155
-0.0215142 0 0.155
-0.0430285 0 0.155
0 -0.0215142 0.155
-0.0215142 -0.0215142 0.155
-0.0430285 -0.0215142 0.155
0 -0.0430285 0.155
-0.0215142 -0.0430285 0.155
-0.0430285 -0.0430285 0.155

CELL_DATA 8
SCALARS part_id int
LOOKUP_TABLE default
0
0
0
0
0
0
0
0
TENSORS stress float
8.72471e-11 7.00802e-13 1.11579e-11
7.00802e-13 8.72472e-11 1.11578e-11
1.11579e-11 1.11578e-11 0.0611086

5.94078e-11 1.19753e-12 2.97164e-11
1.19753e-12 7.22047e-11 1.05187e-11
2.97164e-11 1.05187e-11 0.0611086

7.22047e-11 1.19755e-12 1.05187e-11
1.19755e-12 5.94079e-11 2.97163e-11
1.05187e-11 2.97163e-11 0.0611086

5.06073e-11 2.6032e-12 2.71837e-11
2.6032e-12 5.06074e-11 2.71838e-11
2.71837e-11 2.71838e-11 0.0611086

-8.75845e-11 -7.00786e-13 1.11578e-11
-7.00786e-13 -8.75846e-11 1.11578e-11
1.11578e-11 1.11578e-11 0.0611086

-5.97454e-11 -1.19754e-12 2.97163e-11
-1.19754e-12 -7.25422e-11 1.05187e-11
2.97163e-11 1.05187e-11 0.0611086

-7.25422e-11 -1.19753e-12 1.05187e-11
-1.19753e-12 -5.97453e-11 2.97163e-11
1.05187e-11 2.97163e-11 0.0611086

-5.09447e-11 -2.60317e-12 2.71838e-11
-2.60317e-12 -5.09446e-11 2.71838e-11
2.71838e-11 2.71838e-11 0.0611086

SCALARS damage float
LOOKUP_TABLE default
0.598172
0.598172
0.598172
0.598172
0.598172
0.598172
0.598172
0.598172
