# vtk DataFile Version 3.0
time 0.45
ASCII
DATASET UNSTRUCTURED_GRID
POINTS 27 float
0 0 0 0.5 0 0 1 0 0 
0 0.5 0 0.5 0.5 0 1 0.5 0 
0 1 0 0.5 1 0 1 1 0 
0 0 0.5 0.5 0 0.5 1 0 0.5 
0 0.5 0.5 0.5 0.5 0.5 1 0.5 0.5 
0 1 0.5 0.5 1 0.5 1 1 0.5 
0 0 1 0.5 0 1 1 0 1 
0 0.5 1 0.5 0.5 1 1 0.5 1 
0 1 1 0.5 1 1 1 1 1 

CELLS 8 72
8 0 1 4 3 9 10 13 12 
8 1 2 5 4 10 11 14 13 
8 3 4 7 6 12 13 16 15 
8 4 5 8 7 13 14 17 16 
8 9 10 13 12 18 19 22 21 
8 10 11 14 13 19 20 23 22 
8 12 13 16 15 21 22 25 24 
8 13 14 17 16 22 23 26 25 

CELL_TYPES 8
12
12
12
12
12
12
12
12

POINT_DATA 27
VECTORS displacement float
0 0 0
-0.0302351 0 0
-0.0604703 0 0
0 -0.0302351 0
-0.0302351 -0.0302351 0
-0.0604703 -0.0302351 0
0 -0.0604703 0
-0.0302351 -0.0604703 0
-0.0604703 -0.0604703 0
0 0 0.1125
-0.0302351 0 0.1125
-0.0604703 0 0.1125
0 -0.0302351 0.1125
-0.0302351 -0.0302351 0.1125
-0.0604703 -0.0302351 0.1125
0 -0.0604703 0.1125
-0.0302351 -0.0604703 0.1125
-0.0604703 -0.0604703 0.1125
0 0 0.225
-0.0302351 0 0.225
-0.0604703 0 0.225
0 -0.0302351 0.225
-0.0302351 -0.0302351 0.225
-0.0604703 -0.0302351 0.225
0 -0.0604703 0.225
-0.0302351 -0.0604703 0.225
-0.0604703 -0.0604703 0.225

CELL_DATA 8
SCALARS part_id int
LOOKUP_TABLE default
0
0
0
0
0
0
0
0
TENSORS stress float
5.08924e-11 4.08808e-13 6.84269e-12
4.08808e-13 5.08925e-11 6.84269e-12
6.84269e-12 6.84269e-12 0.0842247

3.46688e-11 7.09425e-13 1.90538e-11
7.09425e-13 4.21887e-11 6.45005e-12
1.90538e-11 6.45005e-12 0.0842247

4.21886e-11 7.09422e-13 6.45006e-12
7.09422e-13 3.46688e-11 1.90539e-11
6.45006e-12 1.90539e-11 0.0842247

2.95833e-11 1.45929e-12 1.7446e-11
1.45929e-12 2.95833e-11 1.7446e-11
1.7446e-11 1.7446e-11 0.0842247

-5.10736e-11 -4.08801e-13 6.8427e-12
-4.08801e-13 -5.10736e-11 6.84266e-12
6.8427e-12 6.84266e-12 0.0842247

-3.48498e-11 -7.09408e-13 1.90539e-11
-7.09408e-13 -4.23697e-11 6.45004e-12
1.90539e-11 6.45004e-12 0.0842247

-4.23698e-11 -7.09429e-13 6.45008e-12
-7.09429e-13 -3.48498e-11 1.90538e-11
6.45008e-12 1.90538e-11 0.0842247

-2.97644e-11 -1.45927e-12 1.7446e-11
-1.45927e-12 -2.97644e-11 1.7446e-11
1.7446e-11 1.7446e-11 0.0842247

SCALARS damage float
LOOKUP_TABLE default
0.616782
0.616782
0.616782
0.616782
0.616782
0.616782
0.616782
0.616782
